<svg id="Layer_1" data-name="Layer 1" xmlns="http://www.w3.org/2000/svg" width="1000" height="1000" viewBox="0 0 1000 1000"><defs><style>.cls-1{fill:#fff;}.cls-2{fill:#fc7272;}.cls-3{fill:#a8542a;}.cls-4{fill:#458dc9;}.cls-5{stroke:#000;stroke-miterlimit:10;stroke-width:1.1606px;}.cls-6{fill:#ffc41f;}.cls-7{fill:#ea2f2f;}.cls-8{fill:#389b48;}.cls-9{fill:#e2e2e2;}</style></defs><path class="cls-1" d="M730.6923,611.2956H69.1465V226.9248a41.1907,41.1907,0,0,1,41.1907-41.1907H689.5016a41.1907,41.1907,0,0,1,41.1907,41.1907Z"/><path d="M730.6923,609.5547H79.1186a87.29,87.29,0,0,0-8.8473,0,11.076,11.076,0,0,1-1.1248,0l1.7409,1.7409V239.1083c0-3.9484-.0278-7.8979,0-11.8462.142-20.1792,15.3728-37.7785,35.7513-39.6233,8.29-.7505,16.8511-.1638,25.1553-.1638H684.6115a66.7431,66.7431,0,0,1,11.7326.5836c19.0158,3.3725,32.5375,20.2,32.6073,39.3248.0476,13.045,0,26.091,0,39.1361V611.2956a1.7419,1.7419,0,0,0,3.4818,0V237.64c0-3.5389.0308-7.0795,0-10.6184-.1782-20.4413-14.8352-38.6812-35.1635-42.32-9.07-1.6235-19.003-.708-28.1552-.708H114.701c-4.9827,0-9.8621.054-14.7687,1.27-19.1289,4.7411-32.37,22.3123-32.5267,41.8435-.0994,12.3723,0,24.75,0,37.122V611.2956a1.7663,1.7663,0,0,0,1.7409,1.741H703.8383c8.5719,0,17.158.1436,25.7291,0,.3748-.0063.75,0,1.1249,0A1.742,1.742,0,0,0,730.6923,609.5547Z"/><path class="cls-2" d="M357.07,562.9844l59.0975,66.4912-210.65,23.7924-8.4625-45.9388a60.9681,60.9681,0,0,1,5.5528-38.5593l2.9258-5.7855"/><path d="M355.8394,564.2154l5.8516,6.5837L375.8323,586.71l17.0359,19.1673L407.6691,622.53l4.8541,5.4614a29.8516,29.8516,0,0,0,2.31,2.5994,1.3493,1.3493,0,0,1,.1034.1163l1.231-2.9719-5.6153.6342L395.19,630.1041l-22.6368,2.5568-27.7314,3.1322-30.2535,3.417-30.5369,3.4491-28.4783,3.2165-24.163,2.7292-17.304,1.9544c-2.71.3061-5.5429.4092-8.2223.9287-.1128.0219-.2317.0262-.346.0391l1.6787,1.2781-5.04-27.3592-2.8887-15.6817a69.4319,69.4319,0,0,1-1.2422-18.8654,58.6851,58.6851,0,0,1,4.924-18.8218c1.2562-2.7852,2.709-5.4882,4.0875-8.2141,1.0088-1.9948-1.994-3.76-3.0065-1.7573-1.0765,2.1287-2.1733,4.2483-3.2263,6.3887a62.6084,62.6084,0,0,0-5.5732,17.103,67.2226,67.2226,0,0,0,.4142,23.6536l6.1257,33.2539,2.0679,11.2259a1.7378,1.7378,0,0,0,1.6788,1.2781l5.6152-.6342,15.3627-1.7352,22.6368-2.5567,27.7314-3.1322,30.2535-3.4171,30.5368-3.4491,28.4783-3.2165,24.163-2.7292,17.304-1.9544c2.7408-.31,5.4829-.6088,8.2224-.9287.1153-.0135.2307-.0261.346-.0391a1.7669,1.7669,0,0,0,1.231-2.9719l-5.8516-6.5837L397.406,605.75,380.37,586.5831,365.5692,569.93c-2.3714-2.6681-4.6305-5.5435-7.1644-8.0607-.0366-.0364-.0691-.0778-.1034-.1163-1.4916-1.6783-3.9468.7914-2.462,2.462Z"/><path d="M689.5016,681.7029H110.3372a41.1907,41.1907,0,0,1-41.1907-41.1907V598.72H730.6923v41.7927A41.1907,41.1907,0,0,1,689.5016,681.7029Z"/><path d="M689.5016,679.962H134.2911c-7.8879,0-15.7779.054-23.6656,0C93.21,679.8428,77.4822,668.5649,72.5,651.7134c-1.74-5.8866-1.6125-11.81-1.6125-17.8555V598.72L69.1465,600.46H720.72a87.2876,87.2876,0,0,0,8.8472,0,11.1071,11.1071,0,0,1,1.1249,0l-1.7409-1.7409V629.481c0,3.6742.0339,7.35,0,11.0243a39.4429,39.4429,0,0,1-39.45,39.4567c-2.239.0248-2.2449,3.5067,0,3.4818,19.787-.22,37.4753-13.9337,41.8676-33.3987,1.1715-5.1916,1.064-10.4206,1.064-15.6958V598.72a1.7662,1.7662,0,0,0-1.7409-1.7409H96.0005c-8.572,0-17.158-.1436-25.7292,0-.3747.0063-.75,0-1.1248,0a1.7662,1.7662,0,0,0-1.7409,1.7409v36.1069c0,6.0289.0037,11.95,1.7369,17.8126A43.3771,43.3771,0,0,0,87.0642,676.59c11.3483,7.3652,23.524,6.8541,36.2307,6.8541H659.718c9.5208,0,19.0526.133,28.5728,0,.4034-.0056.8073,0,1.2108,0A1.7419,1.7419,0,0,0,689.5016,679.962Z"/><path class="cls-3" d="M251.0252,410.0473l-1.3793-28.8938c-4.4756-1.4613-7.9546-3.6661-9.7486-6.6677-8.8382-14.7893-7.8371-72.391-7.8371-72.391l66.9051-7.2433s16.1627,54.9162,7.8371,72.391c-2.8208,5.921-10.3988,10.3567-19.527,13.0616l3.6792,31.8071-8.8124,23.31"/><path d="M252.7661,410.0473,251.56,384.7717l-.1727-3.6182a1.8057,1.8057,0,0,0-1.2781-1.6787c-3.7491-1.2515-7.3591-3.1744-9.2267-6.8056a32.1376,32.1376,0,0,1-2.25-6.26,115.9634,115.9634,0,0,1-3.0369-18.0473c-1.317-12.5744-1.74-25.25-1.8182-37.8879-.0174-2.7925-.0238-5.5865.0243-8.3788l-1.7409,1.7409,22.6954-2.457,35.8994-3.8866,8.31-.9-1.6787-1.2782c2.4961,8.4879,4.5345,17.1384,6.29,25.8063a205.7085,205.7085,0,0,1,3.3822,21.8662c.5786,6.26.9623,12.9237-.3077,19.0309a15.4835,15.4835,0,0,1-4.7438,8.8464c-4.15,3.8972-9.72,6.1491-15.0948,7.7613a1.76,1.76,0,0,0-1.2782,1.6787l2.8458,24.6017.6512,5.6292a9.5606,9.5606,0,0,0,.1563,1.352c.1393.5158.2611-.4636.0156-.0468a27.6051,27.6051,0,0,0-1.5779,4.174l-2.7557,7.2892-4.4062,11.6549c-.7932,2.0982,2.5713,3.0051,3.3574.9257l8.533-22.5709a3.6169,3.6169,0,0,0,.261-1.8988l-.5433-4.6968-1.8067-15.6191-1.2486-10.7943-1.2781,1.6787c8.52-2.5559,18.3509-7.0135,21.4678-16.0657,2.0419-5.93,1.9133-12.6511,1.5481-18.8278-.8555-14.4709-3.9266-28.8557-7.4695-42.8814-.83-3.285-1.6845-6.5681-2.6406-9.8192a1.76,1.76,0,0,0-1.6787-1.2781L276.27,295.5677l-35.8994,3.8865-8.31.9a1.7864,1.7864,0,0,0-1.7409,1.7409c-.1391,8.0749.0139,16.1649.3165,24.2339.2636,7.03.6746,14.06,1.3776,21.0609a129.3026,129.3026,0,0,0,3.0961,19.3176,36.9946,36.9946,0,0,0,2.766,7.7193c2.2816,4.4366,6.7324,6.8785,11.3076,8.4057l-1.2781-1.6787,1.2066,25.2756.1727,3.6182c.1065,2.2307,3.5889,2.2436,3.4818,0Z"/><path d="M273.0787,383.1362a43.7331,43.7331,0,0,0,17.2112-1.9691,1.7822,1.7822,0,0,0,1.2159-2.1416,1.7577,1.7577,0,0,0-2.1415-1.2159,41.16,41.16,0,0,1-16.2856,1.8447,1.7555,1.7555,0,0,0-1.7409,1.741,1.7758,1.7758,0,0,0,1.7409,1.7409Z"/><path d="M307.8976,272.1686c6.4768,3.77-.47,6.6478,3.5609,16.4433a17.1589,17.1589,0,0,1-8.8,22.1572c-14.119,6.4183-41.3833,7.7028-41.3833,7.7028l2.3828,26.9348c-.9453-8.7319-9.1427-19.8047-15.4-19.1272s-10.8391,3.3062-9.8692,12.2655c.642,5.93,6.7315,15.7289,10.4863,18.06l-9.9968,16.0116c-20.423,4.0883-30.0331-17.6384-21.2059-28.68l-5.8082-1.2478a14.9942,14.9942,0,0,1-11.7049-16.7009l.601-4.3734-3.1751-4.2412a14.9941,14.9941,0,0,1,3.5194-21.3491h0l-2.6473-10.5768a14.9941,14.9941,0,0,1,16.9558-18.44l1.554.2531,1.0532-3.7233a14.9941,14.9941,0,0,1,20.7512-9.5143l10.875,5.058,1.0846-1.9015a14.994,14.994,0,0,1,23.3986-3.3971l3.9093,3.7462,8.9976-6.0382a14.9942,14.9942,0,0,1,20.2975,3.3835l5.8513,7.7071-12.5892,3.5941"/><path d="M307.0189,273.6718a6.9057,6.9057,0,0,1,1.4011,1.0209c.0584.0585.3912.4672.2952.328.0652.0945.3245.5959.2121.354a4.1492,4.1492,0,0,1,.0231,2.0969,21.8728,21.8728,0,0,0-.2393,8.114c.3607,1.8482,1.1881,3.5167,1.7029,5.3147a15.3814,15.3814,0,0,1-2.79,13.884c-4.0338,4.9937-10.9968,6.6152-16.9664,8.0141a154.8223,154.8223,0,0,1-18.7722,3.0579c-3.5257.3794-7.0666.7063-10.61.8747a1.7585,1.7585,0,0,0-1.7409,1.7409l2.0855,23.5736.2973,3.3612h3.4819a29.0887,29.0887,0,0,0-6.54-14.7278c-2.8846-3.5489-6.8292-6.67-11.6281-6.011-4.1407.5682-8.0909,2.3356-9.7839,6.403-1.8975,4.5584-.7424,9.7722,1.1414,14.1188a40.7838,40.7838,0,0,0,4.4116,7.72,19.6789,19.6789,0,0,0,4.9963,5.1986l-.6246-2.3819-9.9968,16.0117,1.0405-.8c-6.0226,1.1666-12.3611-.0448-16.8493-4.4167a18.0112,18.0112,0,0,1-5.3936-13.989,13.5611,13.5611,0,0,1,2.7308-7.3646c.743-.9453.6448-2.6061-.7682-2.91-2.7453-.59-5.7849-.9293-8.3776-2.0477a13.3619,13.3619,0,0,1-7.9592-11.0833,21.4634,21.4634,0,0,1,.3568-4.9843c.1783-1.2971.6154-2.6691-.1847-3.7982-2.0824-2.9386-4.5224-5.5005-5.3363-9.1323a13.3258,13.3258,0,0,1,5.3491-13.6847,1.8061,1.8061,0,0,0,.8-1.966c-.8706-3.4781-1.7556-6.9528-2.6118-10.4345a13.4193,13.4193,0,0,1,6.9834-15.2307c2.9937-1.5116,6.1272-1.4816,9.3493-.9567a1.7869,1.7869,0,0,0,2.1415-1.216,30.69,30.69,0,0,1,2.1476-6.4265,13.274,13.274,0,0,1,17.1241-5.7591c1.74.7777,3.4582,1.6084,5.1863,2.4121l5.6641,2.6343a1.7811,1.7811,0,0,0,2.3819-.6245c1.3051-2.2882,2.5865-4.4912,4.7772-6.0669a13.56,13.56,0,0,1,8.7465-2.5128,13.2509,13.2509,0,0,1,8.2357,3.6435c1.312,1.232,2.5994,2.4909,3.8988,3.7361a1.77,1.77,0,0,0,2.11.2722l5.1106-3.43a48.21,48.21,0,0,1,5.7378-3.67,13.254,13.254,0,0,1,11.3728.0581,16.5791,16.5791,0,0,1,5.9935,5.4764l4.55,5.9927,1.04-2.5574-12.5892,3.5942c-2.1509.6141-1.2365,3.9747.9256,3.3575l12.5892-3.5942a1.7531,1.7531,0,0,0,1.0405-2.5574l-4.2227-5.5618c-1.8709-2.4642-3.6776-4.853-6.3772-6.5011a16.9133,16.9133,0,0,0-12.7367-1.9419c-2.875.7057-5.21,2.3006-7.6188,3.9168l-6.573,4.4111,2.11.2722c-3.068-2.94-5.9154-6.046-10.03-7.5058a16.92,16.92,0,0,0-16.4188,3.1422,22.2338,22.2338,0,0,0-4.6775,6.2683l2.3819-.6245c-3.6235-1.6853-7.2331-3.4046-10.8719-5.0565a16.9542,16.9542,0,0,0-20.911,5.4948c-1.8742,2.6265-2.5912,5.732-3.454,8.7817l2.1416-1.2159c-3.3389-.5438-6.5708-.7682-9.8308.3726a17.1164,17.1164,0,0,0-8.6991,6.8385,16.5333,16.5333,0,0,0-2.5145,10.9206,51.8132,51.8132,0,0,0,1.3889,6.1753l1.6515,6.598.8-1.966a16.8979,16.8979,0,0,0-7.1907,16.2438c.6548,4.6851,3.4924,8.0826,6.2218,11.7284l-.1755-1.3415c-.2,1.4549-.4034,2.9093-.6,4.3646a16.742,16.742,0,0,0,13.35,18.9436c1.7917.3892,3.5853.77,5.3779,1.1554l-.7682-2.91c-6.426,8.1765-4.1417,20.4441,3.5036,27.0483a21.5822,21.5822,0,0,0,15.9357,5.0292c1.4195-.1163,3.598-.07,4.51-1.3024.2191-.2961.3966-.6352.5915-.9474l3.0324-4.8569,6.3638-10.1927a1.7718,1.7718,0,0,0-.6246-2.3819c-3.09-1.9881-5.3138-5.9975-6.9745-9.1875-1.8721-3.5961-3.3614-7.679-2.6165-11.7948.6234-3.4447,3.094-5.1337,6.3633-5.8208a6.8258,6.8258,0,0,1,4.35.1686,13.8132,13.8132,0,0,1,4.4135,3.3981,25.1378,25.1378,0,0,1,6.6286,13.5416,1.7972,1.7972,0,0,0,1.7409,1.7409,1.7525,1.7525,0,0,0,1.741-1.7409l-2.0855-23.5736-.2974-3.3612-1.7409,1.7409a170.3,170.3,0,0,0,29.8261-3.9452c6.4919-1.4886,13.9633-3.3345,18.5505-8.5127a18.96,18.96,0,0,0,4.5945-9.655,19.46,19.46,0,0,0,.0229-5.7732,32.1617,32.1617,0,0,0-1.6375-5.5388,14.2678,14.2678,0,0,1-.7449-5.49c.0846-1.28.3855-2.5275.5551-3.7965.4168-3.1192-1.0221-5.2575-3.6658-6.8361-1.9284-1.1516-3.6814,1.8575-1.7573,3.0064Z"/><path d="M284.6625,325.8109a13.9305,13.9305,0,0,0-5.0845-1.2206,14.7189,14.7189,0,0,0-10.0446,3.3147,1.75,1.75,0,0,0,0,2.462,1.7852,1.7852,0,0,0,2.462,0,10.8505,10.8505,0,0,1,7.7348-2.2842c.1484.0114.2961.0289.4443.0414.3461.0294-.18-.0319.03.0014.24.0379.4789.0769.7169.125a13.1445,13.1445,0,0,1,1.28.3255c.2626.0813.5181.1785.7767.2711.3911.14-.4444-.2072-.0732-.03a1.7885,1.7885,0,0,0,2.3819-.6245,1.7562,1.7562,0,0,0-.6246-2.3819Z"/><path d="M306.3228,324.763a16.56,16.56,0,0,0-6.8643-.5249,10.1359,10.1359,0,0,0-7.83,4.4988c-3.5564,5.55.1141,12.2458,4.0726,16.4466q.5932.6294,1.2265,1.22a5.1043,5.1043,0,0,0,.5044.46c.3962.279.085-.17.176.0446.1564.3679.0882.5251.0025.6385.0638-.0843-.0527.06-.1864.1193a3.9987,3.9987,0,0,1-.6742.2315,10.0787,10.0787,0,0,1-2.4884.187c-2.241-.0161-2.2433,3.4657,0,3.4818,2.3628.017,5.5721-.2267,6.5964-2.7805a4.41,4.41,0,0,0-.1654-3.5717,12.9438,12.9438,0,0,0-2.0874-2.0356,22.5845,22.5845,0,0,1-1.8453-2.0846c-1.5163-1.9692-3.0987-4.6387-3.124-7.2075a6.11,6.11,0,0,1,4.07-5.7917,12.9629,12.9629,0,0,1,7.6906.0263c2.131.7089,3.0448-2.6525.9256-3.3574Z"/><path d="M258.8348,346.4476a38.7822,38.7822,0,0,0-2.0282-4.4269c-1.2465-2.3379-2.7811-4.7838-5.0237-6.2823a4.931,4.931,0,0,0-4.1931-.7182,1.7414,1.7414,0,0,0,.9256,3.3575c.1109-.0359.2239-.0588.3357-.09.338-.0958-.4376.006-.091.0137.1106.0025.2225-.0006.3333.001.4011.0059-.4156-.11-.0211.0017.0974.0276.1959.0488.2924.08.0484.0156.0968.0371.1455.0506.2369.0656-.1859-.0741-.1987-.087a4.1262,4.1262,0,0,0,.6434.3513c.1081.07.2093.1494.3164.22.1744.1152-.3-.2522-.1436-.1105.0441.04.0926.0755.1381.114.2248.19.4386.3929.6437.604.1812.1866.3555.38.5241.5781.0866.1017.1707.2054.2553.3088.0294.0359.2388.3046.052.0632-.1785-.2307.011.0164.0495.0682a30.1228,30.1228,0,0,1,3.2565,5.7969c.0859.1936.1687.3884.253.5827.0575.1323-.1959-.4733-.0546-.128.0273.0667.055.1332.0822.2.0509.1254.1017.2509.15.3774a1.7813,1.7813,0,0,0,2.1415,1.2159,1.7608,1.7608,0,0,0,1.216-2.1416Z"/><circle cx="301.2239" cy="335.4964" r="2.3639"/><path d="M298.0033,335.7508a3.44,3.44,0,0,0,.8137,1.9035,3.1962,3.1962,0,0,0,1.57.967,3.2808,3.2808,0,0,0,3.54-1.352,3.2285,3.2285,0,0,0-.063-3.6346,3.2291,3.2291,0,0,0-5.8607,2.1161.89.89,0,0,0,.87.87.88.88,0,0,0,.87-.87,2.6378,2.6378,0,0,1-.0129-.3266.6034.6034,0,0,1,.0134-.1919c-.0058.0118-.0425.2079-.0024.0435.0249-.1019.0465-.2031.08-.3026l.0207-.0587q.0522-.1342-.0168.036c-.0018-.044.0641-.13.0839-.1652a1.0317,1.0317,0,0,1,.1671-.2585c-.1334.1138-.0595.0725-.02.0324.043-.044.0825-.0911.1265-.1344q.0439-.0432.09-.0841l.0467-.04q.11-.09-.03.0224c.0322-.0695.2305-.1461.2923-.1779.0528-.0272.16-.111-.0076-.0038a.6758.6758,0,0,1,.1495-.0538c.1032-.0335.2081-.0523.313-.0782.1276-.0313-.215.0076-.0026.0014.0546-.0016.1089-.0067.1635-.0073s.1078,0,.1616.0033q.048.0025.0957.0076.1006.01-.0738-.01c.0676-.0223.2339.05.3054.0722a.6247.6247,0,0,1,.1761.062c-.0122-.01-.1805-.0908-.0382-.0124.0906.05.1808.0962.2671.1536.0136.0091.1644.1331.061.0407s.0811.0766.098.0929a1.1831,1.1831,0,0,1,.2073.228c-.0992-.1717-.0486-.0646-.0262-.0264.0314.0537.0675.1044.0982.1587.02.0362.0379.0745.0587.1105.104.18-.0513-.1759.0122.0236a3.384,3.384,0,0,1,.0969.3394c.0366.1772-.023.0114.0047-.0044-.0023.0013.01.1142.0106.1315.0058.1085-.0014.2152-.0049.3234-.007.2147.0439-.1877-.0038.02-.0094.0409-.0171.082-.0273.1228q-.0228.0909-.0528.18l-.0207.0587q-.0522.1342.0168-.036c0,.0681-.1114.2149-.1468.2712-.0267.0427-.0625.0833-.0862.1275-.0567.1056.1388-.1468.0024-.0075-.0722.0738-.139.15-.2167.2186a.6521.6521,0,0,1-.0945.0794c.2082-.1159-.0367.0156-.0784.0406-.0356.0215-.0719.042-.1086.0615-.0469.0249-.2026.1395-.02.0181a.9631.9631,0,0,1-.2726.09c-.0522.0139-.1054.0232-.1578.0363-.2041.0511.1355-.0034.0033.0013-.12.0042-.2377.0138-.358.007l-.0639-.0045q-.1482-.0154.042.0074a.9474.9474,0,0,0-.1849-.0385c-.0506-.0126-.1006-.0272-.15-.0432-.03-.0093-.0592-.0194-.0883-.03q-.1343-.0522.0359.0168c-.0864.0045-.2567-.1361-.3229-.18a.524.524,0,0,1-.1007-.0708c.1292.16.0327.0218-.0135-.0206a1.2382,1.2382,0,0,1-.252-.27c.1078.1958.0178.0149-.0079-.0255-.0336-.0525-.065-.1065-.0942-.1615-.0056-.01-.1028-.1931-.037-.0663.061.1177-.0362-.106-.0448-.1338-.0126-.0409-.0241-.0823-.0345-.1238-.0123-.0489-.0562-.3358-.0262-.09a.8929.8929,0,0,0-.87-.87C298.45,334.8994,297.9441,335.2667,298.0033,335.7508Z"/><rect class="cls-1" x="529.327" y="163.3561" width="445.673" height="333.7885" rx="38.9397"/><path d="M936.06,495.4037H577.6539c-3.12,0-6.2412.02-9.3614,0a37.5973,37.5973,0,0,1-37.2246-37.2818c-.026-4.5426,0-9.0861,0-13.6287V206.9524c0-1.4945-.0075-2.9892,0-4.4838A37.1828,37.1828,0,0,1,568.27,165.097c.781-.005,1.5622,0,2.3433,0H933.5523c.8321,0,1.6644-.0053,2.4965,0a37.1923,37.1923,0,0,1,37.21,37.3227c.0076,1.4246,0,2.8493,0,4.2739V444.06c0,4.6733.0251,9.3474,0,14.0206A37.6031,37.6031,0,0,1,936.06,495.4037c-2.24.0177-2.2447,3.5,0,3.4819a41.1363,41.1363,0,0,0,40.6806-40.6971c.0271-4.3171,0-8.6352,0-12.9523V206.5042c0-1.375.0084-2.75,0-4.1253a41.2188,41.2188,0,0,0-9.1957-25.83c-8.2826-10.196-20.4887-14.934-33.377-14.934H570.3425c-12.3593,0-24.0634,4.18-32.433,13.6056a41.1524,41.1524,0,0,0-10.3234,27.112c-.0078,1.2879,0,2.5761,0,3.864V444.7074c0,4.4821-.027,8.9652,0,13.4472.13,21.495,17.2487,39.6679,38.8122,40.6869,3.3687.1592,6.7655.0441,10.1359.0441H936.06A1.742,1.742,0,0,0,936.06,495.4037Z"/><path d="M529.327,212.2507V185.9529a22.5969,22.5969,0,0,1,22.5969-22.5968H952.4032A22.5968,22.5968,0,0,1,975,185.9529v26.2978Z"/><path d="M531.0679,212.2507c0-8.5151-.0183-17.03,0-25.5454.0256-11.8712,8.9947-21.5084,21.0454-21.6083,6.1687-.0511,12.34,0,18.5087,0H950.4575c5.7145,0,11.1856,1.2183,15.6376,5.1207a21.541,21.541,0,0,1,7.164,16.6566v25.3764L975,210.51H547.4182c-5.7741,0-11.56-.1075-17.3334,0-.2524.0047-.5053,0-.7578,0a1.7419,1.7419,0,0,0,0,3.4818H956.9089c5.7741,0,11.56.1075,17.3333,0,.2524-.0047.5053,0,.7578,0a1.7662,1.7662,0,0,0,1.7409-1.7409c0-8.5661.0223-17.1325,0-25.6985a24.684,24.684,0,0,0-24.37-24.937c-5.7562-.0647-11.517,0-17.2734,0H553.2911c-7.3435,0-14.34,2.3928-19.3734,7.9667a25.1367,25.1367,0,0,0-6.3316,17.1234c-.0091,4.9406,0,9.8813,0,14.8218v10.7236A1.7419,1.7419,0,0,0,531.0679,212.2507Z"/><rect class="cls-1" x="329.7027" y="166.1629" width="264.6183" height="216.1034" rx="24.1429"/><path d="M570.1781,380.5255H355.5762c-.5707,0-1.1416.0035-1.7124,0a22.401,22.401,0,0,1-22.42-22.4467c-.0043-.7773,0-1.5547,0-2.332v-162.78c0-.856-.0042-1.7121,0-2.568a22.3871,22.3871,0,0,1,22.4037-22.4951c.5-.0031,1,0,1.5,0H564.3285c1.9468,0,3.894-.0118,5.8408,0A22.6381,22.6381,0,0,1,592.58,190.3725c.0152,2.6986,0,5.3976,0,8.0962V349.8993c0,2.719.0145,5.4385,0,8.1575a22.64,22.64,0,0,1-22.402,22.4687c-2.24.0169-2.2447,3.4988,0,3.4818a26.1761,26.1761,0,0,0,25.8838-25.8952c.0153-2.5166,0-5.0337,0-7.55V198.2863c0-2.6482.0163-5.297,0-7.9451a26.1664,26.1664,0,0,0-24.3994-25.8743c-2.2215-.1348-4.4719-.0449-6.6952-.0449H355.18c-.6925,0-1.3866-.01-2.0789.0113a25.8906,25.8906,0,0,0-25.1388,25.896c-.0043.7389,0,1.4778,0,2.2167V355.8833c0,.74-.0044,1.48,0,2.22A25.89,25.89,0,0,0,353.2865,384c.6384.0145,1.2777.0071,1.9163.0071H570.1781A1.7419,1.7419,0,0,0,570.1781,380.5255Z"/><path d="M513.1474,335.0312H390.4179c-1.2734,0-2.5473.0114-3.8206,0a11.6571,11.6571,0,0,1-11.628-11.19c-.1348-4.9391-.0044-9.8991-.0044-14.8393V238.88c0-3.1771.3628-6.1938,2.4074-8.8318a12.0738,12.0738,0,0,1,9.9123-4.4639H505.5808c4.8033,0,10.4-.7481,14.4783,2.2862,3.3653,2.5037,4.627,6.2879,4.627,10.3159v68.8482c0,5.4595.0468,10.9214,0,16.3807a11.671,11.671,0,0,1-11.5387,11.6157c-2.2388.0288-2.245,3.5107,0,3.4818a15.21,15.21,0,0,0,15.0205-15.0209c.0162-1.41,0-2.8212,0-4.2313V238.2175c0-4.441-1.2515-8.6443-4.5145-11.8292a15.7319,15.7319,0,0,0-11.287-4.2856H387.22a15.572,15.572,0,0,0-11.6748,4.7488c-2.9781,3.2029-4.0623,7.1991-4.0623,11.4607v81.1209c0,1.4676-.0364,2.94.0044,4.4076a15.1974,15.1974,0,0,0,15.0177,14.6723c3.7682.04,7.5391,0,11.3075,0H513.1474A1.7419,1.7419,0,0,0,513.1474,335.0312Z"/><path d="M329.7027,195.1941V179.58A13.4169,13.4169,0,0,1,343.12,166.1629H580.9041A13.4169,13.4169,0,0,1,594.321,179.58v15.6143Z"/><path d="M331.4436,195.1941c0-5.0558-.0109-10.1118,0-15.1676a11.8564,11.8564,0,0,1,11.7885-12.1227c3.6626-.03,7.3267,0,10.9894,0H579.7489c3.2022,0,6.2813.6418,8.7847,2.8333a12.0954,12.0954,0,0,1,4.0465,9.39v15.0672l1.7409-1.7409H340.4443c-3.4283,0-6.8638-.065-10.2917,0-.15.0028-.3,0-.45,0a1.7419,1.7419,0,0,0,0,3.4818H583.5794c3.4283,0,6.8638.065,10.2917,0,.15-.0028.3,0,.45,0a1.7662,1.7662,0,0,0,1.7409-1.7409c0-5.0861.0133-10.1724,0-15.2585A15.3746,15.3746,0,0,0,580.885,164.422c-3.4178-.0384-6.8382,0-10.2561,0H343.9313a15.2046,15.2046,0,0,0-15.97,15.6045c-.0054,2.9335,0,5.867,0,8.8005v6.3671A1.7419,1.7419,0,0,0,331.4436,195.1941Z"/><circle cx="279.2454" cy="337.8072" r="2.3639"/><path d="M276.065,338.3662a3.23,3.23,0,0,0,2.4768,2.5971,3.23,3.23,0,0,0,3.1814-5.2278,3.227,3.227,0,0,0-5.6893,2.3993.8935.8935,0,0,0,.87.87c.4228-.0189.9315-.3866.8705-.87a2.6521,2.6521,0,0,1-.0231-.326c0-.0644.0051-.128.0075-.1922.0064-.1748-.0109.0348-.0083.0426-.0232-.0709.0487-.2325.0706-.3049a.57.57,0,0,1,.0611-.176l-.04.0939q.0255-.0563.0539-.1111c.0476-.092.1042-.1759.159-.2635.1025-.164-.0956.0811-.0052.0053a1.4791,1.4791,0,0,0,.1025-.1148,1.039,1.039,0,0,1,.2271-.2086c-.1756.086-.0519.038-.0008.0081.0629-.0368.1229-.0778.1874-.1123a.5047.5047,0,0,1,.1124-.0565l-.092.0371q.0591-.024.1194-.0447c.1027-.0352.2076-.0568.3124-.0838.0531-.0137.1395-.059-.0356.001a.746.746,0,0,1,.1956-.0138c.043-.0013.0862-.0013.1292,0,.0265.0006.2821.0254.1381.0055-.1483-.02.0557.0132.0706.0164.0509.0111.1013.0241.1514.0385s.0984.0328.148.0479c.187.0569-.1058-.0727-.008-.0047.0741.0516.1662.084.2438.1322a.6077.6077,0,0,1,.1529.1034q-.1291-.1022-.0553-.041.0355.0294.07.0606c.0767.07.144.1458.2142.2214.14.15-.0911-.156.0141.0209.0212.0356.046.0693.0675.1047.0285.047.1975.3378.0815.1291a1.4463,1.4463,0,0,1,.115.3678c.0025.011.0453.223.0189.0785-.026-.142.0038.0662.0046.08.006.1079,0,.2141-.0037.3219-.0064.1748.0109-.0348.0083-.0427a.5507.5507,0,0,1-.0376.1846q-.015.0606-.033.12t-.0392.118q-.0519.1342.0177-.0359c-.0023.08-.1043.206-.1452.2718-.0217.0348-.0459.068-.0676.1028-.1085.1738.1274-.1293-.0146.0183-.0643.0667-.1245.136-.193.1989a.6.6,0,0,1-.1169.1009c.189-.0925.0242-.0227-.0251.0091-.0578.0372-.2025.1569-.2739.1516l.092-.0371q-.0591.024-.1194.0447c-.0405.0138-.0814.0267-.1226.0384-.0629.0178-.1265.03-.19.0454-.1622.04.0163.0061.0357-.001a1.1126,1.1126,0,0,1-.3889.0116c-.0149-.0008-.2229-.0236-.0741-.0031.1441.02-.1061-.0242-.1316-.0305-.04-.01-.0806-.0209-.12-.033s-.079-.0251-.1179-.0392q-.1344-.0519.0358.0178c-.0879-.0026-.2256-.1158-.2977-.1618a.5048.5048,0,0,1-.1269-.0869q.1414.1116.0318.0212l-.0462-.0408a1.063,1.063,0,0,1-.2536-.2691c.0786.1727.04.0553.0081.0009-.0369-.063-.0779-.1229-.1124-.1874a.5112.5112,0,0,1-.0565-.1124q.067.1677.014.0327-.0224-.06-.0415-.1211a2.5922,2.5922,0,0,1-.0857-.3816.8733.8733,0,0,0-1.0708-.6079A.8968.8968,0,0,0,276.065,338.3662Z"/><circle cx="286.7557" cy="359.4568" r="3.4241"/><path d="M282.4811,359.8254a4.29,4.29,0,0,0,7.853,2.0025,4.2927,4.2927,0,1,0-7.853-2.0025.8942.8942,0,0,0,.87.87.8768.8768,0,0,0,.87-.87,3.8333,3.8333,0,0,1-.0188-.4731c.0028-.0925.0076-.1862.02-.2779-.0058.044-.0288.1266.01-.0409.0347-.1478.0674-.2943.1161-.4383-.0007.0018.109-.2679.0449-.1262.0368-.0815.078-.1612.1216-.2393a1.9882,1.9882,0,0,1,.4568-.6011,2.1,2.1,0,0,1,.6578-.4665,2.58,2.58,0,0,1,2.89.4488,2.4359,2.4359,0,0,1,.7479,1.38,1.1254,1.1254,0,0,1,.0362.2879,4.0894,4.0894,0,0,1-.0071.4684c-.0168.2733.04-.1318-.0195.1329-.0134.0594-.0247.1189-.0395.1779q-.033.1317-.0765.26c-.0087.0257-.1019.2524-.045.1261a3.2358,3.2358,0,0,1-.2126.3929c-.0395.0629-.0807.1249-.1249.1846-.0972.1317.1293-.1412-.0575.0682a2.6092,2.6092,0,0,1-.6434.5516,2.5294,2.5294,0,0,1-1.5208.3634,1.3855,1.3855,0,0,1-.4034-.0656c-.0733-.0182-.1457-.0394-.2175-.0626-.0306-.01-.2859-.1115-.1691-.0588a3.2931,3.2931,0,0,1-.4678-.2611,1.1532,1.1532,0,0,1-.2444-.1934,2.1974,2.1974,0,0,1-.574-.7413,1.433,1.433,0,0,1-.1578-.3831c-.0183-.0593-.0349-.1192-.05-.1793-.0087-.0349-.0651-.3435-.0518-.2347a.8979.8979,0,0,0-.87-.87A.8756.8756,0,0,0,282.4811,359.8254Z"/><path class="cls-3" d="M375.5413,289.0985l38.209,19.1464,10.807,9.9439,12.6133,11.606a187.9558,187.9558,0,0,1-20.0373,22.5719A191.3079,191.3079,0,0,1,395.02,371.0351l-11.8969-12.709-.0854-.0913L366.6833,330.992Z"/><path d="M374.6627,290.6017l29.0217,14.5427,6.9282,3.4717,1.8064.9052c.0723.0362.3051.2084.3911.196.1786-.0259-.4609-.4455-.15-.1119,1.914,2.0539,4.1942,3.8592,6.2594,5.76l4.4932,4.1343,12.527,11.5266-.2722-2.11a193.3918,193.3918,0,0,1-31.8913,33.1662c-3.1193,2.6015-6.3223,5.0986-9.6348,7.45l2.11.2722-6.88-7.3494-4.0881-4.3672a7.53,7.53,0,0,0-.8894-.95c-.175-.1287.264.476.0175.0026-1.3716-2.6334-3.0854-5.1395-4.613-7.6842l-7.1607-11.9281-4.4509-7.4143.1755,1.3415,2.98-14.0923,4.7822-22.6169,1.0961-5.1843c.4622-2.1858-2.8934-3.12-3.3574-.9256L370.434,304.851l-4.8794,23.0768c-.3009,1.4231-.9248,2.9714-.1576,4.3043,1.4234,2.473,2.94,4.8971,4.4084,7.3435l11.46,19.09a29.3363,29.3363,0,0,0,4.017,4.5134l7.9662,8.51.54.5768a1.7528,1.7528,0,0,0,2.11.2723,199.5526,199.5526,0,0,0,35.2361-32.4455c2.6272-3.0463,5.1507-6.1822,7.5391-9.4194a1.7429,1.7429,0,0,0-.2722-2.11l-22.4981-20.7014c-2.319-2.1338-5.5306-3.2535-8.3231-4.6527l-18.5191-9.28L376.42,287.5953C374.4222,286.5942,372.6569,289.5966,374.6627,290.6017Z"/><path class="cls-3" d="M307.5527,463.2306l158.9452,42.5688c32.17,5.91,48.6817-4.1464,61.8752-24.8016h0c14.74-23.0765,10.84-56.6333-8.97-75.5375L413.75,308.2449l-38.209-19.1464-8.858,41.8935,16.3543,27.2428,76.1156,81.3112-96.5278-32.7074a98.2259,98.2259,0,0,0-37.27-5.0273l-19.7461,1.1572"/><path d="M307.09,464.9093l7.0959,1.9005,18.65,4.9949,26.3626,7.06,29.8973,8.0071,29.5675,7.9188,25.2818,6.771,17.0858,4.5759,4.1668,1.116a61.6557,61.6557,0,0,0,9.3452,1.47c13.1158,1.4111,26.78-.1426,37.8723-7.7786a58.1716,58.1716,0,0,0,13.0253-12.7155,62.6411,62.6411,0,0,0,9.5756-61.6958,59.423,59.423,0,0,0-15.4071-23.2476L509.16,393.671l-18.427-16.9554-22.4652-20.6711-22.5438-20.7434L427,318.0726l-10.783-9.9219a11.2743,11.2743,0,0,0-1.6714-1.4509c-2.1745-1.3093-4.6088-2.3095-6.8762-3.4457l-25.8133-12.9349-5.4359-2.7239a1.7619,1.7619,0,0,0-2.5574,1.04l-3.4539,16.3349-4.88,23.0818c-.3,1.42-.8821,2.8793-.1144,4.2078,1.4795,2.56,3.0461,5.0742,4.568,7.6093,3.7717,6.2828,7.4605,12.6244,11.3187,18.8545,1.198,1.9346,3.132,3.5471,4.6747,5.1951l12.82,13.6951L416.37,396.3887l18.3247,19.5755,15.07,16.0981,7.7958,8.328.362.3867,1.6938-2.91-16.1609-5.4759-34.7044-11.7592L375.27,409.2875c-7.3252-2.4821-14.6513-5.2453-22.2062-6.9417a104.7968,104.7968,0,0,0-29.1942-2.1884l-16.8427.9871-1.4176.0831c-2.2271.13-2.2421,3.6132,0,3.4818,12.6659-.7423,25.5163-2.1734,38.1557-.5059,9.6334,1.2709,18.6485,4.3988,27.7793,7.4927l31.9245,10.8172,35.5721,12.0533,12.9528,4.3889c2.13.7218,4.2513,1.5343,6.4087,2.1715.097.0287.1922.0651.288.0976,1.7238.5841,2.8171-1.71,1.6938-2.91L448.395,425.5074l-26.2393-28.03-26.1536-27.9389-8.5832-9.1691-2.3665-2.528c-.2-.2139-.3932-.44-.6031-.6442-.3337-.3253.036-.1442.08.1393a4.5565,4.5565,0,0,0-.6978-1.1624l-1.5859-2.6417-4.7927-7.9836-8.7164-14.52-.55-.9156.1755,1.3415,2.98-14.0923,4.7822-22.6169,1.0961-5.1843-2.5573,1.04,18.3241,9.1822L406,306.3047l4.6127,2.3114a8.3452,8.3452,0,0,0,2.1755,1.09c.2731.0252-.3316-.3618-.2265-.1914a1.4069,1.4069,0,0,0,.23.2114c.3362.3231.6871.6322,1.03.948l4.1823,3.8483,15.1191,13.9116,20.9026,19.2334,22.82,20.9978L497.7176,387.87l15.0572,13.8546c2.3953,2.2041,4.8833,4.3448,7.1325,6.7017,10.0511,10.5323,15.3444,25.1043,15.6307,39.5574a60.2694,60.2694,0,0,1-3.4714,21.5769,62.2524,62.2524,0,0,1-10.0054,17.3858A52.4015,52.4015,0,0,1,509.28,498.85a44.0783,44.0783,0,0,1-16.4931,6.1705,70.7155,70.7155,0,0,1-21.7177-.2189,47.2289,47.2289,0,0,1-5.4071-1.0287l-12.2484-3.28-22.0287-5.9-27.9463-7.4846-30.0013-8.0349-28.1935-7.5508L322.7206,465.49l-12.99-3.479-1.7151-.4593c-2.1669-.58-3.0913,2.7774-.9256,3.3574Z"/><rect class="cls-1" x="492.1876" y="119.2531" width="445.673" height="333.7885" rx="38.9397"/><path d="M898.9209,451.3007H540.5145c-3.12,0-6.2412.02-9.3614,0a37.5974,37.5974,0,0,1-37.2246-37.2819c-.026-4.5425,0-9.086,0-13.6286V162.8494c0-1.4945-.0075-2.9893,0-4.4838A37.1828,37.1828,0,0,1,531.13,120.994c.781-.0051,1.5622,0,2.3433,0H896.4129c.8321,0,1.6644-.0053,2.4965,0a37.1925,37.1925,0,0,1,37.21,37.3227c.0076,1.4245,0,2.8493,0,4.2738V399.9573c0,4.6733.0251,9.3474,0,14.0207a37.6031,37.6031,0,0,1-37.1988,37.3227c-2.2395.0176-2.2447,3.5,0,3.4818a41.1363,41.1363,0,0,0,40.6806-40.6971c.0271-4.317,0-8.6351,0-12.9523V162.4012c0-1.375.0084-2.75,0-4.1254a41.2188,41.2188,0,0,0-9.1957-25.83c-8.2826-10.1959-20.4887-14.934-33.377-14.934H533.203c-12.3593,0-24.0633,4.18-32.4329,13.6057a41.1524,41.1524,0,0,0-10.3234,27.112c-.0079,1.2879,0,2.5761,0,3.864V400.6044c0,4.4821-.027,8.9651,0,13.4472.13,21.4949,17.2486,39.6678,38.8121,40.6869,3.3688.1592,6.7656.044,10.136.044H898.9209A1.7419,1.7419,0,0,0,898.9209,451.3007Z"/><path d="M492.1876,168.1477V141.85a22.5968,22.5968,0,0,1,22.5968-22.5968H915.2638A22.5968,22.5968,0,0,1,937.8606,141.85v26.2978Z"/><path d="M493.9285,168.1477c0-8.5151-.0183-17.03,0-25.5454.0256-11.8713,8.9947-21.5085,21.0454-21.6083,6.1686-.0511,12.34,0,18.5086,0H913.3181c5.7145,0,11.1856,1.2183,15.6375,5.1206a21.5413,21.5413,0,0,1,7.1641,16.6567v25.3764l1.7409-1.741H510.2788c-5.7741,0-11.56-.1075-17.3334,0-.2524.0047-.5053,0-.7578,0a1.742,1.742,0,0,0,0,3.4819H919.77c5.7741,0,11.56.1075,17.3333,0,.2524-.0047.5053,0,.7578,0a1.7663,1.7663,0,0,0,1.7409-1.7409c0-8.5661.0223-17.1325,0-25.6986a24.6842,24.6842,0,0,0-24.37-24.937c-5.7563-.0647-11.517,0-17.2734,0H516.1517c-7.3435,0-14.34,2.3928-19.3734,7.9668a25.1365,25.1365,0,0,0-6.3316,17.1234c-.0091,4.94,0,9.8812,0,14.8218v10.7236A1.7419,1.7419,0,0,0,493.9285,168.1477Z"/><path class="cls-3" d="M418.1758,312.0514,394.985,291.8161c-11.5747-10.3746-31.5912-31.2511-43.3261-37.7318-20.4832-11.312-30.7493-2.0905-34.56,16.0586,33.7262,3.8495,30.4634,24.2208,30.4634,24.2208l14.1654,39.9328,21.6429,24.3693"/><path class="cls-3" d="M351.3055,254.2147c-11.3033-2.72-28.01-4.9492-34.578-4.9138-12.3.0664-14.284-7.646-1.9641-10.9781,19.9648-5.0623,41.18,1.62,47.3979,5.8885s15.8307,25.9163,15.8307,25.9163a71.4357,71.4357,0,0,0,15.4416,19.747l24.7422,22.1768"/><path d="M351.7683,252.536a208.3868,208.3868,0,0,0-26.0085-4.3593c-3.2158-.3478-6.4186-.5674-9.6513-.6208a15.7619,15.7619,0,0,1-5.6593-.9511,4.0077,4.0077,0,0,1-2.2226-1.7717c.1482.3075-.054-.4687-.021-.0679a1.7587,1.7587,0,0,1-.0049-.4076c.0446-.2813-.0442.255.0105-.0328a2.1682,2.1682,0,0,1,.5807-1.0667,9.9509,9.9509,0,0,1,4.1126-2.5178,47.4769,47.4769,0,0,1,15.053-2.4631,72.3642,72.3642,0,0,1,26.3769,4.1287,26.4292,26.4292,0,0,1,7.2111,3.4979c-.2325-.1789.2819.2509.3208.2858.19.17.3733.3478.5532.5286.4516.4537.8752.9352,1.2833,1.4283a38.5135,38.5135,0,0,1,2.4617,3.4091,133.3347,133.3347,0,0,1,8.7874,16.1325,74.7582,74.7582,0,0,0,9.7242,15.5578,97.9746,97.9746,0,0,0,10.5922,10.6075l21.1706,18.9756.5059.4535c1.6644,1.4917,4.1349-.9627,2.462-2.4621l-20.0835-18.0012a133.1413,133.1413,0,0,1-9.8137-9.292,68.0492,68.0492,0,0,1-11.2371-16.9327,138.2034,138.2034,0,0,0-8.8781-16.4545,29.51,29.51,0,0,0-5.338-6.65,26.1434,26.1434,0,0,0-7.5465-3.9766,74.3246,74.3246,0,0,0-26.7924-4.7472,57.4284,57.4284,0,0,0-16.2347,2.1115c-3.1864.964-7.3046,2.6646-8.5024,6.1046-.9768,2.8054.9589,5.3205,3.4092,6.4966,3.4158,1.64,7.1172,1.4434,10.7972,1.6281a178.7449,178.7449,0,0,1,25.2524,3.402c2.1433.42,4.2792.8764,6.4035,1.3842,2.178.5207,3.1074-2.8358.9256-3.3574Z"/><path class="cls-3" d="M355.0183,253.41s-26.2976-10.4454-46.6226-7.1119c-12.56,2.2644-11.2443,10.1184,1.0164,11.106,6.5473.5273,23.0012,4.18,34.03,7.8577"/><path d="M355.4811,251.7311a111.8839,111.8839,0,0,0-11.9922-3.86,103.1006,103.1006,0,0,0-25.8414-3.9678c-4.4429-.04-9.2048.1764-13.4269,1.6733-2.7523.9758-6.2171,2.8685-6.3764,6.1918-.1546,3.2259,2.9123,5.2,5.5708,6.1883,3.3082,1.23,6.9572,1.2,10.4127,1.7733a193.5364,193.5364,0,0,1,29.1516,7.2105c2.1316.7073,3.0455-2.654.9256-3.3575a204.909,204.909,0,0,0-24.7483-6.4035,92.8017,92.8017,0,0,0-9.549-1.5c-2.55-.2326-6.7292-.7763-8.0982-3.0511-.2142-.3558-.0936-.136-.1561-.3637-.1371-.4988.0235.2079-.03-.0949a1.0408,1.0408,0,0,1-.0016-.321c-.0116.077-.0244-.083.1-.3408a4.5634,4.5634,0,0,1,.2791-.4571,7.6175,7.6175,0,0,1,3.1309-2.0019c3.9078-1.4853,8.3-1.6813,12.4385-1.6662a97.1925,97.1925,0,0,1,24.0986,3.528,113.8882,113.8882,0,0,1,13.1866,4.1778c2.0834.8258,2.9876-2.54.9256-3.3574Z"/><path class="cls-3" d="M350.8636,265.1716s-25.7854-11.6526-46.243-9.2643c-12.6515,1.68-11.7011,9.5866.5008,11.1411,6.5158.83,23.2542,4.1535,32.6286,10.5425"/><path d="M351.7423,263.6684a115.8857,115.8857,0,0,0-12.2163-4.5871,101.8939,101.8939,0,0,0-26.1982-5.1681c-4.49-.2108-9.3779-.1838-13.6594,1.3424-2.7206.97-5.9359,2.8938-5.8621,6.19.0734,3.277,3.4272,5.2136,6.13,6.1954,3.4035,1.2362,6.7011,1.3086,10.247,1.9883,9.13,1.75,18.8879,4.21,26.6882,9.4649,1.8634,1.2553,3.608-1.76,1.7573-3.0064-6.7041-4.5162-14.8546-6.9494-22.6531-8.7785-3.1128-.73-6.2566-1.3557-9.4224-1.8081-2.8614-.409-6.8574-.7475-8.8432-3.1855a2.179,2.179,0,0,1-.4027-.778c-.0273-.1193-.0925-.0223-.0156-.4094-.0444.2234.1326-.3368.0288-.1425a5.1947,5.1947,0,0,1,2.7078-2.16c3.7411-1.59,8.1773-1.5913,12.1711-1.4743A94.0343,94.0343,0,0,1,336.818,261.88q4.8648,1.49,9.6126,3.334.832.3239,1.6594.66.3068.1248.6127.2513c.1525.0631.704.2959.2623.1083.341.1448.6822.29,1.02.442,2.0264.9139,3.7988-2.0857,1.7573-3.0065Z"/><path class="cls-3" d="M346.409,280.6045s-22.4274-13.0137-43.0221-12.7318c-12.757.3764-12.6208,8.3386-.6421,11.1339a179.16,179.16,0,0,1,22.35,7.12,32.0764,32.0764,0,0,1,18.9837,20.4506l2.93,9.5a32.1383,32.1383,0,0,0,7.6463,12.9084l28.3827,29.2491"/><path d="M347.2877,279.1012a102.2277,102.2277,0,0,0-11.9184-5.7207,91.1259,91.1259,0,0,0-26.0123-6.9846c-4.2463-.4161-8.9612-.6593-12.9869,1.01-2.5262,1.0476-4.8709,3.2352-4.2028,6.2249.6882,3.08,3.9075,4.8875,6.5961,5.9626a55.0464,55.0464,0,0,0,6.49,1.8331c2.4792.6543,4.9388,1.382,7.3833,2.1554,4.8358,1.53,9.9119,3.0285,14.4454,5.3311a30.8869,30.8869,0,0,1,9.9207,7.9984c4.1151,5.0266,5.6971,11.1031,7.567,17.1657a47.786,47.786,0,0,0,3.2756,8.5045,35.0628,35.0628,0,0,0,5.8093,7.8733q3.78,3.9045,7.5687,7.8l20.1688,20.7845.414.4266c1.5633,1.611,4.024-.8524,2.462-2.462l-17.0412-17.5615-9.595-9.8879c-.5791-.5967-1.1614-1.1906-1.7373-1.79a30.52,30.52,0,0,1-6.9482-11.3459c-1.44-4.273-2.4253-8.7341-4.1208-12.9162a34.0076,34.0076,0,0,0-17.1475-18.1565,123.1906,123.1906,0,0,0-14.3294-5.1882c-2.3741-.7484-4.7628-1.4526-7.17-2.0881a57.3537,57.3537,0,0,1-6.1774-1.71,9.9449,9.9449,0,0,1-3.7628-2.3387,4.4546,4.4546,0,0,1-.6087-.9139c-.0478-.1153-.14-.6734-.0958-.337-.0518-.389-.08-.0951.0436-.4721a1.7506,1.7506,0,0,1,.4494-.6723,4.9793,4.9793,0,0,1,1.4531-.9335,14.6405,14.6405,0,0,1,5.0837-1.0424c8.943-.52,18.1586,1.9872,26.495,4.994a110.6131,110.6131,0,0,1,15.7032,7.0348c.257.1411.5139.2827.7676.43a1.7422,1.7422,0,0,0,1.7574-3.0065Z"/><line class="cls-3" x1="449.916" y1="429.6782" x2="471.5503" y2="452.6712"/><path d="M448.685,430.9093,467.6732,451.09l2.6461,2.8122c1.5387,1.6354,3.9974-.83,2.462-2.462L453.7931,431.26l-2.6461-2.8123c-1.5387-1.6353-3.9974.83-2.462,2.4621Z"/><path class="cls-4" d="M305.6093,402.9687l19.7461-1.1574a98.2239,98.2239,0,0,1,37.27,5.0273L425.7,429.6956l-56.7672-47.8614L395.02,371.0351a191.3079,191.3079,0,0,0,22.1134-18.6684,187.9558,187.9558,0,0,0,20.0373-22.5719L519.4033,405.46c19.81,18.9042,23.71,52.4611,8.97,75.5373v0C515.18,501.6529,490.88,515.0265,458.71,509.1164L308.0157,471.7Z"/><path d="M305.6093,404.71q9.8679-.5784,19.7357-1.1568a96.4274,96.4274,0,0,1,38.2763,5.4931l19.1335,6.9337,26.6142,9.6445,10.4087,3.7719c1.73.6269,3.4566,1.3628,5.22,1.8915.0809.0243.16.058.2394.0868a1.7529,1.7529,0,0,0,1.6938-2.91l-19.179-16.17-30.57-25.7743-7.018-5.9169-.7682,2.91,20.6449-8.546,4.4444-1.84a19.0512,19.0512,0,0,0,4.0936-2.5351,200.5174,200.5174,0,0,0,20.6647-17.8527,185.5856,185.5856,0,0,0,19.431-22.0658l-2.7342.3523,4.9817,4.5838,12.7343,11.7173,17.1716,15.8L489.12,379.96,505.22,394.7732l10.59,9.7443A57.4062,57.4062,0,0,1,535.541,448.16a60.6345,60.6345,0,0,1-2.1987,17.4052,54.3948,54.3948,0,0,1-2.9524,8.106q-.9155,1.9851-1.9876,3.8927c-.6863,1.22-1.4938,2.5091-2.0544,3.36a61.9319,61.9319,0,0,1-23.7069,21.24c-10.7684,5.4312-22.9554,7.2995-34.9185,6.3895a69.8963,69.8963,0,0,1-11.6523-1.8854L444.481,503.79l-18.0418-4.48-22.2269-5.5188-24.1446-5.9951-23.7949-5.9082L335.0951,476.63l-16.2934-4.0456-9.1413-2.27-1.1819-.2934,1.2781,1.6787-.8119-23.1912-1.2955-37-.299-8.54c-.0782-2.2343-3.56-2.2448-3.4818,0l.812,23.1911,1.2954,37,.299,8.54a1.78,1.78,0,0,0,1.2781,1.6787l4.9727,1.2347,13.3605,3.3174,19.413,4.82,23.1293,5.7429,24.39,6.0559,23.5655,5.8513,20.2863,5.037,14.6712,3.6428c2.2386.5559,4.4715,1.1563,6.7206,1.6687a69.7217,69.7217,0,0,0,13.0234,1.47,72.4755,72.4755,0,0,0,18.835-1.79,64.29,64.29,0,0,0,29.5381-15.8845,61.14,61.14,0,0,0,17.3806-28.5591,65.6789,65.6789,0,0,0-.4486-35.2858,59.0949,59.0949,0,0,0-15.8474-26.5538c-2.0753-1.9418-4.1836-3.8495-6.2749-5.7738l-13.7115-12.6165-17.7328-16.3166-18.3385-16.874-15.5286-14.2885-9.3035-8.56-1.2515-1.1516a1.7737,1.7737,0,0,0-2.7342.3523,175.4,175.4,0,0,1-16.6485,19.1326,204.2951,204.2951,0,0,1-20.2658,18.0736q-1.1174.8619-2.2522,1.7008c-.565.4182-1.5925,1.3264-1.9465,1.5344a5.23,5.23,0,0,1-.647.2679l-3.8663,1.6005-12.8284,5.31-8.7431,3.6193c-1.0827.4482-1.8845,1.9685-.7682,2.91l19.179,16.17,30.57,25.7742,7.018,5.917,1.6938-2.91-13.0561-4.7313-26.3873-9.5623-20.959-7.5951a101.7256,101.7256,0,0,0-34.248-6.2252c-8.3559-.0348-16.7569.7888-25.0938,1.2774l-.8089.0475C303.3822,401.3583,303.3673,404.841,305.6093,404.71Z"/><path class="cls-1" d="M437.1706,329.7948a187.9481,187.9481,0,0,1-20.0373,22.5719A191.3261,191.3261,0,0,1,395.02,371.0351l-26.0875,10.7991,17.06,14.94h0c47.532-17.555,63.8334-55.7092,63.8334-55.7092l-3.8892-3.2043Z"/><path d="M435.6674,328.9161a175.3907,175.3907,0,0,1-16.6485,19.1326,204.3063,204.3063,0,0,1-20.2658,18.0736q-1.1174.8619-2.2522,1.7008c-.5649.4182-1.5925,1.3265-1.9464,1.5344a5.225,5.225,0,0,1-.6471.2679l-3.8663,1.6005-12.8283,5.31-8.7432,3.6193c-1.1012.4558-1.8622,1.9516-.7682,2.91l14.8992,13.0477,2.1605,1.8921a1.7454,1.7454,0,0,0,1.6938.4477,123.27,123.27,0,0,0,42.8611-26.7515,110.9252,110.9252,0,0,0,19.4556-24.7883,50.3721,50.3721,0,0,0,2.5571-4.9694,1.7963,1.7963,0,0,0-.2722-2.11c-4.3688-3.6-8.4888-7.4366-12.6549-11.27-1.6467-1.5152-4.1152.9408-2.462,2.462,4.1661,3.8334,8.2861,7.67,12.6549,11.27l-.2722-2.11a74.7568,74.7568,0,0,1-8.2333,13.7984,114.3508,114.3508,0,0,1-27.8445,27.2409,121.1923,121.1923,0,0,1-26.7152,13.87l1.6938.4477L372.324,382.4952l-2.1605-1.892-.7682,2.91,20.6448-8.546,4.4444-1.84a19.0519,19.0519,0,0,0,4.0937-2.5351,200.5257,200.5257,0,0,0,20.6645-17.8527,185.5686,185.5686,0,0,0,19.4311-22.0658C440.0053,328.8688,436.9849,327.13,435.6674,328.9161Z"/><path d="M369.4615,381.8053c-2.5114-2.5843,5.9828-13.3129,13.6615-23.4792l11.8969,12.709C384.7668,378.2889,371.9513,384.3674,369.4615,381.8053Z"/><path d="M370.6925,380.5743c.1361.1533.0475.26.04-.0543.0121.5142.0626-.5492.0195-.213a7.0911,7.0911,0,0,1,.5623-1.8171,34.7,34.7,0,0,1,3.1739-5.4851c3.16-4.7525,6.6988-9.2494,10.1379-13.8l-2.7342.3524,11.8969,12.709.3524-2.7342a93.7333,93.7333,0,0,1-14.8732,8.7,32.6363,32.6363,0,0,1-5.8888,2.1443,7.7054,7.7054,0,0,1-2.0265.2853,3.7691,3.7691,0,0,1-.5192-.0286c.1636.0249.1628.0164.0031-.0191-.0783-.0174-.5008-.1869-.0994-.0176-.31-.1307.2076.2173-.0448-.0215-1.627-1.54-4.0936.918-2.462,2.462,1.2747,1.2062,3.05,1.2056,4.6826.9652a26.9219,26.9219,0,0,0,6.4961-2.054,89.6871,89.6871,0,0,0,16.4894-9.4091,1.77,1.77,0,0,0,.3523-2.7343l-11.8969-12.709a1.7679,1.7679,0,0,0-2.7342.3523c-3.8042,5.0337-7.7793,9.9954-11.1384,15.3451-1.6236,2.5858-4.8445,7.32-2.2509,10.2438C369.7206,384.7158,372.1757,382.246,370.6925,380.5743Z"/><path class="cls-4" d="M206.0981,566.2225c72.42-8.93,150.9723-3.2381,150.9723-3.2381l-32.9758-144.006c-1.5066-9.6029-9.4732-16.5026-18.4853-16.01l-26.9612,26.8039-33.1735-23.5159c-9.7919.5353-14.6862,4.8641-18.1034,19.4644C227.3712,425.7209,207.9156,518.2769,206.0981,566.2225Z"/><path d="M260.2922,403.0217l-13.72,1.3832a36.7575,36.7575,0,0,0-7.0549,1.0543,15.4756,15.4756,0,0,0-7.431,4.8207c-5.2515,6.2737-6.4293,15.0254-8.0006,22.8362q-3.4371,17.0857-6.5375,34.2373c-2.871,15.8574-5.5424,31.7541-7.8469,47.7043-2.2211,15.3735-4.2162,30.8276-5.1117,46.3427q-.139,2.41-.2324,4.8221a1.7478,1.7478,0,0,0,1.7409,1.7409c28.79-2.9378,57.7241-4.44,86.66-4.747,18.2933-.194,36.6032.0581,54.8769.9588,3.146.155,6.2939.3157,9.4352.55a1.7578,1.7578,0,0,0,1.6788-2.2037l-2.8948-12.2985-6.9812-29.6592-8.4177-35.7627-7.2767-30.9149c-1.1753-4.9932-2.1326-10.1044-3.54-15.0391-.02-.07-.0337-.1433-.05-.2146-.5132-2.18-3.8712-1.2572-3.3574.9256l2.8948,12.2985,6.9811,29.6592,8.4177,35.7627,7.2767,30.9149,2.3993,10.1934a48.6663,48.6663,0,0,0,1.1406,4.8457,2.1449,2.1449,0,0,1,.05.2146l1.6787-2.2037c-9.359-.6982-18.7588-.9986-28.1381-1.2423q-35.572-.9243-71.1546.7071-25.8856,1.1726-51.68,3.7733l1.7409,1.7409c.5668-14.7262,2.3323-29.4124,4.34-44.0024,2.196-15.96,4.8014-31.8638,7.6134-47.7264q3.2574-18.3762,6.8973-36.682c1.3281-6.6841,2.3-13.91,5.0166-20.1974a16.2125,16.2125,0,0,1,5.2851-7.1559,15.8252,15.8252,0,0,1,7.9344-2.4266c4.6149-.3281,9.2223-.9088,13.8256-1.3729l1.541-.1554c2.2082-.2226,2.2312-3.7068,0-3.4818Z"/><rect class="cls-1" x="191.4553" y="547.7334" width="176.9925" height="20.3106" rx="10.1553" transform="translate(-30.0401 16.1158) rotate(-3.1296)"/><path d="M202.2819,574.0468l5.1645-.2824,13.8755-.7586,20.1605-1.1023,24.0189-1.3133,25.4511-1.3916,24.4569-1.3372,21.0362-1.15,15.19-.8305c2.3052-.1261,4.6115-.24,6.9159-.3782a12.1709,12.1709,0,0,0,9.6745-5.5256,11.9823,11.9823,0,0,0-2.5379-15.5765,12.2391,12.2391,0,0,0-8.4316-2.65c-.8813.0456-1.7624.0963-2.6435.1445l-11.9746.6547-18.8513,1.0307-23.3016,1.2741-25.3255,1.3847-24.9231,1.3627-22.1912,1.2133-16.8075.919-9.1144.4983a16.1232,16.1232,0,0,0-3.7694.5227,11.8972,11.8972,0,0,0,3.9281,23.2914c2.2335-.0844,2.2445-3.5666,0-3.4818-5.3909.2036-9.999-4.63-8.8011-10.0975a8.53,8.53,0,0,1,7.81-6.7075c2.1234-.1347,4.25-.2323,6.3744-.3485l14.365-.7854,20.11-1.1,23.7257-1.2972,24.8424-1.3583,23.8173-1.3022,20.63-1.128,14.9743-.8187c2.3928-.1308,4.7853-.27,7.1785-.3925a8.6974,8.6974,0,0,1,7.5336,3.2275,8.5233,8.5233,0,0,1-3.3862,12.9191c-2.0635.8693-4.628.7388-6.8321.8593l-12.6137.69-19.0178,1.04-22.97,1.2559-24.75,1.3532-24.3933,1.3338-21.5313,1.1772-16.5406.9044-9.3213.51-1.204.0659C200.0534,570.6868,200.0392,574.1694,202.2819,574.0468Z"/><path class="cls-4" d="M279.0829,434.72l5.0678-31.6472c.7269-4.539,4.2839-9.1244,8.84-9.7389l14.2349-1.92c6.0273-.8131,14.0766,2.86,14.4086,8.9328l.0868,1.5879-13.3179,3.868a19.06,19.06,0,0,0-12.34,13.0453L284.954,448.0087"/><path d="M280.7616,435.1831l4.37-27.2881c.7551-4.7156,1.356-10.1693,6.3916-12.3661,1.8053-.7876,4.1406-.8142,6.0641-1.0736l8.3606-1.1278c.4382-.0591.8762-.12,1.3147-.1773a3.8878,3.8878,0,0,1,.7136-.0719,14.6585,14.6585,0,0,1,6.2463,1.0111,10.0417,10.0417,0,0,1,4.7387,3.6007,8.08,8.08,0,0,1,1.0186,4.2447l1.2781-1.6787-11.4124,3.3146a25.3559,25.3559,0,0,0-5.9465,2.38,20.856,20.856,0,0,0-7.8925,8.3079,47.8271,47.8271,0,0,0-1.9727,5.0469l-1.7291,4.5388-5.3892,14.1468-3.64,9.5552c-.7984,2.0959,2.5663,3.0023,3.3574.9256l8.2024-21.5314c.9665-2.537,2.0256-5.058,2.9054-7.6268a18.7523,18.7523,0,0,1,5.781-8.8825,17.4466,17.4466,0,0,1,6.2663-3.2171l12.3955-3.6a1.7678,1.7678,0,0,0,1.2781-1.6788,13.3466,13.3466,0,0,0-.8313-4.7273,11.1526,11.1526,0,0,0-3.7442-4.4775,16.9726,16.9726,0,0,0-12.1264-2.9943c-4.6321.6148-9.2651,1.2292-13.8931,1.8741a12.307,12.307,0,0,0-8.9695,6.823,18.9937,18.9937,0,0,0-1.6947,5.8623l-2.5981,16.2241-2.2,13.7383a1.7976,1.7976,0,0,0,1.2159,2.1415,1.7529,1.7529,0,0,0,2.1416-1.2159Z"/><line x1="399.8171" y1="407.8736" x2="461.7829" y2="458.5141"/><path d="M398.5861,409.1046l20.9989,17.161,33.3314,27.24,7.6355,6.24c1.7212,1.4066,4.1987-1.0427,2.462-2.462l-20.9989-17.161-33.3314-27.2395-7.6355-6.24c-1.7211-1.4066-4.1987,1.0427-2.462,2.462Z"/><path class="cls-3" d="M214.2437,472.5624,101.9217,525.733c-31.3342,9.3824-48.8436,1.1859-64.21-17.9077l0,0c-17.1681-21.3318-16.95-55.1138.6808-76.0651L132.25,333.4964c4.7112-5.3962,9.952-15.5019,10.3849-22.6522l5.6768-13.0962c.4086-6.7484,1.6035-9.0738,8.28-8.0079l.3894-3.5083,25.1016,54.8534L168.796,369.9487l-66.7968,89.125,92.3864-43.0365a98.23,98.23,0,0,1,36.5-9.0607L250.64,405.974"/><path d="M213.365,471.0591l-6.3808,3.0206-16.416,7.7709-22.3613,10.5853L143.99,503.9l-21.8922,10.3633-15.6973,7.4307-4.2061,1.9911a27.1338,27.1338,0,0,1-5.1093,1.5883c-11.6367,2.9924-24.1237,4.0381-35.5189-.467-9.92-3.922-18.3267-11.9586-24.3985-20.5769a59.6164,59.6164,0,0,1-10.3849-36.3774,61.4516,61.4516,0,0,1,3.6587-18.8307,49.98,49.98,0,0,1,9.1825-16.031c1.4685-1.6438,3.0536-3.1969,4.5757-4.7905l11.8058-12.36L72.43,398.6449,90.86,379.3491l17.8263-18.6629,14.61-15.2962,8.7835-9.1957a49.1131,49.1131,0,0,0,10.5263-17.395,33.4931,33.4931,0,0,0,1.3044-4.5606c.1546-.7554.2715-1.5185.3621-2.2842a2.1758,2.1758,0,0,0,.0673-.6395c-.0881-.4064-.0609.282-.2.4026.0236-.0206.0409-.0975.0531-.1224.611-1.2558,1.1164-2.5755,1.6717-3.8566,1.3119-3.0265,2.77-6.0279,3.9486-9.1093.785-2.0531.0836-4.6508,1.4426-6.4955a2.2207,2.2207,0,0,1,1.4739-.8106,10.1341,10.1341,0,0,1,3.3983.0956,1.7813,1.7813,0,0,0,2.2037-1.6787l.3894-3.5083-3.2441.8787,8.458,18.483,13.5433,29.5955,3.1,6.7749v-1.7573l-12.7551,27.7086a17.4427,17.4427,0,0,1-2.0964,3.2427l-6.4887,8.6577L137.11,409.3421l-23.6932,31.6131-8.54,11.3953c-1.39,1.8547-2.8852,3.6681-4.187,5.5866-.06.0886-.129.1722-.1933.258-1.1574,1.5442.9981,3.0265,2.3819,2.3818l15.4675-7.2052,33.2154-15.4728,32.0443-14.9272c6.8989-3.2138,13.7663-6.7076,20.9766-9.1717a101.3607,101.3607,0,0,1,27.79-5.158l16.85-.8551,1.4182-.072c2.23-.1131,2.2432-3.5956,0-3.4818-12.69.644-25.6036.6566-38.02,3.617-9.7509,2.3248-18.66,6.4729-27.6732,10.6716l-30.4132,14.1674-34.3259,15.99-12.6163,5.8771c-2.0342.9476-4.231,1.7644-6.181,2.8793-.0914.0523-.1939.09-.29.1349l2.3819,2.3819,5.6764-7.5739,13.8765-18.515,17.5082-23.3607L157.1962,388.31,168.23,373.5882c.6627-.8843,1.4308-1.75,2.0155-2.6893a43.235,43.235,0,0,0,2.2283-4.7958l10.6238-23.0786c.4422-.9607.9166-1.74.4811-2.8335-.1765-.4433-.4-.8734-.5981-1.307l-3.5536-7.7654-11.6857-25.5364-8.8-19.2294-.4575-1c-.8011-1.7506-3.0772-.6251-3.2441.8787l-.3894,3.5083,2.2037-1.6787c-2.3842-.3646-5.1712-.6847-7.2843.7635-1.946,1.3336-2.5985,3.6574-2.9054,5.8774q-.1506,1.0892-.2348,2.1842c-.08,1.04.2964-.2667.1116.1379-.2233.4888-.4279.9871-.6416,1.48l-2.4753,5.71-2.192,5.0567c-.7839,1.8085-.7744,3.8479-1.2889,5.763a44.0349,44.0349,0,0,1-4.0368,9.7156,39.1392,39.1392,0,0,1-5.0894,7.5169c-1.535,1.69-3.1592,3.3075-4.736,4.9583l-12.1188,12.6876L97.3839,367.48,78.6662,387.0758,60.7314,405.8524,46.355,420.9035l-8.2386,8.6253a53.8332,53.8332,0,0,0-11.5632,20.085,65.7783,65.7783,0,0,0-.6915,38.94A65.0526,65.0526,0,0,0,46.0056,519.112,48.55,48.55,0,0,0,75.615,531.2951a72.159,72.159,0,0,0,19.7786-2.0272,39.8361,39.8361,0,0,0,8.1872-2.4012l10.4422-4.9431,19.279-9.1262,23.8528-11.2914,24.06-11.3893,20.2408-9.5815,12.0467-5.7026,1.62-.767c2.024-.9581.259-3.961-1.7574-3.0065Z"/><line class="cls-3" x1="110.1055" y1="448.2577" x2="91.107" y2="473.4723"/><path d="M108.6023,447.3791l-16.6239,22.063-2.3746,3.1516a1.7535,1.7535,0,0,0,.6245,2.3819,1.7813,1.7813,0,0,0,2.3819-.6246l16.6239-22.063,2.3746-3.1516a1.7535,1.7535,0,0,0-.6245-2.3819,1.7812,1.7812,0,0,0-2.3819.6246Z"/><path class="cls-4" d="M250.64,405.9742l-19.7545,1.0023a98.226,98.226,0,0,0-36.5,9.0608l-60.2062,29.5974L185.39,391.87l-27.1094-7.89a191.3228,191.3228,0,0,1-24.0169-16.1462,137.1645,137.1645,0,0,1-19.1206-17.7095L38.392,431.76c-17.63,20.9513-17.8489,54.7334-.6808,76.065l0,0c15.3668,19.0935,40.9793,29.7381,72.3136,20.3558l125.0694-46.2977"/><path d="M250.64,404.2333c-6.5841.334-13.1689.6564-19.7524,1.0022a99.3645,99.3645,0,0,0-38.5255,9.8614l-17.9835,8.8407-25.7336,12.6507-10,4.9158c-1.6776.8248-3.4979,1.5413-5.1,2.5074-.0767.0463-.1635.08-.244.12l2.11,2.7342,17.3017-18.1647L180.29,399.7474l6.3311-6.6468a1.76,1.76,0,0,0-.7682-2.91l-21.0517-6.1273-4.7033-1.3689a13.341,13.341,0,0,1-3.47-1.66,192.8462,192.8462,0,0,1-22.0865-15.18,155.0027,155.0027,0,0,1-18.1668-16.9621,1.7576,1.7576,0,0,0-2.462,0l-14.76,15.699L68.4734,397.2235l-26.2,27.8679c-1.6824,1.7894-3.4082,3.5473-5.0514,5.3729C30.62,437.7991,26.4383,447.63,24.5393,457.2265a65.9608,65.9608,0,0,0,2.1323,33.8871,58.6585,58.6585,0,0,0,7.5928,15.0189q.6216.8762,1.2778,1.7265a7.4131,7.4131,0,0,1,.7141.9169c.08-.205-.6739-.977-.0482-.0719a34.0271,34.0271,0,0,0,2.8653,3.386,65.5668,65.5668,0,0,0,5.4608,5.3562,64.2364,64.2364,0,0,0,28.847,14.4817,74.6824,74.6824,0,0,0,36.6815-1.9419c1.7572-.5282,3.4683-1.2527,5.188-1.8893l12.672-4.6909,39.602-14.66,42.0535-15.5672,24.7888-9.1763,1.19-.44c2.0833-.7712,1.1823-4.1377-.9256-3.3574l-17.2671,6.3918-39.1867,14.506L136.42,516.56l-25.3163,9.3715a67.6513,67.6513,0,0,1-18.2925,3.7671,63.1872,63.1872,0,0,1-32.6591-5.9776,61.0143,61.0143,0,0,1-12.9041-8.5188,65.528,65.528,0,0,1-5.7125-5.5745c-.2772-.3054-2.5037-2.5854-2.3839-2.775l.2385.5093a1.74,1.74,0,0,0-.4478-.7682c-.1618-.2313-.3559-.4455-.5286-.6693-.4649-.6024-.9126-1.2186-1.3488-1.842A58.8551,58.8551,0,0,1,26.79,472.7074c-.5969-15.3541,4.3819-30.7272,14.9636-41.9825l22.4149-23.8417L95.3,373.77l20.09-21.3693.9836-1.0461h-2.462A177.6247,177.6247,0,0,0,152.08,382.3723c1.9428,1.1894,3.9966,2.7489,6.19,3.4169,1.2864.3918,2.5834.7519,3.8746,1.1277l13.3555,3.8873,9.428,2.7441-.7683-2.91-17.3017,18.1647L139.28,437.7569l-6.3311,6.6468a1.7489,1.7489,0,0,0,2.11,2.7342l12.4625-6.1265,25.1874-12.3822,20.006-9.835a97.7765,97.7765,0,0,1,32.2542-9.5969c8.232-.9188,16.5945-1.0216,24.8625-1.4412l.8092-.041c2.23-.1132,2.2432-3.5957,0-3.4818Z"/><path d="M184.861,391.8985c2.2146-2.8427-7.3986-12.5812-16.14-21.85l-13.1094,12.798C166.0571,390.39,182.6654,394.7168,184.861,391.8985Z"/><path d="M186.3642,392.7772c2.18-3.0767-1.9139-7.7047-3.6672-9.92-3.92-4.9532-8.415-9.4508-12.7449-14.0393a1.7661,1.7661,0,0,0-2.462,0l-13.1094,12.798a1.767,1.767,0,0,0,.3523,2.7342,60.2468,60.2468,0,0,0,18.6006,8.7206,34.4252,34.4252,0,0,0,7.8266,1.4217c1.614.0674,3.7935-.0152,4.9318-1.3627,1.4376-1.7017-1.0135-4.1767-2.4621-2.462-.26.3074.0931-.0238.0111.0376-.09.0678-.484.234-.06.0651a4.0952,4.0952,0,0,1-.833.2139c.3733-.0632-.32.0219-.39.0257-.1919.0105-.3841.014-.5762.0144-.4289.0009-.8578-.0214-1.2852-.0554a34.761,34.761,0,0,1-7.175-1.5293,57.3823,57.3823,0,0,1-16.8309-8.096l.3523,2.7342,13.1094-12.798H167.49c3.9147,4.1486,7.9226,8.2328,11.5821,12.6125a34.27,34.27,0,0,1,3.5469,4.8674,6.7527,6.7527,0,0,1,.7821,1.7868c.0327.1318.07.228.0265.0372.0228.1-.0266.2863.0112.38.0617.1532.0677-.2622-.0175.0138.08-.26.058-.1294-.0637.0423C182.06,392.8516,185.0777,394.5928,186.3642,392.7772Z"/><line x1="157.5285" y1="421.121" x2="101.4532" y2="478.2155"/><path d="M156.2975,419.89l-19.0028,19.3482-30.1628,30.7111-6.91,7.0353c-1.5715,1.6.8887,4.0639,2.462,2.462l19.0027-19.3481L151.85,429.3872l6.91-7.0352c1.5714-1.6-.8887-4.064-2.462-2.4621Z"/><path class="cls-4" d="M260.7385,432.3443l-5.3371-6.2985a32.1074,32.1074,0,0,0-22.515-11.29l-27.3525-1.6907.7416-3.4906a19.64,19.64,0,0,1,20.2078-15.5333l25.5913,1.3a19.64,19.64,0,0,1,17.4792,12.9527l15.4,39.7145,11.7787,97.92"/><path d="M261.9695,431.1133c-2.24-2.6438-4.3858-5.4242-6.8015-7.9116a33.823,33.823,0,0,0-19.0637-9.8343c-2.8438-.4263-5.7444-.5083-8.6116-.6856l-13.1581-.8133-8.8007-.544,1.6788,2.2037a38.9961,38.9961,0,0,1,1.71-6.6867,17.9189,17.9189,0,0,1,16.1417-11.08c1.1905-.0249,2.3879.07,3.5764.1309,7.81.3967,15.6246.7331,23.4309,1.19a18.1242,18.1242,0,0,1,15.8044,11.6765c.7931,2.0712,1.6038,4.1358,2.4056,6.2036l10.3815,26.7721,1.806,4.6574c.0954.2461.5338,1.9636.7952,2.0508.0523.0175-.0731-.6664-.038-.3272.0152.1467.0357.293.0535.4394l.2194,1.8012,2.0979,17.2261,3.4013,27.9281,3.7439,30.7416,3.172,26.0459,1.6741,13.7461.076.6243a1.7983,1.7983,0,0,0,1.7409,1.7409,1.75,1.75,0,0,0,1.741-1.7409l-1.2141-9.9689-2.9734-24.4145-3.7616-30.887L289.6058,471.91l-2.4186-19.859c-.1574-1.2928-.31-2.5863-.4723-3.8785a18.4868,18.4868,0,0,0-1.4488-4.1509l-10.3839-26.7783-3.4434-8.88c-2.0982-5.4109-5.5618-9.9743-10.8821-12.567-4.0648-1.9809-8.2753-2.1851-12.67-2.4083l-14.8426-.754c-3.7091-.1885-7.5319-.6433-11.2187-.0367a21.5379,21.5379,0,0,0-16.325,13.48,41.8146,41.8146,0,0,0-1.6455,6.5254,1.7693,1.7693,0,0,0,1.6787,2.2037l19.9271,1.2318c2.4686.1526,4.9382.2935,7.406.4578a30.497,30.497,0,0,1,18.2786,7.6652c3.1032,2.7911,5.67,6.2375,8.3619,9.4142,1.4506,1.7119,3.9031-.7614,2.462-2.462Z"/><path d="M320.8778,503.3974c.7341,7.9222,6.4362,15.1649,13.3256,18.76a35.6462,35.6462,0,0,0,12.9657,3.6214c2.2268.2286,2.2108-3.2549,0-3.4819-6.3487-.6517-12.6608-2.8715-17.1466-7.5664a21.4156,21.4156,0,0,1-5.2781-9.5037c-.14-.5386-.25-1.081-.3533-1.6274-.056-.2959-.0861-.6411-.0127-.0378-.0067-.0548-.0137-.11-.0188-.1644-.205-2.2125-3.6888-2.2339-3.4818,0Z"/><circle class="cls-5" cx="276.0778" cy="463.4038" r="2.9015"/><circle class="cls-5" cx="279.7757" cy="501.5249" r="2.9015"/><circle class="cls-5" cx="283.4735" cy="539.6459" r="2.9015"/><path class="cls-3" d="M159.7039,310.24c-1.2693-11.2733,3.6123-27.6254,5.9225-33.7742,4.3261-11.5147-2.2206-16.0488-9.6166-5.6478-7.477,10.8748-10.8791,26.3767-12.3585,36.1113L141.415,317.003"/><path d="M161.4448,310.24c-.9074-8.4922,1.0248-17.2674,3.3134-25.4035.9064-3.2222,2.1248-6.3279,3.0977-9.5231.9724-3.1937,1.7321-7.6939-.6878-10.4728-2.0609-2.3665-5.3741-1.7111-7.6855-.1055-3.7211,2.5849-6.195,6.7371-8.2354,10.6883a94.7134,94.7134,0,0,0-8.3225,25.5242c-.5442,2.8123-.9762,5.6276-1.597,8.4238l-1.5914,7.1685c-.4847,2.1832,2.8713,3.1156,3.3574.9256.8386-3.7774,1.8224-7.5487,2.4395-11.3689a110.15,110.15,0,0,1,6.2-23.3983,49.9851,49.9851,0,0,1,6.18-11.5493,14.0846,14.0846,0,0,1,4.0338-3.8563,4.0853,4.0853,0,0,1,1.54-.5677,2.1184,2.1184,0,0,1,.7.1157c.2986.1492.3956.2317.6189.667a4.4575,4.4575,0,0,1,.4156,1.4213,13.2428,13.2428,0,0,1-.722,5.4587c-.9075,2.9861-2.0562,5.8886-2.919,8.8943-2.4652,8.5876-4.5758,17.9809-3.6165,26.958a1.7942,1.7942,0,0,0,1.7409,1.7409,1.7511,1.7511,0,0,0,1.7409-1.7409Z"/><path class="cls-3" d="M150.85,316.4872s3.9145-28.0241,16.8565-44.0467c8.1754-9.8,14.3533-4.7752,9.1529,6.3719-2.7769,5.9525-8.9038,21.88-8.5069,33.2175"/><path d="M152.5286,316.95c.4671-3.3278,1.1855-6.6332,1.9656-9.899a112.25,112.25,0,0,1,6.9786-20.876,65.3558,65.3558,0,0,1,5.9209-10.45c1.773-2.5065,4.72-6.5331,7.9517-6.7707.7934-.0583,1.1767.25,1.4576,1.0443a7.8269,7.8269,0,0,1-.1773,4.433c-.88,3.3739-2.6669,6.5538-3.9181,9.8072-3.3545,8.7221-6.3733,18.3475-6.0962,27.7913.0656,2.2357,3.5477,2.2451,3.4819,0-.2623-8.9385,2.6168-18.0094,5.7481-26.28,1.2892-3.405,3.145-6.7106,4.0971-10.2224.8112-2.992,1.187-7.4558-1.9033-9.3572-3.1619-1.9455-6.92.4795-9.26,2.61a41.3,41.3,0,0,0-7.8206,10.6961,102.2179,102.2179,0,0,0-8.9174,23.087,113.7182,113.7182,0,0,0-2.8661,13.46,1.8031,1.8031,0,0,0,1.2159,2.1415,1.7518,1.7518,0,0,0,2.1416-1.2159Z"/><path class="cls-3" d="M161.2167,321.6224s5.895-27.6753,19.9424-42.7381c8.8508-9.1949,14.6561-3.7438,8.6772,7.0058-3.1928,5.74-13.0035,25.7176-13.4128,37.0547"/><path d="M162.8954,322.0852a110.0939,110.0939,0,0,1,3.1561-11.2644,103.031,103.031,0,0,1,10.1042-22.4189c2.3086-3.7084,4.9635-7.5083,8.3786-10.2856,1.23-1.0005,2.9148-2.1243,4.4438-2.1632a.9175.9175,0,0,1,.5634.0683c.04.0124.3464.1673.2863.1176a1.7672,1.7672,0,0,1,.6246,1.15c.6962,3.2006-1.5815,6.66-3.0306,9.4115-1.6132,3.0635-3.1112,6.1895-4.5287,9.3479a141.1908,141.1908,0,0,0-5.4326,13.769,49.2258,49.2258,0,0,0-2.7779,13.1276c-.0942,2.24,3.3878,2.2361,3.4818,0a45.5265,45.5265,0,0,1,2.6-12.0395,130.9064,130.9064,0,0,1,4.9367-12.6567c1.5016-3.37,3.0945-6.7044,4.82-9.9663,1.8212-3.444,3.9807-7.2074,3.4-11.2608-.5115-3.5691-3.6911-5.2786-7.0538-4.1945-4.49,1.4476-7.8014,5.5294-10.5371,9.1614-5.4523,7.2385-9.2829,15.664-12.3436,24.1526a116.0993,116.0993,0,0,0-4.4482,15.0186c-.467,2.1852,2.8887,3.1191,3.3575.9256Z"/><path class="cls-3" d="M144.6094,375.4267a121.7081,121.7081,0,0,0,17.37,11.0518l24.699-36.377a16.9,16.9,0,0,0,1.96-15.1037l0,0a16.9287,16.9287,0,0,1,.7386-12.9968c4.6133-9.5324,12.9709-19.6657,16.2982-23.6454,7.89-9.4367,3.21-15.88-7.2085-8.51-16.6242,12.1594-26.036,34.48-26.036,34.48"/><path d="M143.7307,376.93a112.4122,112.4122,0,0,0,17.37,11.0517,1.7955,1.7955,0,0,0,2.3819-.6245l12.42-18.2919c4.166-6.1357,8.495-12.19,12.5067-18.4288a18.79,18.79,0,0,0,2.6892-12.9335c-.3247-2.1535-1.2638-4.1412-1.5527-6.2993a15.4479,15.4479,0,0,1,.6911-6.9306,33.7409,33.7409,0,0,1,3.08-6.1367c1.1677-2,2.4194-3.95,3.7235-5.8633,2.29-3.36,4.7436-6.6052,7.2982-9.7674,2.1612-2.6753,4.61-5.2231,6.0049-8.41,1.0811-2.47,1.74-5.752-.3415-7.9187-2.0746-2.16-5.4822-1.5549-7.9476-.5359-3.9215,1.6209-7.287,4.5094-10.3433,7.3974a93.804,93.804,0,0,0-20.51,29.5855c-.0927.207-.1854.414-.2737.6229a1.8035,1.8035,0,0,0,.6245,2.3819,1.7515,1.7515,0,0,0,2.3819-.6246,82.1566,82.1566,0,0,1,4.0231-8.0061,96.6912,96.6912,0,0,1,11.5387-16.625,66.2263,66.2263,0,0,1,8.294-8.0318c2.2351-1.7954,5.8118-4.5838,8.8309-4.1312a1.221,1.221,0,0,1,1.1806.94,5.6877,5.6877,0,0,1-.4715,3.19c-1.1922,2.9825-3.5612,5.3584-5.5491,7.8228-5.1954,6.4407-10.35,13.2506-13.9069,20.76a18.9816,18.9816,0,0,0-1.1819,13.5094,20.63,20.63,0,0,1,1.1643,5.9472,15.16,15.16,0,0,1-1.28,6.1514,46.4966,46.4966,0,0,1-4.3574,6.8477l-7.7827,11.4626-8.5888,12.65c-1.6977,2.5-3.5172,4.9554-5.1093,7.5251-.0814.1313-.1744.2567-.2612.3846l2.3819-.6245a112.408,112.408,0,0,1-17.37-11.0518c-1.8063-1.3295-3.5449,1.6907-1.7574,3.0065Z"/><path class="cls-1" d="M171.24,406.7258,185.39,391.87l-27.1094-7.89a191.33,191.33,0,0,1-24.017-16.1462,137.1631,137.1631,0,0,1-19.1205-17.7095l-13.2111,14.052C116.1511,384.0073,145.23,401.179,171.24,406.7258Z"/><path d="M172.4706,407.9568l14.1505-14.8562a1.76,1.76,0,0,0-.7682-2.91l-21.0517-6.1273-4.7033-1.3689a13.3425,13.3425,0,0,1-3.47-1.66,192.8474,192.8474,0,0,1-22.0866-15.18,154.9938,154.9938,0,0,1-18.1667-16.9621,1.7576,1.7576,0,0,0-2.462,0l-13.2111,14.052a1.767,1.767,0,0,0-.2723,2.11c6.2024,8.6029,14.1507,15.7845,22.7561,21.9243a136.8581,136.8581,0,0,0,30.036,16.1206,116.564,116.564,0,0,0,17.5559,5.3055c2.1849.47,3.1186-2.8854.9256-3.3574a129.5591,129.5591,0,0,1-57.0866-29.4025,81.308,81.308,0,0,1-11.18-12.3478l-.2722,2.11,13.2111-14.052h-2.462A177.6192,177.6192,0,0,0,152.08,382.3723c1.9428,1.1894,3.9967,2.7489,6.19,3.4169,1.2864.3918,2.5834.7519,3.8746,1.1277l13.3555,3.8873,9.428,2.7441-.7683-2.91-14.15,14.8562C168.4633,407.1172,170.9214,409.5833,172.4706,407.9568Z"/><path d="M285.7193,568.6824l1.1621,10.9543a35.5943,35.5943,0,0,0,1.2991,7.0836,28.7368,28.7368,0,0,0,5.8208,10.231c1.22,1.3943,2.4579,2.7733,3.6867,4.16,1.4892,1.68,3.9442-.7895,2.462-2.462-3.3035-3.7275-6.6655-7.2749-8.3551-12.0865-1.4469-4.12-1.6092-8.6-2.0664-12.91l-.5273-4.9705a1.794,1.794,0,0,0-1.741-1.7409,1.7511,1.7511,0,0,0-1.7409,1.7409Z"/><path d="M249.8585,581.0121a14.4609,14.4609,0,0,1-4.5582,5.4718c-4.6434,3.7008-10.8923,4.524-16.6879,3.5933a1.7759,1.7759,0,0,0-2.1415,1.2159c-.6772,3.0729-1.2926,6.1691-1.7409,9.2848a1.802,1.802,0,0,0,1.2159,2.1416,1.7519,1.7519,0,0,0,2.1415-1.216c.4483-3.1156,1.0637-6.212,1.7409-9.2848l-2.1415,1.2159c5.6172.9021,11.3835.5614,16.5-2.1065a21.28,21.28,0,0,0,7.68-6.8685,11.7367,11.7367,0,0,0,.9985-1.69c.927-2.0226-2.073-3.794-3.0065-1.7573Z"/><path d="M346.2331,583.3939a20.1894,20.1894,0,0,0,7.7557,1.9212c6.4235.4884,12.7624-1.5342,18.2748-4.7221a1.7422,1.7422,0,0,0-1.7574-3.0065,28.7537,28.7537,0,0,1-16.5174,4.2468,19.9116,19.9116,0,0,1-4.5582-.891c-.2543-.0814-.5045-.1719-.7561-.2609-.24-.0848-.647-.274-.2248-.0806-.1535-.07-.31-.1348-.4592-.2133-1.9827-1.04-3.7448,1.9645-1.7574,3.0064Z"/><path d="M337.5721,788.9415l3.0467-15.973,7.265-38.0875,8.78-46.031,7.5922-39.8031,2.5259-13.2422c.386-2.0239.9974-4.129,1.18-6.1844.0077-.0872.0336-.176.05-.2622l-1.6787,1.2781h60.8793l-1.6788-1.2781,3.0468,15.973,7.265,38.0875,8.78,46.0311,7.5922,39.803,2.5259,13.2422c.3878,2.0331.6166,4.19,1.18,6.1844.0239.0846.0335.1757.05.2622l1.6787-2.2037H350.8393c-4.9,0-9.8424-.1891-14.74,0-.0685.0026-.1376,0-.2062,0a1.7419,1.7419,0,0,0,0,3.4818H442.7059c4.9,0,9.8424.1891,14.74,0,.0685-.0026.1376,0,.2062,0a1.7661,1.7661,0,0,0,1.6787-2.2037l-3.0467-15.973-7.265-38.0875-8.78-46.0311-7.5922-39.803-2.5259-13.2422c-.3914-2.0519-.6856-4.1539-1.18-6.1844-.021-.0861-.0334-.1751-.05-.2622a1.7545,1.7545,0,0,0-1.6787-1.2781H366.333a1.76,1.76,0,0,0-1.6787,1.2781l-3.0468,15.973-7.265,38.0875-8.78,46.0311-7.5922,39.803c-1.2348,6.4735-2.5552,12.9373-3.7056,19.4266-.0155.0876-.0333.1748-.05.2622C333.797,790.2055,337.152,791.1436,337.5721,788.9415Z"/><path class="cls-1" d="M505.58,788.4787H287.9657V775.2853a21.6249,21.6249,0,0,1,21.6248-21.6248H483.9547A21.6249,21.6249,0,0,1,505.58,775.2853Z"/><path d="M505.58,786.7378H296.8035c-2.7981,0-5.6829-.2032-8.4757,0-.1194.0087-.2422,0-.3621,0l1.741,1.7409V776.0259a20.3571,20.3571,0,0,1,7.9386-16.6512,21.1465,21.1465,0,0,1,13.0189-3.9733H479.286c2.2354,0,4.5222-.1121,6.7513.099a19.9878,19.9878,0,0,1,16.5292,12.7543c1.791,4.8643,1.2721,10.2475,1.2721,15.3413v4.8827a1.7419,1.7419,0,0,0,3.4818,0V775.8522a23.768,23.768,0,0,0-8.0368-18.196,24.0392,24.0392,0,0,0-15.91-5.7366H313.2a39.5982,39.5982,0,0,0-8.8425.59,23.6045,23.6045,0,0,0-16.7357,14.8193c-1.8832,5.09-1.3965,10.6966-1.3965,16.026v5.1236a1.7663,1.7663,0,0,0,1.7409,1.7409h208.776c2.8222,0,5.6542.069,8.4758,0,.1205-.0029.2414,0,.362,0A1.7419,1.7419,0,0,0,505.58,786.7378Z"/><path class="cls-1" d="M730.6923,880.7469H69.1465V832.9378a51.98,51.98,0,0,1,51.98-51.98H678.712a51.98,51.98,0,0,1,51.98,51.98Z"/><path d="M730.6923,879.006H79.1186a87.29,87.29,0,0,0-8.8473,0,11.076,11.076,0,0,1-1.1248,0l1.7409,1.7409V840.7814c0-6.7071-.17-13.3344,1.4591-19.9153a50.4919,50.4919,0,0,1,19.7988-28.9784c9.3015-6.5389,20.01-9.1894,31.2334-9.1894h528.746c8.8529,0,17.7084-.0617,26.5612,0,23.5124.1641,44.336,16.7752,49.2036,39.8993,1.298,6.1665,1.0619,12.4337,1.0619,18.692v39.4573a1.7419,1.7419,0,0,0,3.4818,0V840.285c0-6.555.1018-13.0332-1.3777-19.4815a53.7892,53.7892,0,0,0-17.8416-29.0359c-10.2275-8.5291-22.8054-12.5511-36.02-12.5511H145.6307c-9.3367,0-18.85-.5236-28.1766.1278A54.2247,54.2247,0,0,0,68.5919,821.672c-1.3424,6.3243-1.1863,12.6944-1.1863,19.1094v39.9655a1.7663,1.7663,0,0,0,1.7409,1.741H703.8383c8.5719,0,17.158.1436,25.7291,0,.3748-.0063.75,0,1.1249,0A1.742,1.742,0,0,0,730.6923,879.006Z"/><path d="M69.1465,828.4841h585.696c7.91,0,15.8338.1363,23.743,0,.3458-.0059.6922,0,1.038,0a1.7419,1.7419,0,0,0,0-3.4818H93.9275c-7.91,0-15.8338-.1363-23.743,0-.3458.006-.6921,0-1.038,0a1.7419,1.7419,0,0,0,0,3.4818Z"/><path d="M71.4945,805.5912H703.9336c8.5415,0,17.0971.1433,25.6378,0,.3734-.0062.7474,0,1.1209,0a1.7419,1.7419,0,0,0,0-3.4818H98.2532c-8.5415,0-17.0972-.1433-25.6379,0-.3734.0063-.7473,0-1.1208,0a1.7419,1.7419,0,0,0,0,3.4818Z"/><path class="cls-6" d="M670.0845,300.9259,650.61,372.16H691.096l-19.1411,59.5037a1.7259,1.7259,0,0,0,3.1156,1.4284l54.4612-89.1183H686.9962L706.47,295.8012"/><path d="M668.4058,300.4631l-6.597,24.131-10.4723,38.3065-2.4048,8.7966a1.7592,1.7592,0,0,0,1.6787,2.2038H691.096l-1.6787-2.2038-3.4014,10.5739L678.78,404.7663l-6.6191,20.5769-1.6783,5.2171a5.5125,5.5125,0,0,0-.35,1.5264,3.493,3.493,0,0,0,5.63,2.8088,9.0605,9.0605,0,0,0,1.6836-2.3518l2.6691-4.3676,9.3781-15.346,12.4884-20.4355,12.867-21.0552,10.514-17.2048c1.809-2.96,3.6685-5.8953,5.4294-8.8843.0788-.1338.162-.2652.243-.3977a1.756,1.756,0,0,0-1.5032-2.62H686.9962l1.6787,2.2037L695.2791,328.1l10.4659-25.8893,2.404-5.9467a1.7542,1.7542,0,0,0-1.2159-2.1415,1.781,1.781,0,0,0-2.1415,1.2159l-6.6042,16.3366-10.4659,25.8893-2.404,5.9468a1.7525,1.7525,0,0,0,1.6787,2.2037h42.5355l-1.5032-2.62-12.863,21.0485-24.7471,40.4952L674.03,431.4558c-.1432.2343-.29.4666-.43.7032-.04.0678-.0128.1145.0475-.0774.37-1.1762.7553-2.3478,1.1329-3.5216l5.8552-18.2023,11.9145-37.0385.224-.6963a1.7562,1.7562,0,0,0-1.6787-2.2038H650.61l1.6788,2.2038,6.5969-24.1311,10.4723-38.3064,2.4048-8.7967a1.7424,1.7424,0,0,0-3.3574-.9256Z"/><path d="M118.2937,780.9574v72.7877a1.7419,1.7419,0,0,0,3.4818,0V780.9574a1.7419,1.7419,0,0,0-3.4818,0Z"/><path d="M169.1819,780.9574v72.7877a1.7419,1.7419,0,0,0,3.4818,0V780.9574a1.7419,1.7419,0,0,0-3.4818,0Z"/><path d="M220.07,780.9574v72.7877a1.7419,1.7419,0,0,0,3.4818,0V780.9574a1.7419,1.7419,0,0,0-3.4818,0Z"/><path d="M270.9581,780.9574v72.7877a1.742,1.742,0,0,0,3.4819,0V780.9574a1.742,1.742,0,0,0-3.4819,0Z"/><path d="M321.8463,780.9574v72.7877a1.7419,1.7419,0,0,0,3.4818,0V780.9574a1.7419,1.7419,0,0,0-3.4818,0Z"/><path d="M372.7344,780.9574v72.7877a1.7419,1.7419,0,0,0,3.4818,0V780.9574a1.7419,1.7419,0,0,0-3.4818,0Z"/><path d="M423.6225,780.9574v72.7877a1.742,1.742,0,0,0,3.4819,0V780.9574a1.742,1.742,0,0,0-3.4819,0Z"/><path d="M474.5107,780.9574v72.7877a1.7419,1.7419,0,0,0,3.4818,0V780.9574a1.7419,1.7419,0,0,0-3.4818,0Z"/><path d="M525.3988,780.9574v72.7877a1.7419,1.7419,0,0,0,3.4818,0V780.9574a1.7419,1.7419,0,0,0-3.4818,0Z"/><path d="M576.287,780.9574v72.7877a1.7419,1.7419,0,0,0,3.4818,0V780.9574a1.7419,1.7419,0,0,0-3.4818,0Z"/><path d="M627.1751,780.9574v72.7877a1.7419,1.7419,0,0,0,3.4818,0V780.9574a1.7419,1.7419,0,0,0-3.4818,0Z"/><path d="M678.0632,780.9574v45.7858a1.742,1.742,0,0,0,3.4819,0V780.9574a1.742,1.742,0,0,0-3.4819,0Z"/><path class="cls-1" d="M542.8532,865.485H257.5726V848.012a21.2688,21.2688,0,0,1,21.2688-21.2688h242.743a21.2688,21.2688,0,0,1,21.2688,21.2688Z"/><path d="M542.8532,863.7441h-273.7c-3.6741,0-7.4258-.22-11.0952,0-.1605.01-.3242,0-.4851,0l1.7409,1.7409V848.8931a20.759,20.759,0,0,1,2.6035-10.63,19.6222,19.6222,0,0,1,11.2445-8.9411c4.4388-1.3325,9.5936-.8383,14.1869-.8383H508.1978c4.3843,0,8.7689-.0119,13.1532,0a19.7775,19.7775,0,0,1,17.342,10.1047c3.3712,6.0777,2.4193,13.5807,2.4193,20.2772v6.619a1.7419,1.7419,0,0,0,3.4818,0V848.7016c0-9.2-4.9592-17.8187-13.5068-21.64-5.5106-2.4638-11.3231-2.0588-17.1761-2.0588H291.268c-4.1129,0-8.2269-.0272-12.34,0a23.2646,23.2646,0,0,0-20.5534,12.49c-3.345,6.5666-2.5431,14.1033-2.5431,21.2349v6.7577a1.7662,1.7662,0,0,0,1.7409,1.7409h273.7c3.696,0,7.4.07,11.0953,0,.1616-.0031.3235,0,.4851,0A1.7419,1.7419,0,0,0,542.8532,863.7441Z"/><rect class="cls-1" x="69.1465" y="853.7451" width="661.5458" height="27.0019"/><path d="M67.4056,853.7451v27.0018a1.7663,1.7663,0,0,0,1.7409,1.741H703.8383c8.5719,0,17.158.1436,25.7291,0,.3748-.0063.75,0,1.1249,0a1.7663,1.7663,0,0,0,1.7409-1.741V853.7451a1.7662,1.7662,0,0,0-1.7409-1.7409H96.0005c-8.572,0-17.158-.1436-25.7292,0-.3747.0062-.75,0-1.1248,0a1.7419,1.7419,0,0,0,0,3.4818H720.72a87.2876,87.2876,0,0,0,8.8472,0,11.078,11.078,0,0,1,1.1249,0l-1.7409-1.7409v27.0018l1.7409-1.7409H79.1186a87.29,87.29,0,0,0-8.8473,0,11.076,11.076,0,0,1-1.1248,0l1.7409,1.7409V853.7451A1.7419,1.7419,0,0,0,67.4056,853.7451Z"/><circle class="cls-7" cx="526.9247" cy="144.8412" r="8.6235"/><circle class="cls-6" cx="560.3733" cy="144.8412" r="8.6235"/><circle class="cls-8" cx="593.8218" cy="144.8412" r="8.6235"/><circle class="cls-7" cx="346.3188" cy="181.2688" r="5.5904"/><circle class="cls-6" cx="368.0027" cy="181.2688" r="5.5904"/><circle class="cls-8" cx="389.6866" cy="181.2688" r="5.5904"/><path class="cls-9" d="M816.6669,217.7009a33.4074,33.4074,0,0,0-18.9462,5.8594C793.3651,208.7557,776.37,197.15,760.2878,197.15c-13.4876,0-34.8182,9.8652-36.9436,21.0721a43.637,43.637,0,0,0-82.752.3216A43.64,43.64,0,1,0,655.093,298.39a43.6427,43.6427,0,0,0,81.5242,1.7745,50.3658,50.3658,0,0,0,64.4055-19.1966,33.5676,33.5676,0,1,0,15.6442-63.2667Z"/><path d="M816.6669,215.96a35.77,35.77,0,0,0-19.8249,6.0972l2.5574,1.04c-3.9744-13.1924-16.3252-23.005-29.3657-26.3988-12.4762-3.2468-26,.432-36.6955,7.2186-5,3.1726-10.4376,7.73-11.6727,13.8416h3.3574a45.3827,45.3827,0,0,0-86.1094.3216l2.1415-1.2159a45.3787,45.3787,0,1,0,14.9166,83.0283l-2.5574-1.04a45.3821,45.3821,0,0,0,84.8817,1.7745l-2.5574,1.0405a52.1289,52.1289,0,0,0,66.7874-19.8212l-2.3819.6246a35.3078,35.3078,0,1,0,16.5229-66.511,1.742,1.742,0,0,0,0,3.4819,31.833,31.833,0,1,1-14.7655,60.0226,1.7806,1.7806,0,0,0-2.3819.6246,49.0956,49.0956,0,0,1-44.9831,23.0215,48.42,48.42,0,0,1-17.0406-4.4495,1.7809,1.7809,0,0,0-2.5574,1.04,41.9153,41.9153,0,0,1-78.1667-1.7745,1.7641,1.7641,0,0,0-2.5574-1.04,41.9012,41.9012,0,1,1-14.0849-76.6644,1.7918,1.7918,0,0,0,2.1416-1.216,41.9,41.9,0,0,1,79.3945-.3216c.5159,1.4994,2.9925,1.8055,3.3574,0,.9443-4.6721,4.892-8.223,8.6475-10.8175a53.3494,53.3494,0,0,1,16.1709-7.3927,36.6624,36.6624,0,0,1,16.8659-.9646,41.492,41.492,0,0,1,17.3088,7.887c5.4832,4.2363,10.01,9.9348,12.0259,16.6264a1.7568,1.7568,0,0,0,2.5574,1.04,32.4387,32.4387,0,0,1,18.0676-5.6217C818.9066,219.4268,818.9116,215.9449,816.6669,215.96Z"/><path d="M632.1317,219.4066c.2243.02.4473.05.671.0755.4982.0561-.38-.0633.3331.0467.3553.0548.71.1089,1.0648.1693a56.95,56.95,0,0,1,6.1635,1.4128,43.4764,43.4764,0,0,1,16.1945,8.2135,29.3481,29.3481,0,0,1,7.4854,9.56,1.7637,1.7637,0,0,0,2.3819.6245,28.5893,28.5893,0,0,1,8.5181-3.0392c5.1437-1.0221,10.5426-.1236,13.6238,4.5011,1.2366,1.856,4.2536.1146,3.0065-1.7573a14.7671,14.7671,0,0,0-12.5779-6.6223,29.891,29.891,0,0,0-11.88,2.7412,26.4615,26.4615,0,0,0-2.4482,1.17l2.3819.6245c-5.8014-11.91-18.7629-18.3839-31.3-20.6759-1.1965-.2187-2.4069-.4177-3.6191-.5262-2.2311-.2-2.2176,3.2833,0,3.4818Z"/><path class="cls-6" d="M776.5363,265.0451l-19.8946,67.5316,45.8337.9668-23.0907,66.9072a1.9542,1.9542,0,0,0,3.493,1.6915l63.7839-99.59-48.1544-1.0159,15.7488-36.4909"/><path d="M774.8575,264.5823l-6.72,22.81-10.7128,36.3643-2.4622,8.3576a1.7594,1.7594,0,0,0,1.6788,2.2037l15.4432.3257,24.6636.52,5.7269.1208-1.6787-2.2037L796.7039,344.94,787.99,370.188l-8.0118,23.215-2.0331,5.8909a5.6167,5.6167,0,0,0-.417,1.7089,3.7326,3.7326,0,0,0,6.3133,2.7043,14.9336,14.9336,0,0,0,1.609-2.3567l3.1553-4.9266,10.99-17.16L814.2528,356.38l15.015-23.444,12.2635-19.148,6.3438-9.9049.29-.4525a1.7562,1.7562,0,0,0-1.5033-2.62l-16.3289-.3445-25.8725-.5458-5.953-.1256,1.5032,2.62,13.7689-31.9033,1.98-4.5876a1.8012,1.8012,0,0,0-.6246-2.3819,1.752,1.752,0,0,0-2.3819.6245L798.9839,296.07l-1.98,4.5876a1.7667,1.7667,0,0,0,1.5032,2.62l16.3289.3445,25.8725.5458,5.953.1256-1.5032-2.62-4.2608,6.6527-10.7795,16.8309-14.2937,22.3177L801.021,370.5881l-12.3086,19.2183-6.8093,10.6318a6.1623,6.1623,0,0,1-.491.7666c-.1994.2254-.4739.0158-.335-.3309.4986-1.2444.88-2.55,1.3172-3.8167l7.0718-20.4912L798.324,350.9l5.5525-16.089.2777-.8044a1.7564,1.7564,0,0,0-1.6788-2.2037l-15.4432-.3258-24.6636-.52-5.7269-.1209L758.32,333.04l6.72-22.81,10.7129-36.3643,2.4621-8.3576c.6345-2.1538-2.7246-3.0737-3.3575-.9256Z"/><path class="cls-9" d="M759.7075,262.1436s8.7045,16.8288,35.3985,3.4818c13.9272,4.6424,26.6939,4.0621,33.6576-5.803"/><path d="M758.2042,263.0223a17.02,17.02,0,0,0,5.1995,5.5529c4.83,3.4943,11.0287,4.4243,16.8412,3.6884a49.6956,49.6956,0,0,0,15.74-5.135l-1.3414.1755c6.5693,2.1676,13.62,3.5333,20.5345,2.5151a22.2413,22.2413,0,0,0,15.0891-9.1182c1.3091-1.8229-1.71-3.5632-3.0065-1.7573-3.6283,5.0525-9.3814,7.4728-15.48,7.7216a39.5,39.5,0,0,1-10.4121-1.08c-1.8961-.4339-3.7207-1.0814-5.5972-1.5716-1.0737-.28-1.8442.2671-2.7951.7185-.9193.4364-1.8478.8548-2.79,1.2385-5.3048,2.16-11.2653,3.7226-17.0267,2.8295a19.1267,19.1267,0,0,1-5.3121-1.6175,17.0986,17.0986,0,0,1-3.645-2.3854,17.6023,17.6023,0,0,1-1.4473-1.42c-.1851-.2042-.3609-.4159-.54-.6255-.408-.4785.0855.1588-.2441-.3128a10.7909,10.7909,0,0,1-.76-1.1737c-1.0353-1.9881-4.0412-.23-3.0065,1.7574Z"/><rect class="cls-1" x="568.7877" y="471.8201" width="338.3168" height="253.3837" rx="29.5597"/><path d="M877.5448,723.463H605.4733c-2.3686,0-4.7378.0149-7.1064,0a28.1145,28.1145,0,0,1-27.8383-27.8819c-.02-3.4483,0-6.8973,0-10.3457V504.9147c0-1.1345-.0057-2.2692,0-3.4037a27.8028,27.8028,0,0,1,27.8209-27.95c.5929-.0038,1.186,0,1.7789,0H875.641c.6316,0,1.2635-.004,1.8951,0a27.8125,27.8125,0,0,1,27.8275,27.9129c.0058,1.0814,0,2.1629,0,3.2443V684.9068c0,3.5476.019,7.0958,0,10.6433a28.1189,28.1189,0,0,1-27.8188,27.9129c-2.24.0176-2.2447,3.4994,0,3.4818a31.6536,31.6536,0,0,0,31.3006-31.3131c.0206-3.2772,0-6.5551,0-9.8323V504.5745c0-1.0438.0064-2.0878,0-3.1316a31.7446,31.7446,0,0,0-7.1034-19.9043c-6.3547-7.8207-15.7473-11.4594-25.6335-11.4594H599.9231c-9.4871,0-18.4927,3.2162-24.9169,10.451a31.6855,31.6855,0,0,0-7.9594,20.8777c-.006.9777,0,1.9556,0,2.9332V685.398c0,3.4024-.0206,6.8056,0,10.208a31.6368,31.6368,0,0,0,29.8822,31.3053c2.5573.1209,5.1358.0335,7.6943.0335H877.5448A1.7419,1.7419,0,0,0,877.5448,723.463Z"/><path d="M568.7877,508.9367v-19.963A17.1535,17.1535,0,0,1,585.9412,471.82h304.01a17.1536,17.1536,0,0,1,17.1536,17.1536v19.963Z"/><path d="M570.5286,508.9367c0-6.4639-.0139-12.928,0-19.3919a15.6506,15.6506,0,0,1,15.5565-15.9838c4.6827-.0388,9.3673,0,14.05,0H888.4739c4.2251,0,8.2772.8769,11.5742,3.7644a15.9389,15.9389,0,0,1,5.3155,12.3477v19.2636l1.7409-1.7409H582.5209c-4.383,0-8.7755-.0838-13.158,0-.1916.0037-.3836,0-.5752,0a1.7419,1.7419,0,0,0,0,3.4818H893.3713c4.383,0,8.7755.0838,13.158,0,.1916-.0036.3836,0,.5752,0a1.7662,1.7662,0,0,0,1.7409-1.7409c0-6.5026.0169-13.0055,0-19.5081a19.1641,19.1641,0,0,0-18.919-19.3494c-4.37-.0491-8.7427,0-13.1125,0H586.9791c-5.6806,0-11.11,1.86-15.0031,6.1705a19.5225,19.5225,0,0,0-4.9292,13.2951c-.007,3.75,0,7.501,0,11.2515v8.14A1.7419,1.7419,0,0,0,570.5286,508.9367Z"/><path class="cls-6" d="M675.2394,648.42,732.64,558.8666a14.0794,14.0794,0,0,1,23.7069,0L813.748,648.42a14.0794,14.0794,0,0,1-11.8535,21.677H687.0928A14.0793,14.0793,0,0,1,675.2394,648.42Z"/><path d="M676.7426,649.2984l4.4408-6.9282,11.0432-17.2289,14.2941-22.3008,13.9826-21.8147,10.3128-16.0894c1.856-2.8955,3.6623-6.559,6.5362-8.5594a12.5415,12.5415,0,0,1,14.6574.2681,15.5916,15.5916,0,0,1,3.5128,4.1589l7.3254,11.4287,12.6418,19.723,14.5395,22.6835,13.0182,20.31,8.0985,12.6347c.4845.7559.9934,1.5029,1.444,2.28a12.3326,12.3326,0,0,1-10.9524,18.4918c-1.1279.0031-2.2558,0-3.3836,0H690.4069c-1.0474,0-2.0949.0038-3.1423,0a12.3262,12.3262,0,0,1-10.522-19.0575c1.1916-1.9051-1.82-3.6548-3.0065-1.7573a15.8189,15.8189,0,0,0,13.3657,24.2966c2.8388.0257,5.6791,0,8.518,0H791.48c3.4026,0,6.8054.0113,10.208,0a15.8249,15.8249,0,0,0,15.4092-20.2588c-1.0455-3.4938-3.5336-6.67-5.4825-9.7108l-10.8281-16.8932-14.4383-22.5257L771.96,580l-10.68-16.6629c-2.0722-3.2329-4.02-6.9914-7.0906-9.3759a16.0286,16.0286,0,0,0-16.3521-1.8546,16.4716,16.4716,0,0,0-7.02,6.3818L724.17,568.8569,711.5893,588.485l-14.8456,23.1611L683.293,632.631l-8.3964,13.1-1.1605,1.8105C672.5234,649.4331,675.5358,651.1811,676.7426,649.2984Z"/><path d="M736.42,575.0367l3.8659,61.9828h8.8312l3.8659-61.9828a8.2976,8.2976,0,0,0-8.2815-8.8142h0A8.2976,8.2976,0,0,0,736.42,575.0367Z"/><path d="M734.6789,575.0367l1.3132,21.055,2.0743,33.2582.4783,7.67a1.775,1.775,0,0,0,1.741,1.741h8.8312a1.7781,1.7781,0,0,0,1.7409-1.741L752.7364,606.9c.66-10.589,1.48-21.1815,1.9821-31.7794a10.0349,10.0349,0,1,0-20.04-.0843c.0932,2.2324,3.5755,2.2442,3.4818,0a6.6417,6.6417,0,0,1,9.0532-6.5867,6.7594,6.7594,0,0,1,4.0073,6.919c-.2179,3.7132-.4631,7.4249-.6946,11.1372l-2.4962,40.022L747.376,637.02l1.7409-1.7409h-8.8312l1.7409,1.7409-1.3132-21.055-2.0744-33.2582-.4783-7.67C738.0219,572.811,734.5391,572.7952,734.6789,575.0367Z"/><circle cx="744.7013" cy="653.5582" r="7.2538"/><path d="M750.2142,653.5582a5.5108,5.5108,0,1,1-4.586-5.4421,5.5672,5.5672,0,0,1,4.586,5.4421c.0307,2.2386,3.5126,2.245,3.4818,0a9.133,9.133,0,0,0-5.9312-8.4517,9.0049,9.0049,0,0,0-9.9288,2.6527,8.99,8.99,0,1,0,15.86,5.799C753.7268,651.3169,750.2449,651.3158,750.2142,653.5582Z"/><circle class="cls-7" cx="596.6422" cy="490.7831" r="6.3833"/><circle class="cls-6" cx="621.4018" cy="490.7831" r="6.3833"/><circle class="cls-8" cx="646.1614" cy="490.7831" r="6.3833"/><path d="M395.277,250.2474h85.3046a.871.871,0,0,0,0-1.7409H395.277a.871.871,0,0,0,0,1.7409Z"/><path d="M395.277,267.6565h85.3046a.871.871,0,0,0,0-1.7409H395.277a.871.871,0,0,0,0,1.7409Z"/><path d="M395.277,285.0656h85.3046a.871.871,0,0,0,0-1.7409H395.277a.871.871,0,0,0,0,1.7409Z"/><path d="M427.4838,305.086h53.0978a.871.871,0,0,0,0-1.7409H427.4838a.871.871,0,0,0,0,1.7409Z"/></svg>