<svg id="Layer_1" data-name="Layer 1" xmlns="http://www.w3.org/2000/svg" width="1000" height="1000" viewBox="0 0 1000 1000"><defs><style>.cls-1{fill:#fc7f3a;}.cls-2{fill:#ea2f2f;}.cls-3{fill:#ffc41f;}.cls-4{fill:#fc7272;}.cls-5{fill:#fff;}.cls-6{fill:#458dc9;}.cls-7{fill:#389b48;}</style></defs><polygon class="cls-1" points="704.227 421.823 704.227 404.451 770.123 404.451 770.123 427.814 704.227 421.823"/><path d="M706.2107,421.8234V404.4508l-1.9833,1.9834h65.896l-1.9833-1.9834v23.3631l1.9833-1.9833-22.3168-2.0288-35.4245-3.22-8.1547-.7413a1.9982,1.9982,0,0,0-1.9833,1.9833,2.0253,2.0253,0,0,0,1.9833,1.9833l22.3169,2.0288,35.4244,3.22,8.1547.7414a2.0019,2.0019,0,0,0,1.9833-1.9834V404.4508a2.0122,2.0122,0,0,0-1.9833-1.9833h-65.896a2.0122,2.0122,0,0,0-1.9833,1.9833v17.3726C702.2441,424.3758,706.2107,424.38,706.2107,421.8234Z"/><path class="cls-2" d="M383.4619,115.8831s16.76,35.3094-.1067,87.5224c-10.4256,29.6076-64.0461,16.0091-64.0461,16.0091l20.5286-93.5676"/><path d="M381.7493,116.8841c.0437.0922.085.1855.1266.2786.0476.1067.0919.2149.14.3214.15.3307-.2053-.5084.0389.0959q.6465,1.6,1.21,3.23a95.9214,95.9214,0,0,1,3.2731,12.1855,129.1447,129.1447,0,0,1,.9551,44.0186q-1.059,7.3245-2.83,14.522-.9629,3.93-2.1229,7.8086a40,40,0,0,1-1.842,5.3788,23.3331,23.3331,0,0,1-10.1733,10.6813c-9.08,5.0235-20.3063,5.5551-30.5952,4.9835a114.3784,114.3784,0,0,1-12.8642-1.4362c-2.3158-.3872-4.6017-1.0042-6.9151-1.3731-.1055-.0168-.2111-.0507-.3149-.0769l1.3852,2.44,2.0332-9.267L328.166,188.29l5.9186-26.976,5.14-23.43c.8287-3.7774,1.7585-7.5481,2.4893-11.346.0105-.0548.0239-.1092.0359-.1637.5459-2.488-3.2773-3.5508-3.8249-1.0545l-2.0332,9.267-4.9114,22.3853-5.9185,26.976-5.14,23.4295c-.8287,3.7775-1.7585,7.5481-2.4893,11.3461-.01.0548-.0239.1092-.0359.1637a2.0188,2.0188,0,0,0,1.3852,2.44,111.3944,111.3944,0,0,0,17.8265,2.794c10.8844.9252,22.5193.61,32.7035-3.7341a29.3368,29.3368,0,0,0,12.6687-9.9476,31.3281,31.3281,0,0,0,4.1026-9.103,159.2072,159.2072,0,0,0,3.9256-15.6123,139.473,139.473,0,0,0,1.1949-49.17,104.6151,104.6151,0,0,0-3.3544-14.4849,46.2112,46.2112,0,0,0-2.5483-6.9085c-.0455-.091-.0829-.1866-.1265-.2786-1.0918-2.3058-4.5127-.295-3.4251,2.002Z"/><path class="cls-3" d="M329.8184,220.5411H354.38c19.475.8853,42.72,14.1062,50.3893,32.0293q.1431.3343.2731.65L446.5451,354.06a251.7809,251.7809,0,0,0-23.91,9.2216c-15.0848,6.6918-47.7686,38.8286-57.7922,46.0271l-40.095-109.1863Z"/><path d="M329.8184,222.5245h17.5958c2.2929,0,4.5907-.0453,6.8833,0a50.8073,50.8073,0,0,1,14.48,2.7589c10.7081,3.4781,20.8536,9.7477,28.1389,18.4011a46.1785,46.1785,0,0,1,7.1938,12.4469l12.542,30.4733,17.5842,42.7241,6.7839,16.4826c1.1472,2.7875,2.158,5.6924,3.462,8.4116.0565.1178.1.2434.15.3643l1.3852-2.44q-7.0244,2.2969-13.8981,5.021c-4.03,1.5941-8.1548,3.1563-12.0157,5.1345a89.3563,89.3563,0,0,0-13.505,9.0742c-10.7391,8.2778-20.8074,17.3851-30.9849,26.3318-2.2693,1.9949-4.5425,3.9859-6.85,5.9372-.9494.803-1.9046,1.5994-2.8739,2.3783q-.31.2488-.6212.4951c-.0884.07-.1771.1391-.2657.2087-.2971.2334.1338-.1013-.0474.0376q-.5514.4227-1.1142.83l2.9135,1.1853-2.9064-7.9149-7.2469-19.7345-9.5064-25.888-9.5519-26.0116-7.5368-20.524-2.324-6.3289-.679-1.8488c-.0657-.1791-.167-.7615-.3237-.8816.1368.1048.0018.784.0781.0482.0654-.6305.0809-1.27.1212-1.903l.4922-7.7249,1.6094-25.26,1.7345-27.2247,1.0359-16.2593.05-.784c.1624-2.549-3.8049-2.5392-3.9667,0L327.0987,232.1l-1.648,25.8657-1.7175,26.9574c-.3144,4.9351-.7918,9.89-.945,14.8338a4.46,4.46,0,0,0,.3823,1.8047l1.6912,4.6054,6.678,18.1855,9.2788,25.268,9.7279,26.4909,8.0252,21.8542,4.1707,11.3576.1884.513c.3992,1.0872,1.79,1.9954,2.9135,1.1853,3.6549-2.6362,7.0384-5.6638,10.4281-8.6254,4.8541-4.2411,9.6639-8.5324,14.5248-12.7657,5.1558-4.49,10.3559-8.9354,15.7122-13.1859a112.5789,112.5789,0,0,1,13.8686-9.7765,89.6228,89.6228,0,0,1,11.0349-4.97q7.7317-3.1237,15.6595-5.7252a1.9992,1.9992,0,0,0,1.3853-2.44l-8.6867-21.1058-17.5658-42.68L408.54,256.5466a68.1677,68.1677,0,0,0-4.5944-9.8607c-6.0441-9.8638-15.8033-17.3255-26.21-22.1173a61.5287,61.5287,0,0,0-25.6608-6.0108H329.8184C327.2661,218.5578,327.2619,222.5245,329.8184,222.5245Z"/><path class="cls-3" d="M365.7617,230.126,364.2533,213.01c-.2389-5.7975-6.1717-10.3729-13.3412-10.2888l-38.1834.4477-1.4809,28.1555h40.7356"/><path d="M367.745,230.126l-1.2645-14.3482c-.2007-2.2773-.2442-4.6116-1.162-6.7385-1.78-4.1245-5.886-6.89-10.182-7.85-3.79-.8467-8-.4077-11.8524-.3625l-18.2985.2145-12.2569.1437a2.0254,2.0254,0,0,0-1.9833,1.9834l-1.2966,24.6494-.1844,3.5061a2.0057,2.0057,0,0,0,1.9834,1.9833h40.7356c2.5524,0,2.5566-3.9666,0-3.9666H311.2478l1.9833,1.9833,1.2965-24.6495.1845-3.506-1.9834,1.9833,27.5384-.3229c3.53-.0414,7.0612-.1109,10.5916-.1242a12.4545,12.4545,0,0,1,9.5563,3.882c1.5617,1.7939,1.8036,3.84,2.0008,6.0784l1.3626,15.4608c.2223,2.5231,4.191,2.5465,3.9666,0Z"/><path d="M384.3663,409.602c-2.478-5.5861,5.1615-14.9245,19.0523-24.9l15.2447,26.7941C400.3716,415.8456,386.9928,415.5221,384.3663,409.602Z"/><path d="M386.0789,408.601c.16.3785-.0235-.1085-.0433-.1939-.04-.1745-.0892-.3461-.1231-.5223-.0878-.4579-.0018.2367-.0153-.1971-.0059-.1882-.0125-.3755-.007-.5637a6.5927,6.5927,0,0,1,.4559-2.1051,19.0337,19.0337,0,0,1,3.209-5.32c4.1728-5.1729,9.501-9.4184,14.8646-13.2846l-2.7136-.7116,13.33,23.4294,1.9144,3.3647,1.1853-2.9135c-7.1775,1.6948-14.6191,3.1116-22.029,2.8519a21.6842,21.6842,0,0,1-6.9156-1.1812,9.1287,9.1287,0,0,1-1.0393-.4963,8.5306,8.5306,0,0,1-.8378-.5406c-.1347-.1152-.2664-.2339-.3918-.3592-.0576-.0576-.5219-.6008-.2521-.2464a5.4018,5.4018,0,0,1-.5916-1.0108,2,2,0,0,0-2.7136-.7116,2.029,2.029,0,0,0-.7115,2.7136c2.0985,4.5319,8.1179,5.496,12.5286,5.7561,8.03.4734,16.2326-1.1145,24.0082-2.9505a2.0033,2.0033,0,0,0,1.1853-2.9135l-13.33-23.4294-1.9144-3.3647a1.9963,1.9963,0,0,0-2.7136-.7115c-6.03,4.3469-12.0408,9.0978-16.5674,15.056-2.7033,3.5583-5.0818,8.1035-3.1964,12.5575a1.995,1.995,0,0,0,2.7135.7115A2.0364,2.0364,0,0,0,386.0789,408.601Z"/><path class="cls-4" d="M422.6354,363.2816a251.7809,251.7809,0,0,1,23.91-9.2216l13.579,32.9932,3.8635,9.3872,164.6981-40.2256,12.042,53.0285L492.1119,466.385c-51.4684,12.3486-70.5137,6.7784-88.0107-21.1985l-12.7046-20.9449-17.8472-31.1728C389.7239,377.4934,407.5506,369.9734,422.6354,363.2816Z"/><path d="M423.6364,364.9942a250.1724,250.1724,0,0,1,23.4359-9.0217l-2.44-1.3852,6.7895,16.4966q3.3948,8.2482,6.7895,16.4965,1.9317,4.6936,3.8635,9.3872a2.0426,2.0426,0,0,0,2.44,1.3853l16.4042-4.0066,39.3859-9.6195,47.6276-11.6325,40.9519-10.002,13.5884-3.3189c2.1266-.5194,4.3765-.8871,6.4562-1.5768.0914-.03.19-.0464.2838-.0693l-2.44-1.3853,4.0751,17.9454,6.4675,28.48,1.4994,6.6028,1.3852-2.44-11.4275,4.3938-28.551,10.9777-36.6979,14.11-36.15,13.8995-26.9,10.343-7.1536,2.75a68.4981,68.4981,0,0,1-10.3339,2.6265,170.7482,170.7482,0,0,1-28.4139,4.0911,62.8749,62.8749,0,0,1-20.7186-2.0867c-12.3634-3.691-21.1472-13.2144-27.88-23.9962-4.4468-7.1207-8.8833-14.2974-13.0764-21.57-5.3807-9.3328-10.7054-18.6985-16.058-28.0476l-1.577-2.7544-.31,2.4034c11.1339-10.6718,24.3567-18.4,38.29-24.823,3.4477-1.5894,6.9241-3.1152,10.3944-4.654a2,2,0,0,0,.7116-2.7136,2.03,2.03,0,0,0-2.7136-.7115c-13.3861,5.9358-26.7081,12.0057-38.5037,20.8132a117.0968,117.0968,0,0,0-10.9837,9.2841,2.019,2.019,0,0,0-.31,2.4034l15.2062,26.56c4.32,7.546,8.9025,14.9358,13.412,22.37,6.036,9.9511,13,19.7223,23.3909,25.5047,13.0936,7.2868,28.7374,6.7707,43.1275,4.81,5.1441-.7009,10.2547-1.6317,15.3362-2.6915a96.2266,96.2266,0,0,0,10.4535-2.3733c1.4282-.4714,2.8245-1.086,4.2277-1.6255l22.916-8.8111,34.7475-13.36,37.7576-14.5176L623.97,417.8016l16.5422-6.36.7426-.2856a2.0417,2.0417,0,0,0,1.3852-2.44l-4.0751-17.9454-6.4675-28.48-1.4994-6.6028a2.0143,2.0143,0,0,0-2.44-1.3853l-16.4042,4.0066-39.3859,9.62-47.6277,11.6325-40.9518,10.002L470.2,392.8818c-2.1266.5194-4.3764.8871-6.4562,1.5768-.0913.03-.19.0464-.2837.0693l2.44,1.3853q-2.7482-6.6774-5.4964-13.3546l-9.29-22.5708-2.6566-6.455a2.0237,2.0237,0,0,0-2.44-1.3852,260.36,260.36,0,0,0-24.3834,9.4215,1.9993,1.9993,0,0,0-.7115,2.7135A2.03,2.03,0,0,0,423.6364,364.9942Z"/><path class="cls-3" d="M373.5494,250.4939s86.2638,285.15,79.6742,306.1167-119.8108,7.7877-119.8108,7.7877l-.5991-280.3574"/><path d="M371.6369,251.0211q2.1687,7.1688,4.3079,14.3464,5.5766,18.6516,11.0692,37.3282,7.6773,26.0927,15.1963,52.2314,8.4769,29.49,16.6892,59.0554,7.989,28.8414,15.5477,57.8005c4.1648,16.0936,8.214,32.2264,11.7719,48.4665,1.3247,6.0461,2.584,12.11,3.6469,18.2082q.3267,1.8742.6228,3.7535.1365.8724.2645,1.7462.0511.35.1007.7012c.0246.1738.1605,1.1807.0787.5619.2484,1.8792.4654,3.7647.5841,5.6571a31.5954,31.5954,0,0,1,.018,4.0613c-.0085.13-.0294.2592-.04.3891-.0326.418.13-.5985.0126-.1075-.05.2092-.0753.4235-.1307.6323-.0306.1157-.0731.2288-.1029.3444-.16.621.11-.1192-.1169.3042a9.9254,9.9254,0,0,1-.7747,1.2587c.3606-.4851-.1682.1779-.2723.29-.1832.1971-.3753.3859-.5733.568-.1714.1578-.35.3071-.5285.4564-.3764.3142.3471-.251-.0541.044-.16.1173-.32.2326-.4838.3444a20.6934,20.6934,0,0,1-3.4716,1.87c-.0714.0309-.3011.1257-.7124.2841q-.5343.2058-1.0753.3937c-.7614.2655-1.5311.5068-2.3059.73-1.7082.492-3.4416.8945-5.1848,1.241a155.0241,155.0241,0,0,1-26.162,2.4126c-10.06.262-20.13.0446-30.1818-.4025q-21.8532-.972-43.6291-3.3183c-.7786-.0837-1.5571-.1678-2.3349-.2583l1.9833,1.9833-.0161-7.5144-.0437-20.4478-.0643-30.1077-.0788-36.865-.0859-40.2234-.0871-40.7567-.0812-37.9974-.0683-31.9871-.0492-23.022c-.0078-3.6514.0647-7.3133-.0235-10.9639-.0038-.1572-.0006-.3148-.001-.472-.0054-2.5521-3.9721-2.5568-3.9666,0l.016,7.5144.0437,20.4478.0644,30.1078.0787,36.8649.086,40.2234.0871,40.7568.0812,37.9973.0683,31.9872.0492,23.022c.0078,3.6513-.0647,7.3133.0234,10.9638.0038.1572.0007.3148.001.472a2.04,2.04,0,0,0,1.9834,1.9834c10.8021,1.2561,21.6605,2.13,32.5107,2.8357,19.5306,1.27,39.3537,2.1357,58.8737.2712,7.5269-.7189,15.3927-1.7067,22.3671-4.802,4.0375-1.7919,7.7816-4.7161,8.2976-9.3586a40.3662,40.3662,0,0,0-.4765-9.4475c-.67-5.2511-1.61-10.4642-2.6348-15.6564-2.9692-15.0482-6.6048-29.9673-10.34-44.8408-4.73-18.8368-9.7359-37.6041-14.8528-56.3391q-8.224-30.1122-16.8139-60.1229Q402.4871,341.37,394.43,313.876q-6.1869-21.1347-12.4742-42.24-3.0937-10.3833-6.2181-20.7574-.1377-.4562-.2755-.9122c-.7372-2.4369-4.567-1.3983-3.825,1.0545Z"/><path class="cls-4" d="M406.7529,804.78,431.15,899.329l129.8788-33.0663s-7.1592-37.3624-56.5-29.0135a17.951,17.951,0,0,1-20.48-13.4c-2.8138-11.5312-5.4844-22.7011-5.4844-22.7011"/><path d="M404.8405,805.3067l2.43,9.4187,5.8349,22.6131,7.0253,27.2265,6.1014,23.6457c.9841,3.8139,1.8039,7.7208,2.9638,11.4862.0161.0522.0274.1064.0411.1593a2.0156,2.0156,0,0,0,2.44,1.3852l12.8937-3.2826,31.0882-7.9149,37.4926-9.5453,32.4113-8.2517c5.2439-1.3351,10.5931-2.469,15.7794-4.0174.07-.0209.1426-.0363.2137-.0544a2.0287,2.0287,0,0,0,1.3852-2.44,31.9943,31.9943,0,0,0-2.4841-7.0736,41,41,0,0,0-9.9664-13.55,43.8146,43.8146,0,0,0-21.8285-10.1854,66.251,66.251,0,0,0-16.5357-.6231c-5.9517.4868-11.9223,2.4328-17.6006-.3671a16.0174,16.0174,0,0,1-6.1713-5.2557c-1.9074-2.7949-2.5358-5.9355-3.3228-9.1737q-2.1693-8.9247-4.309-17.8567-.1233-.5145-.2463-1.0289c-.5934-2.4816-4.4193-1.4309-3.825,1.0545q1.5514,6.4881,3.1216,12.9717c1.607,6.6449,2.4852,13.8225,7.4962,18.9029a20.051,20.051,0,0,0,16.2022,5.83c3.1961-.3472,6.34-.9526,9.5547-1.1788a69.6886,69.6886,0,0,1,8.57-.0958c8.509.45,16.7849,2.816,23.6751,7.85a36.5918,36.5918,0,0,1,10.894,12.9279q.3966.7671.76,1.55.1575.3393.3088.6814c.0487.11.0958.2214.1447.3316.166.3743-.0043-.0124.0055.0116.3274.8043.64,1.6133.917,2.4366.3042.9039.4692,1.8677.7863,2.7613a.9272.9272,0,0,1,.0277.1333l1.3853-2.44-12.8937,3.2826L516.52,875.5477l-37.4927,9.5454-32.4112,8.2517-10.6872,2.7208c-1.67.4252-3.4681.7145-5.0922,1.2965-.0682.0244-.1433.0365-.2137.0544l2.44,1.3852-2.43-9.4187L424.797,866.77l-7.0253-27.2266L411.67,815.8977c-.9841-3.8138-1.8039-7.7207-2.9638-11.4862-.0161-.0522-.0274-.1063-.0411-.1593-.6373-2.47-4.4642-1.4229-3.8249,1.0545Z"/><path class="cls-5" d="M492.14,833.4064A18.4965,18.4965,0,0,0,507,837.3506c50.6417-8.5691,57.99,29.7783,57.99,29.7783l-99.58,16.0466.65-5.9574a61.3841,61.3841,0,0,1,26.08-43.8117Z"/><path d="M490.7378,834.8089a20.7875,20.7875,0,0,0,15.947,4.5773,102.4912,102.4912,0,0,1,14.841-1.2988,49.6763,49.6763,0,0,1,21.3333,4.5453,37.0862,37.0862,0,0,1,12.5334,9.817q.28.3356.5532.6771.1616.202.32.4063c-.0465-.06-.2242-.2953.0017.0045q.55.7305,1.0717,1.4818.8863,1.285,1.6737,2.6349.7484,1.2825,1.4047,2.6159.2574.5231.5,1.0532c.0857.1874.1688.3758.253.5638.0491.11.0951.2205.1435.33.1523.3458-.1691-.4145-.0179-.0431a29.656,29.656,0,0,1,1.7807,5.4817l1.3852-2.44-9.934,1.6008-23.7278,3.8236-28.8194,4.644-24.8143,3.9987-8.1923,1.32c-1.2857.2072-2.662.3015-3.9234.6323-.0542.0142-.113.0182-.1685.0271l2.5105,1.9125c.6444-5.9062,1.3009-11.7153,3.1148-17.4119a59.4132,59.4132,0,0,1,22.6331-30.6446c2.0848-1.4434.1038-4.8831-2.002-3.4251a63.9251,63.9251,0,0,0-26.9008,44.1814c-.3155,2.4273-.5463,4.867-.8117,7.3-.1539,1.41,1.3835,2.0941,2.5106,1.9125l9.934-1.6008,23.7278-3.8236,28.8194-4.6441,24.8143-3.9986,8.1923-1.32c1.295-.2087,2.6462-.3289,3.9234-.6322.0549-.0131.1128-.0182.1685-.0272a2.0182,2.0182,0,0,0,1.3853-2.44,37.9324,37.9324,0,0,0-7.1074-14.9308A41.8707,41.8707,0,0,0,547.44,840.5887a49.6052,49.6052,0,0,0-20.5427-6.2068,73.2382,73.2382,0,0,0-15.6291.36c-3.1258.3852-6.2379,1.1566-9.4029.7788a16.5834,16.5834,0,0,1-8.3227-3.5164,2.0437,2.0437,0,0,0-2.8048,0A1.9976,1.9976,0,0,0,490.7378,834.8089Z"/><path class="cls-6" d="M383.0194,405.308,487.3672,797.1225,383.7333,823.19S311.4982,536.653,303.7074,492.8715s-13.0392-103.42-13.0392-103.42"/><path d="M381.1069,405.8353l2.7906,10.4783L391.492,444.83l11.2326,42.1771,13.7047,51.46L431.44,594.8319l15.1514,56.892,14.126,53.0416,11.9347,44.8133,8.5774,32.2073c1.3343,5.01,2.3205,10.3111,4.0492,15.204.075.2123.1176.4416.1756.66l1.3853-2.44-35.0734,8.8221-55.835,14.0444-12.7255,3.2009,2.44,1.3852q-1.3857-5.4966-2.7664-10.9944-3.714-14.7762-7.4142-29.5559-5.38-21.4851-10.7344-42.9766-6.4116-25.7349-12.7825-51.48-6.7268-27.1911-13.3923-54.3974-6.4083-26.1759-12.7244-52.3741-5.4357-22.5877-10.7289-45.21c-2.5482-10.9493-5.0773-21.9059-7.4061-32.9044-3.4562-16.3234-5.81-32.868-7.9791-49.4045q-3.9621-30.2086-6.76-60.5614-.156-1.6763-.3061-3.3531c-.2223-2.5231-4.1911-2.5465-3.9667,0,1.3238,15.0244,2.9483,30.0278,4.7154,45.0057,2.5022,21.21,5.0865,42.54,9.2607,63.4965,1.9358,9.719,4.151,19.3842,6.3667,29.0424q4.8893,21.3115,10.01,42.5694,6.1333,25.6476,12.3975,51.2636,6.6352,27.1965,13.35,54.3736,6.5119,26.3808,13.0737,52.7493,5.6637,22.7679,11.3571,45.5284,4.19,16.7517,8.3954,33.5c1.3412,5.3406,2.5754,10.7232,4.032,16.0339.064.2331.1183.4693.1774.7037a2.0155,2.0155,0,0,0,2.44,1.3852l35.0733-8.8221,55.8351-14.0443,12.7255-3.2009a2.0128,2.0128,0,0,0,1.3852-2.44l-2.7906-10.4784L478.8946,757.6l-11.2326-42.177-13.7047-51.46-15.0111-56.3647-15.1514-56.8921-14.126-53.0415-11.9347-44.8133-8.5774-32.2073c-1.3486-5.0638-2.5922-10.17-4.0492-15.2041-.0632-.2184-.1171-.44-.1756-.66-.6563-2.4644-4.4837-1.419-3.825,1.0545Z"/><path class="cls-4" d="M121.3608,704.0719,36.4823,752.3468l65.8822,116.7109s34.19-16.6812,13.2274-62.1214a17.951,17.951,0,0,1,7.5777-23.2719c10.3939-5.7316,20.4767-11.2305,20.4767-11.2305"/><path d="M120.36,702.3594l-8.4553,4.8089-20.3,11.5458L67.1627,732.6154,45.9356,744.6883c-3.4247,1.9478-6.9756,3.7657-10.3113,5.8646-.0463.0291-.0955.0543-.143.0813a2.0158,2.0158,0,0,0-.7115,2.7136l6.54,11.5864,15.77,27.9363,19.0184,33.6914,16.4409,29.1253c2.6606,4.7132,5.16,9.5733,8.0042,14.18.0386.0624.0724.1282.1084.192a2.0288,2.0288,0,0,0,2.7136.7115,32.4243,32.4243,0,0,0,6.5071-4.52,40.8316,40.8316,0,0,0,10.6333-13.9036,45.26,45.26,0,0,0,3.3406-25.2411,69.7186,69.7186,0,0,0-4.6426-16.7836c-1.1476-2.82-2.66-5.5313-3.1314-8.5744a16.1778,16.1778,0,0,1,.6959-7.5812,15.9856,15.9856,0,0,1,4.9125-7.1155,25.5086,25.5086,0,0,1,4.2175-2.6258q2.9271-1.6124,5.8566-3.2206,6.4418-3.5369,12.8923-7.0577c2.2417-1.2226.2421-4.649-2.0021-3.425q-5.3734,2.9307-10.739,5.876c-3.3491,1.837-6.7474,3.6086-10.0488,5.53a19.915,19.915,0,0,0-9.4138,21.6865c.6808,3.0457,2.263,5.816,3.3921,8.7074a75.171,75.171,0,0,1,2.8238,8.6958c2.2157,8.6576,2.5441,17.8115-.4421,26.3021a36.5971,36.5971,0,0,1-9.729,14.6617q-.6954.6486-1.4206,1.2641-.3635.3085-.7341.6084c-.131.106-.8934.6969-.4037.3241-.7678.5845-1.5518,1.1467-2.3611,1.6725a21.2483,21.2483,0,0,1-2.2055,1.2952l2.7136.7115-6.54-11.5864-15.77-27.9363L62.7483,794.8426,46.3075,765.7173l-5.4212-9.6036c-.8469-1.5-1.5961-3.1612-2.5831-4.576-.0414-.0593-.0727-.1287-.1084-.1919l-.7115,2.7135,8.4553-4.8089,20.3-11.5458L90.68,723.8033,111.9075,711.73c3.4247-1.9478,6.9756-3.7657,10.3112-5.8646.0463-.0291.0955-.0543.1431-.0813,2.2187-1.262.2224-4.69-2.0021-3.4251Z"/><path class="cls-5" d="M116.0611,793.9741a18.4962,18.4962,0,0,0,.0794,15.3743c21.5149,46.6381-13.5761,63.7591-13.5761,63.7591L61.0335,781.19l5.92-.9307a61.3842,61.3842,0,0,1,49.1076,13.7147Z"/><path d="M114.3485,792.9731a20.7475,20.7475,0,0,0-.4769,16.0789c1.877,4.6824,3.9225,9.189,5.2419,14.0814,1.9187,7.114,2.7154,14.71,1.353,21.9673a38.2611,38.2611,0,0,1-14.3335,23.3387c-.3386.2676.28-.2122.0556-.043-.0968.073-.1926.1474-.29.22-.1715.127-.3424.2547-.5153.38q-.4335.3143-.8758.6163-.7533.5142-1.5327.9892c-.46.2791-.9272.5566-1.4114.7936l2.7136.7115-4.1431-9.17-9.896-21.902L78.2184,814.433,67.8693,791.5281l-3.4167-7.5619c-.5361-1.1867-.9868-2.4909-1.6363-3.6216-.0279-.0486-.0471-.1043-.07-.1555l-1.1853,2.9135c5.6364-.8861,11.1955-1.76,16.9313-1.5724a59.4235,59.4235,0,0,1,36.1667,13.8463c1.94,1.636,4.76-1.1563,2.8048-2.8048a63.99,63.99,0,0,0-50.6251-14.2882c-2.1128.3168-4.2216.6623-6.3321.9941-1.3877.2182-1.6511,1.8826-1.1853,2.9135l4.1431,9.17,9.8959,21.902L85.38,839.8647,95.7285,862.77l3.4167,7.5618c.54,1.1959,1.0112,2.4667,1.6363,3.6216.0269.05.0471.1041.07.1556a2.0178,2.0178,0,0,0,2.7136.7115c4.9018-2.3992,9.2653-6.5534,12.5838-10.8029,8.1242-10.4035,10.3083-23.5369,8.037-36.3712a73.79,73.79,0,0,0-4.5883-15.2953c-1.1621-2.8091-2.6423-5.5136-3.0542-8.5672a16.6569,16.6569,0,0,1,1.23-8.8084,2.0477,2.0477,0,0,0-.7115-2.7136A1.9979,1.9979,0,0,0,114.3485,792.9731Z"/><path class="cls-6" d="M235.1678,483.526,227.38,611.1246c-40.22,18.97-129.8092,75.5437-129.8092,75.5437l52.263,93.21,108.4617-58.9413a155.7524,155.7524,0,0,0,78.2405-105.7183L357.974,509.2853l-5.3915-64.6978"/><path d="M233.1845,483.526l-.7724,12.6553-1.8556,30.4044L228.3,563.5608l-1.9428,31.8317-.6432,10.5384a37.0337,37.0337,0,0,0-.3032,4.9681,1.6805,1.6805,0,0,1-.0138.2256l.9823-1.7126c-21.1795,10.005-41.46,22.0334-61.6145,33.9278q-28.5984,16.8773-56.7691,34.4683-5.7218,3.5591-11.4256,7.1476a2.0233,2.0233,0,0,0-.7115,2.7136l17.6768,31.5262,28.1532,50.21,6.433,11.4731a2.0185,2.0185,0,0,0,2.7136.7115l21.2629-11.5549,43.6438-23.7174L252.7,726.234q3.285-1.7852,6.57-3.57a157.7359,157.7359,0,0,0,73.1957-85.5165c4.1762-11.6574,6.4491-23.7064,8.8953-35.7937l9.56-47.24,8.0873-39.9627c.36-1.78,1.0424-3.7436.89-5.5779L358.5718,492.66l-3.7542-45.0506-.2518-3.0216c-.21-2.5257-4.179-2.5481-3.9666,0l2.987,35.8445,1.8649,22.3789.48,5.7624c.0317.38-.0565,1.2.1291.19-.0387.2109-.0832.4216-.1277.6313-2.2264,10.4783-4.2506,21.0039-6.3754,31.5032l-9.9758,49.2942c-1.82,8.9936-3.506,18.0264-5.4865,26.9867a154.3035,154.3035,0,0,1-34.819,68.5966,160.8555,160.8555,0,0,1-44.291,34.7038l-31.0806,16.89L179.3787,761.566l-29.08,15.8028-1.4661.7967,2.7136.7115L133.87,747.3508,105.7164,697.14l-6.433-11.4731-.7115,2.7136q16.3473-10.3223,32.8678-20.37c21.4251-13.0973,42.974-26.0174,64.8817-38.2946,10.5309-5.9015,21.1405-11.7214,32.06-16.88a1.986,1.986,0,0,0,.9823-1.7125l.7724-12.6553,1.8556-30.4044,2.2567-36.9751,1.9428-31.8317c.3131-5.13.9658-10.3641.9464-15.5065,0-.0748.0092-.1509.0138-.2256.1556-2.55-3.8116-2.54-3.9667,0Z"/><path class="cls-5" d="M49.603,780.6677a5.092,5.092,0,0,1-2.1669,6.8674l-4.2769,2.2255,50.7837,89.6732s10.5489-5.13,16.0444-11.7952L43.3519,748.3643,25,757.8462,38.1191,780.903l4.6163-2.4021A5.0923,5.0923,0,0,1,49.603,780.6677Z"/><path d="M47.89,781.6687c1.705,3.5652-3.4147,5.1735-5.7322,6.3793a2.0108,2.0108,0,0,0-.7115,2.7136l5.0628,8.94L58.605,821.06l14.692,25.9431,12.6563,22.3482c2.0561,3.6306,3.9783,7.3887,6.189,10.9286.0315.05.0588.1037.0881.1554a2.0292,2.0292,0,0,0,2.7135.7115c6.01-2.9328,12.1348-6.9551,16.4458-12.1053a2.0642,2.0642,0,0,0,.31-2.4034l-6.6209-11.8511L89.1764,826.3217l-19.244-34.4458L53.2874,762.082c-2.6946-4.8232-5.2255-9.7933-8.106-14.5093-.0416-.0681-.0781-.14-.117-.2094a2.0228,2.0228,0,0,0-2.7135-.7115L23.999,756.1336a2.01,2.01,0,0,0-.7115,2.7136l11.468,20.1549,1.6511,2.9019a2.0233,2.0233,0,0,0,2.7136.7115c2.5206-1.3116,6.7025-4.6133,8.77-.9468,1.254,2.2236,4.6819.2265,3.4251-2.0021a7.1953,7.1953,0,0,0-9.5944-2.8714c-1.5527.758-3.07,1.5976-4.603,2.3952l2.7136.7116-11.468-20.155-1.6512-2.9018-.7115,2.7135,18.3519-9.4818-2.7136-.7116L48.26,761.2165l15.9026,28.4648L83.4067,824.127l16.6451,29.7939,5.4916,9.83c.8581,1.536,1.6178,3.2269,2.6143,4.6795.0446.0651.0785.14.117.2094l.31-2.4034c-4.1185,4.92-9.9056,8.6854-15.6429,11.4851l2.7136.7115-5.0629-8.94L78.4972,848.1349,63.8051,822.1918,51.1489,799.8436l-4.1949-7.4072A40.1037,40.1037,0,0,0,44.96,788.915a1.78,1.78,0,0,1-.088-.1554l-.7116,2.7135c1.4735-.7667,2.992-1.478,4.4289-2.3111a7.1911,7.1911,0,0,0,2.7264-9.4954C50.2147,777.3647,46.7934,779.3747,47.89,781.6687Z"/><path d="M92.4217,832.1392C89,825.5385,81.4708,821.3174,74.3229,820.4116a32.1361,32.1361,0,0,0-12.2341,1.05c-2.465.654-1.4194,4.4814,1.0545,3.8249,5.5646-1.4765,11.6925-1.6961,16.95.7962a22.0518,22.0518,0,0,1,2.89,1.6477,15.6638,15.6638,0,0,1,2.0819,1.631,22.9907,22.9907,0,0,1,1.7822,1.79c.2329.2611.4567.5295.68.7989.0875.1056.1716.2142.2564.322-.3393-.4316-.0051-.0051.0712.1022a15.1044,15.1044,0,0,1,1.1418,1.7672c1.1753,2.267,4.6.2633,3.425-2.002Z"/><path class="cls-5" d="M66.2922,783.0476l-7.5989-56.2942a7.7239,7.7239,0,0,1,9.0623-8.2787h0a6.5246,6.5246,0,0,1,7.3387,5.5931l7.5989,56.2942Z"/><path d="M68.2047,782.52l-3.0189-22.3647-4.1946-31.0743c-.122-.9038-.26-1.807-.3662-2.7128-.0055-.047-.0144-.0938-.019-.1409.0742.76.0223-.259.0259-.4412a3.4719,3.4719,0,0,1,.1419-.9611,6.0719,6.0719,0,0,1,2.0253-3.26c1.5831-1.2725,3.3242-1.13,5.22-1.1423.8887-.0058-.6632-.0663.4233-.0211.227.0094.4477-.0076.6758.0149a4.3909,4.3909,0,0,1,1.0865.259,4.628,4.628,0,0,1,2.11,1.6,7.1477,7.1477,0,0,1,1.0176,3.434l3.8328,28.3943L79.42,770.8074c.4318,3.1986.7308,6.45,1.3,9.6278.0268.15.0409.303.0613.454l1.3852-2.44-16.401,2.6856a1.9986,1.9986,0,0,0-1.3852,2.44,2.0306,2.0306,0,0,0,2.44,1.3852l16.401-2.6856c1.1534-.1888,1.5153-1.4761,1.3853-2.44l-3.1835-23.5839L77.2557,725.385c-.098-.7266-.1659-1.4659-.3043-2.1867a8.5487,8.5487,0,0,0-3.7632-5.4389,8.0985,8.0985,0,0,0-2.8822-1.1554,9.1819,9.1819,0,0,0-1.6937-.17,7.918,7.918,0,0,0-.8567.0572l-.5272.0708q.4005-.213-.2063-.1428c-1.8524-.4405-4.49.5277-6,1.56a9.8553,9.8553,0,0,0-3.4846,4.1532,10.1352,10.1352,0,0,0-.6885,5.6525L60.58,755.4277,64.3116,783.07l.0681.5048a1.9951,1.9951,0,0,0,2.44,1.3852A2.0373,2.0373,0,0,0,68.2047,782.52Z"/><circle cx="73.9157" cy="779.9946" r="12.6663"/><path d="M76.701,790.3076a10.6816,10.6816,0,1,1,7.8749-11.0945,10.7983,10.7983,0,0,1-7.8749,11.0945c-2.45.7-1.4087,4.5282,1.0545,3.8249A14.8654,14.8654,0,0,0,88.5092,781.21a14.6441,14.6441,0,1,0-10.7537,12.9227C80.2264,793.4987,79.1791,789.6719,76.701,790.3076Z"/><path class="cls-5" d="M354.3446,220.7137H267.9765c-11.0824,0-16.8721,4.5824-21.6289,20.8467,0,0-28.6363,113.3114-33.6452,167.3014,90.1586,3.9758,171.9741-.2351,171.9741-.2351l-13.58-63.4823c13.6079-2.1306,30.0093-13.7782,24.0188-41.6342-3.3041-15.364-12.74-28.4551-28.4551-28.4551a28.5756,28.5756,0,0,0-5.4456.5265l-8.0331-63.4272"/><path d="M354.3446,218.73H280.5932c-4.8222,0-9.6994-.2112-14.5184.049-5.5649.3-10.7487,2.23-14.3507,6.6358-3.6536,4.4687-5.8483,10.2271-7.3227,15.7518-1.1444,4.2878-2.1423,8.6207-3.1915,12.9323q-3.5546,14.6073-6.94,29.2552-4.4558,19.2706-8.5936,38.6132c-2.9366,13.7885-5.7328,27.6089-8.2583,41.4791-2.2767,12.504-4.3637,25.0559-5.8718,37.6783q-.4616,3.8631-.8273,7.7367a2.01,2.01,0,0,0,1.9833,1.9834q25.6824,1.1283,51.3906,1.486,22.9869.3411,45.9777.1651,18.86-.137,37.7164-.6,12.92-.3187,25.8352-.8086c3.6312-.14,7.29-.1887,10.914-.4706.0466-.0036.0935-.0047.14-.0071a2.0144,2.0144,0,0,0,1.9125-2.5106l-4.58-21.4123-7.31-34.1707-1.69-7.8992-1.3853,2.44c11.6586-1.8655,21.6085-9.8184,25.1524-21.2013,2.4713-7.9374,1.8263-16.6409-.15-24.6082-1.8481-7.4495-5.2571-14.8341-10.7847-20.2753-6.7364-6.6311-15.9383-9.0168-25.1539-7.303l2.5106,1.9125-2.72-21.4736L356.15,219.9318l-.985-7.7774a2.0473,2.0473,0,0,0-1.9833-1.9834,1.9949,1.9949,0,0,0-1.9834,1.9834l2.72,21.4735,4.3284,34.1763.9851,7.7774a2.0269,2.0269,0,0,0,2.51,1.9125A23.6683,23.6683,0,0,1,381.88,282.7c5.2038,4.577,8.46,10.9722,10.3692,17.55,3.6339,12.52,3.3892,27.5517-7.255,36.608a29.1772,29.1772,0,0,1-14.4247,6.374,2.0139,2.0139,0,0,0-1.3852,2.44l4.58,21.4123,7.31,34.1707,1.69,7.8992,1.9125-2.5106c-2.945.1514-5.8918.2721-8.8383.39q-12.0823.4854-24.1709.7965-18.22.4839-36.4476.6559-22.5576.2169-45.1165-.0417-25.4715-.3-50.9288-1.2939-3.2362-.1294-6.472-.2721l1.9834,1.9833c1.0915-11.7054,2.9022-23.34,4.8876-34.9233,2.3312-13.6,4.9776-27.1446,7.7733-40.6557q4.1238-19.93,8.6612-39.7719,3.6414-16.0155,7.4851-31.9841,2.14-8.897,4.35-17.777a64.9511,64.9511,0,0,1,2.2734-7.27,29.3067,29.3067,0,0,1,4.4924-8.3579,14.0457,14.0457,0,0,1,5.4868-4.167c4.7639-1.8782,10.605-1.258,15.7281-1.258h78.5207c2.5523,0,2.5565-3.9666,0-3.9666Z"/><path d="M358.6018,447.17c.0412.1244.1123.6451.048.2176-.0682-.4529.0109.1.0226.204.023.2043.0465.4086.0686.6131.1278,1.18.2383,2.3622.3483,3.5441.3571,3.8405.6847,7.6837,1.01,11.527q1.272,15.0277,2.4627,30.0625c.2247,2.8017.4276,5.4271-.5795,8.1189a12.4961,12.4961,0,0,1-5.01,6.1161c-2.1569,1.3541-.1684,4.7877,2.002,3.4251a16.727,16.727,0,0,0,7.7936-13.6953,74.0482,74.0482,0,0,0-.5295-7.5675q-.3192-3.966-.6415-7.9318c-.7785-9.5786-1.5493-19.1589-2.42-28.73-.14-1.538-.28-3.0761-.4426-4.6119a11.6131,11.6131,0,0,0-.3083-2.3467c-.7981-2.4121-4.63-1.3787-3.825,1.0545Z"/><path class="cls-4" d="M289.6818,221.14a31.75,31.75,0,0,0,63.5,0Z"/><path d="M287.6985,221.14a33.7332,33.7332,0,0,0,67.4664,0,2.0114,2.0114,0,0,0-1.9833-1.9833h-63.5c-2.5524,0-2.5566,3.9666,0,3.9666h63.5l-1.9834-1.9833a29.7666,29.7666,0,1,1-59.5331,0C291.6512,218.5885,287.6846,218.5831,287.6985,221.14Z"/><path class="cls-3" d="M314.243,250.4939l28.1154,306.4575A21.1211,21.1211,0,0,1,324.0568,579.83c-49.1763,6.404-169.8755,18.464-148.7944-20.8234,26.3584-49.1225,65.2969-316.3008,65.2969-316.3008l41.9338-19.17"/><path d="M312.26,250.4939l1.0162,11.0768,2.7023,29.4544,3.8908,42.4105,4.5822,49.9455,4.776,52.0589,4.4867,48.9044,3.6576,39.868,2.3787,25.9282.54,5.8881c.504,5.4938-.6645,10.8931-4.32,15.1875-3.6356,4.27-8.438,6.1871-13.88,6.885q-5.7456.7368-11.4994,1.4089-13.59,1.5872-27.2226,2.7881c-19.695,1.715-39.5228,2.8861-59.2981,2.2949a176.6028,176.6028,0,0,1-25.1538-2.2438c-6.1477-1.0757-12.538-2.53-17.8465-5.7252a16.0894,16.0894,0,0,1-2.69-1.9372,12.0545,12.0545,0,0,1-1.9708-2.17,13.4319,13.4319,0,0,1-.762-1.3005,4.3374,4.3374,0,0,1-.4457-1.1375,6.6754,6.6754,0,0,1-.4027-2.7414,15.8542,15.8542,0,0,1,1.8347-6.6738c.9406-1.8693,1.897-3.7166,2.7382-5.6349,4.6957-10.7068,7.9786-22.04,11.0629-33.2947,4.3053-15.71,7.9868-31.59,11.4555-47.5032,4.0019-18.3588,7.6785-36.788,11.1867-55.2471q5.3865-28.3419,10.2815-56.7745,4.4967-25.9482,8.7013-51.9459,3.302-20.368,6.4464-40.7612,1.7919-11.6262,3.5226-23.2618.2228-1.5034.443-3.0073l-.9114,1.1853,36.7158-16.7844,5.218-2.3854c2.3186-1.06.3051-4.48-2.0021-3.425l-38.1738,17.4509c-1.34.6128-4.1568,1.2972-4.6715,2.9044a6.2966,6.2966,0,0,0-.1423.9706q-.5333,3.6273-1.0782,7.2528-2.4447,16.31-5.01,32.6009-3.9035,24.8571-8.0419,49.6767-4.9671,29.765-10.3347,59.4614c-3.6775,20.2541-7.5212,40.48-11.6637,60.6441-3.7589,18.2973-7.7374,36.5589-12.3,54.6745C186.671,520.984,183.07,534.565,178.13,547.6235c-.9611,2.5406-1.703,4.3811-2.7529,6.6762-1.053,2.3018-2.3489,4.4926-3.2751,6.85-1.9852,5.0532-1.6238,10.4807,1.9139,14.7321,3.7784,4.5406,9.9,6.8468,15.4143,8.4075,8.0673,2.2833,16.527,3.22,24.8683,3.7965,20.9856,1.4506,42.16.3426,63.0993-1.3234q14.9246-1.1874,29.8015-2.8955,6.4317-.7292,12.8537-1.54c5.4633-.69,10.5793-1.5336,15.1084-4.9493a23.43,23.43,0,0,0,9.1327-20.944c-.1715-1.9106-.3505-3.8205-.5257-5.7308l-2.5364-27.646-4.0354-43.9857-4.869-53.0731-5.1447-56.0772-4.7548-51.827-3.7638-41.0257-2.1557-23.4969-.2824-3.0774c-.2312-2.5211-4.2-2.5453-3.9666,0Z"/><path class="cls-3" d="M292.6771,280.4466l34.6562,84.3964a251.7705,251.7705,0,0,0-23.91,9.2216c-15.0848,6.6918-47.7686,38.8286-57.7923,46.0271l-38.283-110.4425c-15.1158-43.6076,17.2687-89.1081,63.4218-89.1081h9.5117"/><path d="M290.7646,280.9738l3.4478,8.3963,8.2795,20.1628,10.0156,24.39,8.6556,21.0788,2.83,6.8921a29.0348,29.0348,0,0,0,1.3653,3.3249,1.3138,1.3138,0,0,1,.0622.1514l1.3852-2.44q-7.0243,2.2971-13.8981,5.0211c-4.03,1.5941-8.1549,3.1563-12.0158,5.1345a89.3613,89.3613,0,0,0-13.505,9.0742c-10.739,8.2778-20.8073,17.3851-30.9848,26.3318-2.2693,1.9949-4.5426,3.9859-6.85,5.9372-.9494.8029-1.9046,1.5994-2.8739,2.3783q-.31.2489-.6213.4951-.1326.1046-.2656.2087c-.2971.2333.1338-.1013-.0474.0376q-.5514.4227-1.1142.83l2.9135,1.1853-2.5906-7.4736-6.5445-18.88-8.6577-24.9766-8.93-25.7624-7.3617-21.2377-3.9526-11.4028a67.3421,67.3421,0,0,1-3.7785-26.7509,65.5675,65.5675,0,0,1,38.7084-55.0727,63.6982,63.6982,0,0,1,17.6147-4.9319,107.9823,107.9823,0,0,1,13.9659-.5512h4.2647c2.5523,0,2.5566-3.9667,0-3.9667-3.1636,0-6.3273-.0063-9.4909,0a70.364,70.364,0,0,0-18.8824,2.5745,68.9054,68.9054,0,0,0-31.2646,18.9484,69.9643,69.9643,0,0,0-17.1456,31.5644,69.0056,69.0056,0,0,0,1.6522,37.69c.9042,2.7194,1.8721,5.4188,2.8107,8.1264l6.61,19.0684,8.78,25.33,9.0345,26.0636,7.3466,21.1941,3.815,11.0059.1717.4953a2.003,2.003,0,0,0,2.9135,1.1853c3.6549-2.6361,7.0384-5.6637,10.4281-8.6254,4.854-4.2411,9.6639-8.5324,14.5248-12.7656,5.1558-4.49,10.3559-8.9354,15.7121-13.1859a112.5865,112.5865,0,0,1,13.8686-9.7765,89.601,89.601,0,0,1,11.035-4.97q7.7317-3.1238,15.6595-5.7252a1.9993,1.9993,0,0,0,1.3852-2.44l-3.4478-8.3963-8.28-20.1628-10.0155-24.39-8.6557-21.0788c-1.3985-3.4056-2.7863-6.8158-4.1955-10.217-.0209-.05-.0414-.1009-.0622-.1514a2.0476,2.0476,0,0,0-2.44-1.3852,1.9961,1.9961,0,0,0-1.3852,2.44Z"/><path d="M245.9848,420.385c-2.4781-5.5862,5.1615-14.9245,19.0523-24.9l15.2447,26.7941C261.99,426.6285,248.6112,426.3051,245.9848,420.385Z"/><path d="M247.6973,419.3839c.16.3786-.0235-.1084-.0432-.1938-.04-.1746-.0893-.3461-.1231-.5223-.0879-.458-.0019.2366-.0154-.1972-.0058-.1881-.0124-.3754-.0069-.5636a6.5928,6.5928,0,0,1,.4558-2.1052,19.0379,19.0379,0,0,1,3.209-5.32c4.1728-5.1729,9.501-9.4184,14.8646-13.2847l-2.7136-.7115,13.33,23.4293,1.9144,3.3648,1.1853-2.9135c-7.1775,1.6948-14.6191,3.1116-22.029,2.8518a21.683,21.683,0,0,1-6.9155-1.1811,9.1462,9.1462,0,0,1-1.0393-.4963,8.5766,8.5766,0,0,1-.8379-.5406c-.1347-.1152-.2664-.2339-.3918-.3592-.0576-.0576-.5219-.6008-.252-.2465a5.3936,5.3936,0,0,1-.5917-1.0108,1.9994,1.9994,0,0,0-2.7136-.7115,2.029,2.029,0,0,0-.7115,2.7136c2.0985,4.5319,8.118,5.496,12.5286,5.7561,8.03.4734,16.2326-1.1145,24.0082-2.9506a2.0033,2.0033,0,0,0,1.1853-2.9135l-13.33-23.4293L266.75,394.484a1.9962,1.9962,0,0,0-2.7135-.7116c-6.03,4.347-12.0409,9.0978-16.5675,15.0561-2.7033,3.5582-5.0817,8.1035-3.1964,12.5575a1.9953,1.9953,0,0,0,2.7136.7115A2.0366,2.0366,0,0,0,247.6973,419.3839Z"/><path class="cls-4" d="M303.4236,374.0646a251.7705,251.7705,0,0,1,23.91-9.2216l13.5789,32.9932,3.8636,9.3872,164.698-40.2256,12.042,53.0284L372.9,477.168c-51.4683,12.3485-70.5137,6.7784-88.0106-21.1985l-12.7046-20.9449-17.8472-31.1728C270.5121,388.2764,288.3388,380.7564,303.4236,374.0646Z"/><path d="M304.4246,375.7771a250.1888,250.1888,0,0,1,23.4359-9.0216l-2.44-1.3852,6.79,16.4965q3.3947,8.2483,6.7895,16.4966,1.9317,4.6936,3.8635,9.3872a2.0426,2.0426,0,0,0,2.44,1.3853l16.4042-4.0066,39.386-9.62,47.6276-11.6325,40.9518-10.0021,13.5885-3.3188c2.1266-.5194,4.3765-.8871,6.4562-1.5768.0914-.03.19-.0465.2838-.0693l-2.44-1.3853,4.0751,17.9454,6.4675,28.48,1.4994,6.6028,1.3852-2.44-11.4275,4.3938L481.01,433.4852l-36.6979,14.11-36.15,13.8995-26.9,10.343-7.1536,2.75a68.4994,68.4994,0,0,1-10.334,2.6265,170.7455,170.7455,0,0,1-28.4138,4.0911,62.8782,62.8782,0,0,1-20.7187-2.0867c-12.3634-3.691-21.1471-13.2144-27.88-23.9962-4.4468-7.1207-8.8834-14.2974-13.0764-21.57-5.3807-9.3329-10.7054-18.6985-16.058-28.0476l-1.577-2.7544-.31,2.4034c11.1339-10.6718,24.3567-18.4,38.29-24.8231,3.4477-1.5893,6.924-3.1151,10.3944-4.654a1.9993,1.9993,0,0,0,.7115-2.7135,2.03,2.03,0,0,0-2.7135-.7115c-13.3861,5.9357-26.7081,12.0057-38.5038,20.8132a117.0781,117.0781,0,0,0-10.9836,9.2841,2.0192,2.0192,0,0,0-.31,2.4034l15.2062,26.56c4.32,7.5461,8.9026,14.9359,13.4121,22.37,6.036,9.9511,13.0005,19.7224,23.3908,25.5048,13.0937,7.2868,28.7374,6.7707,43.1276,4.81,5.144-.7009,10.2547-1.6317,15.3361-2.6916a96.2045,96.2045,0,0,0,10.4536-2.3732c1.4281-.4715,2.8245-1.086,4.2277-1.6256l22.916-8.811,34.7475-13.36L473.2,440.7185l31.5581-12.1339,16.5422-6.36.7426-.2855a2.0417,2.0417,0,0,0,1.3852-2.44l-4.0751-17.9454-6.4675-28.48-1.4994-6.6029a2.0142,2.0142,0,0,0-2.44-1.3852l-16.4042,4.0065-39.3859,9.62-47.6277,11.6325-40.9518,10.002-13.5885,3.3188c-2.1266.5194-4.3764.8872-6.4562,1.5769-.0914.03-.19.0464-.2837.0693l2.44,1.3852q-2.7483-6.6773-5.4964-13.3545l-9.2895-22.5709-2.6567-6.4549a2.0238,2.0238,0,0,0-2.44-1.3853,260.3673,260.3673,0,0,0-24.3834,9.4216,1.9992,1.9992,0,0,0-.7115,2.7135A2.03,2.03,0,0,0,304.4246,375.7771Z"/><polyline class="cls-4" points="291.46 221.114 295.353 178.775 335.076 198.082 333.653 229.977"/><path d="M293.443,221.114l3.4155-37.1478.4774-5.1916-2.9844,1.7126,13.4452,6.5348,21.325,10.3647,4.953,2.4074-.9823-1.7126-1.2485,27.9841-.1745,3.911c-.1138,2.5521,3.8531,2.5466,3.9667,0l1.2484-27.9841.1745-3.911a1.9408,1.9408,0,0,0-.9823-1.7125l-13.4452-6.5349-21.3249-10.3647-4.953-2.4073a2.0138,2.0138,0,0,0-2.9844,1.7125l-3.4155,37.1477-.4774,5.1917a1.9982,1.9982,0,0,0,1.9833,1.9833,2.0256,2.0256,0,0,0,1.9834-1.9833Z"/><path class="cls-5" d="M461.9164,894.0716a5.092,5.092,0,0,1,6.0617,3.8874l1.03,4.71,99.8335-25.5644s-2.1925-11.5233-7.1886-18.5707l-132.55,33.123,4.3523,20.1929,25.6854-6.6326-1.1113-5.0838A5.0923,5.0923,0,0,1,461.9164,894.0716Z"/><path d="M462.4436,895.9841c3.88-.7119,4.096,4.67,4.6515,7.2123a2.0112,2.0112,0,0,0,2.44,1.3852l9.9528-2.5486,23.7779-6.0888,28.8826-7.396,24.88-6.3711c4.0409-1.0348,8.175-1.9011,12.1668-3.1156.0568-.0173.1156-.03.1731-.0443a2.0292,2.0292,0,0,0,1.3852-2.44c-1.2593-6.5705-3.5433-13.5352-7.3886-19.0445a2.0611,2.0611,0,0,0-2.24-.9114l-13.17,3.2911-31.633,7.9047-38.28,9.5658-33.11,8.2738c-5.3589,1.3392-10.8224,2.4749-16.1243,4.0293-.0765.0225-.1553.0388-.2327.0582a2.0229,2.0229,0,0,0-1.3852,2.44l4.3524,20.1929a2.01,2.01,0,0,0,2.44,1.3853l22.4527-5.7979,3.2326-.8347a2.0234,2.0234,0,0,0,1.3853-2.44c-.6083-2.7827-2.6963-7.6672,1.3909-8.7059,2.4725-.6284,1.4247-4.4551-1.0545-3.825a7.1936,7.1936,0,0,0-5.2694,8.5162c.3252,1.697.739,3.3812,1.108,5.0692l1.3852-2.44L436.16,909.1026l-3.2327.8348,2.44,1.3852L431.015,891.13l-1.3853,2.44,13.17-3.2911,31.6331-7.9047,38.28-9.5658,33.11-8.2738,10.9238-2.73c1.7073-.4266,3.5371-.7184,5.2-1.3.0745-.026.156-.039.2327-.0582l-2.24-.9114c3.6709,5.2592,5.7877,11.83,6.9888,18.0969l1.3852-2.44-9.9529,2.5486L534.5831,883.83l-28.8825,7.396-24.88,6.3711-8.2465,2.1116a40.3038,40.3038,0,0,0-3.92,1.0039,1.7467,1.7467,0,0,1-.173.0443l2.44,1.3853c-.3547-1.6227-.6441-3.2744-1.0725-4.8792a7.19,7.19,0,0,0-8.4585-5.1036C458.8819,892.6192,459.9439,896.4427,462.4436,895.9841Z"/><path class="cls-4" d="M315.0875,198.5384a69.62,69.62,0,0,0,25.063,8.141c42.5009-1.64,30.1677-77.1363,30.1677-77.1363l-78.5944-9.53s-11.6757,16-11.5841,23.8339c.1576,13.4912,12.38,24.1829,14.513,41.741"/><path d="M314.0864,200.2509a70.0052,70.0052,0,0,0,22.3515,7.8309,20.0875,20.0875,0,0,0,5.2807.4849c1.2132-.1022,2.4262-.2619,3.6236-.4833a29.2038,29.2038,0,0,0,6.23-1.916c7.433-3.1932,12.7674-9.6625,16.0348-16.9128,3.5517-7.8813,5.141-16.4857,5.8829-25.0547a147.2576,147.2576,0,0,0,.0632-22.9983q-.2751-3.9159-.7328-7.8163a39.3,39.3,0,0,0-.5623-4.1964c-.013-.0564-.018-.1158-.0273-.1731a2.0209,2.0209,0,0,0-1.9125-1.456l-26.6232-3.2284-42.3551-5.136-9.6161-1.166a1.9888,1.9888,0,0,0-1.7125.9823c-4.2829,5.8772-8.399,12.3778-10.7764,19.2781-3.3947,9.8529,2.5807,19.6572,6.8794,28.2121,3.035,6.04,5.7008,12.3221,6.555,19.0857a2.0471,2.0471,0,0,0,1.9834,1.9833,1.9949,1.9949,0,0,0,1.9833-1.9833,58.636,58.636,0,0,0-5.3969-17.6031c-2.26-4.8214-5.0069-9.44-6.9537-14.4041a31.0731,31.0731,0,0,1-1.9894-7.1695,13.082,13.082,0,0,1,.3-5.5811c1.1939-4.3339,3.5075-8.3677,5.8178-12.19,1.5727-2.6021,3.2309-5.1677,5.0222-7.6259l-1.7126.9823,26.6232,3.2284,42.3551,5.136,9.6161,1.166-1.9125-1.4561c.0344.2108.0656.4221.0968.6334.0377.255.0729.51.1092.7655.0111.0784.0211.1569.0323.2353.0512.3585-.0666-.51-.0268-.2.0242.1879.05.3756.0738.5635.2838,2.207.5135,4.421.7018,6.6381a156.0026,156.0026,0,0,1,.4225,21.25,83.0653,83.0653,0,0,1-4.2588,23.8367,40.96,40.96,0,0,1-5.1575,10.1386,26.7265,26.7265,0,0,1-7.5792,7.1473,25.6752,25.6752,0,0,1-10.7464,3.49c-3.5164.3348-7.2252-.747-10.6167-1.6233a64.4641,64.4641,0,0,1-10.6462-3.6981c-1.6105-.7349-3.1834-1.5461-4.722-2.4212-2.2222-1.2641-4.2232,2.1616-2.0021,3.425Z"/><path d="M310.276,159.2761a37.9072,37.9072,0,0,0-1.3117-4.72c-.9113-2.6584-2.083-5.6517-4.212-7.5909a5.6152,5.6152,0,0,0-4.8131-1.536,1.9894,1.9894,0,0,0-1.3853,2.44,2.0446,2.0446,0,0,0,2.44,1.3852c-.813.1215.1117.0886.264.0484-.0274.0072-.53-.1179-.2725-.0312.0523.0177.1144.025.1672.0388.0968.0253.5274.1956.1723.04-.3574-.157.003.008.0817.05.1062.0567.2095.1189.31.1848.051.0334.1.0725.1521.1045.2475.1526-.1731-.115-.1771-.1392.0114.07.2687.2316.3278.2872a7.12,7.12,0,0,1,.5574.5921c.0453.0536.087.1111.1342.1629.1639.18-.25-.3507-.1126-.1469.0922.1365.1948.2664.2876.4027a15.0962,15.0962,0,0,1,.9381,1.5961q.22.4275.4194.865c.0672.1467.13.2955.1972.442.0531.1153.179.2983-.0575-.14a2.7791,2.7791,0,0,1,.1151.2794c.2375.5847.4559,1.1771.66,1.7744q.5232,1.5345.925,3.1073c.1332.5166.2618,1.0357.3681,1.5586a1.9961,1.9961,0,0,0,2.44,1.3853,2.0323,2.0323,0,0,0,1.3852-2.44Z"/><path d="M344.89,145.0633a16.1729,16.1729,0,0,0-5.3868-2.7975,17.23,17.23,0,0,0-12.3458.9415,1.9981,1.9981,0,0,0-.7115,2.7136,2.0314,2.0314,0,0,0,2.7136.7115,12.8268,12.8268,0,0,1,5.1971-1.1649q.6356-.0069,1.27.0421c.203.0157.4061.0352.6081.06-.3741-.0456.2383.0411.254.0438a15.2993,15.2993,0,0,1,2.1236.53c.3129.1022.6187.22.927.3351.3948.1469-.3107-.1532.09.0366.13.0618.2631.1185.3934.18q.6681.3171,1.3041.6967c.2765.1657.5483.34.8112.5262.0795.0564.1564.1229.2389.1747.16.1006-.5009-.3955-.292-.2248a2.0411,2.0411,0,0,0,2.8048,0,1.9983,1.9983,0,0,0,0-2.8048Z"/><path d="M371.8092,146.884a17.8936,17.8936,0,0,0-5.1145-1.8735c-3.183-.7056-6.4667-.8951-9.4856.5a11.2546,11.2546,0,0,0-5.7464,6.358,14.163,14.163,0,0,0-.0286,8.1741,28.752,28.752,0,0,0,5.25,10.47l-.2708-1.001a2.3426,2.3426,0,0,1-.0846,1.3043c.051-.1167-.1322.0664-.08.0481a7.4145,7.4145,0,0,1-3.88-.18c-2.4879-.5468-3.5506,3.2764-1.0545,3.825,2.8011.6156,6.7843,1.1723,8.4834-1.8109a4.5773,4.5773,0,0,0,.0121-4.5821,40.9684,40.9684,0,0,1-3.36-5.602c-1.1791-2.6409-2.2-6.09-1.3668-8.9682a7.2042,7.2042,0,0,1,6.5061-5.1352,16.4166,16.4166,0,0,1,8.2185,1.8987c2.2065,1.2945,4.205-2.1327,2.0021-3.4251Z"/><circle cx="363.2974" cy="157.8549" r="2.7703"/><path d="M359.5494,157.5769a3.7624,3.7624,0,0,0,2.0657,3.6405,3.7587,3.7587,0,0,0,5.0487-5.0361,3.7523,3.7523,0,0,0-3.6588-2.0733,3.7466,3.7466,0,0,0-3.4556,3.4689.9938.9938,0,0,0,.9916.9917,1.0208,1.0208,0,0,0,.9917-.9917c-.03.2636.0274-.1123.0477-.1871.021-.0776.1691-.404.0514-.1829.0575-.1081.1081-.2181.1734-.3222.0387-.0617.0806-.1209.1231-.18-.0937.13-.0453.059.0294-.0222a3.48,3.48,0,0,1,.2606-.249c.1318-.1166-.0038.0061-.03.0226.0609-.0389.1189-.0815.1809-.1189.0569-.0342.3907-.2277.1515-.0944a1.5831,1.5831,0,0,1,.3825-.1234.5163.5163,0,0,1,.1806-.038l-.1164.0139c.0373-.0046.0745-.0082.1119-.0108a2.7857,2.7857,0,0,1,.38-.0033c.066.0039.2358-.012.0055-.0067a.8346.8346,0,0,1,.1873.0362,3.7432,3.7432,0,0,1,.3937.1209c-.2449-.0848.0945.0549.1592.0932.0629.0371.1221.079.1834.1184.0519.0334.1145.1166-.0279-.0231.0863.0846.18.1587.2625.2477.0406.0436.0761.0942.1183.136q.0687.0843-.0454-.0577.0419.0588.0808.12c.0484.0758.1744.23.1743.3166,0-.1154-.0491-.1367-.0153-.036.0232.0694.0486.1376.0688.2081s.1269.44.0522.1708a1.4716,1.4716,0,0,1,.0176.4151.6281.6281,0,0,1-.0125.1926c.0681-.1589.0206-.1116.0028-.0348-.0286.123-.054.2453-.0937.3655-.0173.0522-.1223.2628-.0082.0392-.0223.0437-.0418.0887-.0644.1321a3.0534,3.0534,0,0,1-.2321.37c.1519-.2113-.0859.0829-.13.126-.05.0493-.3431.259-.13.1227-.102.0654-.2.133-.3067.19a.5783.5783,0,0,1-.1295.0649q.19-.0757.036-.0154-.0684.0258-.138.0477c-.082.026-.2777.1153-.3573.0872.0116.0041.2437-.0185.0419-.006-.0628.0039-.1253.009-.1882.0105s-.1272.001-.1908-.0019c-.01,0-.264-.0189-.099-.0035.1619.0152-.0819-.0171-.0952-.02-.0738-.0158-.1471-.0345-.2193-.0563s-.1405-.05-.2114-.073c.2289.0751.0188.004-.0314-.0221a3.4665,3.4665,0,0,1-.37-.2321c.1785.1237.0688.0553.0316.0188-.0688-.0676-.1414-.13-.2073-.2008-.0328-.0352-.0633-.0724-.0955-.1081-.1441-.1595.0817.1414-.0186-.0295-.0494-.0842-.2194-.2714-.2139-.3769l.0418.1038q-.0275-.0675-.0512-.1364-.0358-.1038-.0634-.21c-.0154-.0594-.0238-.1211-.04-.18q-.02-.1124.007.08-.0088-.0744-.0137-.1493a3.0358,3.0358,0,0,1,.0086-.4583.9957.9957,0,0,0-.9917-.9917A1.0174,1.0174,0,0,0,359.5494,157.5769Z"/><circle cx="337.3367" cy="155.2368" r="2.7703"/><path d="M333.5887,154.9589a3.7622,3.7622,0,0,0,2.0658,3.64,3.7587,3.7587,0,0,0,5.0487-5.0361,3.7523,3.7523,0,0,0-3.6589-2.0732,3.7463,3.7463,0,0,0-3.4556,3.4689.9939.9939,0,0,0,.9917.9916,1.0206,1.0206,0,0,0,.9916-.9916c-.03.2636.0274-.1123.0477-.1871.0211-.0777.1692-.4041.0514-.1829.0576-.1082.1081-.2182.1734-.3223.0388-.0617.0806-.1208.1231-.18-.0936.13-.0453.059.0294-.0222a3.4838,3.4838,0,0,1,.2607-.2491c.1317-.1165-.0038.0061-.03.0227.0608-.0389.1189-.0815.1809-.1189.0568-.0343.3906-.2277.1514-.0944a1.5744,1.5744,0,0,1,.3825-.1234.5163.5163,0,0,1,.1806-.038l-.1163.0138q.0558-.0069.1119-.0107a2.7856,2.7856,0,0,1,.38-.0034c.0659.0039.2357-.0119.0054-.0067a.8392.8392,0,0,1,.1873.0362,3.7437,3.7437,0,0,1,.3937.121c-.2449-.0849.0945.0549.1592.0931.0629.0372.1221.079.1835.1185.0519.0333.1144.1165-.0279-.0231.0862.0846.18.1587.2624.2476.0406.0436.0762.0942.1183.136q.0687.0845-.0454-.0576.042.0587.0808.12c.0484.0759.1745.23.1743.3166,0-.1154-.049-.1367-.0153-.036.0232.07.0486.1376.0688.2081s.1269.44.0522.1709a1.4678,1.4678,0,0,1,.0176.4151.6277.6277,0,0,1-.0125.1925c.0682-.1588.0206-.1115.0028-.0347-.0285.123-.0539.2453-.0937.3654-.0172.0523-.1223.2628-.0081.0393-.0223.0436-.0418.0886-.0645.1321a3.06,3.06,0,0,1-.232.37c.1518-.2113-.086.0829-.13.1259-.05.0493-.3431.2591-.1305.1227-.102.0654-.2.133-.3067.19a.574.574,0,0,1-.13.0648q.19-.0757.036-.0153-.0684.0256-.138.0477c-.082.0259-.2777.1152-.3573.0872.0116.0041.2437-.0185.0419-.006-.0628.0038-.1252.009-.1882.01s-.1272.001-.1907-.0019c-.0105,0-.2641-.0188-.0991-.0034.162.0151-.0819-.0171-.0952-.02q-.1107-.0235-.2193-.0562c-.0716-.0216-.14-.05-.2114-.0731.2289.0751.0189.0041-.0313-.0221a3.4557,3.4557,0,0,1-.37-.232c.1784.1237.0688.0553.0316.0188-.0689-.0676-.1415-.13-.2074-.2009-.0328-.0352-.0632-.0723-.0955-.108-.1441-.16.0818.1413-.0185-.03-.0494-.0842-.2195-.2715-.214-.377l.0418.1038q-.0273-.0675-.0512-.1364-.0359-.1038-.0634-.21c-.0154-.0593-.0238-.1211-.04-.18q-.02-.1124.007.08-.0088-.0746-.0136-.1494a3.0345,3.0345,0,0,1,.0085-.4582.9957.9957,0,0,0-.9916-.9917A1.0174,1.0174,0,0,0,333.5887,154.9589Z"/><path d="M336.3513,176.3774a9.4244,9.4244,0,0,0,5.8969,5.674,10.25,10.25,0,0,0,4.0914.4223,2.026,2.026,0,0,0,1.9834-1.9833,2.0056,2.0056,0,0,0-1.9834-1.9833,10.0816,10.0816,0,0,1-1.6729.0209,1.87,1.87,0,0,1-.3691-.036c-.04-.012.4865.0842.2718.036-.049-.0111-.1006-.0156-.15-.0241q-.3609-.0618-.715-.157-.3118-.0843-.6156-.1952c-.042-.0154-.0835-.0323-.1256-.0472-.285-.1005.2425.0935.2293.1-.0415.0206-.2721-.1238-.3123-.1434a7.0915,7.0915,0,0,1-.9751-.5779c-.0694-.049-.3593-.27-.0449-.0268.3121.2412.0377.0267-.0318-.0317q-.2056-.1728-.3984-.36c-.2294-.2229-.4333-.4641-.6415-.7062-.1735-.2018.3447.47.1441.1868-.0389-.055-.08-.1085-.119-.1635q-.1095-.1546-.2116-.3144-.1787-.2795-.333-.5734c-.0778-.1486-.1411-.3038-.2163-.4532-.0077-.0152.249.6211.1412.33l-.0175-.0473a1.9838,1.9838,0,1,0-3.8249,1.0545Z"/><path class="cls-3" d="M314.243,250.4939l-.454-30.876a13.515,13.515,0,0,0-9.5786-12.7308l-31.9012-9.7091-4.3327,23.5357-5.8512.4265"/><path d="M316.2263,250.4939c-.1489-10.1259-.28-20.2521-.4467-30.3776A15.6008,15.6008,0,0,0,304.016,204.755l-16.0618-4.8884-15.1177-4.6011a1.997,1.997,0,0,0-2.44,1.3853l-3.7859,20.5655-.5468,2.97,1.9125-1.4561-5.8512.4265c-2.5309.1844-2.5511,4.1526,0,3.9666l5.8512-.4265a2.0277,2.0277,0,0,0,1.9124-1.456l3.786-20.5655.5468-2.97-2.44,1.3852,29.6039,9.01a20.4337,20.4337,0,0,1,5.0288,1.9527,11.6555,11.6555,0,0,1,5.3928,9.6927c.1131,4.936.1452,9.8753.2178,14.8121l.2344,15.936c.0375,2.55,4.0043,2.5576,3.9666,0Z"/><path class="cls-2" d="M377.2663,133.8486a14.6124,14.6124,0,0,1-9.2937,1.8c-13.7512-1.8749-29.3253-4.4183-37.3314-6.08a10.7467,10.7467,0,0,0-12.8674,9.36l-2.2277,20.4144c.5247-9.4574-6.2573-22.6771-13.0352-23.0531s-12.1136,1.6182-12.6519,11.3219c-.3563,6.4232,4.4059,17.9173,7.9929,21.0557,0,0,11.41,13.5279,11.4262,32.4138A18.1038,18.1038,0,0,1,289.6487,219.15l-42.8337-3.6451a12.28,12.28,0,0,1-7.5777-20.9882c6.69-6.5691,20.0083-14.0015,20.5787-23.1945,3.6529-58.8731,21.889-77.8847,54.3506-83.9242,46.9966-8.7438,64.1418,9.4113,70.7387,31.432l1.3622,4.8538"/><path d="M376.2653,132.1361a12.7094,12.7094,0,0,1-5.4746,1.6443,33.438,33.438,0,0,1-6.4616-.6253q-6.4178-.9123-12.8208-1.9247-5.9556-.9408-11.8953-1.9794c-3.0452-.5373-6.078-1.2516-9.1335-1.7152a12.85,12.85,0,0,0-14.6672,11.2186c-.38,3.1265-.6863,6.2639-1.028,9.3949l-1.2215,11.1936h3.9666a30.5439,30.5439,0,0,0-3.0368-13.9032c-1.7318-3.8028-4.3307-7.8423-8.0654-9.9456-3.0585-1.7225-7.3462-1.59-10.6164-.5049a11.1251,11.1251,0,0,0-7.2522,8.0149c-1.21,4.4779-.62,9.0408.7,13.417a37.6642,37.6642,0,0,0,5.55,11.78,20.9359,20.9359,0,0,0,1.8252,2.0949c.1052.1063.3968.5186-.0382-.0542.1028.1354.2062.27.3079.4065q.4134.5537.8073,1.1217a56.1372,56.1372,0,0,1,4.8429,8.4961,52.6815,52.6815,0,0,1,4.11,13.2139c.7917,4.6334,1.24,9.7757-.7419,14.1778a16.288,16.288,0,0,1-8.96,8.5152,17.7343,17.7343,0,0,1-7.9087.9426l-32.6486-2.7783c-3.3045-.2812-6.6606-.4156-9.95-.8524a10.41,10.41,0,0,1-7.2507-15.842,20.6709,20.6709,0,0,1,4.1564-4.1777c1.73-1.4657,3.5153-2.8644,5.279-4.2888,3.668-2.9625,7.34-6.0337,10.1057-9.8916a16.6876,16.6876,0,0,0,2.6737-5.4924,45.5166,45.5166,0,0,0,.7452-7.6118c.415-5.1851.9685-10.3619,1.7549-15.5045,2.2516-14.7257,6.2158-30.5626,15.6106-42.3078,7.5412-9.4278,17.8455-14.9067,29.4163-17.81a112.4015,112.4015,0,0,1,28.1078-3.4164c7.8279.0659,15.8885,1.1494,23.09,4.3651A38.2609,38.2609,0,0,1,374.56,102.5219a48.4611,48.4611,0,0,1,7.9046,15.149c.7072,2.1559,1.2779,4.3558,1.8908,6.54.6888,2.4541,4.5171,1.4115,3.825-1.0544a80.1387,80.1387,0,0,0-5.6259-15.5218,43.3341,43.3341,0,0,0-11.5635-14.1955c-13.3824-10.4967-31.4925-11.4053-47.7341-9.4317-13.855,1.6836-27.8321,5.0218-38.932,13.9237-10.9,8.7416-17.1,21.7986-20.748,35.0125a169.8434,169.8434,0,0,0-4.9782,28.7059q-.4188,4.2861-.6961,8.5843a11.9248,11.9248,0,0,1-1.5761,5.5032c-2.2736,3.9007-5.9479,6.92-9.3957,9.7437-3.3924,2.7778-7.3571,5.3568-10.138,8.7861a14.245,14.245,0,0,0-2.9649,11.5949,14.4228,14.4228,0,0,0,6.418,9.5068,15.6376,15.6376,0,0,0,7.2322,2.176l33.3133,2.8348a98.1646,98.1646,0,0,0,10.95.8125,20.2488,20.2488,0,0,0,19.29-17.151c.74-5.2123-.1517-10.8389-1.4671-15.8949a58.9628,58.9628,0,0,0-4.8715-12.4876,52.308,52.308,0,0,0-4.3649-7.012,48.6484,48.6484,0,0,1-3.7646-5.0183,37.9779,37.9779,0,0,1-4.5487-12.816c-.5327-3.5156-.1487-8.0556,2.5128-10.636,1.9151-1.8567,5.9924-2.41,8.4719-1.8216,3.51.8324,6.0006,4.9226,7.5379,7.9791a26.6733,26.6733,0,0,1,3.0254,13.01,2.0053,2.0053,0,0,0,1.9833,1.9834,2.0291,2.0291,0,0,0,1.9833-1.9834c.7288-6.6784,1.4017-13.3654,2.1866-20.0375a8.8825,8.8825,0,0,1,10.398-7.8244q10.2474,1.992,20.5559,3.6085,6.9562,1.0971,13.93,2.0778a28.3915,28.3915,0,0,0,7.0348.51,17.4112,17.4112,0,0,0,6.6325-2.1157c2.2322-1.24.2339-4.6667-2.002-3.4251Z"/><path d="M300.35,221.212c-.4537,2.7221-.8358,5.4667-1.3626,8.1754a3.2579,3.2579,0,0,1-1.3206,2.2352,3.0391,3.0391,0,0,1-1.3459.5146,3.1726,3.1726,0,0,1-.6371.0052c-.1007-.01-1.0617-.2717-.6071-.0941-.4915-.1921-.9662-.492-1.4356-.7311l-18.6333-9.4889-5.89-3c-2.27-1.156-4.28,2.2651-2.0021,3.4251l16.07,8.1834,8.6647,4.4125a12.8686,12.8686,0,0,0,2.1809.99,7.0626,7.0626,0,0,0,7.7943-2.9193c1.07-1.6285,1.19-3.6964,1.5027-5.57l.8473-5.0841a2.0428,2.0428,0,0,0-1.3852-2.44,1.9993,1.9993,0,0,0-2.44,1.3852Z"/><path d="M522.7858,866.2064c-7.3062,1.5843-13.3517,7.8037-16.0889,14.5046a32.071,32.071,0,0,0-2.1407,11.9691c-.0125,2.5529,3.9541,2.556,3.9666,0,.0283-5.7929,1.4776-11.8163,5.2351-16.1985a22.092,22.092,0,0,1,2.3407-2.3462,15.4541,15.4541,0,0,1,2.1042-1.5648,23.01,23.01,0,0,1,2.1877-1.2489c.3132-.1568.632-.3.9493-.448.3665-.1711.0468-.0229.05-.0241.1614-.0649.3224-.1308.4848-.1932a13.5925,13.5925,0,0,1,1.9658-.625c2.4936-.5407,1.4384-4.3655-1.0544-3.825Z"/><path class="cls-4" d="M553.8648,374.4981l76.234-21.4883a36.1714,36.1714,0,0,1,36.5873,9.225l21.3982,21.8429a34.0813,34.0813,0,0,1,6.7273,37.85l-8.35,18.532a7.9442,7.9442,0,0,1-8.686,4.5487h0a7.9443,7.9443,0,0,1-6.5006-7.9181l.1826-13.6883a15.3552,15.3552,0,0,0-16.5519-15.5131v0a15.3556,15.3556,0,0,0-9.2473,4.0533l2.1971,18.0141c1.48,12.1309-15.7645,11.8415-26.298,5.6454-8.7148-5.1264-7.5345-6.3657-14.6315-7.6145h0a36.8363,36.8363,0,0,0-21.2695,2.5841l-9.6184,4.2493"/><path d="M554.392,376.4106l20.2645-5.712L611.64,360.2739c7.01-1.976,13.9989-4.1865,21.0713-5.9325a34.451,34.451,0,0,1,28.8584,5.9957c3.7219,2.8253,6.9,6.5527,10.1593,9.8794l12.7049,12.9691c1.02,1.0416,2.0647,2.0662,3.05,3.1416a31.9765,31.9765,0,0,1,7.1486,12.892c2.2025,7.8127,1.165,15.7184-2.1329,23.0382l-7.0632,15.6767c-1.0979,2.4367-2.3925,4.7418-5.3514,5.1715a6.05,6.05,0,0,1-6.8243-6.1584c.0016-4.7416.3282-9.5062.1744-14.2453a17.5055,17.5055,0,0,0-18.1787-16.82,17.8054,17.8054,0,0,0-7.3807,2.0549c-1.4715.7826-4.26,2.2608-4.1809,4.1631.0931,2.2435.5527,4.5316.8244,6.7592l1.1013,9.0294c.2459,2.0162.6349,4.19-.0878,5.9339a5.2,5.2,0,0,1-2.3382,2.5615,11.0266,11.0266,0,0,1-4.1191,1.3018,25.6392,25.6392,0,0,1-11.0441-1.3422,42.56,42.56,0,0,1-11.2848-6.2311,20.7106,20.7106,0,0,0-8.3036-3.8532,39.5812,39.5812,0,0,0-17.3087.3446,60.3775,60.3775,0,0,0-9.7346,3.6935l-6.3621,2.8106a1.9971,1.9971,0,0,0-.7115,2.7136,2.0329,2.0329,0,0,0,2.7136.7115c5.49-2.4255,10.9852-5.33,16.9131-6.4968a33.3741,33.3741,0,0,1,15.585.5609,11.1914,11.1914,0,0,1,3.4311,1.68c1.5534,1.0572,3.0519,2.1881,4.629,3.2116,6.8487,4.4449,15.381,7.6138,23.641,5.8229,3.1854-.6907,6.3063-2.4754,7.7351-5.5221a12.6459,12.6459,0,0,0,.7055-7.145l-2.0371-16.7026-.5809,1.4024a13.498,13.498,0,0,1,18.6028.5039,13.2919,13.2919,0,0,1,3.79,8.5064c.0826,1.5127-.0057,3.0466-.0259,4.56l-.096,7.1981a24.2185,24.2185,0,0,0,.1943,5.2205c1.6159,7.8273,12.06,10.4146,17.2033,4.3463a16.099,16.099,0,0,0,2.2555-4.0175l2.649-5.88q2.4106-5.35,4.8213-10.7009a36.5242,36.5242,0,0,0-6.9854-40.4235c-5.3738-5.5321-10.7948-11.0192-16.1919-16.5285-1.9581-1.9988-3.8775-4.0468-5.8895-5.992a38.1528,38.1528,0,0,0-20.9071-10.3116,40.7049,40.7049,0,0,0-17.2285,1.3611c-1.7593.5034-3.5226.993-5.2838,1.4894l-23.8147,6.7127-28.4606,8.0223L554.2078,372.34l-.87.2453c-2.4531.6915-1.4107,4.52,1.0545,3.825Z"/><circle class="cls-5" cx="655.105" cy="424.2196" r="17.3726"/><path d="M670.4942,424.22a15.3878,15.3878,0,1,1-12.4981-15.1239A15.5241,15.5241,0,0,1,670.4942,424.22c.0252,2.551,3.9919,2.5574,3.9667,0a19.3589,19.3589,0,1,0-15.5767,18.98,19.6153,19.6153,0,0,0,15.5767-18.98C674.4861,421.6664,670.52,421.6644,670.4942,424.22Z"/><path class="cls-5" d="M468.5781,878.5856l-56.3223-7.3879a7.724,7.724,0,0,1-5.6205-10.912v0a6.5246,6.5246,0,0,1,7.3177-5.62l56.3222,7.388Z"/><path d="M468.5781,876.6023l-22.133-2.9033-31.0346-4.0709c-.9775-.1282-1.9564-.2484-2.9328-.3847-.0677-.0094-.1364-.0153-.2038-.0267-.0362-.0061.6306.2042.0381-.0148-.3167-.1171-.6587-.1695-.968-.3065a5.9874,5.9874,0,0,1-3.1-3.2288,5.6422,5.6422,0,0,1-.3163-2.7466,7.4154,7.4154,0,0,1,.3294-1.3292c.1152-.3528.2316-.688.3263-1.0415.1422-.53-.099.1761.09-.4142a4.6821,4.6821,0,0,1,3.6228-3.4744,9.7952,9.7952,0,0,1,2.9691.16l28.4589,3.7331,16.6593,2.1852c3.1354.4113,6.2871.9622,9.438,1.238.1517.0133.3032.04.4542.06l-1.9833-1.9833-1.6971,16.5325a1.9966,1.9966,0,0,0,1.9833,1.9833,2.0277,2.0277,0,0,0,1.9833-1.9833l1.6972-16.5325c.1193-1.1621-1.0139-1.8562-1.9834-1.9833l-23.351-3.0631-30.8788-4.05c-.6949-.0912-1.39-.1981-2.0866-.2737a8.5445,8.5445,0,0,0-9.236,7.0758,31.773,31.773,0,0,0-.762,3.1616,9.1915,9.1915,0,0,0,.3586,3.5031,9.8687,9.8687,0,0,0,3.4213,4.8748,10.18,10.18,0,0,0,5.13,1.9637l27.9183,3.6621,17.31,2.2706c3.3282.4365,6.66.9727,10,1.3117.16.0163.32.042.48.0629a1.9931,1.9931,0,0,0,1.9833-1.9833A2.034,2.034,0,0,0,468.5781,876.6023Z"/><circle cx="467.6252" cy="870.429" r="12.6663"/><path d="M478.3081,870.429a10.682,10.682,0,1,1-8.6579-10.4954,10.7983,10.7983,0,0,1,8.6579,10.4954c.0344,2.55,4.0012,2.5576,3.9666,0a14.8591,14.8591,0,0,0-9.6516-13.766,14.6448,14.6448,0,1,0,9.6516,13.766C482.3092,867.8756,478.3426,867.8744,478.3081,870.429Z"/><path d="M377.671,798.7439l10.3327-2.628,24.689-6.2793,29.9839-7.6259,25.83-6.5694c4.1918-1.0661,8.4824-1.9544,12.6226-3.21.0585-.0177.1192-.03.1785-.0454,2.4723-.6288,1.4246-4.4555-1.0545-3.8249L469.92,771.1885l-24.6891,6.2793-29.9838,7.626-25.83,6.5694c-4.1918,1.0661-8.4824,1.9544-12.6226,3.21-.0586.0177-.1192.03-.1785.0454-2.4723.6288-1.4246,4.4554,1.0545,3.8249Z"/><polyline class="cls-5" points="655.105 406.847 547.275 418.229 547.275 452.974 655.105 441.592"/><path d="M655.105,404.8637l-10.71,1.13L618.6689,408.71l-31.1345,3.2865-26.9362,2.8432c-4.3764.462-8.7584.8875-13.1308,1.3861-.064.0073-.1282.0135-.1922.02a2.03,2.03,0,0,0-1.9833,1.9833v34.7451a1.9949,1.9949,0,0,0,1.9833,1.9834l10.71-1.1306,25.7258-2.7155,31.1345-3.2864,26.9362-2.8433c4.3764-.4619,8.7584-.8875,13.1309-1.386.064-.0073.1281-.0135.1922-.02a2.0408,2.0408,0,0,0,1.9833-1.9833,1.9965,1.9965,0,0,0-1.9833-1.9833l-10.71,1.13-25.7259,2.7155-31.1345,3.2864-26.9362,2.8433-8.9446.9441a37.6636,37.6636,0,0,0-4.1862.4419,1.7053,1.7053,0,0,1-.1922.02l1.9833,1.9833V418.2291l-1.9833,1.9833,10.71-1.13,25.7258-2.7155,31.1345-3.2864,26.9362-2.8433c4.3764-.462,8.7584-.8875,13.1309-1.386.064-.0073.1281-.0136.1922-.02a2.041,2.041,0,0,0,1.9833-1.9834,1.9966,1.9966,0,0,0-1.9833-1.9833Z"/><path d="M117.1973,675.2027l5.1829,9.25,12.4509,22.2212,15.1311,27.0046L162.9905,756.93c2.1045,3.7559,4.0657,7.6495,6.3365,11.3088.0323.0521.06.1075.09.161,1.2479,2.2272,4.6755.23,3.4251-2.002l-5.183-9.25-12.4509-22.2212-15.1311-27.0046-13.0282-23.2515c-2.1045-3.756-4.0657-7.65-6.3365-11.3089-.0324-.0521-.06-.1075-.09-.161-1.248-2.2272-4.6756-.23-3.4251,2.002Z"/><path class="cls-4" d="M457.417,379.89,525.2548,362.01a36.1717,36.1717,0,0,1,36.0685,11.0814l20.2547,22.9072a34.081,34.081,0,0,1,4.7857,38.144l-9.285,18.0814a7.9443,7.9443,0,0,1-8.907,4.0993h0a7.9444,7.9444,0,0,1-6.0878-8.24l.8814-13.6611a15.3551,15.3551,0,0,0-15.7381-16.3381h0a15.3551,15.3551,0,0,0-9.4422,3.5758l-7.6266,6.3851a36.8363,36.8363,0,0,1-31.8747,7.661h0a36.8356,36.8356,0,0,0-21.3736,1.4946l-9.8229,3.7525"/><path d="M457.9443,381.8021l17.516-4.6165,32.5908-8.59c5.9093-1.5575,11.8088-3.16,17.73-4.6729a34.335,34.335,0,0,1,25.0061,3.2186c4.5809,2.5408,8.0618,6.14,11.478,10.0035,5.9522,6.7317,11.931,13.4408,17.857,20.1955a32.3753,32.3753,0,0,1,8.007,22.2543,31.7225,31.7225,0,0,1-3.0425,12.6672c-.6522,1.3649-1.37,2.7006-2.0612,4.0459l-7.023,13.6764c-.961,1.8714-1.9955,3.6145-4.1665,4.2869a6.0419,6.0419,0,0,1-7.7377-4.8036,27.9173,27.9173,0,0,1,.2462-5.6775l.5085-7.883a20.4327,20.4327,0,0,0-.6747-7.7027,17.6635,17.6635,0,0,0-7.0838-9.3061,17.2269,17.2269,0,0,0-11.5157-2.6635,18.7669,18.7669,0,0,0-9.871,4.5882c-4.4634,3.7368-8.7628,7.7975-14.0414,10.37a35.0522,35.0522,0,0,1-20.2379,3.101c-2.4061-.3644-4.7511-.9841-7.1749-1.2622a38.3827,38.3827,0,0,0-15.7205,1.51c-2.2357.6992-4.4148,1.6113-6.6017,2.4467l-5.3713,2.0519a2.04,2.04,0,0,0-1.3852,2.44,1.9984,1.9984,0,0,0,2.44,1.3853c4.2413-1.62,8.4731-3.51,12.8429-4.759a34.7557,34.7557,0,0,1,15.9615-.7687c4.7451.9012,9.3131,1.5952,14.159,1.0567a39.59,39.59,0,0,0,13.8118-4.1384,45.4925,45.4925,0,0,0,8.293-5.7479l5.94-4.973a13.9718,13.9718,0,0,1,9.4784-3.4662,13.5161,13.5161,0,0,1,12.8777,14.4053c-.2468,4.3892-.5784,8.774-.8491,13.1618a10.121,10.121,0,0,0,3.7914,8.7787,9.9672,9.9672,0,0,0,11.8977.2187,13.5824,13.5824,0,0,0,3.8737-5.1636l3.5132-6.8415c2.1078-4.1046,4.4554-8.1729,6.2227-12.4417a35.99,35.99,0,0,0,.2587-26.5881,37.294,37.294,0,0,0-6.7224-11.0209c-.7541-.86-1.5157-1.7142-2.2735-2.5712l-10.6926-12.0928c-2.4168-2.7333-4.8229-5.4765-7.2506-8.2a38.2151,38.2151,0,0,0-22.5189-12.33,40.383,40.383,0,0,0-16.5506.99l-8.9674,2.3634L482.78,371.1535l-24.598,6.483-1.2922.3406c-2.4663.65-1.42,4.4772,1.0545,3.825Z"/><circle class="cls-5" cx="547.2752" cy="435.6017" r="17.3726"/><path d="M562.6644,435.6017a15.3878,15.3878,0,1,1-12.4981-15.1239,15.5239,15.5239,0,0,1,12.4981,15.1239c.0252,2.551,3.9919,2.5574,3.9667,0a19.3589,19.3589,0,1,0-15.5767,18.98,19.6155,19.6155,0,0,0,15.5767-18.98C566.6563,433.0485,562.69,433.0464,562.6644,435.6017Z"/><polygon class="cls-5" points="910.21 787.846 619.388 787.846 567.643 491.314 974.401 491.314 910.21 787.846"/><rect class="cls-5" x="565.2468" y="472.743" width="409.7532" height="25.1603" rx="12.5801"/><path d="M577.8269,495.92a10.5972,10.5972,0,1,1,.1134-21.1937c1.4171-.0235,2.8367,0,4.2541,0H960.9993c5.2034,0,10.1375,2.3219,11.6388,7.78A10.7149,10.7149,0,0,1,962.42,495.92c-2.5486.0573-2.5578,4.0241,0,3.9666a14.5674,14.5674,0,0,0,4.3992-28.4489,22.44,22.44,0,0,0-7.08-.678H584.0953c-1.9229,0-3.846-.01-5.7688,0-9.1211.0456-16.3734,7.8521-14.8334,17.0749a14.7247,14.7247,0,0,0,14.3338,12.052c2.5536.0574,2.5528-3.9092,0-3.9666Z"/><path class="cls-2" d="M854.2844,365.4389l4.5411,51.633a17.09,17.09,0,0,0,10.2074,14.1741h0a17.09,17.09,0,0,1,10.2723,15.8261l-8.8389,113.269a8.9471,8.9471,0,0,1-9.0011,8.2506l-34.6991-.3143a8.9472,8.9472,0,0,1-8.8565-8.5343L812.7914,448.846a17.09,17.09,0,0,1,7.4159-13.9337l3.4993-2.4026a17.09,17.09,0,0,0,7.4137-13.771l3.4015-54.0779Z"/><path d="M852.3011,365.4389l1.5377,17.4844,2.447,27.8227c.1829,2.0788.3513,4.1594.5486,6.2369a19.3043,19.3043,0,0,0,10.53,15.6683c3.1793,1.5481,5.8769,3.3141,7.7537,6.4107a14.705,14.705,0,0,1,2.2017,8.0324c-.0379.9992-.1563,2.0021-.234,2.9987l-1.4012,17.9559-2.1623,27.7091-2.3112,29.6173-1.8815,24.111c-.2805,3.5944-.47,7.21-.8425,10.7961a7.0279,7.0279,0,0,1-3.2053,5.2411,8.0178,8.0178,0,0,1-4.5066,1.0787l-10.2019-.0925c-7.8657-.0712-15.7333-.098-23.5985-.2138a7.0689,7.0689,0,0,1-7.091-6.7411c-.0678-1.301-.12-2.6029-.18-3.9042l-.8964-19.4226-1.3127-28.444-1.3556-29.3707-1.024-22.1879c-.2026-4.39-.9167-8.9814.8578-13.1545a15.8364,15.8364,0,0,1,5.7839-6.8228,35.45,35.45,0,0,0,6.2252-4.8205,19.2156,19.2156,0,0,0,4.9437-10.5187c.1338-1.01.1686-2.0256.2325-3.041l1.3809-21.9535,1.6719-26.5809.294-4.6727-1.9834,1.9833,19.7626.7781c2.5527.1005,2.5483-3.8663,0-3.9666l-19.7626-.7781a2.02,2.02,0,0,0-1.9833,1.9833l-1.08,17.169-1.796,28.5523-.4906,7.7989c-.3221,5.1216-2.2324,9.6571-6.56,12.6807a55.7351,55.7351,0,0,0-5.5831,4.0492,18.986,18.986,0,0,0-5.7851,10.0474,22.0381,22.0381,0,0,0-.35,5.7336l.7735,16.7613,1.2706,27.5285,1.387,30.0523,1.123,24.3321c.1594,3.4544.2655,6.9161.4785,10.3677a11.1142,11.1142,0,0,0,11.0947,10.5292c3.0872.043,6.175.0559,9.2623.0839,8.2346.0746,16.4692.1659,24.7039.2238a11.145,11.145,0,0,0,11.4628-10.23c.0824-.8777.1373-1.7589.2058-2.6377l1.3848-17.7457,2.17-27.8085,2.3406-29.9947,1.8966-24.3043c.2784-3.568.6922-7.1546.8374-10.7313.2681-6.6048-3.5974-13.1-9.155-16.4948-1.5062-.92-3.1777-1.5034-4.6575-2.4745a14.7938,14.7938,0,0,1-3.6737-3.445,15.3229,15.3229,0,0,1-2.9966-7.71c-.6107-6.3963-1.1261-12.8031-1.689-19.2037l-2.4171-27.4822-.4283-4.87C856.0458,362.9157,852.0771,362.8923,852.3011,365.4389Z"/><path class="cls-2" d="M854.2844,365.4389l4.5411,51.633a17.09,17.09,0,0,0,10.2074,14.1741h0a17.09,17.09,0,0,1,10.2723,15.8261l-8.8389,113.269a8.9471,8.9471,0,0,1-9.0011,8.2506l-34.6991-.3143a8.9472,8.9472,0,0,1-8.8565-8.5343L812.7914,448.846a17.09,17.09,0,0,1,7.4159-13.9337l3.4993-2.4026a17.09,17.09,0,0,0,7.4137-13.771l3.4015-54.0779Z"/><path d="M852.3011,365.4389l1.5377,17.4844,2.447,27.8227c.1829,2.0788.3513,4.1594.5486,6.2369a19.3043,19.3043,0,0,0,10.53,15.6683c3.1793,1.5481,5.8769,3.3141,7.7537,6.4107a14.705,14.705,0,0,1,2.2017,8.0324c-.0379.9992-.1563,2.0021-.234,2.9987l-1.4012,17.9559-2.1623,27.7091-2.3112,29.6173-1.8815,24.111c-.2805,3.5944-.47,7.21-.8425,10.7961a7.0279,7.0279,0,0,1-3.2053,5.2411,8.0178,8.0178,0,0,1-4.5066,1.0787l-10.2019-.0925c-7.8657-.0712-15.7333-.098-23.5985-.2138a7.0689,7.0689,0,0,1-7.091-6.7411c-.0678-1.301-.12-2.6029-.18-3.9042l-.8964-19.4226-1.3127-28.444-1.3556-29.3707-1.024-22.1879c-.2026-4.39-.9167-8.9814.8578-13.1545a15.8364,15.8364,0,0,1,5.7839-6.8228,35.45,35.45,0,0,0,6.2252-4.8205,19.2156,19.2156,0,0,0,4.9437-10.5187c.1338-1.01.1686-2.0256.2325-3.041l1.3809-21.9535,1.6719-26.5809.294-4.6727-1.9834,1.9833,19.7626.7781c2.5527.1005,2.5483-3.8663,0-3.9666l-19.7626-.7781a2.02,2.02,0,0,0-1.9833,1.9833l-1.08,17.169-1.796,28.5523-.4906,7.7989c-.3221,5.1216-2.2324,9.6571-6.56,12.6807a55.7351,55.7351,0,0,0-5.5831,4.0492,18.986,18.986,0,0,0-5.7851,10.0474,22.0381,22.0381,0,0,0-.35,5.7336l.7735,16.7613,1.2706,27.5285,1.387,30.0523,1.123,24.3321c.1594,3.4544.2655,6.9161.4785,10.3677a11.1142,11.1142,0,0,0,11.0947,10.5292c3.0872.043,6.175.0559,9.2623.0839,8.2346.0746,16.4692.1659,24.7039.2238a11.145,11.145,0,0,0,11.4628-10.23c.0824-.8777.1373-1.7589.2058-2.6377l1.3848-17.7457,2.17-27.8085,2.3406-29.9947,1.8966-24.3043c.2784-3.568.6922-7.1546.8374-10.7313.2681-6.6048-3.5974-13.1-9.155-16.4948-1.5062-.92-3.1777-1.5034-4.6575-2.4745a14.7938,14.7938,0,0,1-3.6737-3.445,15.3229,15.3229,0,0,1-2.9966-7.71c-.6107-6.3963-1.1261-12.8031-1.689-19.2037l-2.4171-27.4822-.4283-4.87C856.0458,362.9157,852.0771,362.8923,852.3011,365.4389Z"/><rect class="cls-5" x="837.8054" y="353.6678" width="13.1792" height="24.5612" rx="4.4743" transform="translate(470.812 1206.9935) rotate(-89.4809)"/><path d="M852.1412,370.6251l-10.6722-.0967c-1.5877-.0144-3.1769-.01-4.7643-.0431-2.1212-.0444-2.6332-1.6972-2.617-3.4881.0159-1.7587-.5226-4.6241,1.4914-5.5184,1.0832-.4811,2.7482-.1919,3.8848-.1816,4.1078.0372,8.2162.0578,12.3238.1116a3.0259,3.0259,0,0,1,1.9959.5474c.9568.7572.9286,1.8477.9187,2.9433-.0192,2.12.5259,5.64-2.5611,5.7256-2.5473.0705-2.5576,4.0375,0,3.9667a6.6105,6.6105,0,0,0,5.3933-2.8589,7.4537,7.4537,0,0,0,1.1116-4.3129c.0273-3.0157.3643-6.1643-2.1781-8.3681-1.8534-1.6066-4.0147-1.6037-6.2913-1.6243l-7.8917-.0715c-1.85-.0168-3.7077-.0874-5.5572-.05a6.59,6.59,0,0,0-6.5781,6.53c-.0873,2.5448-.4417,5.635,1.11,7.8185,1.6528,2.3263,4.0747,2.7854,6.7107,2.8093l14.1711.1284C854.6944,374.6149,854.6966,370.6483,852.1412,370.6251Z"/><path class="cls-2" d="M756.6447,742.018l-1.9971,18.7728a35.3932,35.3932,0,0,0,2.8068,18.0171l3.9827,9.0377h43.937l1.5911-50.62"/><path d="M754.6614,742.018l-1.6752,15.7464a53.4476,53.4476,0,0,0-.458,8.8739,40.6923,40.6923,0,0,0,3.6279,14.1106l3.5685,8.0977a1.9451,1.9451,0,0,0,1.7125.9824h43.937a2.0187,2.0187,0,0,0,1.9833-1.9834l.5368-17.0783.8566-27.2491.1978-6.2927c.08-2.5532-3.8865-2.5506-3.9667,0l-.5368,17.0783-.8566,27.2492-.1978,6.2926,1.9834-1.9833h-43.937l1.7126.9823c-2.6824-6.0868-5.8878-12.1444-6.5493-18.8639-.6156-6.253.6281-12.8076,1.2891-19.0211l.7385-6.9416a1.9962,1.9962,0,0,0-1.9833-1.9834,2.0286,2.0286,0,0,0-1.9833,1.9834Z"/><path class="cls-1" d="M845.6043,647.6669,912.4274,653.1a5.3984,5.3984,0,0,1,4.6839,7.0877l-3.8139,11.4417-1.0664,68.7835a59.1182,59.1182,0,0,1-2.65,16.6082l-14.255,30.8248h-94.95l-2.2372-22.1865A47.3256,47.3256,0,0,1,802.74,740.06l33.8781-69.03"/><path d="M845.6043,649.65l12.715,1.0338,26.515,2.1557,22.8033,1.8539c1.5493.1259,3.1267.1772,4.6684.38a3.47,3.47,0,0,1,3.0986,3.2919c.05,1.32-.7295,2.8662-1.1372,4.09l-2.0846,6.2538a12.5429,12.5429,0,0,0-.8693,2.9573c-.0935,1.3735-.043,2.7726-.0643,4.1484l-.3435,22.1547-.4192,27.0377q-.1176,7.5871-.2352,15.1744a59.5567,59.5567,0,0,1-.4692,6.7761,45.12,45.12,0,0,1-1.9779,9.2013c-.895,2.406-2.188,4.7314-3.2647,7.06l-10.2188,22.097-.7075,1.53,1.7126-.9823H804.2664a33.8,33.8,0,0,0-3.7217,0,1.5385,1.5385,0,0,1-.1691,0l1.9834,1.9833q-1.1111-11.0171-2.222-22.0341a46.0974,46.0974,0,0,1,4.3159-24.7506c.5858-1.2044,1.18-2.4047,1.77-3.607L817.09,715.3125l13.5136-27.5353c2.5354-5.166,5.1459-10.3024,7.6088-15.5035.0385-.0814.0794-.1618.1191-.2427,1.12-2.2832-2.2993-4.2959-3.4251-2.002l-6.4047,13.05-13.3278,27.1567-11.6361,23.71q-1.2153,2.4762-2.4306,4.9525a50.1537,50.1537,0,0,0-5.19,22.2875c.0224,4.1257.6218,8.279,1.0352,12.3787l1.3521,13.408.088.8734a2.0294,2.0294,0,0,0,1.9833,1.9834H883.63c3.83,0,7.7.1609,11.5271,0,.0562-.0024.1129,0,.1691,0a1.9522,1.9522,0,0,0,1.7125-.9824l8.38-18.12,4.8771-10.5462a44.2764,44.2764,0,0,0,3.4538-13.2238c.6924-5.5025.537-11.1516.6229-16.6893l.403-25.9948.3879-25.02.1037-6.6857c.0036-.2335.0227-.4727.0109-.706-.0286-.5664.0212.3271-.0651.2891-.0561-.0246,1.2841-3.8522,1.3631-4.0892l2.0318-6.0953a8.6909,8.6909,0,0,0,.3109-6.0062,7.5259,7.5259,0,0,0-6.521-4.8453c-.4251-.0421-.8523-.0693-1.2781-.1039l-18.9935-1.5442-27.4782-2.234-18.12-1.4732-.9229-.075c-2.5445-.2069-2.5309,3.7609,0,3.9666Z"/><polygon class="cls-1" points="811.458 596.747 800.675 458.965 770.123 421.823 704.227 421.823 740.543 609.629 811.458 596.747"/><path d="M813.4415,596.7473l-.9178-11.7266-2.2362-28.574-2.8405-36.2955-2.6689-34.1029-1.7853-22.8124c-.1088-1.3892-.1885-2.7842-.3264-4.1708a3.63,3.63,0,0,0-1.0493-2.0626l-2.7372-3.3276-21.3063-25.9017c-1.9675-2.3919-3.8143-5.049-5.9788-7.2684a2.7848,2.7848,0,0,0-2.2863-.6647H704.2274a2.0118,2.0118,0,0,0-1.9125,2.51l.97,5.0139,2.6387,13.6466,3.9034,20.1864L714.59,485.831l5.2423,27.11,5.2684,27.2459,4.9126,25.4054,4.152,21.4721,2.9867,15.4462c.4707,2.4343.8429,4.9145,1.4169,7.3273.0249.1048.0411.2124.0615.3182a2.0238,2.0238,0,0,0,2.44,1.3853l23.9759-4.3553,38.1966-6.9386,8.7429-1.5881c2.5078-.4556,1.4454-4.2791-1.0545-3.825L786.9551,599.19l-38.1967,6.9385-8.7429,1.5882,2.44,1.3852-.97-5.0139-2.6387-13.6465-3.9034-20.1864L730.18,545.6217l-5.2423-27.11L719.67,491.2654,714.757,465.86l-4.1519-21.4722-2.9868-15.4461c-.468-2.42-.7794-4.9441-1.4169-7.3273-.0277-.1035-.0411-.2129-.0615-.3182l-1.9125,2.51h65.896l-1.4024-.5809,10.36,12.5945,16.4149,19.9553,3.777,4.5916-.5809-1.4024,1.0719,13.6977,2.5746,32.8973,3.115,39.8031,2.6934,34.415c.4363,5.5757.7932,11.1642,1.31,16.7332.0072.0786.0123.1575.0184.2362C809.6727,599.2755,813.641,599.2969,813.4415,596.7473Z"/><polygon class="cls-2" points="754.548 596.747 743.765 462.559 704.227 421.823 672.478 466.752 683.633 609.629 754.548 596.747"/><path d="M756.5313,596.7473l-.5689-7.08-1.4738-18.3412-2.03-25.2568-2.236-27.8259L748.13,492.1949,746.5286,472.27c-.2528-3.1468-.4656-6.3-.7588-9.4432a4.2392,4.2392,0,0,0-1.6115-2.7094l-5.598-5.7676-18.41-18.9674L706.36,421.1733l-.73-.7523a2.012,2.012,0,0,0-3.1149.4014l-9.0308,12.7794-16.0177,22.6665-5.4225,7.6733c-.6316.8939-1.5483,1.8133-1.5375,2.9668.028,2.9983.4725,6.0516.7057,9.0387l1.554,19.9045,2.07,26.508,2.2429,28.7267,2.1038,26.9461,1.6225,20.7816c.2695,3.4513.5153,6.9054.8085,10.3548.013.1534.0239.307.0359.46a2.0213,2.0213,0,0,0,2.5106,1.9125l23.9758-4.3553,38.1966-6.9386,8.7429-1.5881c2.5079-.4556,1.4454-4.2791-1.0545-3.825L730.0449,599.19l-38.1966,6.9385-8.7429,1.5882,2.51,1.9125-1.1107-14.2268-2.667-34.16-3.2254-41.311-2.7791-35.5959-.9187-11.7673c-.1424-1.8234-.1162-3.7612-.4345-5.5648-.0144-.0815-.0132-.1687-.02-.2514l-.2708,1.001L684.8985,452.6l17.09-24.1836,3.9518-5.5921-3.115.4014,13.352,13.7566,21.2891,21.9343,4.8965,5.0448-.5809-1.4024,1.0757,13.3864L745.43,507.96l3.1111,38.7153,2.698,33.5758c.4356,5.42.7978,10.852,1.3071,16.2658.0072.0769.0124.154.0186.2309C752.7677,599.2745,756.7361,599.2963,756.5313,596.7473Z"/><path class="cls-5" d="M899.0892,685.9147l-.7362,47.4812a40.8064,40.8064,0,0,1-1.8294,11.4646l-9.84,21.2784H813.1561l2.8947-30.601,29.5535-54.923Z"/><path d="M898.0975,685.9147l-.4918,31.7216-.2319,14.9545a44.8,44.8,0,0,1-1.54,11.1118,34.8968,34.8968,0,0,1-2.31,5.2919l-7.697,16.6438.8563-.4911H813.1561l.9917.9917,1.8305-19.351.9559-10.1056a6.3788,6.3788,0,0,0,.0943-.997c-.0282-.3977-.2191.3808-.0909.2964.2669-.1756.5073-.9428.6543-1.2159l8.93-16.5962,12.5377-23.3,4.8378-8.9908,1.58-2.9368a10.8064,10.8064,0,0,0,.87-1.6174,1.3943,1.3943,0,0,1,.1123-.2087l-.8562.4912,18.0669,1.79,28.8012,2.8539,6.6168.6557c1.2691.1258,1.26-1.8584,0-1.9833l-18.067-1.79-28.8012-2.8539-6.6167-.6557a.9679.9679,0,0,0-.8563.4912l-6.088,11.3141-12.4348,23.1092L816.42,732.7608a9.666,9.666,0,0,0-1.3725,2.9052c-.365,2.5658-.4909,5.19-.7349,7.769-.7,7.4032-1.6084,14.8183-2.1036,22.2382-.01.1554-.0294.3106-.044.4657a1.0007,1.0007,0,0,0,.9916.9916h73.5273a.976.976,0,0,0,.8562-.4911l6.8123-14.7309c.9779-2.1146,2.0072-4.2132,2.9365-6.35,1.611-3.7039,1.9883-8.3055,2.0584-12.3019.2-11.3777.3528-22.7564.5292-34.1345l.2048-13.2076A.9922.9922,0,0,0,898.0975,685.9147Z"/><path d="M972.4885,490.7865l-1.7086,7.8927-4.678,21.61-6.89,31.8292-8.4463,39.0185-9.2109,42.55-9.3407,43.15-8.6708,40.055-7.3612,34.0058-5.27,24.3443-1.6421,7.5858a36.8282,36.8282,0,0,0-.8657,3.9988,4.5191,4.5191,0,0,1-.1063.4912l1.9125-1.4561H631.2475c-3.7139,0-7.6749-.3948-11.374,0a4.6446,4.6446,0,0,1-.4851,0l1.9125,1.4561-1.3842-7.9322L616.15,757.8l-5.5713-31.9269L603.7812,686.92l-7.41-42.464-7.5153-43.067-7.0089-40.165-5.9241-33.9486-4.261-24.4181c-.67-3.8412-1.1648-7.767-2.0195-11.5728-.0368-.1638-.058-.3327-.0869-.4982-.438-2.51-4.2613-1.4462-3.825,1.0545l1.3842,7.9322,3.7669,21.5864,5.5713,31.9269,6.7973,38.9526,7.41,42.464,7.5152,43.067,7.0089,40.1651,5.9241,33.9486,4.261,24.4181c.67,3.8412,1.1648,7.7669,2.0195,11.5727.0368.1639.058.3327.0869.4983a1.9952,1.9952,0,0,0,1.9125,1.4561h278.963c3.7855,0,7.59.109,11.374,0,.1614-.0047.3235,0,.4851,0a2.01,2.01,0,0,0,1.9125-1.4561l1.7085-7.8927,4.678-21.61,6.89-31.8292,8.4464-39.0184,9.2108-42.55,9.3408-43.15,8.6707-40.055,7.3612-34.0057,5.27-24.3444c.8354-3.8595,1.7379-7.7113,2.5077-11.5845.0326-.1643.0709-.3276.1063-.4912.5388-2.4888-3.2843-3.5522-3.8249-1.0545Z"/><polygon class="cls-2" points="848.115 739.754 657.624 785.43 625.637 652.027 649.713 614.719 816.128 606.352 872.562 702.181 848.115 739.754"/><path d="M847.5877,737.8418l-5.1086,1.2249-13.8243,3.3147-20.5308,4.9228-24.9413,5.98-27.44,6.5794-27.7,6.6418-25.7174,6.1665-21.83,5.2342-15.6347,3.7488c-2.463.5906-5.025,1.036-7.4461,1.7854-.1037.0321-.2131.0511-.3188.0765l2.44,1.3852L656.35,771.6139,648.7,739.71l-9.25-38.58-7.9679-33.2306-2.6332-10.9819c-.4091-1.706-.6905-3.5187-1.2434-5.1855-.0247-.0745-.0372-.1553-.0556-.2319l-.2,1.5283,8.113-12.5718L648.4186,620.38l3.0074-4.66-1.7125.9823,16.6729-.8382,39.7567-1.9989,48.0336-2.415,41.5031-2.0867,13.7286-.69c2.1184-.1065,4.3322-.0422,6.4369-.3236.0925-.0124.19-.01.2829-.0143l-1.7125-.9823,5.62,9.5431,13.4934,22.913,16.2564,27.6048,14.1113,23.9622,4.6644,7.9205a41.86,41.86,0,0,0,2.1925,3.723,1.8079,1.8079,0,0,1,.0956.1623V701.18l-8.2665,12.7051-13.1681,20.2387-3.0122,4.63c-1.3963,2.146,2.0365,4.1362,3.4251,2.0021l8.2664-12.7051,13.1681-20.2387,3.0122-4.63a1.9735,1.9735,0,0,0,0-2.0021l-5.62-9.5431-13.4934-22.9129L838.9045,641.119l-14.1113-23.9622c-2.28-3.8714-4.4342-7.8587-6.8569-11.6435-.0337-.0528-.0637-.1083-.0955-.1623a1.9728,1.9728,0,0,0-1.7126-.9823l-4.8868.2457-13.2265.665-19.416.9762-23.334,1.1731-25.3389,1.274-25.0872,1.2613-22.685,1.1406-18.132.9116-11.4289.5746c-.84.0423-1.6824.0721-2.522.1268-.1185.0077-.238.0071-.3562.0179a2.6921,2.6921,0,0,0-2.0988,1.579l-10.1688,15.7573-11.9229,18.4754c-.7424,1.15-2.0726,2.5681-1.7948,4.0285.1173.6163.2943,1.2273.44,1.8371l2.7042,11.2778,4.5206,18.8534,5.5694,23.2277,5.9371,24.7611,5.5407,23.1076,4.4054,18.373,2.5313,10.5569.3325,1.3865a2.0165,2.0165,0,0,0,2.44,1.3852l5.1086-1.2249,13.8243-3.3147,20.5308-4.9228,24.9412-5.98,27.44-6.5794,27.7-6.6418,25.7174-6.1664,21.83-5.2342,15.6346-3.7488c2.4776-.5941,4.988-1.1141,7.4461-1.7854.1053-.0288.2127-.051.3189-.0765C851.1234,741.0718,850.0728,737.2459,847.5877,737.8418Z"/><rect class="cls-1" x="663.4917" y="589.5586" width="195.8908" height="137.1835" transform="translate(-132.4714 195.683) rotate(-13.4836)"/><path d="M872.1489,700.1013l-5.1086,1.2249L853.216,704.641l-20.5308,4.9228-24.9412,5.98-27.44,6.5794-27.7,6.6418-25.7174,6.1664-21.83,5.2343-15.6346,3.7488c-2.463.5906-5.0251,1.036-7.4461,1.7854-.1037.0321-.2132.0511-.3189.0764l2.44,1.3853-3.1863-13.2884-7.65-31.9044-9.2505-38.58-7.9679-33.2305L653.41,619.177c-.4083-1.703-.6824-3.5242-1.2433-5.1854-.0251-.0743-.0373-.1555-.0556-.2319l-1.3853,2.44,5.1086-1.2249,13.8243-3.3148,20.5308-4.9228,24.9413-5.98,27.44-6.5794,27.7-6.6418,25.7174-6.1664,21.83-5.2343,15.6347-3.7488c2.463-.5906,5.025-1.036,7.4461-1.7854.1037-.0321.2131-.0511.3188-.0764l-2.44-1.3853,3.1862,13.2884,7.65,31.9044,9.25,38.58,7.9679,33.2305c1.2879,5.3713,2.36,10.8546,3.8766,16.1674.0217.0762.0371.1548.0556.2319.5949,2.4813,4.4208,1.4307,3.8249-1.0544l-3.1862-13.2884-7.65-31.9045-9.2505-38.5795-7.9679-33.2305c-1.2879-5.3713-2.36-10.8546-3.8765-16.1674-.0218-.0762-.0372-.1548-.0557-.232a2.0165,2.0165,0,0,0-2.44-1.3852l-5.1086,1.2249-13.8243,3.3148-20.5308,4.9228-24.9412,5.98-27.44,6.5794-27.7,6.6418L694.9,601.53l-21.83,5.2343-15.6346,3.7488c-2.4776.594-4.988,1.1141-7.4461,1.7854-.1053.0287-.2127.051-.3189.0764a2.0167,2.0167,0,0,0-1.3852,2.44l3.1862,13.2883,7.65,31.9045,9.25,38.58L676.34,731.817c1.2879,5.3713,2.36,10.8546,3.8766,16.1674.0217.0762.0371.1548.0556.232a2.0166,2.0166,0,0,0,2.44,1.3852l5.1086-1.2249,13.8243-3.3148,20.5308-4.9228,24.9413-5.98,27.44-6.5794,27.7-6.6418,25.7174-6.1664,21.83-5.2343,15.6346-3.7488c2.4776-.594,4.988-1.114,7.4462-1.7854.1052-.0287.2127-.051.3188-.0764C875.6847,703.3313,874.6341,699.5054,872.1489,700.1013Z"/><path class="cls-1" d="M616.37,517.0794l-20.955,79.875c-1.0683,4.0721,11.4074,10.8733,27.8652,15.1909s30.6656,4.5168,31.7339.4448l20.955-79.875Z"/><path d="M614.4574,516.5522l-3.0167,11.4991-6.7641,25.783-7.0824,26.9963q-1.9859,7.57-3.9717,15.1391c-.7427,2.85.9338,5.1076,3.0767,6.8545,5.3562,4.3664,12.2761,6.9345,18.76,9.078a108.9243,108.9243,0,0,0,26.0936,5.4435,39.28,39.28,0,0,0,9.3945-.26c1.9888-.3362,4.2978-1.04,5.4614-2.8266a12.5722,12.5722,0,0,0,1.1729-3.6374l2.0461-7.7992,6.6381-25.3025,7.1589-27.2879,4.2507-16.2028.2065-.7872a2.0138,2.0138,0,0,0-1.3852-2.44l-20.17-5.2917-32.11-8.424-7.3183-1.92c-2.4713-.6483-3.5255,3.1767-1.0545,3.825l20.17,5.2916,32.11,8.4241,7.3183,1.92-1.3852-2.44-2.9023,11.063L664.56,568.3861l-7.0012,26.6867-4.2144,16.0643c-.0806.307-.1682.6131-.2419.9218-.01.04-.0236.0823-.0358.1213.1828-.5845.076-.0428-.048.0244-.1955.1058.211-.2935.0652-.0963a.59.59,0,0,1-.1451.1447c-.2662.1169-.02.0227.0636-.0374a2.0258,2.0258,0,0,1-.2585.17c-.2008.1007-.3892.2183-.5951.3106.3043-.1365-.1183.04-.222.0724a14.7923,14.7923,0,0,1-1.6784.43,34.3372,34.3372,0,0,1-8.6961.1813,89.5373,89.5373,0,0,1-12.1015-1.8051,100.9648,100.9648,0,0,1-23.7417-7.8266,29.984,29.984,0,0,1-6.807-4.2416,12.4713,12.4713,0,0,1-.9912-1.0014c-.2283-.258.0759.1536-.1716-.2209-.1157-.1753-.2185-.3553-.323-.5371-.2042-.3554.1647.0294-.0413-.11a1.1649,1.1649,0,0,1-.0641-.252,1.2068,1.2068,0,0,0,.03.2194c-.0491.0028.0867-.6052-.0394-.0069.0087-.0412.0174-.0831.0287-.1237,1.0717-3.8417,2.0255-7.7205,3.0375-11.5782l6.6462-25.3336,6.97-26.5665,4.1-15.6269.2-.761C618.9307,515.1354,615.1057,514.0812,614.4574,516.5522Z"/><ellipse class="cls-2" cx="646.4918" cy="523.6684" rx="7.6226" ry="30.808" transform="translate(-24.0891 1016.1128) rotate(-75.2999)"/><path d="M674.3789,530.959c-.0856.2884.0972-.0656.045-.0738-.0114-.0018-.1414.25-.1634.2682.5845-.47-.3654.2634-.0654.0237a4.5214,4.5214,0,0,1-1.0855.5183,16.9524,16.9524,0,0,1-4.5317.7,65.5289,65.5289,0,0,1-14.4619-1.2579,119.7442,119.7442,0,0,1-17.3683-4.5139,69.08,69.08,0,0,1-13.1785-5.828,19.9787,19.9787,0,0,1-3.7021-2.6831c-.2142-.206-.4177-.4207-.6169-.6412-.2728-.3019-.0367.0241-.28-.3594a4.9671,4.9671,0,0,1-.3719-.6662c.2664.6091.06.0912.0542.087q-.038-.1245-.064-.252l.0337.28a1.1538,1.1538,0,0,1-.0072-.3015c.093-.0278-.1062.43-.01.1189.1016-.3285-.07.1031-.0734.1289a.6939.6939,0,0,1,.1562-.2706c.2278-.1173-.3485.326-.0191.0472a1.8524,1.8524,0,0,1,.2048-.189c-.4345.2655.3341-.1762.45-.2373.0821-.0434.4314-.19.0961-.0533.1164-.0476.24-.0933.36-.1313.3335-.1051.6652-.2048,1.0055-.2864a14.7164,14.7164,0,0,1,2.181-.3489,55.7939,55.7939,0,0,1,13.7175.7911,118.4292,118.4292,0,0,1,17.45,4.19,74.0656,74.0656,0,0,1,15.0222,6.37,19.4252,19.4252,0,0,1,4.2506,3.1235c.0932.0961.644.7443.4149.44a6.07,6.07,0,0,1,.5033.8086c.05.0932.1928.3308-.0347-.0837a1.2144,1.2144,0,0,1,.1061.38c.0114-.6044-.0718-.206-.0246-.0983.1576.36.0692-.2649.0081.0008-.5712,2.4846,3.2523,3.5453,3.8249,1.0545.7579-3.2967-2.3053-5.8355-4.6782-7.5277a57.8129,57.8129,0,0,0-13.4175-6.59,118.0135,118.0135,0,0,0-19.0709-5.3132,71.5308,71.5308,0,0,0-16.78-1.6c-2.9586.1435-7.43.4705-9.0939,3.4122-1.6013,2.8312.7994,5.6924,2.9043,7.4,3.6928,2.9951,8.1442,4.9907,12.5213,6.759a114.5341,114.5341,0,0,0,18.8547,5.6924c6.2284,1.3371,12.742,2.3974,19.1346,2.1161,3.2473-.1429,8.5007-.5546,9.6259-4.3482C678.9312,529.561,675.1043,528.5134,674.3789,530.959Z"/><line class="cls-1" x1="657.5012" y1="785.4494" x2="682.6615" y2="747.709"/><path d="M659.2137,786.45l8.5-12.7495,13.5488-20.3232,3.1118-4.6677c1.42-2.13-2.0143-4.1183-3.4251-2.002l-8.5,12.75L658.9,779.7807l-3.1118,4.6677c-1.42,2.13,2.0143,4.1183,3.4251,2.002Z"/><circle cx="667.6851" cy="899.8688" r="14.9764"/><path d="M680.6781,899.8688a12.9917,12.9917,0,1,1-10.6261-12.7835,13.1161,13.1161,0,0,1,10.6261,12.7835c.0291,2.5508,3.9959,2.5575,3.9667,0A16.9627,16.9627,0,1,0,670.9413,916.51a17.2,17.2,0,0,0,13.7035-16.6408C684.6739,897.3155,680.7073,897.3138,680.6781,899.8688Z"/><circle cx="831.2269" cy="899.8688" r="14.9764"/><path d="M844.22,899.8688a12.9917,12.9917,0,1,1-10.6261-12.7835A13.1164,13.1164,0,0,1,844.22,899.8688c.0291,2.5508,3.9958,2.5575,3.9666,0A16.9627,16.9627,0,1,0,834.4831,916.51a17.2,17.2,0,0,0,13.7035-16.6408C848.2158,897.3155,844.2491,897.3138,844.22,899.8688Z"/><path class="cls-1" d="M937.0126,438.7306l-3.4485,51.7175a17.09,17.09,0,0,0,7.9076,15.5745h0A17.09,17.09,0,0,1,949.19,523.24L923.0469,633.8041a8.9472,8.9472,0,0,1-10.1622,6.7693L878.6462,634.93a8.9471,8.9471,0,0,1-7.44-9.794L883.1934,514.77a17.09,17.09,0,0,1,9.4694-12.6285l3.827-1.8362a17.09,17.09,0,0,0,9.4421-12.468l11.6726-52.9125Z"/><path d="M935.0293,438.7306l-1.1678,17.513-1.8525,27.7826c-.14,2.1068-.296,4.2132-.4215,6.321a19.333,19.333,0,0,0,8.5685,17.1837c4.9364,3.314,8.2793,9.14,7.106,15.2453-.2056,1.07-.5039,2.131-.7545,3.1913l-4.2332,17.9031-6.4336,27.21-6.8231,28.8565-5.5012,23.266c-.7916,3.348-1.53,6.7138-2.376,10.0487a7.0671,7.0671,0,0,1-4.9061,5.1946,8.3759,8.3759,0,0,1-3.7464.0626L901.97,636.7749c-7.5638-1.2468-15.1528-2.3906-22.6988-3.7416a7.1831,7.1831,0,0,1-6.0528-8.1612c.1409-1.3561.2945-2.7111.4417-4.0665L875.8,601.1087l3.074-28.3029,3.1555-29.0544,2.3855-21.9637.6256-5.76c.0419-.3856.0685-.7767.1261-1.16.004-.0272.0044-.0551.0089-.0823l.0016-.0144c-.0747.4438.0554-.1626.0656-.2023.0766-.2976.1351-.5992.2143-.8964a15.4673,15.4673,0,0,1,2.2184-4.7863,16.6324,16.6324,0,0,1,6.8528-5.4462,32.5173,32.5173,0,0,0,6.7357-3.8657c3.8357-3.1219,5.7375-7.3863,6.7763-12.095l4.7311-21.4466,5.7533-26.08.9927-4.5-2.44,1.3853,19.4082,3.8062c2.4936.4891,3.5611-3.3333,1.0545-3.8249l-19.4082-3.8063a2.0169,2.0169,0,0,0-2.44,1.3852l-3.7059,16.7991-6.163,27.937L904.14,486.764a21.7717,21.7717,0,0,1-1.2067,4.2244,15.409,15.409,0,0,1-7.28,7.5227c-1.7576.8741-3.6046,1.6144-5.2963,2.6143a19.0111,19.0111,0,0,0-7.6117,8.4382,21.8116,21.8116,0,0,0-1.7056,6.7727l-1.7587,16.1928L876.33,559.7055l-3.2535,29.9559-2.6643,24.5311c-.3945,3.6324-.8422,7.2635-1.184,10.9014a11.0163,11.0163,0,0,0,9.057,11.7756c2.9243.5027,5.8561.9653,8.7837,1.4478l24.682,4.0685a12.38,12.38,0,0,0,5.6982-.16,11.0758,11.0758,0,0,0,7.3734-7.3874c.2863-.9584.4787-1.9513.7087-2.9238l4.0427-17.0979,6.395-27.0459,6.9292-29.3055,5.6455-23.8764c.846-3.578,1.8039-7.1494,2.5422-10.7517a19.0154,19.0154,0,0,0-6.2417-17.7614c-1.378-1.1791-2.99-2.0361-4.3307-3.256a15.1354,15.1354,0,0,1-4.96-12.4492c.3792-6.4141.8551-12.8241,1.2826-19.2351l1.8355-27.5272.3252-4.8778C939.1659,436.1823,935.1985,436.1927,935.0293,438.7306Z"/><rect class="cls-5" x="920.5728" y="425.4335" width="13.1792" height="24.5612" rx="4.4743" transform="translate(344.483 1281.3423) rotate(-80.6399)"/><path d="M934.32,443.5731l-10.5881-1.7453c-1.545-.2546-3.0946-.49-4.6363-.7642a2.7886,2.7886,0,0,1-2.1674-1.34,2.434,2.434,0,0,1-.27-.7527c-.0295-.1656-.0029-1.0227-.042-.6582.0369-.3438.1137-.6893.17-1.03.3046-1.8475.2294-4.9468,2.5779-5.3828a2.2642,2.2642,0,0,1,1.2764.06l2.2474.37c4.0412.6661,8.0874,1.3076,12.1244,1.9985a3.1986,3.1986,0,0,1,2.1228.98,2.9179,2.9179,0,0,1,.5605,1.8869c.0164-.2022-.031.1748-.04.2358-.0355.2382-.0785.4757-.1176.7134-.3949,2.3958-.4022,5.7766-3.7453,5.3569a1.9937,1.9937,0,0,0-1.9833,1.9833,2.0327,2.0327,0,0,0,1.9833,1.9833,6.405,6.405,0,0,0,5.5749-2.1391,7.6783,7.6783,0,0,0,1.6354-3.9464c.5133-3.1139,1.3185-6.2591-1.0631-8.8789-1.5466-1.7014-3.5953-1.9547-5.7024-2.302l-7.78-1.2824c-1.7722-.2921-3.5423-.6053-5.3178-.8765a6.55,6.55,0,0,0-7.6889,5.2128c-.4736,2.6524-1.3411,5.6338-.0984,8.1784,1.2018,2.4605,3.5127,3.26,5.9862,3.6677l13.9265,2.2956a2.0435,2.0435,0,0,0,2.44-1.3853A1.9993,1.9993,0,0,0,934.32,443.5731Z"/><path class="cls-2" d="M932.7667,591.0563l-20.6056-3.0958a5.55,5.55,0,0,1-4.6932-6.2568l5.0326-36.1433a5.55,5.55,0,0,1,6.4834-4.6961l24.9718,4.5109Z"/><path d="M933.2939,589.1438l-19.0792-2.8665a8.2047,8.2047,0,0,1-3.1168-.77,3.5834,3.5834,0,0,1-1.697-2.94c-.0031-.094.0186-.8053-.0193-.3445.0013-.0157.0051-.0311.0065-.0467.0078-.0863.0255-.172.0359-.258.2934-2.4194.6728-4.8316,1.0089-7.2453l3.3249-23.8792a28.8292,28.8292,0,0,1,.89-5.7071c1.1708-3.2232,4.5664-2.1721,7.0459-1.7242l21.2246,3.834.51.0922-1.3852-2.44-3.7855,15.4548-6.0073,24.526-1.3962,5.7c-.6072,2.479,3.217,3.5367,3.8249,1.0545l3.7855-15.4548,6.0073-24.526,1.3963-5.7a2.0033,2.0033,0,0,0-1.3853-2.44L924.32,539.8205c-2.8913-.5223-6.294-1.6172-9.1265-.4693a7.5359,7.5359,0,0,0-4.6184,5.7761c-.1193.7469-.2088,1.5-.3131,2.2488l-3.3244,23.875-1.2579,9.0341a11.209,11.209,0,0,0-.0989,3.6483,7.5579,7.5579,0,0,0,6.0782,5.9432c6.6117,1.1423,13.2855,1.996,19.9209,2.9929l.66.0991a2.0476,2.0476,0,0,0,2.44-1.3852A1.998,1.998,0,0,0,933.2939,589.1438Z"/><path d="M665.9726,786.8446,654.09,812.3631l-7.85,16.8593a93.7614,93.7614,0,0,0-4.1654,9.298,22.8453,22.8453,0,0,0,6.68,24.2215,23.2264,23.2264,0,0,0,15.3856,5.5632q7.0175.0064,14.0349,0H870.1655c2.5523,0,2.5566-3.9667,0-3.9667H666.4978c-.9461,0-1.8925.0065-2.8386,0a18.7416,18.7416,0,0,1-17.4762-25.552c.363-.9506.8305-1.8688,1.26-2.7907l6.1722-13.2552,14.8308-31.85.9518-2.0442a2.04,2.04,0,0,0-.7115-2.7135,2,2,0,0,0-2.7135.7115Z"/><path d="M962.42,474.7263a10.5972,10.5972,0,1,1-.1133,21.1937c-1.4172.0235-2.8368,0-4.2542,0H579.2475c-5.2034,0-10.1375-2.3218-11.6388-7.78a10.7149,10.7149,0,0,1,10.2182-13.4139c2.5486-.0572,2.5578-4.0241,0-3.9666a14.5674,14.5674,0,0,0-4.3992,28.449,22.44,22.44,0,0,0,7.08.6779H956.1515c1.9229,0,3.846.01,5.7688,0,9.1211-.0455,16.3734-7.8521,14.8334-17.0749A14.7249,14.7249,0,0,0,962.42,470.76c-2.5536-.0574-2.5528,3.9093,0,3.9666Z"/><line class="cls-5" x1="559.8553" y1="450.578" x2="573.0345" y2="522.2102"/><path d="M557.9428,451.1053l4.4579,24.2294L569.5,513.9224l1.6218,8.815c.4613,2.5071,4.2849,1.4451,3.825-1.0545l-4.4579-24.23-7.1-38.5877-1.6218-8.8149c-.4613-2.5071-4.2848-1.4451-3.825,1.0545Z"/><line class="cls-5" x1="657.5012" y1="442.1913" x2="663.4917" y2="472.743"/><path d="M655.5887,442.7185l5.2529,26.79.7376,3.762c.4908,2.5026,4.3147,1.4432,3.825-1.0545l-5.2529-26.79-.7376-3.762c-.4908-2.5026-4.3147-1.4432-3.825,1.0545Z"/><line class="cls-5" x1="615.5674" y1="497.9033" x2="667.6851" y2="787.8456"/><path d="M613.6549,498.4306l1.3954,7.7627,3.7972,21.1247,5.6157,31.2414,6.8509,38.113,7.4771,41.5969,7.5471,41.9862L653.4,719.542l5.9676,33.199,4.29,23.8663c.6752,3.7561,1.2368,7.5548,2.0292,11.2885.0335.1578.0572.3182.0857.4771.4509,2.5084,4.2744,1.4456,3.825-1.0545l-1.3954-7.7627L664.405,758.431,658.7893,727.19l-6.8509-38.113L644.4613,647.48l-7.5471-41.9863-7.0619-39.2865-5.9675-33.199-4.29-23.8663c-.6751-3.7561-1.2367-7.5548-2.0291-11.2884-.0335-.1578-.0572-.3183-.0857-.4771-.4509-2.5085-4.2744-1.4456-3.825,1.0545Z"/><line class="cls-5" x1="689.8501" y1="498.5024" x2="718.0057" y2="787.8456"/><path d="M687.8668,498.5024l.7554,7.7631,2.0466,21.0324,3.0366,31.205,3.6919,37.9408,4.0433,41.5507,4.0951,42.0843,3.8055,39.1071,3.2263,33.1561,2.3116,23.7549c.3653,3.7538.7123,7.51,1.0959,11.262.0166.1622.0316.3246.0473.4868.2451,2.5178,4.2142,2.5433,3.9667,0l-.7554-7.7631L717.1869,759.05l-3.0365-31.205-3.6919-37.9408-4.0433-41.5507L702.32,606.2693l-3.8055-39.1071-3.2263-33.1561-2.3116-23.7549c-.3653-3.7538-.7123-7.51-1.0959-11.262-.0166-.1622-.0316-.3246-.0474-.4868-.245-2.5178-4.2141-2.5433-3.9666,0Z"/><line class="cls-5" x1="913.2974" y1="497.9033" x2="863.5759" y2="783.6522"/><path d="M911.3849,497.3761l-1.3346,7.67-3.6159,20.7805-5.344,30.7124-6.5426,37.6-7.1423,41.0471-7.2094,41.4324-6.7446,38.7608-5.68,32.6415-4.0857,23.48c-.6468,3.7175-1.3141,7.4321-1.9407,11.1531-.0264.1573-.0546.3143-.082.4714-.4344,2.4966,3.3875,3.5687,3.825,1.0545l1.3345-7.67,3.6159-20.78,5.3441-30.7123,6.5425-37.6,7.1424-41.0471,7.2094-41.4324,6.7446-38.7609,5.68-32.6414,4.0857-23.48c.6468-3.7175,1.3141-7.4321,1.9406-11.1531.0265-.1573.0547-.3143.0821-.4714.4344-2.4966-3.3875-3.5687-3.825-1.0545Z"/><line class="cls-5" x1="839.0147" y1="497.9033" x2="810.8591" y2="787.8456"/><path d="M837.0313,497.9033l-.7554,7.7792-2.0466,21.076-3.0365,31.27-3.692,38.0193-4.0432,41.6368-4.0952,42.1714-3.8054,39.188-3.2264,33.2248-2.3116,23.804c-.3646,3.7554-.8459,7.52-1.0959,11.2854-.0108.1628-.0316.3254-.0473.4878-.2466,2.5391,3.7217,2.5221,3.9666,0l.7554-7.7791,2.0467-21.0761,3.0365-31.27,3.6919-38.0193,4.0433-41.6367,4.0951-42.1714,3.8055-39.1881,3.2264-33.2247,2.3115-23.8041c.3647-3.7554.846-7.52,1.0959-11.2854.0108-.1627.0316-.3254.0474-.4878.2465-2.5391-3.7218-2.5221-3.9667,0Z"/><path d="M764.1234,498.5024V776.1153c0,3.7439-.0706,7.4956,0,11.239.0031.1636,0,.3276,0,.4913,0,2.5524,3.9667,2.5566,3.9667,0V510.2327c0-3.7439.0706-7.4956,0-11.239-.0031-.1637,0-.3276,0-.4913,0-2.5524-3.9667-2.5566-3.9667,0Z"/><path d="M577.9764,552.5137H946.0106c4.97,0,9.95.0951,14.9194,0,.2173-.0041.435,0,.6523,0,2.5523,0,2.5565-3.9666,0-3.9666H593.5481c-4.97,0-9.95-.0951-14.9194,0-.2172.0041-.4349,0-.6523,0-2.5523,0-2.5565,3.9666,0,3.9666Z"/><path d="M592.2043,632.787H930.15c4.5635,0,9.1368.0873,13.7,0,.2-.0038.3994,0,.5989,0,2.5524,0,2.5566-3.9666,0-3.9666H606.5028c-4.5634,0-9.1367-.0873-13.7,0-.1995.0038-.3994,0-.5989,0-2.5524,0-2.5566,3.9666,0,3.9666Z"/><path d="M605.9825,713.06h306.91c4.1444,0,8.2976.079,12.4415,0,.1812-.0035.3627,0,.5439,0,2.5524,0,2.5566-3.9667,0-3.9667H618.968c-4.1445,0-8.2977-.0789-12.4416,0-.1811.0035-.3627,0-.5439,0-2.5523,0-2.5566,3.9667,0,3.9667Z"/><circle class="cls-7" cx="800.6752" cy="235.5175" r="91.6553"/><path d="M890.3472,235.5175a89.1584,89.1584,0,1,1-1.0211-13.6637,90.2221,90.2221,0,0,1,1.0211,13.6637c.0048,2.5521,3.9714,2.5568,3.9666,0a93.64,93.64,0,1,0-1.1108,14.38,97.1086,97.1086,0,0,0,1.1108-14.38C894.3186,232.9649,890.352,232.9611,890.3472,235.5175Z"/><polygon class="cls-5" points="728.431 595.529 735.378 614.12 758.741 609.327 752.224 590.757 728.431 595.529"/><path d="M726.5184,596.0558l6.9474,18.5913a2.0456,2.0456,0,0,0,2.44,1.3852l20.4147-4.1876,2.9484-.6048a1.9948,1.9948,0,0,0,1.3852-2.44L754.1366,590.23a2.0426,2.0426,0,0,0-2.44-1.3852l-20.7807,4.1676-3.0126.6042c-2.5008.5015-1.4423,4.3257,1.0545,3.8249l20.7807-4.1676,3.0126-.6042-2.44-1.3852,6.5173,18.5707,1.3852-2.44-20.4147,4.1877-2.9484.6048,2.44,1.3852-6.9474-18.5913C729.4578,592.6315,725.6222,593.6575,726.5184,596.0558Z"/><path class="cls-1" d="M864.7965,461.0691H859.178a15.72,15.72,0,0,0-26.4165,0h-5.6184a4.6278,4.6278,0,0,0-4.6278,4.6278v7.8022a4.6278,4.6278,0,0,0,4.6278,4.6278h5.6184a15.72,15.72,0,0,0,26.4165,0h5.6185a4.6278,4.6278,0,0,0,4.6278-4.6278v-7.8022A4.6278,4.6278,0,0,0,864.7965,461.0691Z"/><path d="M864.7965,459.0858H859.178l1.7126.9823a17.7,17.7,0,0,0-29.8416,0l1.7125-.9823c-1.8679,0-3.7444-.0566-5.6113,0a6.7445,6.7445,0,0,0-6.6182,6.8572c-.0215,2.2687,0,4.5386,0,6.8074,0,3.27,1.6436,6.3975,5.0693,7.1774,2.2664.516,4.854.1824,7.16.1824l-1.7125-.9823a17.7,17.7,0,0,0,29.8416,0l-1.7126.9823c4.0623,0,9.1948.8014,11.4547-3.5138.93-1.7761.7749-3.7218.7749-5.6539,0-1.7244.0448-3.4554,0-5.1794a6.7373,6.7373,0,0,0-6.6111-6.6773c-2.553-.0939-2.5491,3.8729,0,3.9666,1.8145.0667,2.6351,1.4674,2.6445,3.1121.0094,1.67,0,3.3406,0,5.0108,0,1.1552.24,2.6767-.3911,3.7035-.882,1.4351-2.4125,1.2648-3.859,1.2648-1.3989,0-3.1728-.3057-4.54.0708-1.178.3244-2.05,2.1682-2.8928,3.0233a13.73,13.73,0,0,1-18.2491,1.2018,13.7645,13.7645,0,0,1-2.6307-2.7192,2.8655,2.8655,0,0,0-2.58-1.5767c-1.586-.0233-3.1732.0107-4.7594,0a2.7558,2.7558,0,0,1-3.04-2.6549c-.058-1.3331,0-2.681,0-4.0152,0-1.2507-.08-2.5283,0-3.7766.1155-1.805,1.4307-2.6373,3.1076-2.6445,1.6069-.0069,3.2206.0509,4.8265,0a2.872,2.872,0,0,0,2.4455-1.5767,13.6978,13.6978,0,0,1,2.7976-2.8469,13.8881,13.8881,0,0,1,16.7549.1277,14.3722,14.3722,0,0,1,2.836,3.014,2.7966,2.7966,0,0,0,2.6981,1.2819h4.8317C867.3488,463.0524,867.3531,459.0858,864.7965,459.0858Z"/><path d="M673.0048,468.665l31.0522-5.2631c1.3891-.2355,2.8738-.351,4.2361-.718-.6685.18-.4116.0663.1559.1136l2.2934.1911L729.13,464.521l14.6348,1.2195c2.5439.212,2.53-3.7558,0-3.9666l-31.53-2.6275c-1.43-.1192-2.9194-.3744-4.3566-.3631a20.9721,20.9721,0,0,0-3.2017.51l-18.2294,3.09L671.95,464.84a1.9992,1.9992,0,0,0-1.3852,2.44,2.03,2.03,0,0,0,2.44,1.3853Z"/><path d="M761.7366,462.7453l34.11-1.5744,4.8284-.2228c2.5418-.1173,2.5562-4.0846,0-3.9666l-34.11,1.5743-4.8284.2228c-2.5418.1173-2.5562,4.0846,0,3.9667Z"/><path class="cls-5" d="M870.4676,200.4117Z"/><path d="M869.0652,199.0093l-.0441.0353a1.9955,1.9955,0,0,0,0,2.8048,2.0309,2.0309,0,0,0,2.8048,0l.0442-.0353a1.9956,1.9956,0,0,0,0-2.8048,2.031,2.031,0,0,0-2.8049,0l-.0441.0353a1.9955,1.9955,0,0,0,0,2.8048,2.0309,2.0309,0,0,0,2.8048,0l.0442-.0353a1.9956,1.9956,0,0,0,0-2.8048A2.031,2.031,0,0,0,869.0652,199.0093Z"/><path class="cls-5" d="M896.358,167.0375a14.668,14.668,0,0,0-19.6708-5.1578c-31.8919,17.7248-58.177,45.31-79.904,74.5525l-20.0877-21.1451c-5.191-5.464-15.1721-5.6217-20.3328,0a14.669,14.669,0,0,0,0,20.3325q15.9349,16.7738,31.87,33.547c6.6057,6.9535,17.7356,4.6769,22.5807-2.91,1.2838-2.01,2.6448-3.9738,4.0123-5.9271q2.2839-3.2626,4.6539-6.4641,1.26-1.7041,2.544-3.3905a16.26,16.26,0,0,0,2.0459-2.641,301.3872,301.3872,0,0,1,39.443-41.7013q3.509-3.0208,7.1395-5.8966c.4629-.366.9341-.7228,1.3939-1.0925-.9933.7988-1.4441,1.16-1.5781,1.2677.2124-.17,1.13-.9024,1.4874-1.17q1.7748-1.329,3.58-2.6168a165.4285,165.4285,0,0,1,15.6647-9.916C897.78,183.0517,900.5028,173.4662,896.358,167.0375Z"/><path d="M898.0706,166.0365c-4.3674-6.6123-12.7151-9.92-20.2657-6.8607-4.1107,1.6654-7.97,4.3294-11.6966,6.71q-5.7738,3.6884-11.2792,7.7755a260.3408,260.3408,0,0,0-40.3273,37.6306c-6.8205,7.7625-13.2651,15.8492-19.4311,24.1394l3.1149-.4014-19.4068-20.4282a16.5358,16.5358,0,0,0-8.3069-4.9826,17.1567,17.1567,0,0,0-9.6308.4721,16.5313,16.5313,0,0,0-10.533,16.25,16.8574,16.8574,0,0,0,3.8882,9.8158c2.8578,3.4759,6.2318,6.6209,9.3311,9.8834l19.5331,20.561c2.6633,2.8034,5.132,5.8893,8.7686,7.4484a16.0818,16.0818,0,0,0,9.3484.9478,17.5465,17.5465,0,0,0,8.2643-4.1116c2.9019-2.5482,4.7681-6.2271,6.96-9.3593q7.1965-10.2857,15.2522-19.8994a284.1834,284.1834,0,0,1,36.6123-36.9218c1.7068-1.4131,3.4471-2.7813,5.1823-4.1588l-2.8048-2.8049q-.7887.6342-1.5781,1.2678a1.9958,1.9958,0,0,0,0,2.8048,2.0311,2.0311,0,0,0,2.8049,0,148.255,148.255,0,0,1,18.6733-12.4584,19.0667,19.0667,0,0,0,6.9044-5.8865,17.4758,17.4758,0,0,0,2.7972-8.1052,15.0669,15.0669,0,0,0-2.1744-9.3275c-1.35-2.16-4.7836-.1709-3.4251,2.002,3.2673,5.2262,1.5864,12.8614-3.4893,16.3649-1.7979,1.241-3.8184,2.2053-5.6916,3.3322q-3.0561,1.8385-6.03,3.8087c-3.5492,2.35-7.0434,4.8068-10.3693,7.465l2.8049,2.8048q.79-.633,1.578-1.2677a1.9959,1.9959,0,0,0,0-2.8049,2.0319,2.0319,0,0,0-2.8048,0,279.32,279.32,0,0,0-35.5493,33.812c-5.1282,5.7977-10.0877,11.7889-14.7832,17.9209-2.5211,3.2925-4.9574,6.6524-7.3345,10.05-2.0015,2.8606-3.6907,6.2306-6.3393,8.5564-4.0615,3.5665-10.2928,4.4222-14.91,1.4443a20.858,20.858,0,0,1-3.6346-3.3841l-4.6262-4.87-9.0812-9.5591-9.2525-9.7395q-2.2275-2.3446-4.4549-4.6894a42.27,42.27,0,0,1-4.0509-4.4311,12.8931,12.8931,0,0,1,1.5987-16.6369c4.0167-3.91,10.8088-4.0142,15.3495-.9916a23.5618,23.5618,0,0,1,3.7606,3.6162l4.4261,4.659,9.0224,9.4974,4.5964,4.8383a2.014,2.014,0,0,0,3.115-.4014A333.947,333.947,0,0,1,832.8,197.7189a215.8661,215.8661,0,0,1,40.8706-31.8246c3.697-2.1821,7.2715-4.3971,11.7447-3.8239a13.2689,13.2689,0,0,1,9.23,5.9681C896.0463,170.1594,899.4829,168.1748,898.0706,166.0365Z"/></svg>