<svg id="Layer_1" data-name="Layer 1" xmlns="http://www.w3.org/2000/svg" width="1000" height="1000" viewBox="0 0 1000 1000"><defs><style>.cls-1,.cls-6{fill:#fff;}.cls-2{fill:#ffc41f;}.cls-3{fill:#e2e2e2;}.cls-4{fill:#a8542a;}.cls-5{fill:#389b48;}.cls-6,.cls-9{stroke:#000;stroke-miterlimit:10;stroke-width:2.6138px;}.cls-7{fill:#fc7f3a;}.cls-8{fill:#fc7272;}.cls-9{fill:none;}.cls-10{fill:#458dc9;}</style></defs><polyline class="cls-1" points="170.843 594.678 318.12 545.426 269.824 358.461 25 432.578 60.863 555.468"/><path d="M171.26,596.1905l14.7-4.9158L221.1086,579.52l42.6361-14.2582L300.46,552.9839c5.9377-1.9857,11.9356-3.8463,17.8286-5.9622.0821-.0294.1656-.0554.2483-.083a1.6018,1.6018,0,0,0,1.0954-1.9292l-4.8-18.5813L303.3044,481.8l-13.9492-54.0016-12.0636-46.7016c-1.9531-7.5611-3.67-15.2339-5.8709-22.728-.0315-.1071-.056-.2168-.084-.325a1.5869,1.5869,0,0,0-1.9291-1.0953l-6.5555,1.9845-17.8391,5.4006-26.3822,7.9868-32.0513,9.703-35.24,10.6683L115.768,403.4606,82.7263,413.4634l-28.039,8.4884-20.16,6.103c-3.1779.9621-6.38,1.8666-9.54,2.888-.1341.0434-.27.0817-.4048.1226a1.5928,1.5928,0,0,0-1.0954,1.9292l3.5634,12.21L35.61,474.5328l10.357,35.49L54.9251,540.72c1.4508,4.9712,2.7327,10.0328,4.3626,14.9492.0236.071.042.144.063.2158.5643,1.9337,3.5921,1.1109,3.0245-.8339l-3.5633-12.21-8.5587-29.3278-10.357-35.49-8.9584-30.6972-2.9555-10.1278a34.144,34.144,0,0,0-1.4071-4.8214,1.53,1.53,0,0,1-.0629-.2158L25.4169,434.09l6.5554-1.9845,17.8392-5.4006,26.3822-7.9868,32.0512-9.703,35.24-10.6683,35.5717-10.7688,33.0417-10.0028,28.039-8.4884,20.16-6.103c3.1383-.95,6.49-1.6743,9.54-2.888.1294-.0516.2711-.0821.4048-.1226l-1.9292-1.0953,4.8,18.5812,11.528,44.6282,13.9492,54.0016L310.6528,522.79l3.9944,15.4634a74.636,74.636,0,0,0,1.8765,7.2647,3.3,3.3,0,0,1,.0839.3249l1.0954-1.9292-14.7,4.9158L267.854,560.5844l-42.6361,14.2582-36.7152,12.2782c-5.9376,1.9856-11.9356,3.8462-17.8286,5.9621-.0821.0295-.1656.0554-.2483.083-1.9047.637-1.0881,3.6673.8338,3.0246Z"/><polyline class="cls-1" points="65.645 571.726 33.129 459.833 276.041 382.369 326.249 572.682 178.972 621.934"/><path d="M67.157,571.309l-3.2315-11.12-7.7611-26.7074L46.773,501.1644l-8.122-27.9495-2.67-9.1884a30.3723,30.3723,0,0,0-1.2829-4.4149,1.3372,1.3372,0,0,1-.0567-.195l-1.0954,1.9292,6.5032-2.0739,17.6968-5.6435,26.0565-8.3093,31.9118-10.1766,34.9607-11.1489,35.2912-11.2543,32.9032-10.4927,27.7012-8.8339,20.0076-6.38c3.1091-.9914,6.4674-1.7446,9.4749-3.0215.1285-.0545.2714-.0865.4047-.129l-1.9292-1.0954,5.0036,18.966,12.0124,45.5327,14.5237,55.0517,12.4864,47.3294,4.1537,15.7443a67.7069,67.7069,0,0,0,1.9444,7.37,2.94,2.94,0,0,1,.084.3185l1.0953-1.9292-14.7,4.9158L275.983,587.84l-42.6361,14.2581-36.7153,12.2782c-5.9376,1.9856-11.9356,3.8463-17.8285,5.9621-.0821.0295-.1656.0554-.2484.0831-1.9047.637-1.0881,3.6672.8338,3.0245l14.7-4.9158,35.1493-11.7545,42.6361-14.2581L308.5889,580.24c5.9376-1.9856,11.9356-3.8463,17.8285-5.9621.0821-.0295.1656-.0554.2484-.0831a1.6008,1.6008,0,0,0,1.0953-1.9292l-5.0036-18.9659-12.0124-45.5327L296.2214,452.715,283.735,405.3855c-2.0284-7.6886-3.809-15.4979-6.098-23.1144-.0315-.105-.0561-.2125-.084-.3185a1.5855,1.5855,0,0,0-1.9292-1.0954l-6.5032,2.0739-17.6968,5.6434-26.0565,8.3094-31.9118,10.1766-34.9607,11.1489-35.2912,11.2543L90.3,439.9564,62.5992,448.79l-20.0076,6.38c-3.1566,1.0067-6.3355,1.9619-9.4749,3.0216-.1341.0452-.27.086-.4047.129a1.5947,1.5947,0,0,0-1.0953,1.9292l3.2314,11.12,7.7611,26.7074,9.3914,32.3173,8.122,27.95c1.3142,4.5223,2.4666,9.1335,3.9531,13.6033.0214.0641.0379.13.0567.195.5622,1.9345,3.59,1.1116,3.0246-.8338Z"/><path class="cls-2" d="M278.91,410.4412l45.2132-2.4112a10.9217,10.9217,0,0,1,9.4385,4.5158L357.33,445.4883h19.99a10.021,10.021,0,0,1,10.0142,9.65l2.5116,67.8138L278.91,536.3411"/><path d="M278.91,412.01l15.8434-.8449,24.6513-1.3147c1.572-.0838,3.1445-.19,4.7175-.2515a9.5646,9.5646,0,0,1,8.09,3.7455c.3182.4176.6155.8531.9227,1.2788l13.2095,18.3079,6.8533,9.4984,2.081,2.8842a5.5115,5.5115,0,0,0,1.26,1.5293c.7976.4658,2.2514.2141,3.1166.2141H376.667a9.4164,9.4164,0,0,1,4.9983,1.2012,8.526,8.526,0,0,1,4.1007,6.8819c.0584,1.14.0845,2.2818.1267,3.4221l.7644,20.6388.9775,26.3915.6125,16.5388.03.8214,1.5683-1.5683-11.034,1.3317-26.498,3.198-32.0561,3.8689-27.7079,3.344c-4.4845.5413-8.9716,1.064-13.4538,1.6238-.0621.0077-.1242.015-.1863.0224-1.9789.2389-2.0029,3.3784,0,3.1366l11.0341-1.3317,26.498-3.198,32.056-3.8688,27.708-3.3441c4.4845-.5412,8.9716-1.064,13.4538-1.6237.062-.0078.1242-.015.1862-.0225a1.6012,1.6012,0,0,0,1.5683-1.5683l-.4712-12.724-.9915-26.77-.86-23.2272c-.0607-1.64-.1123-3.2807-.1822-4.92a11.744,11.744,0,0,0-9.1193-11.1243c-3.1493-.6561-6.6807-.2667-9.8679-.2667H357.33l1.3542.7768-9.7036-13.4489-13.1066-18.1652c-2.1307-2.9532-4.604-5.4641-8.3254-6.3074a24.0111,24.0111,0,0,0-6.6607-.141l-23.22,1.2382c-6.1422.3276-12.299.5557-18.4352.9831-.1076.0075-.2157.0116-.3235.0173-2.0078.1071-2.02,3.2443,0,3.1366Z"/><polygon class="cls-1" points="189.491 522.952 189.491 416.798 290.386 409.625 290.386 516.258 189.491 522.952"/><path d="M191.06,522.9523V421.13a31.7441,31.7441,0,0,0,0-4.1461,1.4206,1.4206,0,0,1,0-.1857l-1.5683,1.5683,10.0346-.7133,24.0977-1.7131,29.1531-2.0725,25.2-1.7915,8.276-.5884a29.2707,29.2707,0,0,0,3.9512-.2808,1.3368,1.3368,0,0,1,.1818-.013l-1.5683-1.5683v102.267a32.1351,32.1351,0,0,0,0,4.1808,1.4244,1.4244,0,0,1,0,.1848l1.5683-1.5683-10.0346.6658-24.0977,1.5989-29.1531,1.9343-25.2,1.6721c-4.0724.27-8.1611.4549-12.2272.8112-.06.0053-.1212.0081-.1818.0121-2.0036.133-2.0184,3.27,0,3.1366l10.0346-.6658,24.0977-1.5989,29.1531-1.9343,25.2-1.6721c4.0724-.27,8.1612-.4549,12.2272-.8113.06-.0053.1212-.008.1818-.012a1.6,1.6,0,0,0,1.5683-1.5683V422.7862c0-4.3114.1813-8.6673,0-12.9761-.0026-.0613,0-.1233,0-.1848a1.5812,1.5812,0,0,0-1.5683-1.5682l-10.0346.7133-24.0977,1.7131-29.1531,2.0725-25.2,1.7915c-4.0729.2895-8.1606.5-12.2272.8692-.06.0055-.1212.0086-.1818.013a1.6,1.6,0,0,0-1.5682,1.5682v93.0255c0,4.3005-.181,8.6454,0,12.9432.0025.0617,0,.124,0,.1857A1.5692,1.5692,0,0,0,191.06,522.9523Z"/><path class="cls-3" d="M200.9676,510.062V436.7986a9.3856,9.3856,0,0,1,8.72-9.362l59.1708-4.2064a9.3855,9.3855,0,0,1,10.0512,9.362v72.2983Z"/><path d="M202.5359,510.062V440.1686a20.8206,20.8206,0,0,1,.2942-5.4944,7.8976,7.8976,0,0,1,6.8667-5.67c.5154-.0485,1.0342-.0736,1.5506-.11l24.0474-1.7095,28.1409-2c1.8038-.1283,3.6081-.2851,5.4138-.3849a7.97,7.97,0,0,1,8.492,8.2395c.0158,6.3473,0,12.6949,0,19.0422v52.81l1.5682-1.5683L252.57,505.07l-41.9762,2.7851-9.6265.6387c-2.0037.133-2.0185,3.2705,0,3.1366l26.3394-1.7476,41.9762-2.7852,9.6265-.6387a1.5994,1.5994,0,0,0,1.5683-1.5683v-70.22c0-3.1111-.2345-6.0636-2.2273-8.68a11.0425,11.0425,0,0,0-9.3929-4.3291c-.477.0267-.9537.0678-1.43.1017L243.004,423.5l-28.34,2.0147c-1.8289.13-3.6759.1956-5.4979.4069a11.1193,11.1193,0,0,0-9.7669,11.2551c-.02,6.3414,0,12.6832,0,19.0246V510.062A1.5692,1.5692,0,0,0,202.5359,510.062Z"/><path d="M538.4937,680.2373a9.4732,9.4732,0,0,0-5.41,1.58c-4.4752,2.75-6.7167,7.9543-7.9673,12.8387l1.54.2085a105.0693,105.0693,0,0,0-5.01-28.5945c-1.9016-5.5733-4.4619-11.556-8.7757-15.7217-2.2785-2.2-5.8145-4.1514-8.75-1.9392-3.6525,2.7522-3.9019,8.806-3.9085,12.9175-.0183,11.3749,3.1466,22.8038,6.5826,33.5463l1.3106-.7629a66.2918,66.2918,0,0,0-15.2169-10.8174c-3.9428-1.9857-8.309-3.7016-12.7677-3.9182-2.5808-.1253-5.8.3878-7.0661,2.9634-1.5228,3.0973.4844,6.9338,2.1265,9.5372,4.56,7.2286,11.415,13.07,17.9721,18.4085l.5545-1.3386c-7.985-.0987-17.3364,1.0427-23.7866,6.2249a9.6228,9.6228,0,0,0-3.9119,6.3614c-.2421,2.6519,1.2081,5.0465,3.08,6.8033,3.645,3.4216,8.7079,5.2171,13.4172,6.58v-1.5123c-4.9174.7764-10.3478,2.6322-12.9406,7.23a12.9375,12.9375,0,0,0-1.1813,8.8482,11.2381,11.2381,0,0,0,.5454,1.9869l1.3106-.7629a14.2448,14.2448,0,0,0-9.8777-4.5527c-5.1282-.1395-11.5837,3.1325-12.9165,8.4468a7.0627,7.0627,0,0,0-.0954,3.3833l1.1519-.8856c-4.35-1.9354-11.181-3.2681-14.6214.9634a11.1316,11.1316,0,0,0-2.03,7.0424.7846.7846,0,0,0,1.5683,0c.0207-2.3969.423-5.1148,2.3614-6.7584a7.3949,7.3949,0,0,1,4.9557-1.4649,17.8907,17.8907,0,0,1,4.8466.8221c.5532.1652,1.1013.3491,1.6406.5552.289.1105.4748.1887.4876.1944a.7954.7954,0,0,0,1.1519-.8855c-1.108-4.2863,3.7215-7.9257,7.32-9.1723a12.2866,12.2866,0,0,1,12.9483,3.4208c.5006.5619,1.6015-.03,1.3106-.763a10.9128,10.9128,0,0,1,3.5816-12.9851,21.1125,21.1125,0,0,1,8.8995-3.1506c.8024-.1267.6883-1.3131,0-1.5123-4.11-1.1892-8.4011-2.6893-11.7991-5.3781-1.8236-1.4429-3.58-3.4632-3.5751-5.9193.0117-5.5231,7.3738-8.512,11.6851-9.79a48.7687,48.7687,0,0,1,14.4738-1.8014c.6323.0078,1.097-.8969.5544-1.3386-5.8441-4.7579-11.7451-9.856-16.2533-15.9473-1.806-2.44-4.5154-6.1485-3.8124-9.4284.5113-2.3854,3.2175-2.8874,5.2962-2.8741,3.9655.0253,7.941,1.4993,11.479,3.1724a63.7112,63.7112,0,0,1,16.0247,11.1217.79.79,0,0,0,1.3106-.7629c-3.0789-9.6264-5.8038-19.6339-6.4218-29.7676a37.5739,37.5739,0,0,1,.3436-9.0379,11.5316,11.5316,0,0,1,2.0084-5.1865c1.95-2.4166,4.7661-1.4289,6.9205.4386,4.0487,3.51,6.5037,8.87,8.3355,13.7861,3.5625,9.56,5.081,19.8268,5.5954,29.9758a.7879.7879,0,0,0,1.54.2084c1.1585-4.5249,3.1856-9.5,7.4021-11.9954a7.9185,7.9185,0,0,1,4.4634-1.272c1.0055.086,1-1.4828,0-1.5683Z"/><path d="M535.9926,734.15a35.7362,35.7362,0,0,0-2.0295-5.0485c-1.273-2.6265-2.9354-5.4535-5.462-7.0538a5.4931,5.4931,0,0,0-7.283,1.0256c-1.8567,2.3888-1.3122,5.9047-.6144,8.6156a32.7684,32.7684,0,0,0,2.5555,6.73l.8855-1.1519a18.2276,18.2276,0,0,0-6.3259-1.2906c-2.2925-.0541-6.4451.51-7.1861,3.2205-.54,1.9736,1.2756,3.8153,2.6178,4.9759a23.7429,23.7429,0,0,0,3.7756,2.67v-1.3542c-3.1319,2.0413-5.0438,5.8311-2.7242,9.2159.567.8275,1.9267.0439,1.3541-.7915-1.8168-2.6512-.2839-5.4763,2.1616-7.07a.7929.7929,0,0,0,0-1.3542,22.8734,22.8734,0,0,1-2.8509-1.9229c-.9924-.7826-3.0687-2.3342-2.85-3.8186.1537-1.0449,1.6957-1.575,2.5277-1.8245a11.0125,11.0125,0,0,1,4.1666-.3209,17.452,17.452,0,0,1,4.9172,1.1771c.6858.279,1.1646-.6078.8855-1.1519a31.6548,31.6548,0,0,1-1.8481-4.497c-.8063-2.4365-1.69-5.504-.7869-8.0321a3.842,3.842,0,0,1,5.8313-1.6961c2.1939,1.3916,3.6229,3.9208,4.75,6.1862a33.0522,33.0522,0,0,1,2.021,4.9789c.2956.9619,1.81.5516,1.5122-.4169Z"/><path d="M795.6405,460.0837l2.0266,6.1552a20.326,20.326,0,0,1-7.4375,22.8578l-13.4539,9.6774-9.8623-35.8629"/><path d="M794.1282,460.5006c.7142,2.1692,1.4682,4.3291,2.14,6.5117a18.8487,18.8487,0,0,1-1.0834,13.8861c-2.8153,5.6439-8.5339,8.8486-13.48,12.4062l-5.7213,4.1153,2.3038.9373-8.6529-31.4654-1.2094-4.3975a1.57,1.57,0,0,0-3.0245.8338l8.653,31.4654,1.2093,4.3975a1.58,1.58,0,0,0,2.3038.9373l12.5309-9.0135a24.36,24.36,0,0,0,7.29-7.6861,22.1791,22.1791,0,0,0,2.5106-14.7341,65.6421,65.6421,0,0,0-2.7464-9.0278c-.6284-1.9085-3.6583-1.0912-3.0245.8338Z"/><path class="cls-4" d="M864.6982,557.4523l58.5159-30.9832,42.7842,80.1769s-21.9893,13.4866-40.3536-15.0474a12.1722,12.1722,0,0,0-16.0719-4.1368c-7.0627,3.86-13.879,7.6259-13.879,7.6259"/><path d="M865.49,558.8065l19.8175-10.493,31.457-16.656,7.2414-3.8342-2.1457-.5627,4.2484,7.9615,10.2049,19.1238,12.3515,23.1465,10.688,20.029,3.542,6.6376a27.6177,27.6177,0,0,0,1.6722,3.1337,1.2835,1.2835,0,0,1,.0772.1448l.5627-2.1457a13.5442,13.5442,0,0,1-1.2716.6639,10.8775,10.8775,0,0,1-1.3043.5569q-.9777.3751-1.983.6731a24.66,24.66,0,0,1-11.8109.6564,29.8609,29.8609,0,0,1-15.5007-8.9445,46.8766,46.8766,0,0,1-4.0356-4.7531,61.6851,61.6851,0,0,0-3.8511-5.3422,13.9036,13.9036,0,0,0-9.534-4.3816c-4.7863-.2211-8.7591,2.5722-12.7777,4.7786q-4.12,2.2623-8.2356,4.5343c-1.7672.9763-.1868,3.6861,1.5831,2.7083q3.2582-1.8,6.521-3.5923,3.2457-1.7841,6.4948-3.5618a12.155,12.155,0,0,1,5.0575-1.7156,10.7817,10.7817,0,0,1,9.23,4.102c1.3461,1.7388,2.4649,3.6515,3.8223,5.391a48.696,48.696,0,0,0,4.0288,4.5784,32.6577,32.6577,0,0,0,15.8913,9.1264,28.2983,28.2983,0,0,0,13.0375-.3055A23.3061,23.3061,0,0,0,966.79,608a1.6017,1.6017,0,0,0,.5627-2.1457l-4.2484-7.9614-10.2049-19.1238-12.3515-23.1465-10.688-20.029c-1.7283-3.2389-3.3079-6.6319-5.2142-9.7713-.0282-.0465-.0516-.0968-.0772-.1448a1.5957,1.5957,0,0,0-2.1457-.5627L902.6051,535.608l-31.457,16.656-7.2415,3.8342c-1.7846.9449-.2015,3.6532,1.5831,2.7083Z"/><path class="cls-1" d="M908.2226,588.2154c7.17-4.113,13.9622-1.9927,17.4221,3.3832,18.3643,28.534,40.3536,15.0474,40.3536,15.0474l-42.7842-80.1769-23.9863,12.7941h0a7.4832,7.4832,0,0,0-9.0194,4.3018l-.2727.6545c2.2127,6.04,7.3858,8.053,11.1387,8.7a8.9336,8.9336,0,0,1,6.5521,5.029h0a8.9878,8.9878,0,0,1-3.7286,11.6488l-3.1516,1.774Z"/><path d="M909.0142,589.57c2.9707-1.6582,6.39-2.5121,9.7219-1.4862,3.2992,1.0157,4.9606,3.5261,6.8293,6.2129,3.6348,5.226,8.1,10.0324,13.6611,13.2321a28.3987,28.3987,0,0,0,22.896,2.4828A21.9921,21.9921,0,0,0,966.79,608a1.6017,1.6017,0,0,0,.5627-2.1457l-4.2484-7.9614-10.2049-19.1238-12.3515-23.1465-10.688-20.029c-1.7283-3.2389-3.3079-6.6319-5.2142-9.7713-.0282-.0465-.0516-.0968-.0772-.1448a1.5952,1.5952,0,0,0-2.1457-.5627L901.3962,536.33l-2.96,1.5788,1.2084-.1581a9.15,9.15,0,0,0-10.2238,3.9288,8.8469,8.8469,0,0,0-.9353,1.9737c-.3114.9939.3434,2.0759.7936,2.9512a13.885,13.885,0,0,0,3.7848,4.5618,16.2083,16.2083,0,0,0,4.581,2.4824c1.5432.5515,3.24.64,4.7455,1.2686a7.5122,7.5122,0,0,1,4.1465,9.17c-1.0079,3.1608-3.9213,4.4313-6.5823,5.9291a1.6119,1.6119,0,0,0-.5626,2.1457l7.4763,16.8442c.8173,1.8413,3.5208.2474,2.7084-1.583L902.1,570.58l-.5626,2.1458c2.14-1.2045,4.4793-2.271,6.0626-4.214a10.6337,10.6337,0,0,0,1.6815-10.6589c-1.5248-3.7557-4.6726-5.7721-8.51-6.5833a11.5188,11.5188,0,0,1-8.6993-6.0818c-.1749-.3277-.4738-1.4588-.5964-.619a4.675,4.675,0,0,1,1.0329-1.846,5.9773,5.9773,0,0,1,4.6515-2.1961c1.0746.0046,1.9848.5162,3.0051.0129.4208-.2075.83-.4428,1.2442-.6636l12.3519-6.5885,10.2436-5.4638-2.1457-.5627,4.2484,7.9615,10.2049,19.1238,12.3515,23.1465,10.688,20.029,3.542,6.6376a27.6177,27.6177,0,0,0,1.6722,3.1337,1.2835,1.2835,0,0,1,.0772.1448l.5627-2.1457c-.3023.1845-.62.3454-.9375.5024-.36.1782-.7255.3442-1.0941.5035.0061-.0027.191-.0757-.0925.0367-.1119.0444-.2235.09-.3357.1333q-.4251.1656-.856.3161a25.3506,25.3506,0,0,1-8.9682,1.4747c-11.5516-.1939-19.9623-8.5818-26.0217-17.5991a13.5894,13.5894,0,0,0-8.1592-5.823,15.9519,15.9519,0,0,0-11.3108,2.0248C905.6683,587.8452,907.248,590.5553,909.0142,589.57Z"/><path class="cls-1" d="M934.6394,544.285a3.4529,3.4529,0,0,0,4.7176,1.26l2.83-1.6366L975,605.6055s-6.7748,4.1673-12.5885,4.8847L918.435,528.9493l12.1052-7.047,8.4144,15.8987L935.9,539.5674A3.453,3.453,0,0,0,934.6394,544.285Z"/><path d="M933.2853,545.0765a5.0915,5.0915,0,0,0,6.38,2.0549,36,36,0,0,0,3.3132-1.8684l-2.1457-.5626,11.102,20.8745,17.6774,33.2381,4.0335,7.584.5627-2.1457a32.3557,32.3557,0,0,1-12.2139,4.7266l1.7711.7208-4.37-8.1038-10.4968-19.463-12.7016-23.5512-10.9848-20.368-3.61-6.6943a27.01,27.01,0,0,0-1.7359-3.2186,1.1955,1.1955,0,0,1-.0766-.1421l-.5626,2.1457,12.1051-7.0469-2.1457-.5626L937.6,538.5926l.5627-2.1458c-1.0618.614-2.1721,1.1793-3.1947,1.8565a5.1177,5.1177,0,0,0-1.6831,6.7732c.9267,1.7941,3.6342.2094,2.7083-1.583-1.1815-2.2874,2.2607-3.4757,3.7526-4.3383a1.6,1.6,0,0,0,.5626-2.1457l-8.4145-15.8987a1.5888,1.5888,0,0,0-2.1457-.5627l-12.1051,7.047a1.5983,1.5983,0,0,0-.5626,2.1457l4.37,8.1037,10.4967,19.4631L944.65,580.8588l10.9848,20.368c1.7721,3.2858,3.3936,6.729,5.3462,9.9129.028.0456.0512.0949.0766.1421a1.6232,1.6232,0,0,0,1.7711.7207,34.59,34.59,0,0,0,12.9631-5.0429,1.6022,1.6022,0,0,0,.5627-2.1457l-11.102-20.8745-17.6774-33.2381-4.0336-7.584a1.5893,1.5893,0,0,0-2.1457-.5626c-1.4733.8519-4.0326,3.0664-5.4019.9388C934.9048,541.8015,932.1886,543.3724,933.2853,545.0765Z"/><path d="M949.7029,583.4217c-.0845-.146-.1586-.2984-.2314-.45-.0554-.1155-.27-.62-.0824-.1652-.0993-.2409-.1933-.4835-.28-.7291a13.8438,13.8438,0,0,1-.8062-3.9855c-.235-4.9212,2.2713-9.1357,5.7948-12.3961,1.4848-1.3739-.7373-3.5879-2.2179-2.2179-4.044,3.7421-6.9168,8.7789-6.7217,14.4153a15.5951,15.5951,0,0,0,1.8367,7.112,1.5694,1.5694,0,0,0,2.7083-1.5831Z"/><line class="cls-1" x1="901.6955" y1="543.8079" x2="899.366" y2="539.2584"/><path d="M903.05,543.0164l-2.0434-3.9908-.2861-.5588a1.58,1.58,0,0,0-2.1457-.5626,1.6054,1.6054,0,0,0-.5627,2.1457l2.0435,3.9908.286.5588a1.58,1.58,0,0,0,2.1458.5626,1.6054,1.6054,0,0,0,.5626-2.1457Z"/><path class="cls-1" d="M918.6573,586.4331s-1.2774-4.1433,3.3012-7.1061"/><path d="M920.17,586.0162c-.0176-.0578-.031-.1169-.0442-.1758-.0154-.0692-.0272-.139-.0405-.2087-.0738-.386.0455.4662.0116.0977a6.9393,6.9393,0,0,1-.0344-.7032q.0021-.2247.02-.4487c.0066-.08.021-.16.0245-.24-.0243.5589-.0357.2532-.01.103a6.1511,6.1511,0,0,1,.2932-1.0838c.0495-.133.2305-.4136-.0126.0176.0388-.0689.0666-.1461.1014-.2171a6.4618,6.4618,0,0,1,.3268-.5859q.0944-.15.1964-.2951.0525-.0746.107-.1477-.2283.2911-.0734.0961c.17-.2017.3421-.4.5289-.5868.2035-.2036.4208-.3889.6392-.5758q.2-.159-.0473.0336.094-.0709.19-.1395c.1322-.0948.2672-.1854.4032-.2746a1.5685,1.5685,0,1,0-1.583-2.7083,9.3507,9.3507,0,0,0-3.8008,4.55,7.2033,7.2033,0,0,0-.3876,3.3592,5.8726,5.8726,0,0,0,.1664.9683,1.5687,1.5687,0,0,0,3.0245-.8338Z"/><path class="cls-1" d="M924.2115,589.8615s-1.2774-4.1433,3.3012-7.1061"/><path d="M925.7237,589.4446c-.0176-.0578-.031-.1169-.0441-.1757-.0154-.0693-.0273-.1391-.0406-.2088-.0737-.386.0456.4662.0116.0977a6.9379,6.9379,0,0,1-.0344-.7032q.0021-.2246.02-.4487c.0066-.08.0211-.16.0246-.24-.0244.5589-.0358.2532-.01.103a6.1428,6.1428,0,0,1,.2933-1.0838c.0494-.133.23-.4136-.0127.0176.0389-.0688.0666-.1461.1015-.2171a6.4136,6.4136,0,0,1,.3268-.5859q.0942-.15.1964-.2951.0525-.0746.1069-.1476-.2282.291-.0733.096c.17-.2017.342-.4.5288-.5868.2035-.2036.4208-.3889.6392-.5758q.2-.159-.0473.0336.094-.0709.19-.1395c.1323-.0948.2672-.1854.4033-.2745a1.5686,1.5686,0,0,0-1.5831-2.7084,9.3507,9.3507,0,0,0-3.8008,4.55,7.2047,7.2047,0,0,0-.3876,3.3592,5.8831,5.8831,0,0,0,.1664.9683,1.5687,1.5687,0,1,0,3.0245-.8338Z"/><path class="cls-1" d="M927.8367,593.8359s-1.2774-4.1433,3.3013-7.1061"/><path d="M929.349,593.419c-.0176-.0577-.0311-.1168-.0442-.1757-.0154-.0693-.0273-.1391-.0406-.2088-.0737-.3859.0456.4662.0116.0978a6.9413,6.9413,0,0,1-.0344-.7033q.0021-.2245.02-.4486c.0066-.08.0211-.1606.0246-.24-.0243.559-.0358.2532-.01.1031a6.1381,6.1381,0,0,1,.2933-1.0838c.0494-.1331.2305-.4136-.0126.0175.0388-.0688.0666-.146.1014-.217a6.4242,6.4242,0,0,1,.3268-.5859q.0942-.15.1964-.2951.0525-.0746.1069-.1477-.2282.2912-.0733.096c.17-.2016.342-.4.5288-.5868.2035-.2035.4208-.3889.6392-.5758q.2-.159-.0473.0336.094-.071.19-.1395c.1322-.0948.2671-.1853.4032-.2745a1.5686,1.5686,0,0,0-1.5831-2.7084,9.3517,9.3517,0,0,0-3.8008,4.55,7.2047,7.2047,0,0,0-.3876,3.3592,5.8918,5.8918,0,0,0,.1664.9683,1.5687,1.5687,0,1,0,3.0246-.8338Z"/><path class="cls-4" d="M666.1075,705.2157l-16.5431,64.1125-88.0687-22.4217s4.8546-25.3348,38.3118-19.6735a12.1723,12.1723,0,0,0,13.8873-9.0865c1.908-7.8191,3.7188-15.3932,3.7188-15.3932"/><path d="M664.5952,704.7988l-5.6026,21.7128-8.8933,34.4656-2.0472,7.9341,1.9292-1.0954-8.7451-2.2264L620.23,760.2414l-25.4247-6.473-22-5.6011-7.291-1.8563a26.3463,26.3463,0,0,0-3.4421-.8763,1.2271,1.2271,0,0,1-.159-.0405l1.0953,1.9292a13.1987,13.1987,0,0,1,.3446-1.3152c.1456-.4805.3083-.9559.4842-1.4261a13.5072,13.5072,0,0,1,.6731-1.5994,25.1109,25.1109,0,0,1,6.7379-8.83,27.7059,27.7059,0,0,1,14.9931-5.9611,47.6642,47.6642,0,0,1,11.7724.3363,19.413,19.413,0,0,0,6.3312.2168,13.39,13.39,0,0,0,5.2683-2.156,13.802,13.802,0,0,0,4.3979-4.8973c1.2649-2.4166,1.7012-5.1956,2.3378-7.8219q1.2962-5.3475,2.5774-10.6989c.4692-1.962-2.5545-2.7993-3.0245-.8338q-1.0671,4.4627-2.1472,8.9221c-1.04,4.3-1.4962,9.1647-5.1224,12.162a10.7429,10.7429,0,0,1-5.1212,2.2993,20.9587,20.9587,0,0,1-6.0446-.4076,48.189,48.189,0,0,0-11.6716-.2089c-9.9912,1.1415-18.9942,6.4086-23.6156,15.5225a22.9679,22.9679,0,0,0-2.1953,5.8638,1.6,1.6,0,0,0,1.0953,1.9291l8.7451,2.2265,21.0062,5.348,25.4247,6.473,22,5.6012c3.5683.9084,7.1321,1.96,10.7331,2.7325.0534.0115.1062.0271.1591.0405a1.5925,1.5925,0,0,0,1.9291-1.0953l5.6027-21.7128,8.8932-34.4656,2.0472-7.934c.5047-1.9558-2.52-2.79-3.0245-.8339Z"/><path class="cls-1" d="M614.0479,716.6411c-1.7932,8.0691-7.9369,11.6585-14.24,10.5919-33.4572-5.6613-38.3118,19.6735-38.3118,19.6735l88.0687,22.4217,6.7119-26.3436h0a7.4833,7.4833,0,0,0,2.9-9.5627l-.3-.6425c-5.9536-2.4356-10.9271.03-13.9341,2.3666a8.9341,8.9341,0,0,1-8.131,1.4518h0a8.9878,8.9878,0,0,1-6.0936-10.605l.8132-3.524Z"/><path d="M612.5356,716.2242c-.7754,3.3283-2.43,6.493-5.4632,8.2671-2.9055,1.6994-5.8178,1.3374-8.9977.9028-6.3594-.8692-12.9853-.8453-19.151,1.127a28.3518,28.3518,0,0,0-17.2551,15.1664,21.9335,21.9335,0,0,0-1.6851,4.8021,1.6,1.6,0,0,0,1.0953,1.9291l8.7451,2.2265,21.0062,5.348,25.4247,6.473,22,5.6012c3.5683.9084,7.1321,1.96,10.7331,2.7325.0534.0115.1062.0271.1591.0405a1.5922,1.5922,0,0,0,1.9291-1.0953l5.8837-23.0927.8283-3.2509-.7207.9373a9.1562,9.1562,0,0,0,4.2325-9.336,9.9238,9.9238,0,0,0-.8011-2.4393,2.4819,2.4819,0,0,0-1.662-1.4741,14.12,14.12,0,0,0-6.7253-.7486,15.9172,15.9172,0,0,0-5.5773,1.8745c-1.6258.8936-2.979,2.2908-4.767,2.8638a7.5174,7.5174,0,0,1-9.1171-4.13c-1.166-2.6805-.2249-5.3871.3927-8.0634a1.6077,1.6077,0,0,0-1.0954-1.9291l-17.4831-5.8278c-1.9194-.64-2.7425,2.3884-.8339,3.0246l17.4832,5.8277-1.0954-1.9292c-.3545,1.5364-.801,3.08-1.0029,4.6462a10.5468,10.5468,0,0,0,15.0449,10.8252c1.3072-.6186,2.379-1.6159,3.62-2.3494a11.9593,11.9593,0,0,1,10.7787-.8822l-.9372-.7208a6.3658,6.3658,0,0,1,.3244,5.3361,5.9949,5.9949,0,0,1-1.8149,2.3575c-.5526.4284-1.0249.6429-1.2795,1.35-.51,1.4141-.76,2.9823-1.13,4.4371l-4.38,17.1889-1.19,4.6713,1.9292-1.0954-8.7451-2.2264L620.23,760.2414l-25.4247-6.473-22-5.6011-7.291-1.8563a26.3463,26.3463,0,0,0-3.4421-.8763,1.2271,1.2271,0,0,1-.159-.0405l1.0953,1.9292c.0682-.3525.1653-.7007.2646-1.0453.1108-.3849.2336-.7663.3651-1.1446.149-.4286.46-1.2273.527-1.3851a27.0359,27.0359,0,0,1,4.8587-7.4915c7.6786-8.1788,19.4368-9.2589,29.97-7.5776a14.0233,14.0233,0,0,0,10.1687-1.7942,15.7461,15.7461,0,0,0,6.3978-9.8271C616.0176,715.0942,612.9941,714.256,612.5356,716.2242Z"/><path class="cls-5" d="M682.2008,434.3409,611.4443,700.0237,681.7167,717.7s48.9814-194.2958,54.2642-223.9832,8.8416-70.1277,8.8416-70.1277"/><path d="M680.6885,433.924l-1.8922,7.1052-5.15,19.3366-7.6166,28.6-9.2929,34.894-10.1788,38.22-10.2739,38.5775-9.5786,35.9666-8.0927,30.3872L612.7968,688.85c-.9146,3.4341-1.8989,6.858-2.7457,10.31-.0367.15-.0794.2983-.1191.4473a1.5907,1.5907,0,0,0,1.0954,1.9292l23.7826,5.9821,37.8608,9.5232,8.629,2.1705a1.5923,1.5923,0,0,0,1.9291-1.0954q.9473-3.757,1.8909-7.515,2.524-10.0421,5.0387-20.0865,3.6687-14.6519,7.32-29.3079,4.3326-17.3907,8.6376-34.7882,4.58-18.5151,9.1185-37.0407,4.3418-17.7363,8.6207-35.4879,3.6919-15.3449,7.2862-30.7132c1.717-7.3824,3.4214-14.77,4.9881-22.1857,2.3774-11.2538,3.9747-22.6641,5.47-34.0633q2.6866-20.4841,4.5837-41.0657.1059-1.1367.2076-2.2737c.1771-2.01-2.9605-1.9984-3.1365,0-.8914,10.1168-1.9845,20.2194-3.1724,30.3051-1.6788,14.2537-3.42,28.5855-6.2352,42.6674-1.32,6.6011-2.8242,13.1664-4.33,19.727q-3.34,14.55-6.8369,29.0628-4.1482,17.34-8.3837,34.6594-4.5,18.4434-9.0542,36.8738-4.3954,17.8053-8.8243,35.6024-3.8373,15.425-7.6945,30.845-2.8269,11.3021-5.6643,22.6016c-.9036,3.5981-2.0571,7.2227-2.7341,10.8723-.03.16-.08.319-.12.4772l1.9292-1.0954-23.7827-5.9821L620.49,700.6819l-8.6289-2.1705,1.0954,1.9292,1.8922-7.1052,5.15-19.3366,7.6166-28.6,9.293-34.894,10.1787-38.22,10.274-38.5775,9.5786-35.9666,8.0927-30.3871,5.8162-21.8393c.9145-3.4341,1.8989-6.8579,2.7456-10.31.0368-.15.08-.2983.1191-.4473a1.57,1.57,0,0,0-3.0245-.8338Z"/><path class="cls-5" d="M726.5676,479.9461,705.811,567.0087a70.8024,70.8024,0,0,0,29.9962,75.5946h0A105.6132,105.6132,0,0,0,824.98,641.307l75.3557-36.44-30.6794-65.6462s-66.5892,26.98-92.9424,41.6349L793.5578,518.24a71.7556,71.7556,0,0,0-2.3375-44.4451l-8.1686-21.1942"/><path d="M725.0554,479.5292l-3.8021,15.9475-7.9615,33.3941-7.16,30.0344-1.7023,7.14a74.8261,74.8261,0,0,0-2.1147,18.3165,72.2577,72.2577,0,0,0,29.604,57.4413c.9065.6672,1.8217,1.3556,2.7813,1.9455a22.1614,22.1614,0,0,0,3.1054,1.4134q3.7246,1.5558,7.558,2.83a107.2645,107.2645,0,0,0,31.0992,5.3866,108.8591,108.8591,0,0,0,49.9842-11.0434l20.2407-9.7879L878.67,617.0807l21.3547-10.3266,1.1028-.5333a1.6009,1.6009,0,0,0,.5626-2.1457l-10.3945-22.2416-16.498-35.3016-3.7869-8.1029a1.566,1.566,0,0,0-1.7711-.7207c-8.1291,3.294-16.223,6.6766-24.3036,10.0874-15.7454,6.6461-31.4424,13.43-46.9263,20.6674-7.4529,3.4836-14.8918,7.0432-22.0872,11.0381l2.3038,1.7711L782.168,566.62l7.6485-28.433,5.0988-18.9549a74.1793,74.1793,0,0,0-2.0184-45.4237c-2.64-6.99-5.3735-13.946-8.0606-20.9181l-.2724-.7066c-.7184-1.8639-3.7522-1.0542-3.0245.8338l7.8963,20.4876a71.597,71.597,0,0,1,2.58,44.4279q-2.202,8.2255-4.4239,16.4458l-7.6149,28.3081c-1.5649,5.8175-3.3129,11.6183-4.7024,17.4808-.0215.0908-.0486.1806-.0728.2708a1.5864,1.5864,0,0,0,2.3038,1.7711c13.78-7.651,28.3088-14.0235,42.7179-20.3776q20.55-9.0618,41.3254-17.603,4.2576-1.7591,8.5245-3.4962l-1.771-.7207,10.3945,22.2416,16.498,35.3016,3.7869,8.1029.5626-2.1457-15.1758,7.3387-30.9764,14.9794-25.3386,12.2532c-1.7489.8457-3.4916,1.7071-5.2527,2.5274a103.9169,103.9169,0,0,1-60.8791,8.2582,105.7073,105.7073,0,0,1-15.1056-3.6987q-3.8369-1.2456-7.5709-2.7817a19.6131,19.6131,0,0,1-2.9628-1.3487c-1.0094-.63-1.9761-1.35-2.9323-2.0572a69.68,69.68,0,0,1-26.9026-43.78,68.8931,68.8931,0,0,1,.58-26.4865c.3822-1.746.8172-3.4815,1.2316-5.22l6.2754-26.3215,8.1289-34.0964,5.1636-21.6583.2521-1.0575c.4678-1.9623-2.5559-2.8-3.0245-.8338Z"/><path class="cls-1" d="M628.7021,765.7632a3.4529,3.4529,0,0,0-4.11,2.636l-.6981,3.1939-67.6954-17.3348s1.4867-7.8138,4.8745-12.5925l89.88,22.46-2.9512,13.6925-17.4168-4.4975.7535-3.4472A3.4531,3.4531,0,0,0,628.7021,765.7632Z"/><path d="M629.119,764.251a5.1317,5.1317,0,0,0-5.9468,3.39c-.3687,1.1385-.5355,2.3668-.7908,3.5349l1.9291-1.0953-22.9042-5.8651-36.47-9.3388-8.3215-2.1309,1.0954,1.9292a32.32,32.32,0,0,1,4.7164-12.2178l-1.7711.7207,8.9325,2.2321,21.4534,5.361,25.96,6.4871,22.4509,5.61,7.3789,1.8439a25.7949,25.7949,0,0,0,3.5478.8865,1.1457,1.1457,0,0,1,.1566.0392L649.44,763.709l-2.9512,13.6925,1.9292-1.0954-17.4168-4.4974,1.0953,1.9291c.2509-1.1476.5364-2.2927.7535-3.4472a5.123,5.123,0,0,0-3.7313-6.04,1.57,1.57,0,0,0-.8338,3.0245c2.5644.6977,1.1753,3.8527.7871,5.6285a1.5973,1.5973,0,0,0,1.0953,1.9292l17.4168,4.4975a1.5869,1.5869,0,0,0,1.9292-1.0954l2.9513-13.6925a1.5965,1.5965,0,0,0-1.0954-1.9292l-8.9324-2.2321-21.4535-5.361-25.96-6.4871-22.4509-5.61c-3.6329-.9078-7.2615-1.96-10.9267-2.73-.0525-.0111-.1045-.0261-.1566-.0391a1.6248,1.6248,0,0,0-1.7711.7207,34.51,34.51,0,0,0-5.0326,12.9671,1.6005,1.6005,0,0,0,1.0954,1.9291l22.9042,5.8651,36.47,9.3388,8.3214,2.1309a1.5873,1.5873,0,0,0,1.9292-1.0953c.3467-1.5862.4662-5.1356,2.8793-4.7345C630.26,767.6037,631.1087,764.5817,629.119,764.251Z"/><path d="M586.6531,749.6774a8.4988,8.4988,0,0,1,1.0656.3244c.1751.0629.3466.1344.5208.2.3371.1261-.2738-.1246-.0253-.011.1245.0569.25.1113.3741.1694a15.5455,15.5455,0,0,1,1.436.7681q.3832.2316.7527.485c.1208.0828.2392.1689.3588.2534.35.2474-.02-.0331.2522.19a16.1878,16.1878,0,0,1,1.6011,1.4869,13.9526,13.9526,0,0,1,2.539,3.9345,19.0143,19.0143,0,0,1,1.3475,7.3416,1.5692,1.5692,0,0,0,3.1366,0,19.9671,19.9671,0,0,0-4.2051-12.808,16.8129,16.8129,0,0,0-6.8446-4.8794,9.68,9.68,0,0,0-1.4755-.4794c-1.9679-.4267-2.8087,2.5963-.8339,3.0245Z"/><path d="M686.6019,698.3141l-23.72-6.0328-37.8339-9.6225-8.7205-2.2179c-1.9571-.4978-2.7919,2.5265-.8338,3.0245l23.72,6.0328,37.8339,9.6225,8.7205,2.2179c1.9571.4977,2.792-2.5265.8339-3.0245Z"/><path class="cls-2" d="M704.0024,365.6039l-9.1918,78.334c-7.747-3.1634-34.3762-19.1923-45.38-21.2222a170.7538,170.7538,0,0,0-17.2234-2.304l9.5551-66.45A28.2243,28.2243,0,0,1,663.5171,330.44l15.2545-3.4241"/><path d="M702.4341,365.6039l-3.1076,26.4835L694.3756,434.28l-1.1333,9.6583,1.9852-1.5122c-.4022-.1657.2522.17-.1481-.0623a4.5919,4.5919,0,0,0-.4248-.1876q-.3858-.1726-.768-.3529c-.65-.3044-1.2938-.62-1.9357-.94-1.591-.7934-3.1674-1.6161-4.741-2.4433-3.93-2.0661-7.8419-4.1678-11.78-6.2188-4.1565-2.1647-8.3374-4.29-12.5971-6.2453a76.1645,76.1645,0,0,0-10.7859-4.2444,66.3489,66.3489,0,0,0-8.4555-1.569c-3.78-.561-7.5758-1.0076-11.3845-1.3183l1.5123,1.9852,1.9047-13.2461,3.8971-27.1021,3.2339-22.49c.1816-1.263.3539-2.5277.546-3.7891a27.14,27.14,0,0,1,9.6583-16.9777c3.8468-3.1418,8.3284-4.6776,13.0907-5.7466l12.161-2.73.9778-.22c1.9687-.4419,1.1356-3.4666-.8338-3.0246l-10.37,2.3279c-4.3083.967-8.5532,1.8317-12.49,3.958a29.97,29.97,0,0,0-13.319,14.814,35.0266,35.0266,0,0,0-2.1647,8.6025l-2.9143,20.2672-4.0138,27.9136c-.784,5.452-1.5808,10.9023-2.3519,16.3562-.0119.084-.0242.1681-.0363.2521a1.6027,1.6027,0,0,0,1.5123,1.9852q5.055.4125,10.0773,1.1367a77.6633,77.6633,0,0,1,8.2246,1.4466,63.03,63.03,0,0,1,10.1926,3.87c8.246,3.7473,16.1962,8.1119,24.2036,12.3343,3.1149,1.6425,6.2291,3.34,9.4889,4.6828,1.0466.4311,1.8815-.6289,1.9852-1.5123l3.1076-26.4834,4.9509-42.1923,1.1333-9.6583c.2348-2.0009-2.9038-1.984-3.1366,0Z"/><path class="cls-4" d="M649.43,422.7157a170.7538,170.7538,0,0,0-17.2234-2.304l-3.7425,23.9016-1.0649,6.8005-114.9605-.5089.436,36.8706L619.9024,501.68c35.89.0126,47.5694-6.6691,54.6879-27.8817l5.0691-15.8186,6.8447-23.3754C673.3778,426.8884,660.4344,424.7456,649.43,422.7157Z"/><path d="M649.847,421.2035c-5.8382-1.0688-11.7242-1.8774-17.64-2.36a1.5662,1.5662,0,0,0-1.5123,1.1513q-1.8717,11.9537-3.7434,23.9073-.5319,3.3973-1.0639,6.7948l1.5122-1.1514-11.48-.0508-27.433-.1214-33.1684-.1469-28.772-.1273c-4.6233-.0205-9.2915-.2318-13.9129-.0616-.0645.0024-.13-.0006-.1942-.0009a1.5888,1.5888,0,0,0-1.5683,1.5683l.3816,32.2748.0544,4.5958a1.618,1.618,0,0,0,1.5683,1.5683l8.5577,1.1358,21.1922,2.8125,26.9829,3.5811,26.3185,3.4929,18.8213,2.4979,4.4881.5956c.22.0292.4426.0722.6639.0881a88.9267,88.9267,0,0,0,10.3987-.22c10.3271-.4839,21.6442-1.5683,30.6292-7.1732,7.4861-4.67,11.863-12.2539,14.7443-20.3891,2.0091-5.6725,3.8045-11.4631,5.5452-17.223,2.117-7.0054,4.1138-14.0494,6.17-21.0728l.6291-2.1487a1.5951,1.5951,0,0,0-.7207-1.7711,83.9871,83.9871,0,0,0-19.5033-8.1768c-5.897-1.6676-11.9248-2.76-17.9453-3.87-1.9733-.3636-2.8194,2.6587-.8338,3.0245,5.8816,1.0836,11.77,2.15,17.5376,3.7553a80.9294,80.9294,0,0,1,19.1617,7.9751l-.7207-1.7711-5.84,19.9437c-1.6651,5.6867-3.53,11.3114-5.3381,16.9542-2.233,6.968-5.0214,13.9554-10.501,19.0374-6.8244,6.3292-16.5374,8.3068-25.5028,9.2237-3.3144.339-6.6429.5322-9.9722.6432a69.1332,69.1332,0,0,1-7.984.1156c-.96-.081-1.9222-.2551-2.8773-.3818L600.6031,497.55l-24.9654-3.3133-27.2638-3.6183-22.9212-3.0421-12.036-1.5973-.5419-.072,1.5682,1.5683-.3816-32.2748-.0543-4.5958-1.5683,1.5683,11.48.0508,27.433.1215,33.1685.1468,28.7719.1274c4.6233.02,9.2915.2318,13.9129.0615.0645-.0023.13.0006.1942.0009a1.5807,1.5807,0,0,0,1.5123-1.1514q2.0361-13.0031,4.0721-26.0061l.7353-4.6959-1.5123,1.1513c5.6391.46,11.2417,1.2293,16.8065,2.248C650.9865,424.5893,651.8328,421.567,649.847,421.2035Z"/><path class="cls-2" d="M675.01,327.9166l49.5288-11.8647c8.065-1.932,13.0773.3936,19.3743,11.4,0,0,40.4262,99.2834,53.4834,137.7-15.2879-10.186-124.6235,17.4832-124.6235,17.4832L664.8084,358.821"/><path d="M675.4272,329.4289l12.4114-2.9732,23.5149-5.633c4.5181-1.0823,9.032-2.1841,13.5547-3.2471,3.7328-.8773,7.4114-.8212,10.5753,1.582a26.4534,26.4534,0,0,1,7.0162,8.9537c1.4038,2.82,2.4055,5.927,3.5854,8.8449q3.8512,9.5239,7.6749,19.059,5.1039,12.7257,10.1587,25.4711,5.6148,14.163,11.1489,28.3578,5.3979,13.8636,10.6653,27.7774c2.92,7.7426,5.8036,15.5,8.5463,23.3079q.8138,2.3163,1.6054,4.64l2.3038-1.7711c-2.1943-1.4409-4.9948-1.86-7.5464-2.1513a70.723,70.723,0,0,0-11.2105-.1984,270.8327,270.8327,0,0,0-30.7969,3.5971c-11.4072,1.8441-22.7563,4.0431-34.0655,6.4108q-14.2859,2.9908-28.4926,6.3446-4.5869,1.0791-9.1647,2.1953a33.63,33.63,0,0,0-4.3633,1.0785,1.5646,1.5646,0,0,1-.1921.0484l1.9852,1.5123-.7927-12.3234-1.9036-29.5909-2.2946-35.67-1.997-31.0433c-.3208-4.9875-.54-9.9939-.9632-14.9741-.0061-.0709-.0092-.1422-.0138-.2133-.1289-2.0044-3.2664-2.0189-3.1365,0l.7927,12.3234,1.9036,29.5909,2.2946,35.67,1.9969,31.0432c.3209,4.9876.54,9.994.9633,14.9742.006.0709.0092.1422.0137.2133a1.5909,1.5909,0,0,0,1.9852,1.5123c3.62-.916,7.2521-1.7876,10.885-2.6517q13.3119-3.1659,26.6925-6.0339c11.1865-2.3937,22.41-4.6284,33.6868-6.5575,10.3147-1.7644,20.6977-3.3425,31.1419-4.0923a99.4094,99.4094,0,0,1,12.1547-.26,36.1939,36.1939,0,0,1,4.3845.4485c.6235.11,1.2439.2415,1.8551.4073.2765.075.5514.1562.8232.2467.1705.0568.9973.3881.5526.1921a8.4487,8.4487,0,0,1,1.2388.66,1.5836,1.5836,0,0,0,2.3038-1.7711c-2.5184-7.4037-5.2153-14.7466-7.948-22.0735q-5.0936-13.6569-10.38-27.2413-5.61-14.4873-11.3282-28.9324-5.288-13.38-10.6374-26.7366-4.1453-10.355-8.3214-20.6974-2.2455-5.56-4.5017-11.1164a29.0863,29.0863,0,0,0-3.55-6.0266c-2.9228-4.0321-6.6346-7.4756-11.7876-7.9781a22.7811,22.7811,0,0,0-7.501.8861l-6.9382,1.662-23.1452,5.5445L675.5312,326.18l-.9378.2247c-1.9621.47-1.1313,3.4953.8338,3.0245Z"/><path d="M712.0551,473.7014l-3.6822,19.9271-1.9038,10.303a36.3916,36.3916,0,0,0,.4828,16.7582c1.2444,4.3761,3.4259,8.5506,5.2613,12.7026.8144,1.8423,3.5178.2482,2.7083-1.5831-1.3443-3.0412-2.8181-6.0537-4.012-9.1577a32.1079,32.1079,0,0,1-1.4835-17.52l4.2107-22.7872,1.4429-7.8086c.3646-1.9732-2.6577-2.8192-3.0245-.8339Z"/><path class="cls-2" d="M722.0428,358.3218,712.5215,419.45a170.72,170.72,0,0,1,17.2233,2.304c11.0044,2.03,37.6336,18.0587,45.38,21.2222L782.9239,364.1a45.5156,45.5156,0,0,0-55.8982-48.7416l-6.2722,1.5026"/><path d="M720.5305,357.9049l-3.2121,20.6218-5.1253,32.9049-1.1839,7.6011a1.6013,1.6013,0,0,0,1.5123,1.9852q5.0549.4124,10.0773,1.1367a77.636,77.636,0,0,1,8.2245,1.4466,63.0364,63.0364,0,0,1,10.1927,3.87c8.2459,3.7473,16.1962,8.112,24.2035,12.3344,3.1149,1.6425,6.2291,3.34,9.4889,4.6828,1.0342.4259,1.8973-.6231,1.9852-1.5123l1.8992-19.2088,3.6257-36.6714q1.1223-11.3506,2.2445-22.7013A47.1685,47.1685,0,0,0,745.76,313.2117a46.5146,46.5146,0,0,0-12.8416-.4418,75.9346,75.9346,0,0,0-9.5659,1.856l-3.0156.7224c-1.9621.47-1.1313,3.4953.8339,3.0245,6.1552-1.4745,12.1549-2.9627,18.5524-2.683A44.0125,44.0125,0,0,1,781.3506,364.15c-.6419,6.6789-1.32,13.3544-1.9806,20.0315l-3.5619,36.026-1.4588,14.7549c-.2494,2.5224-.72,5.1277-.7578,7.6647-.0017.1153-.0231.2334-.0344.3484l1.9852-1.5123c-.4022-.1656.2522.17-.1481-.0623a4.62,4.62,0,0,0-.4249-.1875c-.2571-.1151-.5129-.2334-.768-.3529-.6495-.3044-1.2937-.62-1.9357-.94-1.5909-.7935-3.1673-1.6161-4.7409-2.4433-3.93-2.0662-7.8419-4.1678-11.78-6.2189-4.1565-2.1646-8.3374-4.29-12.5971-6.2452a76.1693,76.1693,0,0,0-10.7859-4.2444,66.3489,66.3489,0,0,0-8.4555-1.569c-3.78-.561-7.5758-1.0076-11.3845-1.3184l1.5122,1.9852,3.2121-20.6217,5.1253-32.905,1.1839-7.6011c.3076-1.9747-2.7143-2.8254-3.0245-.8338Z"/><path d="M774.9386,443.225c.7517-4.0751-5.7612-9.0262-16.497-13.41l-5.82,20.0768C765.3706,449.8705,774.1418,447.5438,774.9386,443.225Z"/><path d="M776.4509,443.6419c.5324-3.2908-1.7344-5.9816-4.131-7.943-3.9805-3.2577-8.736-5.454-13.4614-7.3962a1.5837,1.5837,0,0,0-1.9291,1.0954l-5.1,17.5922-.72,2.4846a1.5835,1.5835,0,0,0,1.5123,1.9852c5.4638-.02,11.1765-.2782,16.437-1.8908,2.942-.9018,6.698-2.5533,7.3924-5.9274.4054-1.97-2.6173-2.8127-3.0246-.8338a3.3018,3.3018,0,0,1-1.5795,2.1115,14.6961,14.6961,0,0,1-4.3907,1.8475,57.109,57.109,0,0,1-14.8346,1.5565l1.5122,1.9852,5.1-17.5922.72-2.4847-1.9292,1.0953a50.0016,50.0016,0,0,1,11.7395,6.3182,13.2015,13.2015,0,0,1,2.8555,2.8405,4.6254,4.6254,0,0,1,.6887,1.3486c.0325.1131.1281.6775.11.4595.0122.1446-.0282.74.0082.5141a1.619,1.619,0,0,0,1.0954,1.9292A1.5792,1.5792,0,0,0,776.4509,443.6419Z"/><path class="cls-4" d="M729.7448,421.7536a170.72,170.72,0,0,0-17.2233-2.304l-3.7425,23.9016-1.0649,6.8005-114.9605-.5089.4359,36.8706,107.0277,14.2043c35.89.0127,47.5693-6.669,54.6879-27.8816l5.0691-15.8186,6.8446-23.3754C753.6926,425.9263,740.7492,423.7834,729.7448,421.7536Z"/><path d="M730.1617,420.2414c-5.8381-1.0688-11.7241-1.8774-17.64-2.36a1.5663,1.5663,0,0,0-1.5123,1.1514L707.2658,442.94q-.5319,3.3974-1.064,6.7948l1.5123-1.1514-11.48-.0508-27.433-.1215-33.1685-.1468-28.7719-.1274c-4.6233-.02-9.2915-.2318-13.9129-.0615-.0645.0023-.13-.0006-.1942-.0009a1.5888,1.5888,0,0,0-1.5683,1.5683l.3816,32.2748.0543,4.5958a1.6181,1.6181,0,0,0,1.5683,1.5683l8.5577,1.1357L622.94,492.03l26.9829,3.5811,26.3184,3.4928,18.8214,2.498,4.4881.5956c.22.0292.4425.0722.6639.0881a88.925,88.925,0,0,0,10.3986-.22c10.3272-.4838,21.6442-1.5682,30.6293-7.1731,7.486-4.67,11.863-12.2539,14.7443-20.3892,2.009-5.6725,3.8045-11.463,5.5451-17.2229,2.1171-7.0055,4.1139-14.0494,6.17-21.0729l.6292-2.1486a1.5953,1.5953,0,0,0-.7207-1.7711,83.9892,83.9892,0,0,0-19.5033-8.1769c-5.897-1.6675-11.9248-2.76-17.9454-3.87-1.9732-.3636-2.8193,2.6587-.8338,3.0245,5.8817,1.0836,11.77,2.15,17.5376,3.7553a80.9339,80.9339,0,0,1,19.1618,7.975l-.7207-1.771-5.84,19.9436c-1.6652,5.6868-3.53,11.3115-5.3382,16.9543-2.2329,6.968-5.0213,13.9554-10.501,19.0374-6.8244,6.3292-16.5374,8.3068-25.5027,9.2237-3.3144.3389-6.6429.5322-9.9723.6432a69.1542,69.1542,0,0,1-7.9839.1156c-.96-.081-1.9222-.2551-2.8773-.3819l-16.3736-2.173-24.9653-3.3133-27.2638-3.6184-22.9212-3.042-12.036-1.5974-.542-.0719,1.5683,1.5683-.3816-32.2748-.0543-4.5958-1.5683,1.5683,11.48.0508,27.433.1214,33.1684.1469,28.772.1273c4.6233.02,9.2915.2318,13.9129.0616.0645-.0024.13.0006.1942.0009a1.5811,1.5811,0,0,0,1.5123-1.1514q2.0361-13.003,4.072-26.0061l.7353-4.696-1.5122,1.1514c5.6391.46,11.2416,1.2293,16.8064,2.248C731.3013,423.6271,732.1476,420.6049,730.1617,420.2414Z"/><path d="M535.9,492.1a1.5692,1.5692,0,0,0,0-3.1365,1.5692,1.5692,0,0,0,0,3.1365Z"/><path class="cls-4" d="M547.2532,450.8075l-58.9374-1.5124a24.5273,24.5273,0,0,0-22.034,13.005L455.9705,499.019s-.1676,15.8934,16.8673,6.9277c0,0,4.4828,9.414,16.5865,1.7931,4.4829,4.9312,15.69,4.0346,17.9315,0,5.3794,4.0346,11.5282,1.81,14.5057-6.2675l1.8882-3.1585a15.4126,15.4126,0,0,1,15.2567-7.37h0"/><path d="M547.2532,449.2392l-24.8654-.6381-32.275-.8282c-5.7953-.1487-11.413.9177-16.352,4.1382a26.1028,26.1028,0,0,0-5.4724,4.7384,18.2048,18.2048,0,0,0-3.5226,5.2472c-.3762,1.0463-.6092,2.1693-.91,3.2388l-8.9438,31.8492a8.6959,8.6959,0,0,0-.5064,2.2628,13.978,13.978,0,0,0,.6932,4.1508,10.1024,10.1024,0,0,0,3.7819,5.43c2.4755,1.6985,5.6736,1.6558,8.4821.9757a28.103,28.103,0,0,0,6.2661-2.5034l-2.1457-.5626a10.26,10.26,0,0,0,4.4895,4.4057c4.7372,2.3855,10.0157.5656,14.2428-2.05l-1.9-.2452c2.7766,2.9465,7.1366,3.9677,11.0625,3.8157,3.312-.1283,7.5069-1.0479,9.332-4.1331l-2.1457.5626a10.1831,10.1831,0,0,0,7.5428,2.0562,10.5359,10.5359,0,0,0,6.6051-4.2545c1.507-1.9659,2.3082-4.305,3.57-6.4162a16.8743,16.8743,0,0,1,4.7531-5.6019,14.1993,14.1993,0,0,1,9.971-2.3657c.8468.1124,1.56-.8014,1.5683-1.5683a1.6068,1.6068,0,0,0-1.5683-1.5683,17.0747,17.0747,0,0,0-16.1049,7.358,35.554,35.554,0,0,0-2.3942,3.9475c-1.318,2.615-2.3023,5.2781-5.0371,6.7549-2.4961,1.3479-5.1585.5284-7.3229-1.05a1.5838,1.5838,0,0,0-2.1457.5627c-1.24,2.096-4.6984,2.5389-6.919,2.5887-3.0382.0681-6.3906-.6153-8.5493-2.9061a1.5885,1.5885,0,0,0-1.9005-.2453c-3.2933,2.0378-7.7012,3.9489-11.4164,1.8693a6.904,6.904,0,0,1-3.0245-3.1,1.5934,1.5934,0,0,0-2.1457-.5626c-2.8718,1.4924-6.6172,3.1747-9.8576,2.3229a5.5744,5.5744,0,0,1-3.775-3.5346c.117.2648-.0779-.1982-.11-.289-.0776-.2181-.1528-.4363-.22-.6579-.1254-.4124-.2293-.8313-.315-1.2537-.0358-.1762-.1839-1.1836-.1236-.68-.0339-.283-.0639-.5664-.0822-.851a2.5766,2.5766,0,0,0-.0221-.482c-.0752-.2681.1249-.118-.0524.25a5.8559,5.8559,0,0,0,.262-.9328l8.5944-30.605,1.3057-4.65a4.8715,4.8715,0,0,1,.723-1.4282,23.0673,23.0673,0,0,1,4.4253-5.2489,23.7553,23.7553,0,0,1,16.6774-5.6595l29.6818.7617c9.1953.236,18.4061.6534,27.6045.7084.1637.0009.3275.0084.4911.0126,2.0192.0518,2.018-3.0848,0-3.1366Z"/><rect class="cls-6" x="452.4407" y="471.6528" width="82.4846" height="20.6212" rx="10.3106" transform="translate(48.4119 -45.0521) rotate(5.494)"/><path class="cls-4" d="M523.4941,498.3258l8.954-17.0353c1.3832-3.1366-1.3332-9.4136-8.7888-4.0448.456-5.3792-4.6289-4.9367-10.6364-2.702-.0063-5.38-6.9394-4.0427-11.5583-.4616a5.47,5.47,0,0,0-5.3543-4.4158,6.2448,6.2448,0,0,0-5.6656,3.0872l-9.8487,17.1819a5.8127,5.8127,0,0,1-9.0108,1.2356h0"/><path d="M524.8482,499.1173l6.0666-11.5417c1.8216-3.4658,4.9662-7.5076,2.4973-11.468-2.4871-3.99-7.4071-2.4164-10.5443-.2161l2.36,1.3542c.171-2.6183-.9754-5.0386-3.694-5.6558-2.9435-.6681-6.1933.438-8.9276,1.4415l1.9852,1.5123a4.9769,4.9769,0,0,0-5.1055-5.1636c-3.1433-.1-6.3722,1.4954-8.8127,3.3479l2.3038.9372a7.11,7.11,0,0,0-6.8575-5.5672c-3.4777-.1144-5.9473,1.9772-7.5744,4.8158l-8.63,15.0559a8.8321,8.8321,0,0,1-1.3953,2.1,4.2974,4.2974,0,0,1-5.8254-.0073c-1.4574-1.3971-3.6785.8177-2.2179,2.2179a7.4621,7.4621,0,0,0,11.3052-1.2771c1.0056-1.536,1.8466-3.2031,2.7589-4.7947l4.7783-8.3363a38.1666,38.1666,0,0,1,2.8484-4.8874,4.761,4.761,0,0,1,3.21-1.7357,6.9093,6.9093,0,0,1,.8706-.011c.071.0017.1417.0091.2125.0144.4062.0307-.2381-.0561.1529.0214a3.9521,3.9521,0,0,1,3.3388,3.2255,1.5766,1.5766,0,0,0,2.3038.9373c1.65-1.2525,9.079-5.5133,9.1986-.8926a1.5815,1.5815,0,0,0,1.9852,1.5122c2.0922-.7678,4.43-1.6411,6.6988-1.5054,1.7119.1025,2.0562,1.1048,1.9524,2.6952a1.5772,1.5772,0,0,0,2.36,1.3542c1.7289-1.2126,5.3413-3.2933,6.5331-.3939a3.54,3.54,0,0,1,.0783,2.3384c-.1078.3989.142-.2625-.0623.1332-.1128.2185-.2289.4355-.3433.6532l-6.415,12.2046-2.1018,3.9989c-.9383,1.7852,1.7678,3.3724,2.7083,1.583Z"/><line class="cls-1" x1="651.2556" y1="741.7451" x2="656.1867" y2="743.09"/><path d="M650.8387,743.2574l4.3142,1.1766.6169.1682a1.5687,1.5687,0,1,0,.8338-3.0245l-4.3142-1.1766-.6169-.1682a1.5687,1.5687,0,1,0-.8338,3.0245Z"/><path class="cls-1" d="M608.3327,725.5515s3.922,1.8485,3.0254,7.2279"/><path d="M607.5412,726.9057a3.169,3.169,0,0,1,.3544.205q.09.0581.1772.12c.03.0213.06.0436.09.065.2077.1469-.1318-.1236-.1733-.1357.15.0437.3479.2923.46.4a7.1207,7.1207,0,0,1,.4909.5308c.0258.03.0486.0646.0755.0938.0285.0309-.2374-.3249-.1514-.1954.0347.0524.075.1017.1112.1532q.1229.1751.2335.3583.1168.1936.219.3954c.0327.0646.063.13.0946.1953.1427.2936-.1311-.3511-.0111-.0311a7.2051,7.2051,0,0,1,.3025,1.0033q.0322.1484.058.2979c.0074.0436.0123.0882.0211.1316.0394.1943-.0316-.3493-.02-.1473.0135.2382.0427.4745.0478.7137s-.0006.48-.0155.7189c-.0091.1451-.0238.2895-.0375.4341-.004.0422-.031.2348,0,.0156.0371-.26-.02.1165-.0226.1344a1.6084,1.6084,0,0,0,1.0953,1.9292,1.5868,1.5868,0,0,0,1.9292-1.0954,9.4031,9.4031,0,0,0-.75-5.9151,7.7524,7.7524,0,0,0-2.48-2.7694,3.6472,3.6472,0,0,0-.5169-.3144,1.5685,1.5685,0,0,0-1.5831,2.7083Z"/><path class="cls-1" d="M602.0567,727.3447s3.922,1.8484,3.0254,7.2278"/><path d="M601.2652,728.6989a3.169,3.169,0,0,1,.3544.205q.09.0579.1772.12c.03.0214.06.0436.09.0651.2077.1468-.1318-.1237-.1733-.1358.15.0438.3479.2924.46.4a7.1025,7.1025,0,0,1,.4909.5309c.0258.03.0486.0645.0755.0937.0284.0309-.2374-.3249-.1514-.1953.0347.0524.075.1017.1112.1532q.1228.175.2335.3583.1168.1935.219.3954c.0327.0645.063.13.0946.1952.1426.2936-.1311-.3511-.0111-.031a7.201,7.201,0,0,1,.3025,1.0033q.0323.1482.0579.2979c.0075.0436.0124.0882.0212.1315.0394.1944-.0316-.3493-.02-.1473.0135.2383.0427.4746.0477.7138s-.0006.48-.0154.7189c-.0091.145-.0238.2894-.0375.4341-.004.0421-.031.2348,0,.0155.0371-.26-.02.1166-.0226.1344a1.6083,1.6083,0,0,0,1.0953,1.9292,1.5868,1.5868,0,0,0,1.9292-1.0953,9.4035,9.4035,0,0,0-.75-5.9152,7.7533,7.7533,0,0,0-2.48-2.7694,3.6472,3.6472,0,0,0-.5169-.3144,1.5686,1.5686,0,0,0-1.5831,2.7084Z"/><path class="cls-1" d="M596.6773,727.3447s3.922,1.8484,3.0254,7.2278"/><path d="M595.8858,728.6989a3.169,3.169,0,0,1,.3544.205q.09.0579.1771.12c.03.0214.06.0436.09.0651.2076.1468-.1319-.1237-.1733-.1358.15.0438.3479.2924.46.4a7.1251,7.1251,0,0,1,.491.5309c.0257.03.0486.0645.0755.0937.0284.0309-.2374-.3249-.1515-.1953.0348.0524.0751.1017.1112.1532q.123.175.2336.3583.1167.1935.2189.3954c.0328.0645.0631.13.0947.1952.1426.2936-.1312-.3511-.0111-.031a7.201,7.201,0,0,1,.3025,1.0033q.0322.1482.0579.2979c.0075.0436.0124.0882.0212.1315.0393.1944-.0317-.3493-.02-.1473.0135.2383.0426.4746.0477.7138s-.0006.48-.0155.7189c-.009.145-.0237.2894-.0374.4341-.004.0421-.031.2348,0,.0155.037-.26-.02.1166-.0227.1344a1.6083,1.6083,0,0,0,1.0954,1.9292,1.5868,1.5868,0,0,0,1.9292-1.0953,9.4028,9.4028,0,0,0-.75-5.9152,7.753,7.753,0,0,0-2.4795-2.7694,3.6426,3.6426,0,0,0-.517-.3144,1.5685,1.5685,0,1,0-1.583,2.7084Z"/><path d="M780.7978,559.6363l-9.5468,34.2348-1.367,4.9021a1.57,1.57,0,0,0,3.0245.8339l9.5468-34.2348,1.367-4.9022a1.57,1.57,0,0,0-3.0245-.8338Z"/><path class="cls-4" d="M496.5969,458.8766,481.333,474.8505a5.5817,5.5817,0,0,0,.3425,8.0416h0a5.5816,5.5816,0,0,0,6.8551.4141L506.4592,470.98a28.5514,28.5514,0,0,0,32.7249,3.5862"/><path d="M495.488,457.7677c-5.0465,5.2812-10.1479,10.5148-15.1416,15.8458a7.2838,7.2838,0,0,0-1.5026,7.9888,7.2009,7.2009,0,0,0,9.4862,3.6017,21.73,21.73,0,0,0,3.1691-2.04l5.6609-3.8919,10.0907-6.9374-1.9-.2452c5.7313,5.5186,14.6128,8.2647,22.4222,7.5433a33.2531,33.2531,0,0,0,12.2031-3.7118c1.7945-.9258.21-3.6333-1.5831-2.7083a27.5528,27.5528,0,0,1-18.27,2.8772,28.5879,28.5879,0,0,1-10.959-4.9091,11.8959,11.8959,0,0,1-1.1214-.8855c-.1608-.1379-.3216-.2767-.4742-.4237a1.5922,1.5922,0,0,0-1.9-.2452l-17.396,11.96c-1.6933,1.1641-3.7454,1.6582-5.4873.1972a4.08,4.08,0,0,1-.1835-5.99c2.4974-2.6575,5.04-5.2741,7.5591-7.9106l7.5459-7.8969c1.3946-1.4595-.82-3.6808-2.2179-2.2179Z"/><path class="cls-4" d="M722.0493,316.3456A28.2211,28.2211,0,1,1,667.16,329.4945Z"/><path d="M720.5371,316.7625a26.6534,26.6534,0,1,1-51.8648,12.3151l-1.0954,1.9292,18.4856-4.4283,29.6159-7.0946,6.7879-1.626c1.9621-.47,1.1313-3.4953-.8339-3.0246l-18.4855,4.4283-29.6159,7.0946-6.7879,1.626a1.5935,1.5935,0,0,0-1.0953,1.9292,29.7889,29.7889,0,0,0,57.9138-13.9827C723.1039,313.9636,720.0789,314.7954,720.5371,316.7625Z"/><polyline class="cls-4" points="710.125 325.341 703.199 290.427 675.507 307.145 678.662 330.314"/><path d="M711.6368,324.9242l-6.07-30.6018-.8555-4.3126a1.5807,1.5807,0,0,0-2.3038-.9373l-24.2461,14.638-3.4457,2.08a1.64,1.64,0,0,0-.7208,1.7711l2.7642,20.3017.39,2.8674a1.5792,1.5792,0,0,0,1.9292,1.0953,1.6089,1.6089,0,0,0,1.0954-1.9292L677.41,309.5954l-.39-2.8673-.7207,1.771,24.246-14.6379,3.4458-2.08-2.3038-.9373,6.07,30.6018.8555,4.3126c.3924,1.9782,3.4162,1.1408,3.0245-.8338Z"/><path class="cls-4" d="M705.6016,302.4793c14.7706-16.2665,7.1556-28.6873,6.3752-38.5379-.4531-5.72-10.031-16.6152-10.031-16.6152l-56.6924,12.1672S633.39,327.3511,686.784,308.2709"/><path d="M706.7105,303.5882c3.9113-4.3494,7.2131-9.3586,8.6449-15.0922a32.7418,32.7418,0,0,0,.2912-13.1445c-.57-3.5931-1.6436-7.1152-2.0381-10.7345-.4379-4.0179-2.3809-7.42-4.6286-10.7227a79.3461,79.3461,0,0,0-5.9251-7.677,1.579,1.579,0,0,0-1.5259-.4033l-19.208,4.1224-30.47,6.5393-7.0146,1.5055a1.5257,1.5257,0,0,0-1.0953,1.0953c-.4091,2.3465-.6522,4.7324-.8453,7.1048a91.03,91.03,0,0,0-.0184,15.4486,50.3576,50.3576,0,0,0,4.4194,17.6194,24.2069,24.2069,0,0,0,12.5965,12.1972c7.43,2.9876,15.9507,1.8145,23.417-.3908,1.309-.3866,2.6045-.8159,3.8906-1.2725,1.889-.6707,1.0752-3.7024-.8338-3.0246-7.4354,2.64-15.9313,4.6473-23.6708,2.3508a20.3189,20.3189,0,0,1-12.0373-10.1727c-2.577-4.726-3.9234-10.5955-4.5009-15.8554a87.8786,87.8786,0,0,1-.2276-15.5352c.1318-1.94.3236-3.8733.564-5.8023.0092-.0737.0193-.1473.0287-.2209.0508-.3982-.0461.3323-.01.0718.02-.1444.04-.2889.06-.4332q.0486-.3417.1007-.683c.0293-.19.0586-.3792.0915-.5682l-1.0953,1.0954,19.208-4.1224,30.47-6.5393,7.0145-1.5055-1.5258-.4033c1.5714,1.7908,3.0435,3.6778,4.4333,5.6118,2.02,2.8117,4.58,6.2182,5.1194,9.6974.2539,1.6389.3993,3.279.7255,4.9107.3432,1.7168.7383,3.4227,1.0774,5.14a33.3727,33.3727,0,0,1,.5865,11.6764c-.97,6.089-4.2158,11.3718-8.2864,15.8984-1.3465,1.4974.8647,3.7227,2.2179,2.2179Z"/><path d="M666.2378,271.0563c.0681-.0606.1547-.1109.2161-.1771-.03.0328-.3856.2843-.1671.131.0463-.0326.0914-.0671.1375-.1q.1658-.1185.3367-.23.462-.3024.9527-.5578c.2041-.1067.415-.1983.6207-.3016.287-.1442-.2877.107.0476-.0219.1121-.043.2233-.088.3361-.1294a11.205,11.205,0,0,1,1.5-.4355c.16-.0344.3212-.0621.4821-.0922q.1059-.0183.2122-.0337-.23.03-.0553.0091c.3265-.0351.6534-.0588.9818-.0652q.4791-.0093.9578.025c.1654.0119.3315.0265.4961.0472-.2421-.03.27.048.2616.0465a12.0976,12.0976,0,0,1,2.3272.69,1.5789,1.5789,0,0,0,1.9292-1.0953,1.6064,1.6064,0,0,0-1.0954-1.9292,12.5188,12.5188,0,0,0-12.6958,2.0027,1.5683,1.5683,0,0,0,2.2179,2.2179Z"/><path d="M645.9932,273.6951c3.0967-1.994,8.3666-2.7273,10.4377,1.0836,1.0338,1.9023.5544,4.3219-.0634,6.2823a18.083,18.083,0,0,1-1.8137,3.91,5.6751,5.6751,0,0,0-1.1994,2.2955,4.5633,4.5633,0,0,0,.1854,1.6425c.9108,2.9326,4.3582,2.5423,6.6907,1.9273a1.57,1.57,0,0,0-.8338-3.0246,7.2645,7.2645,0,0,1-2.7639.2831c-.0835-.0131-.0584.0111-.1112-.12.112.2777-.0325-.1442-.0374-.2081a4.7873,4.7873,0,0,0,.0067-.5l-.2141.7915c3.12-4.4863,5.9577-11.6142,1.7937-16.37a8.5033,8.5033,0,0,0-7.6948-2.6537,14.67,14.67,0,0,0-5.9656,1.9524c-1.6916,1.0893-.1207,3.8055,1.5831,2.7084Z"/><circle cx="649.2364" cy="280.9008" r="2.029"/><path d="M648.012,281.1884a2.2783,2.2783,0,0,1-.0207-.28c0-.0553.0044-.11.0059-.165.0045-.1607-.0058.05-.0089.0464-.0252-.0283.0475-.2209.06-.262.0064-.0213.0321-.1422.0519-.1513l-.038.0894q.0217-.0484.0459-.0955c.0407-.0791.0892-.1511.1357-.2266.0891-.1446-.09.0813-.0107.0116.032-.0281.0582-.0677.0877-.0987.0373-.0393.14-.1683.1944-.18l-.0743.0579q.0323-.0237.0658-.0456c.0538-.0319.1052-.0672.1605-.097.0318-.0171.0644-.032.0963-.0488.1611-.0848-.1625.0445.0144-.0034.0893-.0241.1785-.0491.268-.0728.065-.0172.0857-.0544-.0406.0016a.5559.5559,0,0,1,.168-.0123c.0369-.0012.0739-.0014.1108-.0006.0233,0,.251.0091.1137.0034-.1327-.0055.0345.0083.0557.0129.0438.0093.0871.02.13.0326s.0845.028.1271.0407c.1645.0489-.1043-.0671-.0154-.0083.0651.0431.1425.0714.21.1128.0237.0146.1226.062.1316.0883q-.1219-.0967-.0548-.0413c.02.0168.0405.034.06.0518.066.06.1238.125.1845.19.1229.13-.0861-.1439.0069.01.0184.0305.04.0593.0582.09.0453.0741.0744.1693.1249.2387-.1018-.14-.0249-.0555-.0018.0174.0167.0529.0313.1066.0437.1607.0032.0141.05.192.0161.0624-.0323-.1239.0026.0429.0038.0642.0055.0926,0,.1837-.0022.2763-.0045.1606.0058-.05.0089-.0464.0122.0137-.0272.14-.0318.1585q-.0126.052-.028.1034t-.0333.1014q-.0461.12.0194-.0394c.0116.05-.0983.1921-.1239.2336-.0185.03-.0394.0585-.0578.0885-.0936.1524.117-.1211-.0062.0086-.0547.0576-.1064.1171-.165.1712-.0233.0216-.07.0806-.1.0869q.1338-.1014.0307-.027l-.0444.03c-.0756.0491-.155.089-.2346.1309-.1629.0858.163-.0506-.0145.0034-.0352.0107-.07.0231-.1051.0333-.0539.0155-.1086.0257-.1628.04-.1468.0375.03.0035.04-.0016a.8428.8428,0,0,1-.3337.011c-.0157-.0008-.1968-.0072-.0587-.0014.1315.0054-.0794-.0179-.1082-.0249-.0346-.0085-.0692-.0178-.1034-.028s-.0679-.0213-.1014-.0333q-.12-.046.0395.0194c-.0551.0128-.21-.109-.256-.1381-.0228-.0145-.1011-.05-.1092-.0741q.1325.1047.0345.0243l-.04-.0349c-.0483-.0435-.2069-.16-.2185-.23l.0579.0744q-.0237-.0324-.0456-.0658c-.0319-.0539-.0672-.1053-.097-.1605-.0171-.0318-.032-.0645-.0487-.0963q-.0531-.1171.0152.0371-.0194-.0514-.036-.1038a2.2345,2.2345,0,0,1-.0746-.3273.7868.7868,0,0,0-.9646-.5477.8077.8077,0,0,0-.5476.9646,2.8077,2.8077,0,0,0,2.1572,2.25,2.81,2.81,0,0,0,2.7564-4.5553,2.8067,2.8067,0,0,0-4.9416,2.0971.8614.8614,0,0,0,.23.5544.7972.7972,0,0,0,.5545.23C647.6077,281.9555,648.0683,281.6241,648.012,281.1884Z"/><circle cx="668.0603" cy="277.4271" r="2.029"/><path d="M666.836,277.7147a2.2588,2.2588,0,0,1-.0207-.28c0-.0552.0043-.11.0059-.165.0044-.1607-.0058.05-.009.0464-.0251-.0282.0475-.2209.06-.2619.0064-.0213.0321-.1423.0519-.1513l-.038.0893q.0217-.0483.046-.0955c.0406-.0791.0892-.1511.1357-.2266.089-.1445-.09.0813-.0107.0117.032-.0281.0582-.0677.0877-.0988.0372-.0392.14-.1682.1944-.18l-.0744.0578q.0324-.0237.0658-.0456c.0539-.0318.1053-.0671.16-.0969.0318-.0172.0645-.032.0963-.0488.1611-.0848-.1625.0444.0145-.0034.0893-.0242.1784-.0492.2679-.0728.0651-.0172.0858-.0544-.04.0016a.555.555,0,0,1,.1679-.0124c.0369-.0012.0739-.0013.1108-.0006.0233,0,.2511.0092.1137.0034-.1326-.0055.0346.0084.0558.0129.0437.0094.087.02.13.0327s.0845.0279.1271.0406c.1644.049-.1043-.0671-.0154-.0082.065.0431.1425.0713.21.1127.0236.0146.1226.062.1315.0883q-.1219-.0966-.0547-.0412c.02.0167.04.034.06.0517.0661.06.1238.1251.1845.19.123.13-.086-.1438.0069.01.0184.03.04.0593.0582.09.0453.074.0744.1692.1249.2387-.1018-.14-.0249-.0555-.0018.0173q.0252.0795.0437.1608c.0032.0141.05.192.0161.0624-.0323-.124.0026.0428.0039.0641.0054.0926,0,.1838-.0023.2763-.0045.1607.0058-.05.0089-.0464.0122.0137-.0272.14-.0317.1586-.0085.0346-.0178.0692-.0281.1034s-.0213.0679-.0333.1014q-.0459.12.0195-.0395c.0116.05-.0984.1922-.124.2337-.0184.03-.0393.0585-.0577.0884-.0937.1524.117-.1211-.0062.0086-.0548.0577-.1065.1172-.1651.1713-.0233.0215-.07.0806-.1.0869q.1338-.1014.0308-.0271l-.0444.03c-.0757.0491-.1551.089-.2347.1309-.1629.0857.163-.0507-.0144.0034-.0352.0107-.07.0231-.1052.0333-.0538.0154-.1085.0256-.1627.0395-.1469.0374.03.0034.0405-.0017a.84.84,0,0,1-.3338.011c-.0157-.0007-.1968-.0072-.0587-.0014.1316.0055-.0793-.0178-.1081-.0248q-.0521-.0128-.1034-.0281t-.1014-.0333q-.12-.0459.0394.0195c-.0551.0128-.21-.109-.2559-.1381-.0228-.0145-.1011-.05-.1092-.0742q.1323.1048.0344.0244l-.04-.0349c-.0482-.0435-.2069-.16-.2184-.23l.0578.0743q-.0237-.0322-.0456-.0657c-.0318-.0539-.0671-.1053-.0969-.1606-.0171-.0318-.032-.0644-.0488-.0963q-.0529-.117.0153.0371c-.013-.0343-.025-.0688-.036-.1038a2.209,2.209,0,0,1-.0746-.3273.7869.7869,0,0,0-.9646-.5476.8076.8076,0,0,0-.5477.9646,2.8078,2.8078,0,0,0,2.1572,2.25,2.81,2.81,0,0,0,2.7564-4.5553,2.8067,2.8067,0,0,0-4.9416,2.097.861.861,0,0,0,.23.5545.7964.7964,0,0,0,.5544.23C666.4316,278.4818,666.8923,278.15,666.836,277.7147Z"/><path class="cls-7" d="M703.9763,236.3445s12.7928-4.0533,18.3881,14.8023c1.356,4.57.9886,10.57-.1041,16.539a74.5381,74.5381,0,0,1-16.65,34.7836l-.0084.01-4.9453-18.5524c2.3-2.5969,4.6787-11.3351,3.829-15.94-1.2838-6.9567-5.32-7.9044-10.1794-7.0078-1.7694.3266-3.38,1.886-4.6554,4.06-2.9064,5.4047-.387,16.3351-.387,16.3351l-9.8668-22.2989c-7.2684,2.2237-50.9754,13.9723-55.2823,2.2254a5.3381,5.3381,0,0,1,1.1329-5.3452s-12.369-4.8775-3.7664-15.6308c-2.5808-2.5808-5.1615-9.893,4.3013-10.7533,3.8618-.3511,29.4039-4.6957,46.1809-7.0658a32.9507,32.9507,0,0,1,29.16,10.6512Z"/><path d="M704.3932,237.8568a8.12,8.12,0,0,1,1.1565-.2411c-.4866.0772.0915-.0077.2657-.0228q.3734-.0322.7484-.0419a12.8842,12.8842,0,0,1,1.7741.0759c.0656.0074-.079-.0167.191.0271q.2368.0384.472.0851.5366.1072,1.0627.26a10.09,10.09,0,0,1,1.9609.78,13.96,13.96,0,0,1,4.3005,3.566c4.04,4.8823,5.598,11.4914,5.297,17.6979a66.2388,66.2388,0,0,1-4.9636,21.3047A72.8068,72.8068,0,0,1,704.4926,301.37l2.6212.692L702.1686,283.51l-.4033,1.5258c2.6374-3.1026,3.6924-7.756,4.2206-11.6892.55-4.092.1892-9.1415-3.0556-12.1319-2.6529-2.4448-7.4723-2.7988-10.6363-1.1625-4.2629,2.2046-5.5171,7.34-5.6062,11.7312a41.6269,41.6269,0,0,0,1.0634,10.0081l2.8664-1.2085-8.6329-19.51-1.2338-2.7884a1.5726,1.5726,0,0,0-1.7711-.7207A199.3268,199.3268,0,0,1,657.835,262.65a130.547,130.547,0,0,1-14.4417,2.01,42.6928,42.6928,0,0,1-12.2315-.3952,15.1059,15.1059,0,0,1-2.5714-.7754c-.0367-.0154-.6082-.2909-.856-.4314-.1858-.1053-.848-.5506-.7329-.46a3.8591,3.8591,0,0,1-1.2236-1.4054c-.0491-.0847-.2123-.4512-.1021-.1806a3.8137,3.8137,0,0,1-.2867-1.21,3.984,3.984,0,0,1,.9672-2.7381,1.5959,1.5959,0,0,0-.692-2.6212c.58.2309.0878.0413-.1505-.0776-.401-.2-.7962-.4077-1.1807-.6385a10.4047,10.4047,0,0,1-2.8362-2.36c-2.6354-3.1589-1.2145-6.9933,1.093-9.9338a1.6127,1.6127,0,0,0,0-2.2179,6.5585,6.5585,0,0,1-1.9209-4.7242c.1823-2.33,2.958-3.114,5.1132-3.3518,4.5323-.5,9.039-1.3032,13.5409-2.0173,7.4782-1.1862,14.9542-2.387,22.4389-3.5325,3.6585-.56,7.3218-1.1857,10.9979-1.6187a31.7746,31.7746,0,0,1,12.4714.9978,31.2351,31.2351,0,0,1,11.9451,6.4889,68.64,68.64,0,0,1,5.6909,5.9951c1.3492,1.5071,3.5614-.7172,2.2179-2.2179-1.6584-1.8524-3.2668-3.78-5.1-5.4642a35.0758,35.0758,0,0,0-11.3271-6.9652,34.2541,34.2541,0,0,0-13.1132-2.1767,104.3711,104.3711,0,0,0-12.2538,1.5767c-8.1165,1.2275-16.2213,2.53-24.3284,3.817-3.0233.48-6.0465.9609-9.0735,1.4171-2.25.3391-3.56.3922-5.8186.79-3.288.5795-6.2921,2.5983-6.5313,6.1673a9.6505,9.6505,0,0,0,2.8323,7.0364v-2.2179c-3.1081,3.9607-5,9.1331-1.7085,13.591a14.2709,14.2709,0,0,0,6.1669,4.6611l-.692-2.6212c-3.3768,4.0584-1.7356,9.2368,2.7893,11.3143,3.74,1.717,8.0937,1.9079,12.1448,1.8416,10.1643-.1664,20.3569-2.25,30.21-4.6125,3.53-.8465,7.0578-1.7426,10.5311-2.8024l-1.7711-.7207,8.633,19.51,1.2338,2.7884c.7458,1.6856,3.2449.4471,2.8664-1.2084-.9562-4.1828-1.5468-9.0534-.4633-13.2471a8.4832,8.4832,0,0,1,2.4518-4.1589,5.6523,5.6523,0,0,1,3.8934-1.2789,5.2591,5.2591,0,0,1,5.4154,3.0751c1.3375,2.8405,1.1582,6.0714.5818,9.0744-.5257,2.7386-1.2751,5.8295-2.9134,8.1439a2.2746,2.2746,0,0,0-.53,2.03c.1231.527.2794,1.0485.4188,1.5713l1.541,5.7812,2.9181,10.9474a1.58,1.58,0,0,0,2.6212.692,75.2,75.2,0,0,0,17.8962-41.4331c.6658-7.1469-.65-14.3817-4.7984-20.3646a16.3812,16.3812,0,0,0-9.8939-7.06,13.0975,13.0975,0,0,0-6.355.1017C701.6394,235.433,702.459,238.462,704.3932,237.8568Z"/><path d="M664.3681,292.9314l-2.7318,1.2445-.3909.178a1.5745,1.5745,0,0,0-.7207.9373,1.6025,1.6025,0,0,0,.1581,1.2084,1.5831,1.5831,0,0,0,.9373.7208l.4169.056a1.5617,1.5617,0,0,0,.7915-.2141l2.7319-1.2445.3908-.1781a1.5736,1.5736,0,0,0,.7207-.9372,1.6028,1.6028,0,0,0-.158-1.2085,1.5829,1.5829,0,0,0-.9373-.7207l-.4169-.056a1.56,1.56,0,0,0-.7916.2141Z"/><path d="M699.7825,264.8805a4.8319,4.8319,0,0,0-2.6949.2393,7.5689,7.5689,0,0,0-4.1478,4.6688,19.5939,19.5939,0,0,0-1.0737,5.7385,1.5772,1.5772,0,0,0,1.5683,1.5683,1.6053,1.6053,0,0,0,1.5683-1.5683c.03-.4624.0686-.9241.1216-1.3845.011-.096.023-.1918.0349-.2877-.0077.0616-.0451.3033.0013-.0012.0337-.2211.0686-.442.1085-.6621a15.2324,15.2324,0,0,1,.5084-2.0441q.0641-.1943.1346-.3864c.026-.07.207-.5143.0987-.2625-.11.256.0659-.1411.0886-.1889q.0924-.1952.1943-.3855c.1068-.1991.2217-.394.3463-.5825.0611-.0926.1268-.1817.19-.2728.1679-.242-.27.3067.0135-.0107.1216-.1363.242-.2722.3739-.3989q.0867-.0834.1775-.1626c.0365-.0318.075-.0615.1111-.0938.1813-.1622-.1331.111-.1619.1232a8.4084,8.4084,0,0,0,.7845-.468c.15-.086-.4425.1639-.1657.07.0614-.0208.1215-.0455.1831-.066q.1811-.06.3673-.1026c.0978-.0221.4922-.08.11-.03-.3744.05-.0123.0047.0892-.0009.1561-.0085.309.0011.4646.0067.3086.0111-.5194-.0922-.2281-.03a1.5687,1.5687,0,0,0,.8339-3.0245Z"/><path d="M704.3439,235.2574c-.016.1339-.0883.5586-.0232.1979.0321-.1775.0651-.3545.104-.5307a14.4391,14.4391,0,0,1,.5489-1.8626c.0665-.1811.14-.3594.21-.5392.1021-.2631-.1332.29-.0111.0287.0551-.1177.1062-.2372.1616-.3548a14.58,14.58,0,0,1,.6894-1.2915q.1875-.3118.391-.6136.1128-.1672.23-.331c.056-.078.35-.4469.1093-.1538a15.2617,15.2617,0,0,1,1.1156-1.2416c.25-.2437.5106-.4732.7774-.6977.0512-.0431.1039-.0844.1558-.1265-.1167.0947-.1112.081.0044-.003.149-.1082.2977-.2166.45-.32a13.1947,13.1947,0,0,1,2.0524-1.13,1.5794,1.5794,0,0,0,.5627-2.1457,1.6071,1.6071,0,0,0-2.1457-.5627,15.0547,15.0547,0,0,0-8.2848,10.3289,12.1136,12.1136,0,0,0-.2343,1.3485,1.5712,1.5712,0,0,0,1.5682,1.5682,1.615,1.615,0,0,0,1.5683-1.5682Z"/><path d="M625.7822,257.3781c4.0905-.0026,8.1933-.26,12.2669-.6058a122.7866,122.7866,0,0,0,24.281-4.1817c1.9322-.5686,1.11-3.5965-.8338-3.0245a119.0745,119.0745,0,0,1-23.7853,4.0981c-3.9623.3289-7.9508.5748-11.9288.5773a1.5692,1.5692,0,0,0,0,3.1366Z"/><path d="M621.064,241.8374a52.1614,52.1614,0,0,0,18.8993-.86c1.965-.4583,1.1332-3.4834-.8338-3.0245a49.3328,49.3328,0,0,1-12.0031,1.1806c-1.3138-.0209-2.6275-.0832-3.9368-.1949-.3989-.034-.7974-.0722-1.1951-.1178-.2168-.0248-.8319-.1115-.0967-.0077a1.6214,1.6214,0,0,0-1.9291,1.0954,1.58,1.58,0,0,0,1.0953,1.9292Z"/><path d="M205.1013,579.01,55.1732,481.2565a10.4474,10.4474,0,0,1-3.1081-14.3606l1.1471-1.8025L237.0255,522.944Z"/><path d="M205.8928,577.6556l-4.4347-2.8914-11.9293-7.7779-17.58-11.4623-21.1319-13.778L127.8933,526.8l-22.6664-14.7784L84.8618,498.7433,68.5649,488.1177l-10.17-6.6311c-.7235-.4717-1.4486-.941-2.17-1.4151a9.0724,9.0724,0,0,1-4.2116-8.11c.12-2.344,1.3391-4.1681,2.5539-6.077l-1.7711.7208,4.9175,1.5476,13.3827,4.2119,19.793,6.2293,24.1482,7.6,26.4487,8.324,26.5785,8.365,24.8972,7.8358,21.0421,6.6224,15.1318,4.7624c2.3595.7426,4.7519,1.7092,7.1669,2.2556.1033.0233.2054.0646.3067.0965l-.9373-2.3038L224.8705,541.121l-17.1983,30.204-3.9251,6.8933a1.5694,1.5694,0,0,0,2.7083,1.5831l10.8008-18.9685,17.1984-30.204,3.925-6.8933a1.5885,1.5885,0,0,0-.9372-2.3038l-4.9176-1.5477-13.3827-4.2119-19.7929-6.2293-24.1482-7.6-26.4487-8.324-26.5785-8.365-24.8973-7.8357-21.042-6.6225-15.1319-4.7624c-2.3842-.75-4.7589-1.5833-7.1668-2.2556-.103-.0287-.2046-.0644-.3067-.0965a1.5974,1.5974,0,0,0-1.7711.7207,16.2217,16.2217,0,0,0-2.8854,6.68,12.0107,12.0107,0,0,0,2.3453,8.7836A14.6237,14.6237,0,0,0,55.1,483.0789l7.7489,5.0522,14.646,9.5493,19.53,12.7335,22.4007,14.6053,23.2583,15.1645,22.1028,14.411L183.7206,566.94l13.7052,8.9358c2.1968,1.4324,4.36,2.9487,6.6044,4.3061.095.0575.1865.1216.2795.1823C206.0056,581.47,207.5792,578.7551,205.8928,577.6556Z"/><polygon class="cls-8" points="209.405 569.446 53.28 465.01 92.432 413.779 241.329 513.381 209.405 569.446"/><path d="M210.1964,568.0922l-4.1646-2.7858-11.3353-7.5825-16.8547-11.2746-20.4774-13.698-22.4281-15.0028L112.295,502.603,91.088,488.417,73.2512,476.4855l-12.83-8.5823c-2.0037-1.34-3.9767-2.8977-6.0855-4.0708-.0915-.0509-.1768-.1183-.2641-.1766l.5626,2.1457,13.23-17.3119,21.0853-27.59,4.8365-6.3287-2.1457.5627,3.9841,2.665,10.8422,7.2527,16.0353,10.7265,19.5635,13.0866,21.3228,14.2635,21.6279,14.4675,20.169,13.4917,17.0452,11.402,12.2565,8.1987c1.91,1.2777,3.7914,2.7651,5.8026,3.8816.0858.0476.1657.1108.2475.1655l-.5626-2.1457-10.8008,18.9685-17.1984,30.204-3.9251,6.8933a1.57,1.57,0,0,0,2.7084,1.5831L221.56,551.2694l17.1983-30.204,3.9251-6.8933a1.6047,1.6047,0,0,0-.5626-2.1457l-3.9841-2.6651-10.8422-7.2526L211.259,491.3822l-19.5635-13.0866-21.3228-14.2635-21.6279-14.4676-20.169-13.4916-17.0452-11.4021-12.2565-8.1987c-1.9283-1.29-3.823-2.6707-5.8026-3.8815-.0845-.0517-.1652-.1105-.2475-.1656a1.6073,1.6073,0,0,0-2.1457.5626L77.848,430.3,56.7626,457.89l-4.8365,6.3286a1.59,1.59,0,0,0,.5626,2.1457l4.1646,2.7858,11.3353,7.5825L84.8433,488.007l20.4774,13.698,22.4281,15.0028L150.39,531.8533l21.207,14.186,17.8367,11.9315,12.83,8.5823c2.0227,1.3531,4.0106,2.798,6.0855,4.0708.09.0552.1762.1179.2641.1766C210.2957,571.926,211.8677,569.21,210.1964,568.0922Z"/><rect class="cls-1" x="139.7876" y="469.8738" width="14.4934" height="75.9455" transform="translate(-356.8294 347.6949) rotate(-56.2202)"/><path d="M175.3588,533.6286l-21.3463-14.2792L120.01,496.6042l-7.7758-5.2015.5626,2.1457,8.0584-12.0466-2.1457.5626,21.3463,14.2792,34.0023,22.7452,7.7758,5.2015-.5626-2.1458-8.0584,12.0467c-1.1254,1.6824,1.59,3.2544,2.7084,1.5831l8.0583-12.0467a1.5957,1.5957,0,0,0-.5626-2.1457l-21.3463-14.2792-34.0023-22.7451-7.7758-5.2015a1.5957,1.5957,0,0,0-2.1457.5626l-8.0584,12.0467a1.5957,1.5957,0,0,0,.5626,2.1457L131.9977,508.39,166,531.1354l7.7759,5.2015C175.4582,537.4623,177.03,534.7466,175.3588,533.6286Z"/><rect class="cls-1" x="91.9313" y="428.5873" width="7.5366" height="7.5366" transform="translate(-316.8753 271.5087) rotate(-56.2202)"/><path d="M97.5281,436.2287l-6.2643-4.19.5627,2.1458,4.19-6.2643-2.1457.5626,6.2643,4.19-.5627-2.1457-4.19,6.2642a1.5685,1.5685,0,1,0,2.7083,1.5831l4.19-6.2642a1.5959,1.5959,0,0,0-.5627-2.1458l-6.2642-4.19a1.5957,1.5957,0,0,0-2.1457.5626l-4.19,6.2643a1.5957,1.5957,0,0,0,.5626,2.1457l6.2643,4.19a1.5685,1.5685,0,1,0,1.5831-2.7083Z"/><rect class="cls-1" x="105.9054" y="437.935" width="7.5366" height="7.5366" transform="translate(-318.4404 287.2741) rotate(-56.2202)"/><path d="M111.5022,445.5764l-6.2643-4.19.5627,2.1457,4.19-6.2643-2.1457.5626,6.2643,4.19-.5627-2.1457-4.19,6.2642a1.5685,1.5685,0,1,0,2.7083,1.5831l4.19-6.2642a1.5958,1.5958,0,0,0-.5626-2.1458l-6.2643-4.19a1.5957,1.5957,0,0,0-2.1457.5626l-4.19,6.2643a1.5958,1.5958,0,0,0,.5627,2.1457l6.2642,4.19a1.5685,1.5685,0,1,0,1.5831-2.7083Z"/><rect class="cls-1" x="119.8795" y="447.2827" width="7.5366" height="7.5366" transform="translate(-320.0056 303.0395) rotate(-56.2202)"/><path d="M125.4763,454.9241l-6.2642-4.19.5626,2.1457,4.19-6.2643-2.1457.5626,6.2643,4.19-.5627-2.1457-4.19,6.2642a1.5685,1.5685,0,0,0,2.7083,1.5831l4.19-6.2642a1.5958,1.5958,0,0,0-.5626-2.1458l-6.2643-4.19a1.5957,1.5957,0,0,0-2.1457.5626l-4.19,6.2643a1.5958,1.5958,0,0,0,.5627,2.1457l6.2642,4.19a1.5685,1.5685,0,1,0,1.5831-2.7083Z"/><rect class="cls-1" x="133.8536" y="456.6304" width="7.5366" height="7.5366" transform="translate(-321.5708 318.8048) rotate(-56.2202)"/><path d="M139.45,464.2718l-6.2642-4.19.5626,2.1457,4.19-6.2643-2.1457.5626,6.2643,4.19-.5626-2.1457-4.19,6.2642a1.5685,1.5685,0,1,0,2.7083,1.5831l4.19-6.2642a1.5958,1.5958,0,0,0-.5626-2.1458l-6.2643-4.19a1.5957,1.5957,0,0,0-2.1457.5626l-4.19,6.2643a1.5956,1.5956,0,0,0,.5626,2.1457l6.2642,4.19a1.5685,1.5685,0,1,0,1.5831-2.7083Z"/><rect class="cls-1" x="147.8277" y="465.9781" width="7.5366" height="7.5366" transform="translate(-323.1359 334.5702) rotate(-56.2202)"/><path d="M153.4245,473.62l-6.2642-4.19.5626,2.1457,4.19-6.2643-2.1457.5626,6.2643,4.19-.5626-2.1457-4.19,6.2642a1.5686,1.5686,0,0,0,2.7084,1.5831l4.19-6.2642a1.5958,1.5958,0,0,0-.5626-2.1458l-6.2643-4.19a1.5957,1.5957,0,0,0-2.1457.5626l-4.19,6.2643a1.5956,1.5956,0,0,0,.5626,2.1457l6.2642,4.19a1.5685,1.5685,0,1,0,1.5831-2.7083Z"/><rect class="cls-1" x="161.8019" y="475.3258" width="7.5366" height="7.5366" transform="translate(-324.7011 350.3356) rotate(-56.2202)"/><path d="M167.3986,482.9672l-6.2642-4.19.5626,2.1457,4.19-6.2643-2.1458.5626,6.2643,4.19-.5626-2.1457-4.19,6.2642a1.5686,1.5686,0,0,0,2.7084,1.5831l4.19-6.2642a1.5957,1.5957,0,0,0-.5626-2.1457l-6.2643-4.19a1.5957,1.5957,0,0,0-2.1457.5626l-4.19,6.2643a1.5957,1.5957,0,0,0,.5626,2.1457l6.2643,4.19a1.5685,1.5685,0,1,0,1.583-2.7083Z"/><rect class="cls-1" x="175.776" y="484.6735" width="7.5366" height="7.5366" transform="translate(-326.2662 366.101) rotate(-56.2202)"/><path d="M181.3728,492.3149l-6.2643-4.19.5626,2.1457,4.19-6.2643-2.1457.5626,6.2642,4.19-.5626-2.1457-4.19,6.2642a1.5686,1.5686,0,0,0,2.7084,1.5831l4.19-6.2642a1.5957,1.5957,0,0,0-.5626-2.1457l-6.2643-4.19a1.5957,1.5957,0,0,0-2.1457.5626l-4.19,6.2643a1.5957,1.5957,0,0,0,.5626,2.1457l6.2643,4.19a1.5685,1.5685,0,1,0,1.5831-2.7083Z"/><rect class="cls-1" x="189.7501" y="494.0212" width="7.5366" height="7.5366" transform="translate(-327.8314 381.8663) rotate(-56.2202)"/><path d="M195.3469,501.6626l-6.2643-4.19.5626,2.1457,4.19-6.2643-2.1457.5626,6.2642,4.19-.5626-2.1457-4.19,6.2642a1.5686,1.5686,0,1,0,2.7084,1.5831l4.19-6.2642a1.5957,1.5957,0,0,0-.5626-2.1457l-6.2642-4.19a1.5958,1.5958,0,0,0-2.1458.5626l-4.19,6.2643a1.5957,1.5957,0,0,0,.5626,2.1457l6.2643,4.19a1.5686,1.5686,0,0,0,1.5831-2.7084Z"/><rect class="cls-1" x="203.7242" y="503.3689" width="7.5366" height="7.5366" transform="translate(-329.3965 397.6317) rotate(-56.2202)"/><path d="M209.321,511.01l-6.2643-4.19.5626,2.1457,4.19-6.2643-2.1457.5626,6.2642,4.19-.5626-2.1457-4.19,6.2642a1.5685,1.5685,0,1,0,2.7083,1.5831l4.19-6.2642a1.5956,1.5956,0,0,0-.5626-2.1457l-6.2642-4.19a1.5957,1.5957,0,0,0-2.1457.5626l-4.19,6.2643a1.5957,1.5957,0,0,0,.5626,2.1457l6.2643,4.19a1.5686,1.5686,0,0,0,1.5831-2.7084Z"/><rect class="cls-1" x="217.6983" y="512.7166" width="7.5366" height="7.5366" transform="translate(-330.9617 413.3971) rotate(-56.2202)"/><path d="M223.2951,520.358l-6.2643-4.19.5627,2.1457,4.19-6.2643-2.1457.5626,6.2642,4.19-.5626-2.1457-4.19,6.2642a1.5685,1.5685,0,1,0,2.7083,1.5831l4.19-6.2642a1.5957,1.5957,0,0,0-.5627-2.1457l-6.2642-4.19a1.5957,1.5957,0,0,0-2.1457.5626l-4.19,6.2643a1.5957,1.5957,0,0,0,.5626,2.1457l6.2643,4.19a1.5686,1.5686,0,0,0,1.5831-2.7084Z"/><polygon class="cls-1" points="91.371 475.843 71.132 462.304 84.026 443.03 90.29 447.22 83.843 456.858 97.817 466.205 91.371 475.843"/><path d="M92.1621,474.4884,74.4545,462.6432,71.9238,460.95l.5626,2.1457,11.2768-16.858,1.6166-2.4166-2.1457.5626,6.2642,4.19-.5626-2.1458L82.489,456.066a1.5957,1.5957,0,0,0,.5626,2.1457l13.9741,9.3477-.5626-2.1457-6.4467,9.6373c-1.1254,1.6824,1.59,3.2544,2.7084,1.5831l6.4466-9.6374a1.5956,1.5956,0,0,0-.5626-2.1457l-13.9741-9.3477.5626,2.1457,6.4467-9.6373a1.5957,1.5957,0,0,0-.5626-2.1457l-6.2643-4.19a1.5957,1.5957,0,0,0-2.1457.5626l-11.2768,16.858-1.6166,2.4166a1.5957,1.5957,0,0,0,.5627,2.1457l17.7076,11.8452,2.5307,1.6929C92.2615,478.3221,93.8335,475.6064,92.1621,474.4884Z"/><rect class="cls-1" x="97.5247" y="450.4635" width="7.5366" height="7.5366" transform="translate(-332.5749 285.8708) rotate(-56.2202)"/><path d="M103.1215,458.1049l-6.2643-4.19L97.42,456.06l4.19-6.2643-2.1457.5626,6.2643,4.19-.5627-2.1457-4.19,6.2642a1.5685,1.5685,0,1,0,2.7083,1.5831l4.19-6.2642a1.5957,1.5957,0,0,0-.5626-2.1457l-6.2643-4.19a1.5957,1.5957,0,0,0-2.1457.5626l-4.19,6.2643a1.5957,1.5957,0,0,0,.5627,2.1457l6.2642,4.19a1.5686,1.5686,0,0,0,1.5831-2.7084Z"/><rect class="cls-1" x="111.4988" y="459.8112" width="7.5366" height="7.5366" transform="translate(-334.1401 301.6362) rotate(-56.2202)"/><path d="M117.0956,467.4526l-6.2642-4.19.5626,2.1457,4.19-6.2643-2.1457.5626,6.2643,4.19-.5627-2.1457-4.19,6.2642a1.5685,1.5685,0,1,0,2.7083,1.5831l4.19-6.2642a1.5957,1.5957,0,0,0-.5626-2.1457l-6.2643-4.19a1.5957,1.5957,0,0,0-2.1457.5626l-4.19,6.2643a1.5957,1.5957,0,0,0,.5627,2.1457l6.2642,4.19a1.5686,1.5686,0,0,0,1.5831-2.7084Z"/><rect class="cls-1" x="100.8618" y="475.7128" width="7.5366" height="7.5366" transform="translate(-352.08 299.8552) rotate(-56.2202)"/><path d="M106.4586,483.3542l-6.2643-4.19.5626,2.1458,4.19-6.2643-2.1457.5626,6.2642,4.19-.5626-2.1457-4.19,6.2642a1.5685,1.5685,0,0,0,2.7083,1.5831l4.19-6.2643a1.5956,1.5956,0,0,0-.5626-2.1457l-6.2642-4.19a1.5957,1.5957,0,0,0-2.1457.5626l-4.19,6.2643a1.5957,1.5957,0,0,0,.5626,2.1457l6.2643,4.19a1.5685,1.5685,0,1,0,1.5831-2.7083Z"/><rect class="cls-1" x="125.4729" y="469.1589" width="7.5366" height="7.5366" transform="translate(-335.7052 317.4016) rotate(-56.2202)"/><path d="M131.07,476.8l-6.2642-4.19.5626,2.1457,4.19-6.2643-2.1457.5626,6.2643,4.19-.5626-2.1457-4.19,6.2642a1.5685,1.5685,0,1,0,2.7083,1.5831l4.19-6.2642a1.5957,1.5957,0,0,0-.5626-2.1457l-6.2643-4.19a1.5957,1.5957,0,0,0-2.1457.5626l-4.19,6.2643a1.5956,1.5956,0,0,0,.5626,2.1457l6.2642,4.19A1.5686,1.5686,0,0,0,131.07,476.8Z"/><rect class="cls-1" x="139.447" y="478.5066" width="7.5366" height="7.5366" transform="translate(-337.2704 333.167) rotate(-56.2202)"/><path d="M145.0438,486.148l-6.2642-4.19.5626,2.1457,4.19-6.2643-2.1458.5627,6.2643,4.19-.5626-2.1457-4.19,6.2642a1.5686,1.5686,0,1,0,2.7084,1.5831l4.19-6.2642a1.5957,1.5957,0,0,0-.5626-2.1457l-6.2643-4.19a1.5957,1.5957,0,0,0-2.1457.5626l-4.19,6.2643a1.5957,1.5957,0,0,0,.5626,2.1457l6.2642,4.19a1.5686,1.5686,0,1,0,1.5831-2.7084Z"/><rect class="cls-1" x="153.4212" y="487.8543" width="7.5366" height="7.5366" transform="matrix(0.556, -0.8312, 0.8312, 0.556, -338.8355, 348.9324)"/><path d="M159.0179,495.4957l-6.2642-4.19.5626,2.1457,4.19-6.2643-2.1458.5627,6.2643,4.19-.5626-2.1457-4.19,6.2642a1.5686,1.5686,0,1,0,2.7084,1.5831l4.19-6.2642a1.5957,1.5957,0,0,0-.5626-2.1457l-6.2643-4.19a1.5957,1.5957,0,0,0-2.1457.5626l-4.19,6.2643a1.5957,1.5957,0,0,0,.5626,2.1457l6.2643,4.19a1.5685,1.5685,0,1,0,1.583-2.7084Z"/><rect class="cls-1" x="167.3953" y="497.202" width="7.5366" height="7.5366" transform="translate(-340.4007 364.6977) rotate(-56.2202)"/><path d="M172.9921,504.8434l-6.2643-4.19.5626,2.1457,4.19-6.2643-2.1457.5627,6.2642,4.19-.5626-2.1457-4.19,6.2642a1.5686,1.5686,0,1,0,2.7084,1.5831l4.19-6.2642a1.5957,1.5957,0,0,0-.5626-2.1457l-6.2643-4.19a1.5957,1.5957,0,0,0-2.1457.5626l-4.19,6.2643a1.5957,1.5957,0,0,0,.5626,2.1457l6.2643,4.19a1.5686,1.5686,0,0,0,1.5831-2.7084Z"/><rect class="cls-1" x="181.3694" y="506.5497" width="7.5366" height="7.5366" transform="translate(-341.9658 380.4631) rotate(-56.2202)"/><path d="M186.9662,514.1911l-6.2643-4.19.5626,2.1457,4.19-6.2643-2.1457.5627,6.2642,4.19-.5626-2.1457-4.19,6.2642a1.5685,1.5685,0,1,0,2.7083,1.5831l4.19-6.2642a1.5956,1.5956,0,0,0-.5626-2.1457l-6.2642-4.19a1.5958,1.5958,0,0,0-2.1458.5626l-4.19,6.2643a1.5957,1.5957,0,0,0,.5626,2.1457l6.2643,4.19a1.5686,1.5686,0,0,0,1.5831-2.7084Z"/><rect class="cls-1" x="195.3435" y="515.8974" width="7.5366" height="7.5366" transform="translate(-343.531 396.2285) rotate(-56.2202)"/><path d="M200.94,523.5388l-6.2643-4.19.5626,2.1457,4.19-6.2643-2.1457.5627,6.2642,4.19-.5626-2.1457-4.19,6.2643a1.5685,1.5685,0,1,0,2.7083,1.583l4.19-6.2642a1.5956,1.5956,0,0,0-.5626-2.1457l-6.2642-4.19a1.5957,1.5957,0,0,0-2.1457.5626l-4.19,6.2643a1.5957,1.5957,0,0,0,.5626,2.1457l6.2643,4.19a1.5686,1.5686,0,0,0,1.5831-2.7084Z"/><rect class="cls-1" x="209.3176" y="525.2451" width="7.5366" height="7.5366" transform="translate(-345.0962 411.9939) rotate(-56.2202)"/><path d="M214.9144,532.8865l-6.2643-4.19.5627,2.1457,4.19-6.2643-2.1457.5627,6.2642,4.19-.5626-2.1457-4.19,6.2643a1.5685,1.5685,0,1,0,2.7083,1.583l4.19-6.2642a1.5957,1.5957,0,0,0-.5627-2.1457l-6.2642-4.19a1.5957,1.5957,0,0,0-2.1457.5626l-4.19,6.2643a1.5957,1.5957,0,0,0,.5626,2.1457l6.2643,4.19a1.5686,1.5686,0,0,0,1.5831-2.7084Z"/><rect class="cls-1" x="193.7838" y="529.8091" width="7.5366" height="20.8705" transform="matrix(0.556, -0.8312, 0.8312, 0.556, -361.3281, 404.069)"/><path d="M204.922,547.8244,189.7712,537.69l-2.1964-1.4693.5627,2.1457,4.19-6.2642-2.1457.5626,15.1508,10.1348,2.1964,1.4693-.5627-2.1458-4.19,6.2643c-1.1254,1.6824,1.59,3.2544,2.7083,1.5831l4.19-6.2643a1.5957,1.5957,0,0,0-.5626-2.1457l-15.1508-10.1348-2.1964-1.4692a1.5957,1.5957,0,0,0-2.1457.5626l-4.19,6.2643a1.5958,1.5958,0,0,0,.5627,2.1457l15.1507,10.1348,2.1964,1.4692C205.0214,551.6581,206.5934,548.9424,204.922,547.8244Z"/><rect class="cls-6" x="523.2699" y="479.2736" width="82.4846" height="20.6212" rx="10.3106" transform="translate(49.4669 -51.7984) rotate(5.494)"/><path class="cls-4" d="M629.1177,449.9207l-47.5584-1.0739a24.5273,24.5273,0,0,0-22.034,13.005l-9.7379,18.3052a23.11,23.11,0,0,0,2.87,25.9091s4.4584,6.1566,11.631,1.6737c8.0691,2.69,8.9657,2.69,13,0,4.0346,3.5863,11.6554,2.69,13.8969,1.3449,3.138,3.5863,7.9467,5.014,11.8183,1.1621l2.8018-9.4933A14.7535,14.7535,0,0,1,622.6269,490.42h0"/><path d="M629.1177,448.3524l-18.8231-.425-26.144-.59a33.31,33.31,0,0,0-10.2489.9729,26.4049,26.4049,0,0,0-15.7679,12.8206c-3.3832,6.2772-6.92,12.5255-10.0554,18.93a24.948,24.948,0,0,0,.3078,22.5077c2.2581,4.2883,6.0407,8.8029,11.4386,8.3463a12.1305,12.1305,0,0,0,5.2548-1.82l-1.2084.1581c2.6872.8936,5.6423,2.1226,8.5291,2.0718a10.6714,10.6714,0,0,0,5.68-2.23l-1.9-.2452a13.5853,13.5853,0,0,0,8.5713,2.9769,14.1321,14.1321,0,0,0,7.226-1.3869l-1.9005-.2452c2.5783,2.8576,6.5345,4.8117,10.39,3.4841,1.466-.5048,3.4852-1.5687,4.07-3.0828.2579-.6681.4122-1.3965.6147-2.0829,1.4033-4.7547,2.2624-10.1156,6.1619-13.5457a13.1867,13.1867,0,0,1,10.8972-3.0338c1.9733.3633,2.8194-2.659.8338-3.0245a16.4645,16.4645,0,0,0-17.772,8.9054c-1.761,3.7194-2.3548,7.9238-3.7137,11.79a1.3555,1.3555,0,0,1-.0644.2185c.432-.7523-.8223.3083-1.062.4459a5.1422,5.1422,0,0,1-2.7656.6981,7.9346,7.9346,0,0,1-5.3719-2.99,1.59,1.59,0,0,0-1.9005-.2452,11.0884,11.0884,0,0,1-5.3265.9652,10.43,10.43,0,0,1-6.67-2.0648,1.611,1.611,0,0,0-1.9-.2453c-1.99,1.32-3.4552,2.1051-5.8174,1.6175-1.8847-.389-3.6761-1.0819-5.5168-1.6234-1.266-.3723-1.8475.2018-2.9557.7131a7.3746,7.3746,0,0,1-2.6869.7052,7.0764,7.0764,0,0,1-5.4954-2.5234c-.4646-.4757.2544.3114-.1361-.1587a24.5256,24.5256,0,0,1-1.836-2.481,21.5538,21.5538,0,0,1-2.5045-5.464c-1.7818-6.0072-.69-11.93,2.2-17.3626l6.5721-12.354c2.0939-3.9361,3.9826-7.9024,7.32-10.9863a23.2492,23.2492,0,0,1,16.3231-6.0438c7.7919.1608,15.5833.3519,23.3749.5278,7.7767.1756,15.57.52,23.3493.5273.1432,0,.2867.0065.43.01,2.0191.0456,2.0186-3.091,0-3.1366Z"/><line class="cls-9" x1="523.2699" y1="485.9979" x2="282.9886" y2="665.3123"/><line class="cls-9" x1="452.889" y1="480.6185" x2="222.47" y2="652.7603"/><path class="cls-1" d="M412.3191,568.7067,251.2648,689.114a42.85,42.85,0,0,1-53.24-1.5269L57.5488,569.43l-3.4168.0837a21.4345,21.4345,0,0,1-21.9594-21.4281h0l356.8357-76.657.07.05a11.3909,11.3909,0,0,1,3.4216,14.519h0Z"/><path d="M411.5276,567.3525l-18.1753,13.5882-42.4558,31.7408L301.218,649.8221l-38.8711,29.0607-10.1092,7.5579c-5.8243,4.3544-12.1089,7.6782-19.3546,8.9972a41.6985,41.6985,0,0,1-34.0645-9.2245q-3.6977-3.1-7.3855-6.2121l-35.83-30.1373-47.219-39.7168-38.4726-32.36-9.83-8.2684c-.4678-.3934-.9219-.843-1.4219-1.196-1.427-1.0072-3.8939-.3384-5.5843-.377a19.8586,19.8586,0,0,1-19.3345-19.86L32.59,549.5978,42.17,547.54l25.9514-5.575,38.3527-8.239,46.9621-10.0886,51.2574-11.0114,51.7377-11.1145,48.41-10.3995,40.7573-8.7557,29.3165-6.2979c4.6075-.99,9.3847-1.7127,13.9235-2.9911.1912-.0538.3921-.0842.5866-.126l-1.2085-.1581a9.8954,9.8954,0,0,1,4.0139,8.13,12.9191,12.9191,0,0,1-1.0852,4.2931,2.4045,2.4045,0,0,0-.1394,1.2866c.1555,1.1345.5473,2.284.8137,3.3958l4.3848,18.298,11.7345,48.9689,2.8679,11.9679c.47,1.9621,3.4954,1.1313,3.0245-.8338l-6.689-27.9136-10.67-44.5269-2.4606-10.2683-.1581,1.2085a13.0832,13.0832,0,0,0-3.3911-16.2124,2.5066,2.5066,0,0,0-2.3442-.5591c-1.5831.3139-3.1579.6784-4.7358,1.0173l-22.861,4.9111-36.93,7.9336L276.86,493.9189l-52.3995,11.2567-53.558,11.5056-50.19,10.7821-42.69,9.1709-30.9537,6.65c-4.8931,1.0512-9.821,2.0022-14.6912,3.156-.206.0488-.4143.089-.6213.1335a1.5854,1.5854,0,0,0-1.1514,1.5123,23.172,23.172,0,0,0,9.29,18.4559c5.3183,3.9732,11.2452,4.6138,17.6543,4.4568l-1.109-.4593,17.3059,14.5563,39.92,33.5779,44.9212,37.7842,32.3714,27.2283c1.9535,1.6431,3.9,3.2956,5.8608,4.93a45.0143,45.0143,0,0,0,35.5125,10.0769,46.5336,46.5336,0,0,0,21.0286-9.1991l8.7766-6.5615,35.74-26.72,47.1367-35.24,43.2736-32.3521,23.7238-17.7365,1.1-.8219C414.7085,568.8663,413.1466,566.1421,411.5276,567.3525Z"/><circle cx="182.6775" cy="732.9897" r="39.8079"/><path d="M220.9171,732.99a38.1284,38.1284,0,1,1-.4544-5.9726,38.6007,38.6007,0,0,1,.4544,5.9726,1.5692,1.5692,0,0,0,3.1365,0,41.4222,41.4222,0,1,0-.5134,6.4686,44.103,44.103,0,0,0,.5134-6.4686A1.5692,1.5692,0,0,0,220.9171,732.99Z"/><circle class="cls-1" cx="182.6775" cy="732.9897" r="17.3338"/><path d="M198.443,732.99a15.7646,15.7646,0,1,1-12.7717-15.486A15.9158,15.9158,0,0,1,198.443,732.99a1.5692,1.5692,0,0,0,3.1365,0,18.9047,18.9047,0,1,0-15.24,18.542,19.1482,19.1482,0,0,0,15.24-18.542A1.5692,1.5692,0,0,0,198.443,732.99Z"/><circle cx="182.6775" cy="732.9897" r="5.8576"/><path d="M186.9668,732.99a4.2994,4.2994,0,0,1-.8624,2.5935c-.2712.3951.1016-.1085-.0837.1035-.0837.0958-.1678.1906-.2567.2818q-.1062.1091-.2183.2127c-.0071.0066-.3869.3306-.1512.1454a5.013,5.013,0,0,1-.6409.4177c-.09.05-.1821.0942-.2719.1437q-.2547.1159-.0485.0309-.1082.0438-.2183.0816a6.8023,6.8023,0,0,1-.7546.211c-.0638.0133-.3989.0651-.1339.032-.1338.0167-.2689.0244-.4035.03a5.9316,5.9316,0,0,1-.8141-.0222c-.2914-.0281.3448.0856-.1367-.0236-.1543-.0349-.3074-.0663-.46-.1088-.1508-.042-.2974-.0935-.4453-.1442-.0394-.0135-.2717-.12-.0544-.02a5.84,5.84,0,0,1-.6742-.3676c-.1077-.0681-.2137-.1393-.3159-.2154-.221-.1646.2373.24-.1-.0883a9.0593,9.0593,0,0,1-.6378-.6546c.1513.18-.0106-.0112-.0341-.0455-.0867-.1265-.1721-.2529-.2508-.3846q-.0786-.1317-.1506-.2677c-.0051-.01-.2187-.4649-.1009-.1855a5.1133,5.1133,0,0,1-.24-.7421c-.0257-.1022-.0453-.2055-.0686-.3083q-.0468-.2849-.0158-.0564-.0138-.12-.021-.2413a5.92,5.92,0,0,1-.0056-.7344c.0007-.0128.0657-.5309.0143-.2222.0173-.1041.0374-.2082.06-.3113a6.8715,6.8715,0,0,1,.2208-.75c.1511-.4386-.1364.2107.0865-.1934.0743-.1347.1416-.2724.2207-.4047.0656-.11.1365-.2154.2074-.3217.0354-.0531.2408-.3025.0775-.1085a6.1249,6.1249,0,0,1,.5246-.5525c-.0264.0244.35-.3015.19-.1733s.2387-.1678.21-.1489a5.8459,5.8459,0,0,1,.8025-.4511c-.0637.0294-.242.0818.0544-.02.1479-.0508.2946-.102.4453-.1442.101-.0283.203-.0537.3052-.0766-.0346.0077.4724-.084.2613-.0543s.31-.0225.2722-.02c.1362-.0075.2724-.01.4088-.0078s.2707.0117.4064.0189c.3533.0187-.0958-.0431.2169.0313.3075.0732.6065.15.9055.2531.4587.1579-.1311-.071.1239.0532.1614.0787.32.1618.4742.254.0875.0523.174.1071.2587.1639s.1678.1158.2494.1769q-.1764-.1315.0379.0432c.1829.1773.3614.3559.5387.5387.3187.3287-.1262-.2164.1333.1615.0868.1264.172.2528.2508.3846s.1459.27.2206.4047c.1512.2721-.0242-.1287.0866.1934.1031.3.18.597.253.9055.01.04.0468.3041.0159.0564a5.9093,5.9093,0,0,1,.0355.6489c.0277,2.0166,3.1643,2.0224,3.1366,0a7.5424,7.5424,0,0,0-4.9088-6.9816,7.43,7.43,0,0,0-8.1759,2.1839,7.4216,7.4216,0,1,0,13.0847,4.7977C190.1311,730.9706,186.9945,730.97,186.9668,732.99Z"/><path d="M131.78,633.7983l5.5065,12.9894,12.5,29.4882,13.4252,31.6691,8.4329,19.8929a16.1229,16.1229,0,0,0,5.8743,7.6892,14.2333,14.2333,0,0,0,16.2162-.6259c3.8642-2.9,7.7076-5.8285,11.5613-8.7427L229.1907,708.09l28.4152-21.4876,24.879-18.8134,13.334-10.0832.6184-.4676-1.9-.2452L317.5529,678.5c7.61,7.1111,15.17,14.281,22.8327,21.3354a23.1179,23.1179,0,0,0,15.8565,6.1833c5.3361-.0576,9.9123-2.0881,14.2213-5.0709a23.1418,23.1418,0,0,0,8.9593-26.4071c-3.4321-10.2343-6.9742-20.4332-10.461-30.649L357.61,610.6339l-.2024-.5929-.7207,1.7711L381.8,593.4154l3.5738-2.6181c1.6118-1.1807.0487-3.9037-1.583-2.7083l-25.1131,18.3967-3.5739,2.618a1.6167,1.6167,0,0,0-.7207,1.7711l9.4106,27.5714,12.049,35.3016c.4189,1.2271.8624,2.4477,1.1621,3.711a19.8247,19.8247,0,0,1-2.8476,15.4923,24.469,24.469,0,0,1-10.83,8.532,19.84,19.84,0,0,1-16.136-.6777c-3.6817-1.8652-6.6067-5.0739-9.5936-7.8649l-14.5372-13.5839L297.23,655.22l-.4756-.4444a1.5892,1.5892,0,0,0-1.9005-.2452l-9.2066,6.962-22.5511,17.0531-27.9709,21.1516L209.34,719.1958l-15.6526,11.8364a17.4846,17.4846,0,0,1-5.1028,3.0971,11.1727,11.1727,0,0,1-13.6712-6.5538c-2.1978-5.1323-4.3582-10.2809-6.5372-15.4211l-12.7485-30.0728-13.1186-30.9462L134.8511,633.07l-.3625-.855a1.5794,1.5794,0,0,0-2.1457-.5626,1.6082,1.6082,0,0,0-.5626,2.1457Z"/><path d="M57.9327,570.8473l8.9684-2.2261,24.4068-6.0582,36.0972-8.96,44.04-10.9314,48.2344-11.9726L268.36,518.6156,313.6,507.3865l38.3605-9.5218,27.5761-6.8448c4.3394-1.0771,8.7126-2.066,13.0287-3.234.1878-.0508.378-.0938.5668-.1406,1.958-.4861,1.1286-3.5117-.8338-3.0246l-8.9685,2.2261-24.4068,6.0582-36.0972,8.96-44.04,10.9315-48.2344,11.9725L181.87,536.8524l-45.2393,11.2292-38.36,9.5217-27.5761,6.8449c-4.3394,1.0771-8.7126,2.0659-13.0287,3.2339-.1877.0508-.3779.0938-.5668.1407-1.958.486-1.1286,3.5116.8339,3.0245Z"/><line class="cls-2" x1="358.2864" y1="457.4426" x2="378.3697" y2="455.5299"/><path d="M358.2864,459.0109l17.5561-1.672,2.5272-.2407a1.6115,1.6115,0,0,0,1.5683-1.5683,1.58,1.58,0,0,0-1.5683-1.5683l-17.5561,1.672-2.5272.2407a1.6115,1.6115,0,0,0-1.5683,1.5683,1.58,1.58,0,0,0,1.5683,1.5683Z"/><line class="cls-2" x1="358.2864" y1="465.5716" x2="378.3697" y2="463.6589"/><path d="M358.2864,467.14l17.5561-1.672,2.5272-.2406a1.6116,1.6116,0,0,0,1.5683-1.5683,1.58,1.58,0,0,0-1.5683-1.5683l-17.5561,1.672-2.5272.2407a1.6115,1.6115,0,0,0-1.5683,1.5683,1.58,1.58,0,0,0,1.5683,1.5682Z"/><polygon class="cls-2" points="306.166 425.405 299.471 425.883 299.471 416.798 306.166 416.32 306.166 425.405"/><path d="M306.1656,423.8368l-6.6944.4781,1.5683,1.5683v-9.0853l-1.5683,1.5683,6.6944-.4782-1.5683-1.5682v9.0852a1.5683,1.5683,0,0,0,3.1366,0V416.32a1.5812,1.5812,0,0,0-1.5683-1.5683l-6.6944.4782a1.6,1.6,0,0,0-1.5683,1.5682v9.0853a1.5813,1.5813,0,0,0,1.5683,1.5683l6.6944-.4782a1.5683,1.5683,0,1,0,0-3.1365Z"/><path d="M351.977,436.9838a69.8147,69.8147,0,0,1,8.1106-12.1656c6.4679-8.0023,14.4723-15.0418,24.0056-19.1242a44.1031,44.1031,0,0,1,17.2974-3.5794c7.7871-.0035,14.8766,2.312,22.0571,5.0983,8.2034,3.1833,16.4676,6.285,24.9153,8.7655a74.78,74.78,0,0,0,16.6545,3.3114,24.9827,24.9827,0,0,0,11.3957-1.7541,25.6425,25.6425,0,0,0,8.2541-6.09c.6615-.6965,1.2983-1.4156,1.922-2.1459,1.3042-1.527-.9043-3.7558-2.2179-2.2179a29.0564,29.0564,0,0,1-7.7168,6.85,19.6409,19.6409,0,0,1-9.738,2.2793,58.9637,58.9637,0,0,1-15.3848-2.5927c-8.0673-2.2181-15.9487-5.1087-23.7607-8.0873-4.2978-1.6387-8.5371-3.493-12.9828-4.7046a52.4874,52.4874,0,0,0-10.4677-1.7561,46.6148,46.6148,0,0,0-18.56,2.6238c-10.1864,3.6411-18.9273,10.5091-25.9709,18.6152a74.22,74.22,0,0,0-10.3875,14.8344c-.0434.0861-.09.1707-.1331.2569-.9051,1.7984,1.8,3.3884,2.7084,1.5831Z"/><path class="cls-2" d="M504.9262,378.4728a18.41,18.41,0,1,1,16.35,32.99c-9.11,4.515-27.1561,10.2522-35.381-3.0113C477.9214,395.5925,495.8163,382.9878,504.9262,378.4728Z"/><path d="M505.7178,379.8269a16.8464,16.8464,0,0,1,23.0946,21.2259,17.2219,17.2219,0,0,1-8.843,9.3076c-6.55,3.1613-14.5226,5.7235-21.8592,4.4539a15.5859,15.5859,0,0,1-9.9072-5.7579,11.5817,11.5817,0,0,1-2.0107-11.2369c1.516-4.3306,4.9857-7.8717,8.4231-10.7663a56.193,56.193,0,0,1,11.1024-7.2263c1.8065-.9009.22-3.6074-1.5831-2.7083a59.9911,59.9911,0,0,0-11.2391,7.3029c-3.61,2.9605-7.0813,6.54-9.0293,10.8433a14.5469,14.5469,0,0,0,.1745,13.1084,18.3618,18.3618,0,0,0,10.5728,8.8158c8.4288,2.7164,17.98-.0327,25.7447-3.5609a21.0824,21.0824,0,0,0,10.5267-9.5606,19.98,19.98,0,0,0-26.75-26.9489C502.3182,377.9976,503.9069,380.7033,505.7178,379.8269Z"/><path class="cls-1" d="M483.9958,403.2555a12.8456,12.8456,0,0,0,1.9,5.1958,17.42,17.42,0,0,0,3.3262,3.9552l16.0409-7.95a5.26,5.26,0,0,0,2.3771-7.0486h0a5.26,5.26,0,0,0-7.0486-2.3771Z"/><path d="M482.4835,403.6725a16.769,16.769,0,0,0,5.6292,9.8429,1.6342,1.6342,0,0,0,1.9.2452l8.2315-4.08,5.5363-2.7439a26.4626,26.4626,0,0,0,2.8461-1.4563,6.8294,6.8294,0,0,0-5.2211-12.3936,15.534,15.534,0,0,0-3.3867,1.4716l-5.1518,2.5533-9.6633,4.7893c-1.8086.8964-.2214,3.6027,1.5831,2.7083l16.1525-8.0054a3.8611,3.8611,0,0,1,4.43.3662,3.7442,3.7442,0,0,1-.9,6.1325c-2.4269,1.2822-4.927,2.4419-7.3861,3.6607l-8.6531,4.2886,1.9005.2452a14.11,14.11,0,0,1-4.8225-8.4589,1.58,1.58,0,0,0-1.9292-1.0953A1.6077,1.6077,0,0,0,482.4835,403.6725Z"/><path d="M173.1567,518.2994a118.341,118.341,0,0,0,12.6014,19.9987c8.9948,11.8182,20.2543,22.8533,34.389,28.1662a45.258,45.258,0,0,0,45.1871-8.1113c11.2408-9.6928,16.9155-24.0067,21.7385-37.6481,2.1017-5.9441,4.01-12.009,6.6653-17.7351a37.9738,37.9738,0,0,1,3.9-6.7954,14.9774,14.9774,0,0,1,4.4287-4.0291c.227-.1262.4584-.2426.6919-.3561a1.72,1.72,0,0,1,.4055-.1766,12.3614,12.3614,0,0,1,1.5018-.4634c1.9613-.4733,1.1308-3.4987-.8338-3.0246-4.6542,1.1231-7.9966,4.75-10.4027,8.7023-3.0528,5.0152-5.0239,10.6781-6.9747,16.1873-4.6617,13.1652-8.9748,27.1267-18.2052,37.9412-10.1189,11.8556-26.1408,17.8122-41.4925,14.2409-14.5285-3.38-26.3723-13.87-35.6195-25.1115a142.223,142.223,0,0,1-15.08-22.9782c-.0689-.1274-.13-.26-.193-.39-.8757-1.8179-3.5813-.229-2.7083,1.5831Z"/><polygon points="142.108 446.985 153.413 448.994 162.141 418.341 175.685 440.092 186.833 442.144 205.189 354.359 194.082 352.597 121.892 402.193 144.236 406.195 122.412 433.624 142.108 446.985"/><path d="M141.6908,448.4969l11.3055,2.01a1.6075,1.6075,0,0,0,1.9292-1.0954l7.6579-26.8949,1.07-3.7587-2.8664.3746L169,432.3224l4.58,7.356c.246.3951.4686.8333.75,1.2049.698.9206,1.95.9071,3.0077,1.1019l9.0781,1.6712a1.5949,1.5949,0,0,0,1.9291-1.0953l1.8184-8.6962,4.3939-21.013,5.2927-25.3121,4.5794-21.9c.7458-3.5669,1.5841-7.1281,2.24-10.7129.0092-.05.021-.1006.0315-.1508a1.5858,1.5858,0,0,0-1.0954-1.9292L195.09,351.179c-1.5532-.2464-2.1355.2951-3.3267,1.1135l-14.7975,10.1662-22.9573,15.772-21.7052,14.9118c-3.6782,2.5271-7.4063,4.9952-11.0408,7.5852-.0532.038-.1078.0741-.1617.1111-1,.6873-1.0633,2.6089.3746,2.8665L140.9894,407.2l2.83.5068-.692-2.6212-19.1113,24.02-2.7128,3.41a1.6015,1.6015,0,0,0,.3174,2.4632l17.2494,11.701,2.4465,1.6595c1.6748,1.1362,3.246-1.58,1.5831-2.7083L125.65,433.93l-2.4465-1.66.3174,2.4631,19.1114-24.02,2.7128-3.4095c.655-.8233.5941-2.3909-.692-2.6213l-19.5139-3.495-2.83-.5069.3746,2.8665,7.1555-4.916,17.2908-11.879,20.822-14.3051L185.96,360.0755l5.9676-4.1a20.68,20.68,0,0,0,2.816-1.9347.9531.9531,0,0,1,.13-.0894l-1.2085.1581,11.1071,1.7615-1.0953-1.9292-1.8184,8.6962-4.3939,21.013-5.2927,25.3121-4.5794,21.9-1.5242,7.2895a23.359,23.359,0,0,0-.7159,3.4234,1.0212,1.0212,0,0,1-.0315.1508l1.9292-1.0954L176.1017,438.58l.9373.7207-11.8545-19.0384-1.689-2.7125a1.5878,1.5878,0,0,0-2.8664.3747l-7.6579,26.8948-1.07,3.7588,1.9292-1.0954-11.3056-2.01C140.5508,445.1215,139.7036,448.1436,141.6908,448.4969Z"/><polygon class="cls-2" points="153.256 449.037 173.29 420.393 186.833 442.144 205.231 354.65 133.041 404.245 155.384 408.247 133.56 435.677 153.256 449.037"/><path d="M154.61,449.8287l17.571-25.1228,2.4627-3.521h-2.7084L183.79,440.2232l1.689,2.7125a1.5871,1.5871,0,0,0,2.8664-.3746l1.8351-8.7272,4.38-20.8326,5.324-25.32,4.5833-21.7974c.7467-3.5514,1.5843-7.097,2.2427-10.6661.0094-.0507.0213-.101.0319-.1514.2584-1.2289-1.0957-2.601-2.3039-1.771l-7.1555,4.916-17.2908,11.879-20.822,14.3051L141.163,396.7675c-2.9259,2.01-5.8962,3.9689-8.7835,6.0344-.0428.0306-.0868.06-.13.0894-1,.6873-1.0634,2.6089.3746,2.8664l19.5139,3.4951,2.83.5068-.692-2.6212-19.1113,24.02-2.7129,3.41a1.6014,1.6014,0,0,0,.3174,2.4631l17.2494,11.701,2.4465,1.66c1.6749,1.1361,3.2461-1.58,1.5831-2.7084l-17.2494-11.701-2.4465-1.6595.3174,2.4631,19.1113-24.02,2.7129-3.41c.655-.8232.5941-2.3908-.6921-2.6212L136.2875,403.24l-2.83-.5068.3747,2.8664,7.1555-4.916,17.2908-11.879L179.1008,374.5l18.0077-12.3716,5.9675-4.1a25.5661,25.5661,0,0,0,2.816-1.9346,1.1924,1.1924,0,0,1,.13-.0894l-2.3038-1.7711-1.835,8.7272-4.38,20.8326-5.3239,25.32L187.5956,430.91l-1.52,7.23a26.7256,26.7256,0,0,0-.7226,3.4364,1.1782,1.1782,0,0,1-.0318.1514l2.8664-.3747-11.8545-19.0383-1.6889-2.7125a1.59,1.59,0,0,0-2.7084,0l-17.571,25.1227-2.4626,3.5211C150.7426,449.9033,153.4606,451.4726,154.61,449.8287Z"/><circle class="cls-3" cx="42.2142" cy="441.6629" r="3.8254"/><circle class="cls-3" cx="55.1249" cy="437.8375" r="3.8254"/><circle class="cls-3" cx="69.9482" cy="433.0558" r="3.8254"/><line x1="247.8285" y1="378.0659" x2="261.2174" y2="373.7624"/><path d="M248.2454,379.5782l11.7089-3.7636,1.68-.54a1.6022,1.6022,0,0,0,1.0953-1.9292A1.5852,1.5852,0,0,0,260.8,372.25l-11.7089,3.7636-1.68.54a1.6021,1.6021,0,0,0-1.0954,1.9292,1.5852,1.5852,0,0,0,1.9292,1.0953Z"/><circle class="cls-10" cx="277.5891" cy="341.9893" r="66.7051"/><path d="M336.5925,369.5974a65.0588,65.0588,0,1,1,3.5441-9.3916,65.6048,65.6048,0,0,1-3.5441,9.3916c-.8495,1.8177,1.8535,3.4122,2.7083,1.5831a68.0156,68.0156,0,1,0-5.1645,9.0782,68.885,68.885,0,0,0,5.1645-9.0782C340.16,369.366,337.457,367.7723,336.5925,369.5974Z"/><path d="M306.9545,355.6521a115.0612,115.0612,0,0,1-20.1455,30.1958c-6.2494,6.5866-13.8128,12.8524-22.6441,15.5312-6.771,2.0539-14.0611,1.3052-19.1761-3.96-6.45-6.64-7.7626-17.0657-7.6628-25.8926.1486-13.134,3.6451-26.211,8.6986-38.2666a118.9742,118.9742,0,0,1,19.6784-32.1956c6.1682-7.0729,13.5856-13.8346,22.3868-17.4262,6.5282-2.664,14.148-3.32,20.0768,1.1195,7.127,5.3373,9.2166,15.3274,9.6157,23.7022.6029,12.6507-2.2757,25.3838-6.6349,37.1925-1.2528,3.3939-2.6587,6.7243-4.1929,10-.851,1.8172,1.8521,3.4116,2.7084,1.5831,6.0227-12.8611,10.3192-26.7706,11.1876-41.0065.6031-9.8857-.32-21.3139-6.459-29.5289a20.5814,20.5814,0,0,0-9.6037-7.2455,22.1985,22.1985,0,0,0-11.2658-.6849c-9.1484,1.6135-17.2994,7.4778-23.9239,13.7079-8.9659,8.4323-16.1563,18.7725-21.8081,29.6644a119.6975,119.6975,0,0,0-13.0423,40.9134c-1.2182,10.4146-.9643,22.1753,4.3065,31.5548,4.0319,7.175,11.3282,11.5459,19.6225,10.9726,9.0082-.6227,17.189-5.721,23.9153-11.4124,9.1311-7.7263,16.4983-17.5541,22.3919-27.91q2.5153-4.42,4.679-9.0253C310.5205,355.42,307.8172,353.8262,306.9545,355.6521Z"/><path d="M284.54,327.1693c15.056,7.05,31.979,12.0477,48.7576,11.2563a54.0591,54.0591,0,0,0,11.084-1.6157,1.5794,1.5794,0,0,0,1.1514-1.5123A68.2859,68.2859,0,0,0,239.7715,285.14a1.62,1.62,0,0,0-.5626,2.1457,61.0258,61.0258,0,0,0,11.8935,16.667,105.35,105.35,0,0,0,19.483,15.5811,130.665,130.665,0,0,0,13.9546,7.6356c1.815.8578,3.4089-1.8455,1.5831-2.7084-14.5714-6.8865-28.9078-16.4563-38.6472-29.524a51.475,51.475,0,0,1-5.5587-9.2344l-.5626,2.1458a65.168,65.168,0,0,1,101.0418,47.4493l1.1514-1.5122c-14.1122,3.6792-29.6637.7992-43.2425-3.6714a127.3768,127.3768,0,0,1-14.1822-5.6531C284.3059,323.61,282.7115,326.313,284.54,327.1693Z"/><path d="M316.1,396.604c-6.1257-13.1533-17.9822-23.4106-29.9233-31.18-15.167-9.8687-32.7107-16.8729-50.7059-19.1653-8.1667-1.04-16.6571-1.0627-24.66,1.0681a1.58,1.58,0,0,0-1.1514,1.5123A68.2855,68.2855,0,0,0,315.5377,398.75c1.6732-1.1124.1043-3.83-1.5831-2.7083a65.1689,65.1689,0,0,1-101.1579-47.2026l-1.1514,1.5123a59.6132,59.6132,0,0,1,20.8086-1.2889A104.928,104.928,0,0,1,257.56,354.809c15.7774,5.566,30.9951,14.231,42.9839,25.9959a60.6779,60.6779,0,0,1,12.8477,17.3822C314.2434,400.0153,316.9481,398.4243,316.1,396.604Z"/><path d="M304.5263,280.7894l-5.6574,12.0238-13.5832,28.8683-16.3739,34.7994-14.2,30.1779c-2.2964,4.8806-4.65,9.7385-6.8908,14.6451-.0307.0672-.0629.1337-.0944.2006-.8545,1.816,1.8487,3.41,2.7084,1.583l5.6575-12.0238,13.5832-28.8683L286.05,327.396,300.25,297.2181c2.2964-4.8806,4.65-9.7385,6.8908-14.6451.0307-.0672.0629-.1337.0944-.2006.8545-1.816-1.8486-3.41-2.7084-1.583Z"/><path d="M216.3318,314.893l12.0238,5.6575,28.8684,13.5832,34.7994,16.3739,30.1779,14.1994c4.88,2.2964,9.7384,4.6506,14.6451,6.8909.0672.0306.1337.0629.2.0943,1.8161.8545,3.41-1.8486,1.5831-2.7083l-12.0238-5.6575-28.8684-13.5832-34.7993-16.3739L232.7605,319.17c-4.8805-2.2964-9.7384-4.6506-14.645-6.8909-.0672-.0306-.1338-.0629-.2006-.0943-1.8161-.8545-3.41,1.8486-1.5831,2.7083Z"/><path d="M239.7607,503.1537a215.92,215.92,0,0,1,.3891,44.0451,140.23,140.23,0,0,1-7.8666,35.22c-3.3407,8.9133-7.91,17.5886-14.25,24.7468-5.0735,5.728-11.3717,10.5338-18.7269,12.8711a35.106,35.106,0,0,1-21.7-.3351c-8.8444-2.908-16.5291-8.6767-23.0457-15.201-5.0524-5.0583-9.4647-10.7341-14.0768-16.1854q-7.4951-8.859-15.1017-17.6229-11.2408-12.9349-22.8327-25.5608c-4.6067-4.9848-9.2694-9.9214-14.0612-14.7293-2.662-2.671-5.2558-5.437-9.18-6.1117a12.2631,12.2631,0,0,0-14.0934,9.4619,17.5561,17.5561,0,0,0,.3815,6.9086c.3831,1.98,3.4068,1.1416,3.0246-.8338-.4415-2.2812-.7962-4.4079.0119-6.6752a9.048,9.048,0,0,1,6.1452-5.6272,9.15,9.15,0,0,1,8.7493,2.3783c.7136.6893,1.4157,1.3911,2.118,2.0919,4.6138,4.6043,9.1014,9.3352,13.5354,14.1123,7.5123,8.0936,14.8593,16.34,22.1184,24.6612q7.4385,8.5267,14.7569,17.1575c4.8645,5.73,9.5092,11.7077,14.6917,17.1561,6.6571,6.9988,14.46,13.1363,23.495,16.7257A39.1014,39.1014,0,0,0,197.05,623.892a42.69,42.69,0,0,0,20.0052-11.1832c6.7154-6.42,11.7631-14.4866,15.559-22.9173a128.3887,128.3887,0,0,0,9.4644-33.111,199.0375,199.0375,0,0,0,1.7585-42.1508q-.3357-5.6984-.94-11.376c-.2087-1.9872-3.3475-2.0086-3.1366,0Z"/><path d="M170.8492,316.8926l17.2212,6.0355,2.4384.8546c1.9088.6689,2.73-2.36.8339-3.0245l-17.2213-6.0355-2.4384-.8546c-1.9088-.6689-2.73,2.36-.8338,3.0245Z"/><path d="M175.5632,343.2371l11.365-3.4625,1.6524-.5034c1.9255-.5866,1.1046-3.6151-.8338-3.0245l-11.3651,3.4624-1.6524.5034c-1.9255.5867-1.1046,3.6151.8339,3.0246Z"/><path d="M185.7464,297.09l6.95,10.5894,1.0037,1.5294a1.604,1.604,0,0,0,2.1458.5626,1.5845,1.5845,0,0,0,.5626-2.1457l-6.95-10.5894-1.0038-1.5293a1.6038,1.6038,0,0,0-2.1457-.5627,1.5846,1.5846,0,0,0-.5626,2.1457Z"/><path d="M797.9181,770.1609c3.718-2.3322,7.71-5.2893,10.0915-9.03.9283-1.458,1.6028-3.3421-.0171-4.58-1.4029-1.0723-3.5071-1.1466-5.1974-1.1686a30.34,30.34,0,0,0-4.4357.2767l.8855,1.152a85.9183,85.9183,0,0,0,4.9078-7.5063,51.01,51.01,0,0,0,3.2143-6.3357,13.6762,13.6762,0,0,0,1.3464-5.6978c-.1957-3.8236-4.1908-4.5047-6.9256-2.5882-3.7958,2.66-6.1591,7.44-8.1308,11.4921a92.967,92.967,0,0,0-4.21,10.0316l1.54.2085c.1757-4.6624.1474-9.3418-.0045-14.0039-.1244-3.8167-.3478-7.6367-.8036-11.4294a40.1972,40.1972,0,0,0-2.0564-9.6981c-.6969-1.8028-1.81-4.0551-3.9331-4.4086-2.3281-.3875-4.12,1.6693-5.0862,3.5182a29.5085,29.5085,0,0,0-2.5968,9.4413A106.7223,106.7223,0,0,0,775.54,742.12c-.1659,5.8019-.0967,11.6377.2877,17.4312l1.4612-.3958c-1.5349-3.0659-3.2217-6.07-5.0316-8.9811a47.5771,47.5771,0,0,0-4.2931-6.0426c-.9821-1.1365-2.3232-2.6563-3.9227-2.829-3.8147-.412-1.8011,5.1138-1.1044,6.7789a90.1189,90.1189,0,0,0,7.21,13.0628c1.8627,2.9531,3.7815,5.8766,5.7872,8.735.5754.82,1.9357.0372,1.3542-.7915a156.6013,156.6013,0,0,1-11.4222-18.4363,29.7468,29.7468,0,0,1-2.2815-5.372,5.3392,5.3392,0,0,1-.289-1.7522c.0256-.3892.0478-.5767.2876-.6525.9581-.3028,2.3945,1.3827,3.0066,2.0645a40.6023,40.6023,0,0,1,3.9863,5.5057c1.94,3.07,3.7319,6.2536,5.358,9.5018a.79.79,0,0,0,1.4612-.3957c-.2987-4.5028-.3836-9.0293-.3545-13.54.0471-7.2886.1462-15.0495,2.3239-22.07.5849-1.8858,1.5314-4.699,3.6185-5.42,1.7336-.5986,2.8238,1.3056,3.44,2.7212a33.1039,33.1039,0,0,1,2.0745,8.8425c.4805,3.6288.72,7.29.8663,10.9461.2049,5.12.2475,10.2628.0545,15.3842-.0348.9233,1.2607,1.0106,1.54.2084.8677-2.4894,1.8816-4.9362,2.9656-7.3381,1.8485-4.0958,3.92-8.4434,7.0131-11.7617,1.0091-1.0825,2.3626-2.3571,3.9378-2.4082a2.0837,2.0837,0,0,1,2.26,2.0073,11.264,11.264,0,0,1-1.115,5.0193,45.7271,45.7271,0,0,1-2.9871,5.9666,85.411,85.411,0,0,1-5.143,7.9106c-.4615.6273.3,1.2307.8856,1.1519-.44.0593.1449-.0159.245-.0262.3421-.035.6841-.0693,1.0269-.0962.9481-.0744,1.9005-.1138,2.8516-.097,1.0687.0189,4.4715-.04,4.5473,1.5871.0518,1.1121-1.2431,2.5137-1.9144,3.2979a29.6442,29.6442,0,0,1-3.648,3.5043,44.8959,44.8959,0,0,1-4.7582,3.4659c-.853.5351-.0668,1.8926.7916,1.3542Z"/></svg>